<?xml version="1.0" encoding="utf-8"?>
<!-- Generator: Adobe Illustrator 21.0.0, SVG Export Plug-In . SVG Version: 6.00 Build 0)  -->
<svg version="1.1" id="Layer_1" xmlns="http://www.w3.org/2000/svg" xmlns:xlink="http://www.w3.org/1999/xlink" x="0px" y="0px"
	 viewBox="0 0 175 122" style="enable-background:new 0 0 175 122;" xml:space="preserve">
<style type="text/css">
	.st0{opacity:0.5;}
	.st1{fill:url(#SVGID_1_);}
</style>
<g>
	<g class="st0">
		<g>
			<polygon points="46.4,25.3 63.6,25.3 61.9,23.6 44.7,23.6 44.7,27.9 46.3,29.6 			"/>
			<polygon points="46.1,38.2 89.1,38.2 87.5,36.5 44.5,36.5 44.4,40.8 46,42.5 			"/>
			<polygon points="67.9,25.3 76.5,25.3 74.8,23.6 66.2,23.6 66.1,27.9 67.8,29.6 			"/>
			<polygon points="45.9,51.1 71.7,51.1 70,49.4 44.2,49.4 44.1,53.7 45.8,55.4 			"/>
			<polygon points="45.6,64 86.5,64 84.8,62.3 44,62.3 43.9,66.6 45.5,68.3 			"/>
			<polygon points="74.2,53.7 75.9,55.4 76,51.1 99.6,51.1 98,49.4 74.3,49.4 			"/>
			<path d="M107.2,19.6L107.2,19.6c0,0.1,0,0.2,0,0.3c0,0,0,0,0,0.1s0.1,0.2,0.1,0.3l0,0c0,0.1,0.1,0.2,0.1,0.2s0,0,0,0.1
				s0.1,0.2,0.2,0.2l0,0l0.1,0.1l0,0l1.6,1.7l-0.1-0.1c-0.1-0.1-0.1-0.1-0.2-0.2c0,0,0,0,0-0.1s-0.1-0.1-0.1-0.2l0,0
				c0-0.1-0.1-0.2-0.1-0.3c0,0,0,0,0-0.1s0-0.2,0-0.3l0,0c0-0.1,0-0.2,0-0.2l0.4-19.3L107.5,0l-0.4,19.3
				C107.1,19.4,107.1,19.5,107.2,19.6L107.2,19.6z"/>
			<polygon points="93.4,38.2 112.7,38.2 111.1,36.5 91.8,36.5 91.7,40.8 93.3,42.5 			"/>
			<polygon points="44.9,102.7 64.2,102.7 62.6,101 43.2,101 43.1,105.3 44.8,107 			"/>
			<polygon points="73.2,81.2 73.3,76.9 71.7,75.2 43.7,75.2 43.6,79.5 45.3,81.2 			"/>
			<polygon points="66.5,94.1 66.6,89.8 65,88.1 43.5,88.1 43.4,92.4 45,94.1 			"/>
			<polygon points="116.8,75.2 113.4,75.2 115,76.9 118.4,76.9 			"/>
			<polygon points="101.9,89.8 118.2,89.8 116.5,88.1 100.2,88.1 			"/>
			<path d="M72.1,84.4c-0.1,0.1-0.1,0.2-0.2,0.2l0,0c0,0,0,0.1-0.1,0.1l-0.1,0.1l0,0c0,0,0,0.1-0.1,0.1c0,0,0,0.1-0.1,0.1l0,0
				c0,0.1-0.1,0.2-0.1,0.2l-4.6,17.2l0,0v0.1c0,0.1,0,0.1,0,0.2l0,0c0,0.1,0,0.1,0,0.2l0,0c0,0.1,0,0.1,0,0.2l0,0c0,0.1,0,0.1,0,0.2
				v0.1c0,0.1,0.1,0.2,0.1,0.3c0,0,0,0,0,0.1s0.1,0.1,0.1,0.2c0,0,0,0.1,0.1,0.1c0,0.1,0.1,0.1,0.1,0.2l0,0l0.1,0.1l1.6,1.7
				c-0.1-0.1-0.1-0.1-0.1-0.2s-0.1-0.1-0.1-0.2c0,0,0-0.1-0.1-0.1c0-0.1-0.1-0.1-0.1-0.2c0,0,0,0,0-0.1s-0.1-0.2-0.1-0.3v-0.1
				c0-0.1,0-0.1,0-0.2s0-0.2,0-0.2l0,0c0-0.1,0-0.2,0-0.2c0-0.1,0-0.1,0-0.2V104L73,86.8c0-0.1,0.1-0.2,0.1-0.3c0,0,0-0.1,0.1-0.1
				c0,0,0-0.1,0.1-0.1l0.1-0.1c0,0,0-0.1,0.1-0.1c0.1-0.1,0.1-0.2,0.2-0.2l54.3-53c0.6-0.6,1.3-1.1,2.1-1.6l0.2-8.2l-1.6-1.7
				l-0.2,8.2c-0.7,0.4-1.4,1-2.1,1.6L72.1,84.4z"/>
			<polygon points="126.7,120.3 32.1,120.3 33.7,122 128.3,122 129.5,62.7 127.8,61.1 			"/>
			<polygon points="112.5,18.4 126.7,18.4 112.8,4.2 111.1,2.5 125,16.7 110.9,16.7 			"/>
			<polygon points="124.3,39.6 134,49.5 86.7,95.9 88.3,97.5 135.6,51.2 126,41.3 			"/>
			<polygon points="74.3,102.2 84.4,99.7 77,92.2 75.3,90.5 82.7,98 72.6,100.5 			"/>
			<path d="M142.9,40.5L142.9,40.5c0-0.2,0-0.3,0-0.5v-0.1c0,0,0,0,0-0.1s0-0.2,0-0.2c0-0.1,0-0.1,0-0.2c0-0.1,0-0.2-0.1-0.3
				c0-0.1,0-0.1,0-0.2c0-0.1-0.1-0.2-0.1-0.3s0-0.1,0-0.2c-0.1-0.2-0.1-0.3-0.2-0.5c-0.1-0.2-0.1-0.3-0.2-0.4v-0.1
				c-0.1-0.1-0.1-0.3-0.2-0.4c0,0,0,0,0-0.1c-0.1-0.1-0.2-0.2-0.2-0.4c0,0,0-0.1-0.1-0.1c-0.1-0.1-0.2-0.2-0.3-0.4l0,0l0,0
				c-0.1-0.1-0.2-0.3-0.4-0.4l-1.6-1.7c0.1,0.1,0.2,0.3,0.4,0.4c0,0,0,0,0.1,0.1s0.2,0.2,0.3,0.4c0,0,0,0.1,0.1,0.1
				c0.1,0.1,0.2,0.2,0.2,0.4c0,0,0,0,0,0.1c0.1,0.1,0.2,0.3,0.2,0.4v0.1c0.1,0.1,0.1,0.3,0.2,0.4c0.1,0.2,0.1,0.3,0.2,0.5
				c0,0.1,0,0.1,0,0.2c0,0.1,0.1,0.2,0.1,0.3s0,0.1,0,0.2c0,0.1,0,0.2,0.1,0.3c0,0.1,0,0.1,0,0.2c0,0.1,0,0.2,0,0.3v0.1
				c0,0.1,0,0.3,0,0.4c0,0,0,0,0,0.1s0,0.3,0,0.4v0.1c0,0.1,0,0.2,0,0.3s0,0.2,0,0.3s0,0.2,0,0.2c0,0.1,0,0.2-0.1,0.2
				c0,0.1,0,0.2-0.1,0.3c0,0.1,0,0.1-0.1,0.2c0,0.1-0.1,0.2-0.1,0.3s0,0.1-0.1,0.2c0,0.1-0.1,0.2-0.1,0.3s0,0.1-0.1,0.2
				c-0.1,0.1-0.1,0.3-0.2,0.4l0,0c-0.1,0.1-0.2,0.3-0.3,0.4l-0.1,0.1c-0.1,0.1-0.1,0.2-0.2,0.3c-0.1,0.1-0.1,0.2-0.2,0.3l-0.1,0.1
				c-0.1,0.1-0.2,0.3-0.4,0.4l-2.3,2.3l1.6,1.7l2.3-2.3c0.1-0.1,0.3-0.3,0.4-0.4l0.1-0.1c0.1-0.1,0.2-0.2,0.2-0.3l0,0
				c0.1-0.1,0.1-0.2,0.2-0.3l0.1-0.1c0.1-0.1,0.2-0.3,0.3-0.4l0,0l0,0c0.1-0.1,0.1-0.3,0.2-0.4c0-0.1,0-0.1,0.1-0.2
				c0-0.1,0.1-0.2,0.1-0.2s0,0,0-0.1s0-0.1,0.1-0.2c0-0.1,0.1-0.2,0.1-0.3s0-0.1,0.1-0.2c0-0.1,0-0.1,0-0.2v-0.1
				c0-0.1,0-0.2,0.1-0.2c0-0.1,0-0.2,0-0.2c0-0.1,0-0.2,0-0.3s0-0.1,0-0.2v-0.1V41C142.9,40.8,142.9,40.7,142.9,40.5z"/>
		</g>
	</g>
	
		<linearGradient id="SVGID_1_" gradientUnits="userSpaceOnUse" x1="22.35" y1="111.85" x2="128.6" y2="5.6" gradientTransform="matrix(1 0 0 -1 0 124)">
		<stop  offset="5.405406e-03" style="stop-color:#CC91AB"/>
		<stop  offset="6.954110e-02" style="stop-color:#CC799D"/>
		<stop  offset="0.1649" style="stop-color:#CC5C8D"/>
		<stop  offset="0.2598" style="stop-color:#CC4881"/>
		<stop  offset="0.3531" style="stop-color:#CC3B79"/>
		<stop  offset="0.4432" style="stop-color:#CC3777"/>
	</linearGradient>
	<path class="st1" d="M116.8,75.2l-0.1,4.3H109l-8.8,8.6h16.3l-0.1,4.3H95.9l-8.1,8c-0.3,0.3-0.6,0.5-1,0.6l-17.3,4.3
		c-0.2,0-0.3,0.1-0.5,0.1c-0.6,0-1.1-0.2-1.5-0.6c-0.5-0.5-0.7-1.3-0.5-2l4.6-17.2c0.1-0.4,0.3-0.7,0.6-1l54.2-53.2
		c0.6-0.6,1.3-1.1,2.1-1.6l0.2-8.2h-19.3c-1.2,0-2.1-1-2.1-2.1L107.5,0h-73l-2.4,120.3h94.6l1.2-59.3l-14.4,14.2
		C113.5,75.2,116.8,75.2,116.8,75.2z M97.9,53.7H74.2l0.1-4.3H98L97.9,53.7z M91.8,36.5h19.3l-0.1,4.3H91.7L91.8,36.5z M66.2,23.6
		h8.6l-0.1,4.3h-8.6L66.2,23.6z M44.7,23.6h17.2l-0.1,4.3H44.7V23.6z M44.5,36.5h43l-0.1,4.3h-43L44.5,36.5z M44.2,49.4H70l-0.1,4.3
		H44.1L44.2,49.4z M44,62.3h40.8l-0.1,4.3H43.9L44,62.3z M62.5,105.3H43.1l0.1-4.3h19.3L62.5,105.3z M125,16.7h-14.2l0.3-14.2
		L125,16.7z M124.3,39.6l9.7,9.9L86.7,95.9L77,86L124.3,39.6z M82.7,98l-10.1,2.5l2.7-10L82.7,98z M139.1,43.9l-2.3,2.3l-9.7-9.9
		l2.3-2.3c1.3-1.3,3.1-2,4.9-2c2.8,0,5.3,1.7,6.4,4.3C141.8,38.9,141.2,41.9,139.1,43.9z"/>
</g>
</svg>
