<?xml version="1.0" encoding="utf-8"?>
<!-- Generator: Adobe Illustrator 21.0.0, SVG Export Plug-In . SVG Version: 6.00 Build 0)  -->
<svg version="1.1" id="Layer_1" xmlns="http://www.w3.org/2000/svg" xmlns:xlink="http://www.w3.org/1999/xlink" x="0px" y="0px"
	 viewBox="0 0 175 122" style="enable-background:new 0 0 175 122;" xml:space="preserve">
<style type="text/css">
	.st0{opacity:0.5;}
	.st1{fill:url(#SVGID_1_);}
</style>
<g>
	<g class="st0">
		<path d="M26,64C26,64,26,63.9,26,64c0-0.1,0-0.2,0-0.2s0,0,0-0.1s0-0.1,0-0.2l0,0c0-0.1,0.1-0.1,0.1-0.2l0,0l0.1-0.1
			c0,0,0,0,0.1-0.1l0.1-0.1l0,0c0.1,0,0.1-0.1,0.2-0.1l0,0c0.1,0,0.1-0.1,0.2-0.1l22.8-6.3l53.9-14.9l5.8-1.6c0.1,0,0.2,0,0.3,0
			c0.3,0,0.6,0.1,0.9,0.4l-1.8-1.8c-0.2-0.2-0.6-0.4-0.9-0.4c-0.1,0-0.2,0-0.3,0l-5.8,1.6L47.9,54.6l-22.8,6.3c-0.1,0-0.1,0-0.2,0.1
			l0,0c-0.1,0-0.1,0.1-0.2,0.1l0,0c0,0,0,0-0.1,0.1c0,0,0,0,0,0.1c0,0,0,0-0.1,0.1l0,0c0,0,0,0.1-0.1,0.1l0,0l0,0
			c0,0-0.1,0.1-0.1,0.2l0,0l0,0v0.1c0,0,0,0,0,0.1c0,0,0,0,0,0.1l0,0v0.1v0.1l0,0c0,0.1,0,0.1,0,0.2l2.6,10.1l1.8,1.8L26,64.2
			C26,64.1,26,64.1,26,64z"/>
		<path d="M113.1,35.3c0.1,0.1,0.1,0.2,0.2,0.3l0,0c0.1,0.1,0.1,0.2,0.2,0.3c0,0,0,0.1,0.1,0.1c0,0.1,0.1,0.2,0.1,0.2s0,0.1,0.1,0.1
			c0,0.1,0.1,0.2,0.1,0.2s0,0.1,0.1,0.1c0,0.1,0.1,0.2,0.1,0.3V37c0,0.1,0.1,0.3,0.1,0.4l1.3,5.1l1.8,1.8l-1.3-5.1
			c0-0.1-0.1-0.3-0.1-0.4v-0.1c0-0.1-0.1-0.2-0.1-0.3c0,0,0-0.1-0.1-0.1c0-0.1-0.1-0.2-0.1-0.2s0-0.1-0.1-0.1c0-0.1-0.1-0.2-0.1-0.2
			s0-0.1-0.1-0.1c-0.1-0.1-0.1-0.2-0.2-0.3l0,0c-0.1-0.1-0.1-0.2-0.2-0.3l-0.1-0.1l-0.1-0.1l0,0c-0.1-0.1-0.2-0.3-0.3-0.4l-1.8-1.8
			c0.1,0.1,0.2,0.2,0.3,0.4C113,35.1,113,35.1,113.1,35.3C113.1,35.2,113.1,35.2,113.1,35.3z"/>
		<path d="M37.6,114.1C37.6,114.2,37.6,114.2,37.6,114.1c0.1,0.1,0.1,0.2,0.1,0.2l0,0c0,0,0,0.1,0.1,0.1l1.8,1.8l-0.1-0.1
			c0-0.1-0.1-0.1-0.1-0.2l0,0c0-0.1-0.1-0.1-0.1-0.2l-7.8-30.1l84.9-23.4l-1.8-1.8L29.7,83.9L37.6,114.1
			C37.5,114,37.5,114.1,37.6,114.1z"/>
		<path d="M55.2,102.6L55.2,102.6v0.2v0.1v0.1c0,0.1,0,0.2-0.1,0.3l0,0c0,0.1-0.1,0.2-0.1,0.3v0.1c0,0.1-0.1,0.2-0.1,0.2s0,0,0,0.1
			c-0.1,0.1-0.1,0.2-0.2,0.3l0,0c-0.1,0.1-0.2,0.2-0.3,0.3l0,0c-0.1,0.1-0.1,0.1-0.2,0.2c0,0,0,0-0.1,0.1c-0.1,0-0.1,0.1-0.2,0.1
			c0,0-0.1,0-0.1,0.1c-0.1,0-0.1,0.1-0.2,0.1h-0.1c-0.1,0-0.2,0.1-0.3,0.1l-9.6,2.7c-0.2,0.1-0.5,0.1-0.7,0.1
			c-0.7,0-1.4-0.3-1.9-0.8l1.8,1.8c0.5,0.5,1.2,0.8,1.9,0.8c0.2,0,0.5,0,0.7-0.1l9.6-2.7c0.1,0,0.2-0.1,0.3-0.1h0.1
			c0.1,0,0.1-0.1,0.2-0.1c0,0,0.1,0,0.1-0.1c0.1,0,0.1-0.1,0.2-0.1c0,0,0,0,0.1-0.1s0.2-0.1,0.2-0.2l0,0l0,0
			c0.1-0.1,0.2-0.2,0.3-0.3l0,0l0,0c0.1-0.1,0.1-0.2,0.2-0.3l0,0l0,0c0-0.1,0.1-0.1,0.1-0.2l0,0l0,0c0-0.1,0.1-0.2,0.1-0.3l0,0l0,0
			c0-0.1,0-0.2,0.1-0.3l0,0c0,0,0,0,0-0.1v-0.1v-0.1v-0.1c0,0,0,0,0-0.1v-0.1v-0.1c0-0.1,0-0.2,0-0.2l-2.5-9.6
			c0-0.1-0.1-0.2-0.1-0.3v-0.1c0-0.1-0.1-0.1-0.1-0.2c0,0,0-0.1-0.1-0.1c0-0.1-0.1-0.1-0.1-0.2c0,0,0-0.1-0.1-0.1l0,0
			c0-0.1-0.1-0.1-0.2-0.2L52,91.4c0.1,0.1,0.1,0.1,0.2,0.2c0,0,0,0.1,0.1,0.1c0,0.1,0.1,0.1,0.1,0.2c0,0,0,0.1,0.1,0.1
			c0,0.1,0.1,0.1,0.1,0.2v0.1c0,0.1,0.1,0.2,0.1,0.3l2.5,9.6c0,0.1,0,0.2,0,0.2v0.1C55.2,102.5,55.2,102.6,55.2,102.6z"/>
		<path d="M156.2,25.8v-0.1c0-0.2,0-0.3,0-0.5c0,0,0,0,0-0.1l0,0c0-0.2,0-0.3-0.1-0.4v-0.1c0-0.1,0-0.2-0.1-0.3c0-0.1,0-0.1,0-0.2
			s-0.1-0.2-0.1-0.3c0-0.1,0-0.1-0.1-0.2c0-0.1-0.1-0.2-0.1-0.3c0,0,0-0.1-0.1-0.1c0-0.1-0.1-0.2-0.2-0.3c0,0,0,0,0-0.1
			c-0.1-0.1-0.1-0.3-0.2-0.4c0,0,0-0.1-0.1-0.1c-0.1-0.1-0.1-0.2-0.2-0.3l-0.1-0.1c-0.1-0.1-0.1-0.2-0.2-0.2c0,0,0-0.1-0.1-0.1l0,0
			c-0.1-0.1-0.2-0.3-0.3-0.4l-1.8-1.8c0.1,0.1,0.2,0.2,0.3,0.4l0.1,0.1c0.1,0.1,0.1,0.2,0.2,0.2l0.1,0.1c0.1,0.1,0.1,0.2,0.2,0.3
			c0,0,0,0.1,0.1,0.1c0.1,0.1,0.1,0.3,0.2,0.4c0,0,0,0,0,0.1c0.1,0.1,0.1,0.2,0.2,0.3c0,0,0,0.1,0.1,0.1c0,0.1,0.1,0.2,0.1,0.3
			c0,0.1,0,0.1,0.1,0.2c0,0.1,0.1,0.2,0.1,0.3c0,0.1,0,0.1,0,0.2s0,0.2,0.1,0.3v0.1c0,0.1,0,0.3,0.1,0.4v0.1c0,0.1,0,0.3,0,0.5V24
			c0,0.2,0,0.4,0,0.5s0,0.2,0,0.4c0,0,0,0,0,0.1s-0.1,0.3-0.1,0.4l-1.8,10.1L57.6,15.2l1.8,1.8l94.9,20.2l1.8-10.1
			c0-0.1,0.1-0.3,0.1-0.4C156.2,26.4,156.2,26.1,156.2,25.8z"/>
		<path d="M125,66.3C125,66.3,125,66.2,125,66.3c0-0.2,0-0.3,0-0.4s0-0.2,0.1-0.3l2.2-9.6v-0.1c0-0.1,0.1-0.2,0.1-0.3c0,0,0,0,0-0.1
			s0.1-0.2,0.1-0.3l0,0c0.1-0.1,0.1-0.2,0.2-0.3l0,0c0.1-0.1,0.2-0.2,0.3-0.3l0,0l0.1-0.1l0,0c0.1-0.1,0.1-0.1,0.2-0.1
			c0,0,0,0,0.1,0s0.1-0.1,0.2-0.1h0.1c0,0,0.1,0,0.1-0.1h0.1c0,0,0.1,0,0.1-0.1h0.1h0.1h0.1c0.1,0,0.1,0,0.2,0h0.1
			c0.1,0,0.2,0,0.2,0c0.2,0,0.4,0,0.5,0.1l9.6,2c0.5,0.1,1,0.4,1.3,0.7l-1.8-1.8c-0.3-0.3-0.8-0.6-1.3-0.7l-9.6-2
			c-0.2,0-0.4-0.1-0.5-0.1c-0.1,0-0.2,0-0.2,0h-0.1c-0.1,0-0.1,0-0.2,0h-0.1h-0.1h-0.1c0,0-0.1,0-0.1,0.1H127c0,0-0.1,0-0.1,0.1
			h-0.1c-0.1,0-0.1,0.1-0.2,0.1c0,0,0,0-0.1,0s-0.1,0.1-0.2,0.1l0,0c-0.1,0-0.1,0.1-0.1,0.1l0,0l0,0c-0.1,0.1-0.2,0.2-0.3,0.3l0,0
			l0,0c-0.1,0.1-0.1,0.2-0.2,0.3l0,0l0,0c0,0.1-0.1,0.2-0.1,0.3l0,0l0,0c0,0.1-0.1,0.2-0.1,0.3l0,0l0,0l-2.2,9.6
			c0,0.1,0,0.2-0.1,0.3l0,0c0,0.1,0,0.2,0,0.3v0.1v0.1c0,0.1,0,0.1,0,0.2l0,0c0,0.1,0,0.2,0.1,0.3c0,0,0,0,0,0.1s0.1,0.2,0.1,0.3
			l0,0c0,0.1,0.1,0.2,0.1,0.2l0,0c0,0.1,0.1,0.2,0.2,0.2l0,0c0,0,0,0,0,0.1s0.1,0.1,0.2,0.2l1.8,1.8c-0.1-0.1-0.1-0.1-0.2-0.2l0,0
			c-0.1-0.1-0.1-0.2-0.2-0.2l0,0c0-0.1-0.1-0.2-0.1-0.2l0,0c0-0.1-0.1-0.2-0.1-0.3c0,0,0,0,0-0.1s0-0.2-0.1-0.3l0,0
			C125,66.5,125,66.4,125,66.3z"/>
		<path d="M142.2,77.2c0,0.2-0.1,0.4-0.2,0.5v0.1c0,0.1-0.1,0.3-0.2,0.4c0,0,0,0.1-0.1,0.1c-0.1,0.1-0.1,0.2-0.2,0.3
			c0,0,0,0.1-0.1,0.1c-0.1,0.2-0.2,0.3-0.3,0.4l0,0c-0.1,0.1-0.2,0.3-0.3,0.4s-0.1,0.1-0.2,0.2c-0.1,0.1-0.1,0.1-0.2,0.2
			c-0.1,0.1-0.1,0.1-0.2,0.2c-0.1,0.1-0.1,0.1-0.2,0.2c0,0,0,0-0.1,0.1s-0.2,0.2-0.4,0.3l0,0c-0.1,0.1-0.3,0.2-0.4,0.3l0,0
			c-0.1,0.1-0.3,0.2-0.4,0.2h-0.1c-0.1,0.1-0.3,0.1-0.4,0.2h-0.1c-0.2,0.1-0.3,0.1-0.5,0.2l0,0c-0.2,0.1-0.3,0.1-0.5,0.1
			c0,0,0,0-0.1,0c-0.2,0-0.3,0.1-0.5,0.1h-0.1c-0.2,0-0.3,0-0.5,0.1h-0.1c-0.2,0-0.3,0-0.5,0c-0.4,0-0.9,0-1.3-0.1l-9.2-1.9l2.3,8.9
			c0,0.2,0.1,0.3,0.1,0.5v0.1c0,0.2,0,0.3,0.1,0.5c0,0,0,0,0,0.1c0,0.2,0,0.4,0,0.5l0,0c0,0.2,0,0.4,0,0.6l0,0c0,0.1,0,0.3-0.1,0.4
			v0.1c0,0.1,0,0.2-0.1,0.4l0,0c0,0.1-0.1,0.3-0.1,0.4v0.1c0,0.1-0.1,0.2-0.1,0.3v0.1c0,0.1-0.1,0.2-0.2,0.4l0,0
			c-0.1,0.1-0.1,0.2-0.2,0.3c0,0,0,0.1-0.1,0.1c-0.1,0.1-0.1,0.2-0.2,0.3l0,0c-0.1,0.1-0.2,0.2-0.2,0.3c0,0,0,0.1-0.1,0.1
			c-0.1,0.1-0.2,0.3-0.3,0.4l0,0c-0.1,0.1-0.2,0.2-0.3,0.4l0,0c-0.1,0.1-0.2,0.2-0.3,0.2c0,0,0,0-0.1,0.1s-0.1,0.1-0.2,0.2l-0.1,0.1
			c-0.1,0.1-0.1,0.1-0.2,0.1c0,0-0.1,0-0.1,0.1c-0.1,0.1-0.2,0.1-0.3,0.2l0,0c-0.1,0.1-0.2,0.1-0.3,0.2h-0.1c-0.1,0-0.2,0.1-0.2,0.1
			s-0.1,0-0.1,0.1c-0.1,0-0.2,0.1-0.3,0.1h-0.1c-0.1,0-0.2,0.1-0.4,0.1L40,119.6c-0.6,0.2-1.2,0.2-1.7,0.2c-1.7,0-3.4-0.7-4.6-1.9
			l1.8,1.8c1.2,1.2,2.8,1.9,4.6,1.9c0.6,0,1.2-0.1,1.7-0.2L124.6,99c0.1,0,0.2-0.1,0.4-0.1h0.1c0.1,0,0.2-0.1,0.3-0.1
			c0,0,0.1,0,0.1-0.1c0.1,0,0.2-0.1,0.2-0.1h0.1c0.1-0.1,0.2-0.1,0.3-0.2l0,0c0.1-0.1,0.2-0.1,0.3-0.2c0,0,0.1,0,0.1-0.1
			c0.1,0,0.1-0.1,0.2-0.1c0,0,0.1,0,0.1-0.1c0.1-0.1,0.1-0.1,0.2-0.2c0,0,0,0,0.1-0.1s0.2-0.2,0.3-0.2l0,0l0,0
			c0.1-0.1,0.2-0.2,0.3-0.4l0,0c0.1-0.1,0.2-0.3,0.3-0.4l0,0l0,0c0.1-0.1,0.2-0.2,0.2-0.3l0,0c0.1-0.1,0.1-0.2,0.2-0.3l0,0l0,0
			c0.1-0.1,0.1-0.2,0.2-0.3l0,0c0.1-0.1,0.1-0.2,0.2-0.4l0,0c0,0,0,0,0-0.1s0.1-0.2,0.1-0.3v-0.1c0-0.1,0.1-0.3,0.1-0.4l0,0l0,0
			c0-0.1,0.1-0.2,0.1-0.4v-0.1c0-0.1,0-0.3,0.1-0.4l0,0l0,0c0-0.2,0-0.4,0-0.5l0,0c0-0.2,0-0.4,0-0.5l0,0l0,0c0-0.2,0-0.3-0.1-0.5
			v-0.1c0-0.2-0.1-0.3-0.1-0.5l-2.3-8.9l9.2,1.9c0.4,0.1,0.9,0.1,1.3,0.1c0.2,0,0.3,0,0.5,0h0.1c0.2,0,0.3,0,0.5-0.1h0.1
			c0.2,0,0.3-0.1,0.5-0.1c0,0,0,0,0.1,0c0.2,0,0.3-0.1,0.5-0.1l0,0c0.2-0.1,0.3-0.1,0.5-0.2h0.1c0.1-0.1,0.3-0.1,0.4-0.2h0.1
			c0.1-0.1,0.3-0.2,0.4-0.2l0,0c0.1-0.1,0.3-0.2,0.4-0.3l0,0c0.1-0.1,0.3-0.2,0.4-0.3c0,0,0,0,0.1-0.1c0,0,0,0,0.1-0.1
			s0.1-0.1,0.2-0.2c0.1-0.1,0.1-0.1,0.2-0.2c0.1-0.1,0.1-0.1,0.2-0.2c0.1-0.1,0.1-0.1,0.2-0.2l0,0c0.1-0.1,0.2-0.2,0.2-0.3l0,0
			c0.1-0.1,0.2-0.3,0.2-0.4c0,0,0,0,0-0.1c0,0,0-0.1,0.1-0.1c0.1-0.1,0.1-0.2,0.2-0.3c0,0,0-0.1,0.1-0.1v-0.1c0-0.1,0.1-0.2,0.1-0.3
			v-0.1c0-0.1,0.1-0.3,0.1-0.4v-0.1l6.4-27.5l-1.8-1.8L142.2,77.2z"/>
	</g>
	
		<linearGradient id="SVGID_1_" gradientUnits="userSpaceOnUse" x1="43.7147" y1="104.6795" x2="122.751" y2="25.6432" gradientTransform="matrix(1 0 0 -1 0 124)">
		<stop  offset="5.405406e-03" style="stop-color:#E7CDB0"/>
		<stop  offset="0.1416" style="stop-color:#E7B985"/>
		<stop  offset="0.3457" style="stop-color:#E79D49"/>
		<stop  offset="0.4432" style="stop-color:#E79231"/>
	</linearGradient>
	<path class="st1" d="M55.1,102.1c0.4,1.4-0.5,2.9-1.9,3.3l-9.6,2.7c-0.2,0.1-0.5,0.1-0.7,0.1c-1.2,0-2.2-0.8-2.5-2l-2.5-9.6
		c-0.4-1.4,0.5-2.9,1.9-3.3l9.6-2.7c0.2-0.1,0.5-0.1,0.7-0.1c1.2,0,2.2,0.8,2.5,2L55.1,102.1z M149.3,17.6L67.1,0.1
		C66.7,0,66.2,0,65.8,0c-3,0-5.8,2.1-6.5,5.1l-1.8,10.1l94.9,20.2l1.8-10.1C155,21.8,152.8,18.3,149.3,17.6z M115.5,42.6l33,7
		l-6.4,27.5c-0.7,3-3.5,5.1-6.5,5.1c-0.4,0-0.9,0-1.3-0.1l-9.2-1.9l2.3,8.9c0.9,3.5-1.2,7.1-4.7,8.1L40.2,120
		c-0.6,0.2-1.2,0.2-1.7,0.2c-2.9,0-5.5-1.9-6.2-4.8L19,63.8c-0.9-3.5,1.2-7.1,4.7-8.1l25.5-7l4.4-19.2l36.8,7.8l15.8-4.3
		c0.6-0.2,1.2-0.2,1.7-0.2c2.9,0,5.5,1.9,6.2,4.8L115.5,42.6z M125.2,66.9l9.6,2c0.2,0,0.4,0.1,0.5,0.1c1.2,0,2.4-0.9,2.7-2.1
		l2.2-9.6c0.3-1.4-0.6-2.9-2-3.2l-9.6-2c-0.2,0-0.4-0.1-0.5-0.1c-1.2,0-2.4,0.9-2.7,2.1l-2.2,9.6C122.9,65.2,123.8,66.6,125.2,66.9z
		 M26.8,72.5L111.7,49l-2-7.6l-0.6-2.4c-0.1-0.6-0.7-0.9-1.2-0.9c-0.1,0-0.2,0-0.3,0l-5.8,1.6L47.9,54.6l-22.8,6.3
		c-0.6,0.2-1,0.9-0.9,1.5L26.8,72.5z M119.4,79l-4.8-18.5L29.7,83.9l7.8,30.1c0.1,0.6,0.7,0.9,1.2,0.9c0.1,0,0.2,0,0.3,0L121.5,92
		c0.4-0.1,0.6-0.4,0.7-0.6s0.2-0.5,0.1-0.9L119.4,79z"/>
</g>
</svg>
