<?xml version="1.0" encoding="utf-8"?>
<!-- Generator: Adobe Illustrator 21.0.0, SVG Export Plug-In . SVG Version: 6.00 Build 0)  -->
<svg version="1.1" id="Layer_1" xmlns="http://www.w3.org/2000/svg" xmlns:xlink="http://www.w3.org/1999/xlink" x="0px" y="0px"
	 viewBox="0 0 175 122" style="enable-background:new 0 0 175 122;" xml:space="preserve">
<style type="text/css">
	.st0{opacity:0.5;}
	.st1{fill:url(#SVGID_1_);}
</style>
<g>
	<g class="st0">
		<path d="M67,48L67,48c0.2,0,0.3-0.1,0.3-0.1s0.1,0,0.1-0.1c0.1,0,0.2-0.1,0.2-0.1h0.1c0.1-0.1,0.2-0.1,0.3-0.2l0,0c0,0,0,0,0-0.1
			c0.1-0.1,0.1-0.1,0.2-0.2l0,0c0,0,0,0,0-0.1c0,0,0.1-0.1,0.1-0.2c0,0,0,0,0-0.1c0,0,0.1-0.1,0.1-0.2L89.1,2.4L86.8,0L66.3,44.3
			c0,0.1-0.1,0.1-0.1,0.2c0,0.1-0.1,0.1-0.1,0.2L66,44.8c-0.1,0.1-0.1,0.1-0.2,0.2c0,0,0,0-0.1,0.1s-0.2,0.2-0.3,0.2h-0.1
			c-0.1,0.1-0.2,0.1-0.2,0.1s-0.1,0-0.1,0.1c-0.1,0-0.2,0.1-0.2,0.1h-0.1c-0.1,0-0.2,0.1-0.4,0.1L3.1,51.9c-0.1,0-0.2,0-0.3,0
			c-0.7,0-1.3-0.3-1.7-0.7l2.3,2.4c0.4,0.4,1,0.7,1.7,0.7c0.1,0,0.2,0,0.3,0L66.6,48C66.7,48,66.9,48,67,48z"/>
		<path d="M86,35.6c0,0.1,0.1,0.2,0.1,0.2l0,0c0,0.1,0.1,0.2,0.1,0.3v0.1c0,0.1,0,0.2,0,0.3c0,0,0,0,0,0.1s0,0.2,0,0.3l-1.4,70.7
			l2.3,2.4l1.4-70.7c0-0.1,0-0.2,0-0.3l0,0l0,0c0-0.1,0-0.2,0-0.3v-0.1c0-0.1-0.1-0.2-0.1-0.3l0,0c0-0.1-0.1-0.2-0.1-0.2s0,0,0-0.1
			c-0.1-0.1-0.1-0.2-0.2-0.2l0,0c0-0.1-0.1-0.1-0.1-0.1l-2.3-2.4c0,0,0.1,0.1,0.1,0.2C85.9,35.4,85.9,35.4,86,35.6
			C86,35.5,86,35.6,86,35.6z"/>
		<path d="M156.2,65.6L156.2,65.6c0-0.1,0-0.2-0.1-0.3v-0.1c0-0.1-0.1-0.2-0.1-0.3l0,0c0-0.1-0.1-0.2-0.1-0.3c0,0,0,0,0-0.1
			c-0.1-0.1-0.1-0.2-0.2-0.3l0,0c0-0.1-0.1-0.1-0.1-0.2l-2.3-2.4c0.1,0.1,0.1,0.1,0.1,0.2c0.1,0.1,0.1,0.2,0.2,0.3c0,0,0,0,0,0.1
			s0.1,0.2,0.1,0.3l0,0c0,0.1,0.1,0.2,0.1,0.3v0.1c0,0.1,0,0.2,0,0.3l0,0c0,0.1,0,0.2,0,0.3l-0.8,40c0,0.1,0,0.2,0,0.3v0.1
			c0,0.1,0,0.2-0.1,0.3c0,0,0,0,0,0.1s-0.1,0.2-0.2,0.3c0,0,0,0.1-0.1,0.1c0,0.1-0.1,0.1-0.1,0.2s-0.1,0.1-0.1,0.2s-0.1,0.1-0.1,0.2
			l-0.1,0.1c-0.1,0.1-0.1,0.1-0.2,0.1l-0.1,0.1c-0.1,0-0.2,0.1-0.2,0.1s-0.1,0-0.1,0.1c-0.1,0-0.2,0.1-0.4,0.1l-61.9,13.3
			c-1.5,0.3-3,0.5-4.6,0.5c-1.5,0-3-0.2-4.5-0.5l-60.7-12.8c-0.5-0.1-0.9-0.3-1.2-0.6l2.3,2.4c0.3,0.3,0.7,0.5,1.2,0.6l60.7,12.8
			c1.5,0.3,3,0.5,4.5,0.5s3.1-0.2,4.6-0.5l61.9-13.3c0.1,0,0.3-0.1,0.4-0.1c0,0,0.1,0,0.1-0.1c0.1,0,0.2-0.1,0.2-0.1s0.1,0,0.1-0.1
			c0.1,0,0.1-0.1,0.2-0.1l0.1-0.1c0,0,0,0,0.1,0l0.1-0.1c0,0,0.1-0.1,0.1-0.2l0,0c0-0.1,0.1-0.1,0.1-0.2c0,0,0-0.1,0.1-0.1l0,0
			c0.1-0.1,0.1-0.2,0.1-0.3l0,0c0,0,0,0,0-0.1s0.1-0.1,0.1-0.2c0,0,0,0,0-0.1v-0.1v-0.1c0-0.1,0-0.1,0-0.2l0.8-40
			C156.2,65.8,156.2,65.7,156.2,65.6L156.2,65.6z"/>
		<path d="M174.5,52.1c0-0.1,0-0.2,0-0.3c0,0,0,0,0-0.1v-0.1c0,0,0,0,0-0.1s0-0.2,0-0.2v-0.1c0-0.1-0.1-0.2-0.1-0.3l-15.2-34.8
			c-0.1-0.1-0.1-0.2-0.2-0.3c0,0,0-0.1-0.1-0.1l-0.1-0.1c0-0.1-0.1-0.1-0.1-0.1l-2.3-2.4c0.1,0.1,0.2,0.2,0.2,0.3c0,0,0,0.1,0.1,0.1
			c0.1,0.1,0.1,0.2,0.2,0.3L172,48.5c0,0.1,0.1,0.2,0.1,0.3v0.1c0,0.1,0,0.2,0,0.2c0,0.1,0,0.1,0,0.2c0,0,0,0,0,0.1s0,0.2,0,0.3
			s0,0.2-0.1,0.3v0.1c0,0.1,0,0.1-0.1,0.2v0.1c0,0.1-0.1,0.1-0.1,0.2c0,0,0,0.1-0.1,0.1c0,0.1-0.1,0.1-0.1,0.2c0,0,0,0.1-0.1,0.1
			c-0.1,0.1-0.1,0.2-0.2,0.2c0,0,0,0-0.1,0.1c0,0,0,0-0.1,0s-0.1,0.1-0.2,0.1c0,0,0,0-0.1,0.1c-0.1,0-0.1,0.1-0.2,0.1c0,0,0,0-0.1,0
			s-0.2,0.1-0.2,0.1l0,0c-0.1,0-0.1,0.1-0.2,0.1H170c-0.1,0-0.1,0-0.2,0h-0.1c-0.1,0-0.2,0-0.3,0l-61-4.9c-0.6,0-1.1-0.3-1.5-0.7
			l2.3,2.4c0.4,0.4,0.9,0.6,1.5,0.7l61,4.9c0.1,0,0.2,0,0.3,0h0.1c0.1,0,0.1,0,0.2,0h0.1c0.1,0,0.1,0,0.2-0.1l0,0
			c0.1,0,0.2-0.1,0.2-0.1s0,0,0.1,0s0.1-0.1,0.2-0.1c0,0,0,0,0.1-0.1c0.1,0,0.1-0.1,0.2-0.1l0,0l0,0l0,0c0.1-0.1,0.1-0.2,0.2-0.2
			l0,0l0,0c0-0.1,0.1-0.1,0.1-0.2c0,0,0,0,0-0.1l0,0c0-0.1,0.1-0.1,0.1-0.2v-0.1l0,0c0-0.1,0-0.1,0.1-0.2v-0.1l0,0
			C174.5,52.3,174.5,52.2,174.5,52.1L174.5,52.1z"/>
	</g>
	
		<linearGradient id="SVGID_1_" gradientUnits="userSpaceOnUse" x1="29.4676" y1="122.3054" x2="142.7699" y2="9.0031" gradientTransform="matrix(1 0 0 -1 0 124)">
		<stop  offset="1.081081e-02" style="stop-color:#A4CFC7"/>
		<stop  offset="0.1611" style="stop-color:#71BDAD"/>
		<stop  offset="0.352" style="stop-color:#35A790"/>
		<stop  offset="0.4432" style="stop-color:#1D9F84"/>
	</linearGradient>
	<path class="st1" d="M19.5,12.3L86.8,0L66.3,44.3c-0.4,0.8-1.1,1.3-2,1.4L3.1,51.9c-0.1,0-0.2,0-0.3,0c-1.7,0-2.9-1.8-2.1-3.4
		l16.9-34.8C18,13,18.7,12.5,19.5,12.3z M172,48.5l-15.2-34.8c-0.3-0.7-1-1.2-1.7-1.4L86.8,0l19.9,45.6c0.3,0.8,1.1,1.3,2,1.4
		l61,4.9C171.4,52,172.7,50.2,172,48.5z M151.8,61.1l-7.2-1.1c-1.3,0-2.4,1.1-2.5,2.4l-0.7,34.5l-56.5,10.7l1.4-70.7
		c0-1.5-1.2-2.4-2.4-2.4c-0.9,0-1.8,0.5-2.2,1.5l-8.2,19c-0.4,0.8-1.1,1.4-2.1,1.5l-51.9,4.6c-1.3,0.1-2.3,1.2-2.3,2.5l0.3,40.7
		c0,1.1,0.8,2.1,1.9,2.3l60.7,12.8c1.5,0.3,3,0.5,4.5,0.5s3.1-0.2,4.6-0.5l61.9-13.3c1.1-0.2,1.9-1.2,2-2.4l0.8-40
		C153.9,62.3,153,61.2,151.8,61.1z"/>
</g>
</svg>
