<?xml version="1.0" encoding="utf-8"?>
<!-- Generator: Adobe Illustrator 21.0.0, SVG Export Plug-In . SVG Version: 6.00 Build 0)  -->
<svg version="1.1" id="Layer_1" xmlns="http://www.w3.org/2000/svg" xmlns:xlink="http://www.w3.org/1999/xlink" x="0px" y="0px"
	 viewBox="0 0 175 122" style="enable-background:new 0 0 175 122;" xml:space="preserve">
<style type="text/css">
	.st0{opacity:0.5;}
	.st1{fill:url(#SVGID_1_);}
</style>
<g>
	<g class="st0">
		<path d="M82.8,55.5L82.8,55.5L82.8,55.5v0.2v0.1v0.1V56v0.1c0,0,0,0,0,0.1s0.1,0.1,0.1,0.2l1.6,1.7c0-0.1-0.1-0.1-0.1-0.2
			c0,0,0,0,0-0.1v-0.1v-0.1v-0.1v-0.1v-0.1v-0.1v-0.1V57v-0.1c0-0.1,0-0.2,0.1-0.3c0,0,0,0,0-0.1s0.1-0.2,0.1-0.3l0,0
			c0-0.1,0.1-0.2,0.1-0.3c0,0,0,0,0-0.1l0.1-0.1c0,0,0-0.1,0.1-0.1l0.1-0.1c0,0,0,0,0-0.1c0.1-0.1,0.1-0.2,0.2-0.2l0,0
			c0.1-0.1,0.1-0.1,0.2-0.2l0,0c0.1-0.1,0.2-0.2,0.3-0.3l0,0c0.1-0.1,0.2-0.2,0.3-0.2l0,0c0.1-0.1,0.2-0.1,0.3-0.2l0,0
			c0.1-0.1,0.2-0.1,0.3-0.2l0,0C86.7,54,86.8,54,87,54l0,0c0.1,0,0.2-0.1,0.4-0.1l0,0c0.1,0,0.2-0.1,0.4-0.1l0,0c0.1,0,0.3,0,0.4,0
			c1,0,2.2,0.5,3,1.4l-1.6-1.7c-0.8-0.8-2-1.4-3-1.4c-0.1,0-0.2,0-0.4,0l0,0c-0.1,0-0.2,0-0.4,0.1l0,0c-0.1,0-0.2,0.1-0.4,0.1l0,0
			c-0.1,0-0.2,0.1-0.4,0.1l0,0c-0.1,0.1-0.2,0.1-0.3,0.2l0,0c-0.1,0.1-0.2,0.1-0.3,0.2l0,0c-0.1,0.1-0.2,0.1-0.3,0.2l0,0
			c-0.1,0.1-0.2,0.2-0.3,0.3l0,0l0,0c-0.1,0.1-0.1,0.1-0.2,0.2l0,0c-0.1,0.1-0.1,0.1-0.2,0.2l0,0l0,0l-0.1,0.1c0,0,0,0.1-0.1,0.1
			L83.1,54c0,0,0,0,0,0.1l0,0C83,54.2,83,54.3,83,54.4l0,0l0,0c0,0.1-0.1,0.2-0.1,0.3l0,0l0,0c0,0.1,0,0.2-0.1,0.3l0,0v0.1
			C82.8,55.3,82.8,55.3,82.8,55.5C82.8,55.4,82.8,55.4,82.8,55.5z"/>
		<path d="M36,63.4c0,0.3,0,0.5,0,0.8c0,0.2,0,0.4,0,0.6c0,0.3,0,0.5,0.1,0.8c0,0.1,0,0.1,0,0.2c0,0.3,0.1,0.5,0.1,0.8v0.1
			c0,0.4,0.1,0.8,0.1,1.1c0,0.1,0,0.2,0,0.3c0,0.3,0.1,0.6,0.1,0.8c0,0.1,0,0.2,0.1,0.4c0.1,0.3,0.1,0.6,0.2,1c0,0.1,0,0.1,0,0.2
			c0.1,0.4,0.1,0.7,0.2,1.1c0,0.1,0,0.2,0.1,0.3c0.1,0.3,0.1,0.6,0.2,0.8c0,0.1,0.1,0.2,0.1,0.3c0.1,0.3,0.1,0.6,0.2,0.9
			c0,0.1,0,0.1,0.1,0.2c0.1,0.4,0.2,0.7,0.3,1.1c0,0.1,0.1,0.2,0.1,0.3c0.1,0.3,0.2,0.5,0.3,0.8c0,0.1,0.1,0.2,0.1,0.3
			c0.1,0.3,0.2,0.6,0.3,0.8c0,0.1,0.1,0.2,0.1,0.2c0.1,0.4,0.2,0.7,0.4,1c0,0.1,0.1,0.2,0.1,0.2c0.1,0.3,0.2,0.5,0.3,0.8
			c0,0.1,0.1,0.2,0.1,0.3c0.1,0.3,0.2,0.5,0.3,0.8c0,0.1,0.1,0.2,0.1,0.3c0.1,0.3,0.3,0.7,0.5,1c0,0.1,0.1,0.1,0.1,0.2
			c0.1,0.3,0.3,0.5,0.4,0.8c0.1,0.1,0.1,0.2,0.2,0.3c0.1,0.2,0.3,0.5,0.4,0.7c0,0.1,0.1,0.2,0.1,0.3c0.2,0.3,0.3,0.6,0.5,1
			c0,0.1,0.1,0.1,0.1,0.2c0.1,0.3,0.3,0.5,0.5,0.8c0.1,0.1,0.1,0.2,0.2,0.3c0.1,0.2,0.3,0.5,0.4,0.7c0.1,0.1,0.1,0.2,0.2,0.3
			c0.2,0.3,0.4,0.6,0.6,0.9l0.1,0.1c0.2,0.3,0.4,0.5,0.5,0.8c0.1,0.1,0.1,0.2,0.2,0.3c0.2,0.2,0.3,0.4,0.5,0.7
			c0.1,0.1,0.1,0.2,0.2,0.3c0.2,0.3,0.4,0.6,0.7,0.9c0,0,0,0,0,0.1c0.2,0.3,0.4,0.5,0.6,0.8c0.1,0.1,0.1,0.2,0.2,0.3
			c0.1,0.1,0.2,0.2,0.2,0.3c0.1,0.1,0.2,0.2,0.2,0.3c0.1,0.1,0.2,0.2,0.3,0.4c0.2,0.2,0.3,0.4,0.5,0.5c0.1,0.1,0.2,0.2,0.3,0.3
			c0.2,0.2,0.3,0.4,0.5,0.6c0.1,0.1,0.2,0.2,0.3,0.3c0.3,0.3,0.5,0.6,0.8,0.8L52,98c-0.3-0.3-0.5-0.5-0.8-0.8
			c-0.1-0.1-0.2-0.2-0.3-0.3c-0.2-0.2-0.4-0.4-0.5-0.6c-0.1-0.1-0.2-0.2-0.3-0.3c-0.2-0.2-0.3-0.4-0.5-0.5c-0.1-0.1-0.2-0.2-0.3-0.4
			c-0.2-0.2-0.3-0.4-0.5-0.6c-0.1-0.1-0.1-0.2-0.2-0.3c-0.2-0.3-0.4-0.5-0.6-0.8c0,0,0,0,0-0.1c-0.2-0.3-0.4-0.6-0.7-0.9
			c-0.1-0.1-0.1-0.2-0.2-0.3c-0.2-0.2-0.3-0.4-0.5-0.7c-0.1-0.1-0.1-0.2-0.2-0.3c-0.2-0.3-0.4-0.5-0.5-0.8l-0.1-0.1
			c-0.2-0.3-0.4-0.6-0.6-0.9c-0.1-0.1-0.1-0.2-0.2-0.3c-0.1-0.2-0.3-0.5-0.4-0.7c-0.1-0.1-0.1-0.2-0.2-0.3c-0.2-0.3-0.3-0.5-0.5-0.8
			c0-0.1-0.1-0.1-0.1-0.2c-0.2-0.3-0.4-0.6-0.5-1c0-0.1-0.1-0.2-0.1-0.3c-0.1-0.2-0.3-0.5-0.4-0.7c-0.1-0.1-0.1-0.2-0.2-0.3
			c-0.1-0.3-0.3-0.5-0.4-0.8c0-0.1-0.1-0.1-0.1-0.2c-0.2-0.3-0.3-0.7-0.5-1c0-0.1-0.1-0.2-0.1-0.3c-0.1-0.3-0.2-0.5-0.3-0.8
			c0-0.1-0.1-0.2-0.1-0.3c-0.1-0.3-0.2-0.5-0.3-0.8c0-0.1-0.1-0.2-0.1-0.2c-0.1-0.3-0.3-0.7-0.4-1c0-0.1-0.1-0.2-0.1-0.2
			c-0.1-0.3-0.2-0.6-0.3-0.8c0-0.1-0.1-0.2-0.1-0.3c-0.1-0.3-0.2-0.5-0.3-0.8c0-0.1-0.1-0.2-0.1-0.3c-0.1-0.4-0.2-0.7-0.3-1.1
			c0-0.1,0-0.1-0.1-0.2c0.1-0.3,0-0.6,0-0.8c0-0.1-0.1-0.2-0.1-0.3c-0.1-0.3-0.1-0.6-0.2-0.8c0-0.1,0-0.2-0.1-0.3
			c-0.1-0.4-0.2-0.7-0.2-1.1c0-0.1,0-0.1,0-0.2c-0.1-0.3-0.1-0.6-0.2-1c0-0.1,0-0.2-0.1-0.4c0-0.3-0.1-0.6-0.1-0.8
			c0-0.1,0-0.2,0-0.3c-0.1-0.4-0.1-0.8-0.1-1.1v-0.1c0-0.3-0.1-0.7-0.1-1s0-0.5-0.1-0.8c0-0.2,0-0.4,0-0.6c0-0.3,0-0.5,0-0.8
			c0-0.2,0-0.4,0-0.5c0-0.3,0-0.6,0-0.9c0-0.2,0-0.3,0-0.5c0-0.5,0-0.9,0-1.4c0-0.4,0-0.8,0-1.2c0-0.1,0-0.2,0-0.4
			c0-0.3,0-0.6,0-0.8c0-0.1,0-0.3,0-0.4c0-0.3,0-0.6,0.1-0.9c0-0.1,0-0.2,0-0.3c0-0.4,0.1-0.8,0.1-1.1c0-0.1,0-0.2,0-0.3
			c0-0.3,0.1-0.6,0.1-0.9c0-0.1,0-0.2,0-0.3c0.1-0.4,0.1-0.8,0.2-1.1l0,0c0.1-0.4,0.1-0.7,0.2-1.1c0-0.1,0-0.2,0.1-0.3
			c0.1-0.3,0.1-0.6,0.2-0.9c0-0.1,0-0.2,0.1-0.3c0.1-0.4,0.2-0.7,0.3-1.1c0.1-0.5,0.3-1,0.4-1.5c0-0.1,0.1-0.3,0.1-0.4
			c0.1-0.4,0.2-0.7,0.3-1.1c0-0.1,0.1-0.3,0.1-0.4c0.1-0.4,0.3-0.8,0.4-1.2c0-0.1,0.1-0.1,0.1-0.2c0.2-0.5,0.3-0.9,0.5-1.4
			c0-0.1,0.1-0.3,0.2-0.4c0.1-0.4,0.3-0.7,0.4-1.1c0.1-0.1,0.1-0.3,0.2-0.4c0.2-0.4,0.4-0.8,0.6-1.2c0-0.1,0-0.1,0.1-0.2
			c0.2-0.5,0.4-0.9,0.7-1.3c0.1-0.1,0.1-0.3,0.2-0.4c0.2-0.3,0.3-0.7,0.5-1c0.1-0.1,0.1-0.3,0.2-0.4c0.3-0.5,0.5-0.9,0.8-1.4
			c0-0.1,0.1-0.1,0.1-0.2c0.2-0.4,0.5-0.8,0.7-1.2c0.1-0.1,0.2-0.2,0.2-0.4c0.3-0.4,0.6-0.9,0.9-1.3l0,0c0.3-0.4,0.6-0.9,0.9-1.3
			c0.1-0.2,0.2-0.3,0.4-0.5c0.1-0.1,0.2-0.2,0.3-0.4c0.2-0.2,0.3-0.4,0.5-0.6c0.1-0.1,0.2-0.2,0.3-0.3c0.2-0.2,0.4-0.5,0.6-0.7
			c0.1-0.1,0.1-0.1,0.2-0.2c0.2-0.3,0.5-0.6,0.8-0.9c0.1-0.1,0.1-0.2,0.2-0.2c0.2-0.2,0.4-0.4,0.6-0.6c0.1-0.1,0.2-0.2,0.3-0.3
			c0.2-0.2,0.3-0.4,0.5-0.5c0.1-0.1,0.2-0.2,0.3-0.3c0.2-0.2,0.3-0.3,0.5-0.5c0.1-0.1,0.2-0.2,0.3-0.3c0.2-0.2,0.3-0.3,0.5-0.5
			c0.1-0.1,0.3-0.3,0.4-0.4c0.2-0.1,0.3-0.3,0.5-0.4c0.1-0.1,0.3-0.3,0.4-0.4c0.2-0.1,0.3-0.3,0.5-0.4s0.3-0.3,0.5-0.4
			s0.3-0.3,0.5-0.4s0.3-0.3,0.5-0.4s0.3-0.3,0.5-0.4s0.3-0.2,0.5-0.4c0.2-0.1,0.3-0.3,0.5-0.4s0.3-0.2,0.5-0.4
			c0.2-0.1,0.3-0.2,0.5-0.4c0.2-0.1,0.3-0.2,0.5-0.3c0.2-0.1,0.3-0.2,0.5-0.4c0.2-0.1,0.3-0.2,0.5-0.3c0.2-0.1,0.3-0.2,0.5-0.3
			c0.2-0.1,0.3-0.2,0.5-0.3c0.2-0.1,0.4-0.2,0.5-0.3c0.2-0.1,0.3-0.2,0.5-0.3c0.2-0.1,0.4-0.2,0.5-0.3c0.2-0.1,0.3-0.2,0.5-0.3
			c0.2-0.1,0.4-0.2,0.6-0.3c0.2-0.1,0.3-0.2,0.5-0.3c0.2-0.1,0.4-0.2,0.6-0.3c0.2-0.1,0.4-0.2,0.5-0.3c0.2-0.1,0.4-0.2,0.6-0.3
			c0.2-0.1,0.4-0.2,0.5-0.3c0.2-0.1,0.4-0.2,0.6-0.3s0.4-0.2,0.5-0.2c0.2-0.1,0.4-0.2,0.6-0.3s0.4-0.2,0.5-0.2
			c0.2-0.1,0.4-0.2,0.6-0.2c0.2-0.1,0.4-0.1,0.6-0.2c0.2-0.1,0.4-0.2,0.6-0.2c0.2-0.1,0.4-0.1,0.6-0.2c0.2-0.1,0.4-0.1,0.6-0.2
			c0.2-0.1,0.4-0.1,0.6-0.2c0.2-0.1,0.4-0.1,0.6-0.2c0.2-0.1,0.4-0.1,0.6-0.2c0.2-0.1,0.4-0.1,0.6-0.2c0.2-0.1,0.4-0.1,0.6-0.2
			c0.2-0.1,0.4-0.1,0.6-0.2c0.2-0.1,0.4-0.1,0.6-0.2c0.2-0.1,0.4-0.1,0.6-0.2c0.2,0,0.4-0.1,0.6-0.1s0.4-0.1,0.7-0.1
			c0.2,0,0.4-0.1,0.6-0.1s0.4-0.1,0.7-0.1c0.2,0,0.4-0.1,0.6-0.1s0.4-0.1,0.7-0.1c0.2,0,0.4-0.1,0.6-0.1s0.5-0.1,0.7-0.1
			s0.4-0.1,0.6-0.1s0.5-0.1,0.7-0.1s0.4,0,0.6-0.1c0.2,0,0.5,0,0.7-0.1c0.2,0,0.4,0,0.5,0c0.3,0,0.5,0,0.8,0c0.2,0,0.3,0,0.5,0
			c0.3,0,0.6,0,0.9,0c0.1,0,0.3,0,0.4,0c0.4,0,0.9,0,1.3,0c13.9,0,26.4,5.6,35.4,14.7l-1.6-1.7c-9-9.1-21.5-14.7-35.4-14.7
			c-0.4,0-0.9,0-1.3,0c-0.1,0-0.3,0-0.4,0c-0.3,0-0.6,0-0.9,0c-0.2,0-0.3,0-0.5,0c-0.3,0-0.5,0-0.8,0c-0.2,0-0.4,0-0.5,0
			c-0.2,0-0.5,0-0.7,0.1c-0.2,0-0.4,0-0.6,0.1c-0.2,0-0.5,0.1-0.7,0.1s-0.4,0.1-0.6,0.1s-0.5,0.1-0.7,0.1S80.1,10,79.9,10
			s-0.4,0.1-0.7,0.1c-0.2,0-0.4,0.1-0.6,0.1s-0.4,0.1-0.7,0.1c-0.2,0-0.4,0.1-0.6,0.1s-0.4,0.1-0.7,0.1c-0.2,0-0.4,0.1-0.6,0.1
			c-0.2,0.1-0.4,0.1-0.6,0.2c-0.2,0-0.4,0.1-0.6,0.2c-0.2,0.1-0.4,0.1-0.6,0.2c-0.2,0.1-0.4,0.1-0.6,0.2c-0.2,0.1-0.4,0.1-0.6,0.2
			c-0.2,0.1-0.4,0.1-0.6,0.2c-0.2,0.1-0.4,0.1-0.6,0.2c-0.2,0.1-0.4,0.1-0.6,0.2c-0.2,0.1-0.4,0.1-0.6,0.2c-0.2,0.1-0.4,0.1-0.6,0.2
			c-0.2,0.1-0.4,0.1-0.6,0.2c-0.2,0.1-0.4,0.1-0.6,0.2c-0.2,0.1-0.4,0.2-0.6,0.2c-0.2,0.1-0.4,0.2-0.6,0.2c-0.2,0.1-0.4,0.2-0.6,0.3
			s-0.4,0.2-0.5,0.2c-0.2,0.1-0.4,0.2-0.6,0.3s-0.4,0.2-0.5,0.3c-0.2,0.1-0.4,0.2-0.6,0.3s-0.4,0.2-0.5,0.3
			c-0.2,0.1-0.4,0.2-0.6,0.3c-0.2,0.1-0.4,0.2-0.5,0.3c-0.2,0.1-0.4,0.2-0.6,0.3c-0.2,0.1-0.3,0.2-0.5,0.3c-0.2,0.1-0.4,0.2-0.5,0.3
			c-0.2,0.1-0.3,0.2-0.5,0.3c-0.2,0.1-0.4,0.2-0.5,0.3c-0.2,0.1-0.3,0.2-0.5,0.3c-0.2,0.1-0.4,0.2-0.5,0.3c-0.2,0.1-0.3,0.2-0.5,0.3
			c-0.2,0.1-0.3,0.2-0.5,0.4c-0.2,0.1-0.3,0.2-0.5,0.3c-0.2,0.1-0.3,0.2-0.5,0.4c-0.2,0.1-0.3,0.2-0.5,0.4c-0.2,0.1-0.3,0.3-0.5,0.4
			s-0.3,0.2-0.5,0.4c-0.2,0.1-0.3,0.3-0.5,0.4s-0.3,0.3-0.5,0.4s-0.3,0.3-0.5,0.4s-0.3,0.3-0.5,0.4s-0.3,0.3-0.5,0.4
			c-0.1,0.1-0.3,0.3-0.4,0.4c-0.2,0.1-0.3,0.3-0.5,0.4c-0.1,0.1-0.3,0.3-0.4,0.4c-0.1,0.1-0.2,0.2-0.3,0.2c-0.1,0.1-0.1,0.1-0.2,0.2
			c-0.1,0.1-0.2,0.2-0.3,0.3c-0.2,0.2-0.3,0.3-0.5,0.5c-0.1,0.1-0.2,0.2-0.3,0.3c-0.2,0.2-0.3,0.4-0.5,0.5c-0.1,0.1-0.2,0.2-0.3,0.3
			c-0.2,0.2-0.4,0.4-0.6,0.6c-0.1,0.1-0.1,0.2-0.2,0.2c-0.3,0.3-0.5,0.6-0.8,0.9C48.1,27.9,48,28,48,28.1c-0.2,0.2-0.4,0.5-0.6,0.7
			c-0.1,0.1-0.2,0.2-0.3,0.3c-0.2,0.2-0.3,0.4-0.5,0.6c-0.1,0.1-0.2,0.2-0.3,0.4c-0.1,0.1-0.2,0.2-0.2,0.3c0,0.1-0.1,0.1-0.1,0.2
			c-0.3,0.4-0.6,0.9-0.9,1.3l0,0c-0.3,0.4-0.6,0.8-0.9,1.3c-0.1,0.1-0.2,0.2-0.2,0.4c-0.3,0.4-0.5,0.8-0.7,1.2
			c0,0.1-0.1,0.1-0.1,0.2c-0.3,0.5-0.5,0.9-0.8,1.4l-0.1,0.1c0,0.1-0.1,0.2-0.1,0.2c-0.2,0.3-0.4,0.7-0.5,1
			c-0.1,0.1-0.1,0.2-0.2,0.4c-0.2,0.4-0.4,0.9-0.7,1.3c0,0.1,0,0.1-0.1,0.2c-0.2,0.4-0.4,0.8-0.6,1.2c0,0-0.1,0.2-0.1,0.3
			c-0.1,0.3-0.3,0.7-0.4,1.1c0,0.1-0.1,0.2-0.1,0.3v0.1c-0.2,0.5-0.4,0.9-0.5,1.4c0,0.1-0.1,0.1-0.1,0.2c-0.1,0.4-0.3,0.8-0.4,1.2
			c0,0.1-0.1,0.3-0.1,0.4c-0.1,0.4-0.2,0.7-0.3,1.1c0,0.1-0.1,0.3-0.1,0.4c-0.1,0.5-0.3,1-0.4,1.5c0,0,0,0,0,0.1
			c-0.1,0.3-0.2,0.7-0.2,1c0,0.1,0,0.2-0.1,0.3C37,50.4,37,50.7,36.9,51c0,0.1,0,0.2-0.1,0.3c-0.1,0.4-0.1,0.7-0.2,1.1l0,0
			c-0.1,0.4-0.1,0.8-0.2,1.1c0,0.1,0,0.2,0,0.3c0,0.3-0.1,0.6-0.1,0.9c0,0.1,0,0.2,0,0.3c0,0.4-0.1,0.7-0.1,1.1v0.1
			c0,0.1,0,0.2,0,0.3c0,0.3-0.1,0.6-0.1,0.9c0,0.1,0,0.3,0,0.4c0,0.3,0,0.6,0,0.8c0,0.1,0,0.2,0,0.4c0,0.4,0,0.8,0,1.2
			c0,0.5,0,0.9,0,1.4c0,0.2,0,0.3,0,0.5c0,0.3,0,0.6,0,0.9C35.9,63.1,35.9,63.3,36,63.4z"/>
		<path d="M63,61c0,0.1,0,0.3,0,0.4c0,0.1,0,0.2,0,0.2c0,0.1,0,0.3,0,0.4c0,0.1,0,0.2,0,0.3s0,0.2,0,0.4c0,0,0,0,0,0.1v0.1
			c0,0.2,0,0.5,0.1,0.7c0,0.1,0,0.1,0,0.2c0,0.3,0.1,0.5,0.1,0.8c0,0.1,0,0.1,0,0.2c0,0.2,0.1,0.4,0.1,0.7v0.1
			c0.1,0.3,0.1,0.5,0.2,0.8c0,0.1,0,0.1,0,0.2c0.1,0.2,0.1,0.4,0.2,0.7v0.1c0.1,0.2,0.1,0.5,0.2,0.7c0,0.1,0,0.1,0.1,0.2
			c0.1,0.2,0.1,0.4,0.2,0.6V69c0.1,0.2,0.2,0.5,0.3,0.7c0,0.1,0,0.1,0.1,0.2c0.1,0.2,0.2,0.4,0.3,0.6v0.1c0.1,0.2,0.2,0.5,0.3,0.7
			c0,0.1,0.1,0.1,0.1,0.2c0.1,0.2,0.2,0.4,0.3,0.6v0.1c0.1,0.2,0.3,0.4,0.4,0.7c0,0.1,0.1,0.1,0.1,0.2c0.1,0.2,0.2,0.4,0.4,0.6
			c0,0,0,0,0,0.1c0.1,0.2,0.3,0.4,0.4,0.6c0,0.1,0.1,0.1,0.1,0.2c0.1,0.2,0.3,0.4,0.4,0.6l0,0c0.2,0.2,0.3,0.4,0.5,0.6
			c0,0,0,0,0.1,0.1c0,0,0,0,0.1,0.1c0.2,0.2,0.4,0.4,0.6,0.7l0.1,0.1c0.2,0.2,0.4,0.4,0.6,0.7l1.6,1.7c-0.2-0.2-0.4-0.4-0.6-0.7
			l-0.1-0.1c-0.2-0.2-0.4-0.4-0.6-0.7l-0.1-0.1c-0.2-0.2-0.3-0.4-0.5-0.6l0,0c-0.1-0.2-0.3-0.4-0.4-0.6c0-0.1-0.1-0.1-0.1-0.2
			c-0.1-0.2-0.3-0.4-0.4-0.6c0,0,0,0,0-0.1c-0.1-0.2-0.3-0.4-0.4-0.6c0-0.1-0.1-0.1-0.1-0.2c-0.1-0.2-0.3-0.4-0.4-0.7v-0.1
			c-0.1-0.2-0.2-0.4-0.3-0.6c0-0.1-0.1-0.1-0.1-0.2c-0.1-0.2-0.2-0.5-0.3-0.7v-0.1c-0.1-0.2-0.2-0.4-0.3-0.6c0-0.1,0-0.1-0.1-0.2
			c-0.1-0.2-0.2-0.5-0.3-0.7v-0.1c-0.1-0.2-0.2-0.4-0.2-0.6c0-0.1,0-0.1-0.1-0.2c-0.1-0.2-0.2-0.5-0.2-0.7v-0.1
			c-0.1-0.2-0.1-0.4-0.2-0.7c0-0.1,0-0.1,0-0.2c-0.1-0.3-0.1-0.5-0.2-0.8v-0.1c0-0.2-0.1-0.4-0.1-0.7c0-0.1,0-0.1,0-0.2
			c0-0.3-0.1-0.5-0.1-0.8c0-0.1,0-0.1,0-0.2c0-0.2-0.1-0.5-0.1-0.7c0-0.1,0-0.1,0-0.2s0-0.2,0-0.4c0-0.1,0-0.2,0-0.3s0-0.3,0-0.4
			c0-0.1,0-0.2,0-0.2c0-0.1,0-0.3,0-0.4c0-0.1,0-0.1,0-0.2c0-0.2,0-0.4,0-0.6c0-0.3,0-0.6,0-0.9c0-0.1,0-0.1,0-0.2
			c0-0.3,0-0.6,0.1-0.8V60c0-0.2,0-0.4,0.1-0.6c0-0.1,0-0.1,0-0.2c0-0.3,0.1-0.5,0.1-0.8c0,0,0,0,0-0.1c0-0.2,0.1-0.5,0.1-0.7
			c0-0.1,0-0.1,0-0.2c0-0.2,0.1-0.4,0.2-0.7c0,0,0,0,0-0.1c0.1-0.2,0.1-0.5,0.2-0.7c0-0.1,0-0.1,0.1-0.2c0-0.2,0.1-0.3,0.2-0.5
			c0-0.1,0-0.1,0.1-0.2c0.1-0.2,0.1-0.4,0.2-0.6c0,0,0,0,0-0.1c0.1-0.2,0.2-0.4,0.2-0.7c0-0.1,0-0.1,0.1-0.2
			c0.1-0.2,0.1-0.3,0.2-0.5c0-0.1,0.1-0.1,0.1-0.2c0.1-0.2,0.2-0.4,0.3-0.6l0,0c0.1-0.2,0.2-0.4,0.3-0.6c0-0.1,0.1-0.1,0.1-0.2
			c0.1-0.2,0.2-0.3,0.2-0.5c0-0.1,0.1-0.1,0.1-0.2c0.1-0.2,0.2-0.4,0.4-0.6c0,0,0-0.1,0.1-0.1c0.1-0.2,0.2-0.4,0.3-0.5
			c0-0.1,0.1-0.1,0.1-0.2c0.1-0.2,0.3-0.4,0.4-0.6l0,0c0.1-0.2,0.3-0.4,0.4-0.6l0.1-0.1c0.2-0.2,0.4-0.5,0.5-0.7l0.1-0.1
			c0.2-0.2,0.4-0.5,0.6-0.7l0,0c0.2-0.2,0.4-0.4,0.6-0.7l0.1-0.1c0.2-0.2,0.4-0.4,0.6-0.6c0.1-0.1,0.1-0.1,0.2-0.2
			c0.1-0.1,0.1-0.1,0.2-0.2c0.1-0.1,0.1-0.1,0.2-0.2c0.1-0.1,0.1-0.1,0.2-0.2c0.1-0.1,0.1-0.1,0.2-0.2c0.1-0.1,0.1-0.1,0.2-0.2
			c0.1-0.1,0.1-0.1,0.2-0.2c0.1-0.1,0.1-0.1,0.2-0.2c0.1-0.1,0.2-0.1,0.2-0.2c0.1-0.1,0.1-0.1,0.2-0.2c0.1-0.1,0.2-0.1,0.2-0.2
			c0.1-0.1,0.1-0.1,0.2-0.2c0.1-0.1,0.2-0.1,0.2-0.2c0.1-0.1,0.2-0.1,0.2-0.2c0.1-0.1,0.2-0.1,0.2-0.2c0.1-0.1,0.2-0.1,0.2-0.2
			c0.1-0.1,0.2-0.1,0.2-0.2c0.1-0.1,0.2-0.1,0.2-0.2c0.1-0.1,0.2-0.1,0.2-0.2c0.1,0,0.2-0.1,0.2-0.1c0.1,0,0.2-0.1,0.3-0.1
			c0.1,0,0.2-0.1,0.2-0.1c0.1,0,0.2-0.1,0.3-0.1c0.1,0,0.2-0.1,0.2-0.1c0.1,0,0.2-0.1,0.3-0.1c0.1,0,0.2-0.1,0.3-0.1
			c0.1,0,0.2-0.1,0.3-0.1c0.1,0,0.2-0.1,0.3-0.1c0.1,0,0.2-0.1,0.3-0.1c0.1,0,0.2-0.1,0.3-0.1c0.1,0,0.2-0.1,0.3-0.1
			c0.1,0,0.2-0.1,0.3-0.1c0.1,0,0.2-0.1,0.3-0.1c0.1,0,0.2-0.1,0.3-0.1c0.1,0,0.2-0.1,0.3-0.1c0.1,0,0.2-0.1,0.3-0.1
			c0.1,0,0.2-0.1,0.3-0.1c0.1,0,0.2-0.1,0.3-0.1c0.1,0,0.2-0.1,0.3-0.1c0.1,0,0.2-0.1,0.3-0.1c0.1,0,0.2-0.1,0.3-0.1
			c0.1,0,0.2-0.1,0.3-0.1c0.1,0,0.2-0.1,0.3-0.1c0.1,0,0.2,0,0.3-0.1c0.1,0,0.2,0,0.3-0.1c0.1,0,0.2,0,0.3-0.1c0.1,0,0.2,0,0.3-0.1
			c0.1,0,0.2,0,0.3-0.1c0.1,0,0.2,0,0.3-0.1c0.1,0,0.2,0,0.3-0.1c0.1,0,0.2,0,0.3-0.1c0.1,0,0.2,0,0.3,0c0.1,0,0.2,0,0.3,0
			c0.1,0,0.2,0,0.3,0c0.1,0,0.2,0,0.3,0c0.1,0,0.2,0,0.3,0c0.1,0,0.2,0,0.3,0c0.1,0,0.2,0,0.3,0c0.1,0,0.2,0,0.4,0
			c0.1,0,0.2,0,0.2,0c0.1,0,0.3,0,0.4,0s0.1,0,0.2,0c0.2,0,0.4,0,0.6,0c6.4,0,12.1,2.6,16.2,6.8l-1.6-1.7c-4.1-4.2-9.8-6.7-16.2-6.8
			c-0.2,0-0.4,0-0.6,0c-0.1,0-0.1,0-0.2,0s-0.3,0-0.4,0s-0.2,0-0.2,0c-0.1,0-0.2,0-0.4,0c-0.1,0-0.2,0-0.3,0c-0.1,0-0.2,0-0.3,0
			c-0.1,0-0.2,0-0.3,0c-0.1,0-0.2,0-0.3,0c-0.1,0-0.2,0-0.3,0c-0.1,0-0.2,0-0.3,0c-0.1,0-0.2,0-0.3,0c-0.1,0-0.2,0-0.3,0.1
			c-0.1,0-0.2,0-0.3,0.1c-0.1,0-0.2,0-0.3,0.1c-0.1,0-0.2,0-0.3,0.1c-0.1,0-0.2,0-0.3,0.1c-0.1,0-0.2,0-0.3,0.1
			c-0.1,0-0.2,0-0.3,0.1c-0.1,0-0.2,0-0.3,0.1c-0.1,0-0.2,0.1-0.3,0.1c-0.1,0-0.2,0.1-0.3,0.1c-0.1,0-0.2,0.1-0.3,0.1
			c-0.1,0-0.2,0.1-0.3,0.1c-0.1,0-0.2,0.1-0.3,0.1c-0.1,0-0.2,0.1-0.3,0.1C79.2,38,79.1,38,79,38s-0.2,0.1-0.3,0.1
			c-0.1,0-0.2,0.1-0.3,0.1c-0.1,0-0.2,0.1-0.3,0.1c-0.1,0-0.2,0.1-0.3,0.1c-0.1,0-0.2,0.1-0.3,0.1c-0.1,0-0.2,0.1-0.3,0.1
			c-0.1,0-0.2,0.1-0.3,0.1c-0.1,0-0.2,0.1-0.3,0.1c-0.1,0-0.2,0.1-0.3,0.1c-0.1,0-0.2,0.1-0.3,0.1c-0.1,0-0.2,0.1-0.2,0.1
			c-0.1,0-0.2,0.1-0.3,0.1c-0.1,0-0.2,0.1-0.2,0.1c-0.1,0-0.2,0.1-0.3,0.1c-0.1,0-0.2,0.1-0.2,0.1c-0.1,0-0.2,0.1-0.3,0.1
			c-0.1,0-0.2,0.1-0.2,0.1c-0.1,0.1-0.2,0.1-0.2,0.2c-0.1,0-0.2,0.1-0.2,0.2c-0.1,0.1-0.2,0.1-0.2,0.2c-0.1,0.1-0.2,0.1-0.2,0.2
			c-0.1,0.1-0.2,0.1-0.2,0.2c-0.1,0.1-0.2,0.1-0.2,0.2C73,41,72.9,41,72.9,41.1c-0.1,0.1-0.1,0.1-0.2,0.2c-0.1,0.1-0.2,0.1-0.2,0.2
			c-0.1,0.1-0.1,0.1-0.2,0.2c-0.1,0.1-0.2,0.1-0.2,0.2C72,42,72,42,71.9,42.1c-0.1,0.1-0.1,0.1-0.2,0.2c-0.1,0.1-0.1,0.1-0.2,0.2
			c-0.1,0.1-0.1,0.1-0.2,0.2c-0.1,0.1-0.1,0.1-0.2,0.2C71,43,71,43,70.9,43.1c-0.1,0.1-0.1,0.1-0.2,0.2l-0.1,0.1c0,0,0,0-0.1,0.1
			c-0.2,0.2-0.4,0.4-0.6,0.6l-0.1,0.1c-0.2,0.2-0.4,0.4-0.6,0.7l0,0c-0.2,0.2-0.4,0.4-0.6,0.7l-0.1,0.1c-0.2,0.2-0.4,0.5-0.5,0.7
			c0,0,0,0-0.1,0.1c0,0,0,0-0.1,0.1c-0.1,0.2-0.3,0.4-0.4,0.6l0,0c-0.1,0.2-0.3,0.4-0.4,0.6c0,0.1-0.1,0.1-0.1,0.2
			c-0.1,0.2-0.2,0.4-0.3,0.5c0,0,0,0.1-0.1,0.1c-0.1,0.2-0.2,0.4-0.4,0.6c0,0,0,0,0,0.1c0,0,0,0.1-0.1,0.1c-0.1,0.2-0.2,0.3-0.2,0.5
			c0,0.1-0.1,0.1-0.1,0.2c-0.1,0.2-0.2,0.4-0.3,0.6l0,0c-0.1,0.2-0.2,0.4-0.3,0.6c0,0.1-0.1,0.1-0.1,0.2c-0.1,0.2-0.1,0.3-0.2,0.5
			v0.1c0,0,0,0,0,0.1c-0.1,0.2-0.2,0.4-0.2,0.7c0,0,0,0,0,0.1c-0.1,0.2-0.1,0.4-0.2,0.6c0,0.1,0,0.1-0.1,0.2
			C64.1,53.7,64,53.9,64,54s0,0.1-0.1,0.2c-0.1,0.2-0.1,0.5-0.2,0.7l0,0c0,0,0,0,0,0.1c-0.1,0.2-0.1,0.4-0.2,0.7c0,0.1,0,0.1,0,0.2
			c0,0.2-0.1,0.5-0.1,0.7c0,0,0,0,0,0.1c0,0.2-0.1,0.5-0.1,0.8c0,0.1,0,0.1,0,0.2c0,0.2-0.1,0.4-0.1,0.6v0.1l0,0
			c0,0.3,0,0.6-0.1,0.8c0,0.1,0,0.1,0,0.2c0,0.3,0,0.6,0,0.9c0,0.2,0,0.4,0,0.6C63,60.9,63,61,63,61z"/>
		<path d="M75.7,70.9l1.6,1.7c0.3,0.3,0.8,0.5,1.3,0.5h18.8c0.1,0,0.1,0,0.2,0c0,0,0,0,0.1,0h0.1c0,0,0,0,0.1,0H98c0,0,0,0,0.1,0
			h0.1c0,0,0,0,0.1,0h0.1c0,0,0,0,0.1,0c0,0,0.1,0,0.1-0.1c0,0,0,0,0.1,0c0,0,0.1,0,0.1-0.1c0,0,0,0,0.1-0.1c0,0,0,0,0.1-0.1l0,0
			c0.1-0.1,0.1-0.1,0.2-0.2l0,0l0,0c0-0.1,0.1-0.1,0.1-0.2l0,0l0,0c0-0.1,0.1-0.1,0.1-0.2l0,0l0,0c0-0.1,0-0.1,0.1-0.2l0,0l0,0
			c0-0.1,0-0.2,0-0.2l0,0v-0.1l0.2-11.3c0-0.1,0-0.1,0-0.2l0,0l0,0c0-0.1,0-0.2,0-0.2s0,0,0-0.1s0-0.2-0.1-0.2l0,0
			c0-0.1-0.1-0.1-0.1-0.2l0,0c0-0.1-0.1-0.1-0.1-0.2l0,0l-0.1-0.1L97.5,57l0.1,0.1c0.1,0.1,0.1,0.1,0.1,0.2l0,0
			c0,0.1,0.1,0.1,0.1,0.2l0,0c0,0.1,0.1,0.2,0.1,0.2s0,0,0,0.1s0,0.2,0,0.2l0,0c0,0.1,0,0.1,0,0.2l-0.2,11.3c0,0.1,0,0.1,0,0.2
			s0,0.2,0,0.2s0,0,0,0.1s0,0.1-0.1,0.2c0,0,0,0,0,0.1s-0.1,0.1-0.1,0.2l0,0c0,0.1-0.1,0.1-0.1,0.2l0,0c-0.1,0.1-0.1,0.1-0.2,0.2
			c0,0,0,0-0.1,0.1c0,0,0,0-0.1,0.1c0,0-0.1,0-0.1,0.1c0,0,0,0-0.1,0.1c0,0-0.1,0-0.1,0.1c0,0,0,0-0.1,0h-0.1c0,0,0,0-0.1,0h-0.1
			c0,0,0,0-0.1,0h-0.1c0,0,0,0-0.1,0h-0.1c0,0,0,0-0.1,0s-0.1,0-0.2,0H77.1C76.5,71.5,76.1,71.2,75.7,70.9z"/>
		<path d="M94.3,54C94.3,54,94.3,54.1,94.3,54c0,0.2,0,0.4,0,0.5c0,0.2,0,0.4,0,0.6c0,0.1,0,0.1,0,0.2c0,0.1,0,0.2,0,0.4
			c0,0.1,0,0.1,0,0.2c0,0.2,0,0.4-0.1,0.6l1.6,1.7c0-0.2,0.1-0.4,0.1-0.6v-0.1v-0.1c0-0.1,0-0.2,0-0.4c0-0.1,0-0.1,0-0.2
			c0-0.2,0-0.4,0-0.6c0-0.2,0-0.3,0-0.5l0,0l0,0c0-0.1,0-0.2-0.1-0.4v-0.1c0-0.1,0-0.2-0.1-0.3v-0.1c0-0.1-0.1-0.3-0.1-0.4l0,0
			c-0.1-0.1-0.1-0.2-0.2-0.3c0,0,0-0.1-0.1-0.1c-0.1-0.1-0.1-0.2-0.2-0.3c0,0,0-0.1-0.1-0.1c-0.1-0.1-0.2-0.2-0.3-0.3l0,0
			c-0.1-0.1-0.2-0.2-0.3-0.4l-1.6-1.7c0.1,0.1,0.2,0.2,0.3,0.4c0.1,0.1,0.2,0.2,0.3,0.3c0,0,0,0.1,0.1,0.1c0.1,0.1,0.1,0.2,0.2,0.3
			c0,0,0,0.1,0.1,0.1c0.1,0.1,0.1,0.2,0.2,0.3l0,0c0.1,0.1,0.1,0.3,0.1,0.4v0.1c0,0.1,0.1,0.2,0.1,0.3v0.1
			C94.3,53.8,94.3,53.9,94.3,54z"/>
		<path d="M109.5,40.4c0,0.1,0.1,0.1,0.1,0.2c0.2,0.2,0.4,0.5,0.6,0.7l0,0c0.2,0.3,0.4,0.5,0.6,0.8c0,0.1,0.1,0.1,0.1,0.2
			c0.2,0.3,0.4,0.5,0.5,0.8c0,0,0,0,0,0.1c0.2,0.3,0.3,0.5,0.5,0.8c0,0.1,0.1,0.1,0.1,0.2c0.2,0.3,0.3,0.6,0.5,0.8
			c0,0,0,0.1,0.1,0.1c0.1,0.3,0.3,0.5,0.4,0.8c0,0.1,0.1,0.1,0.1,0.2c0.1,0.3,0.3,0.6,0.4,0.9c0,0.1,0,0.1,0.1,0.2
			c0.1,0.3,0.2,0.5,0.3,0.8c0,0.1,0.1,0.1,0.1,0.2c0.1,0.3,0.2,0.6,0.4,0.9c0,0.1,0,0.1,0.1,0.2c0.1,0.3,0.2,0.5,0.3,0.8
			c0,0.1,0,0.1,0.1,0.2c0.1,0.3,0.2,0.6,0.3,1c0,0.1,0,0.1,0.1,0.2c0.1,0.3,0.2,0.6,0.2,0.9c0,0.1,0,0.1,0,0.2
			c0.1,0.3,0.2,0.7,0.2,1c0,0.1,0,0.2,0,0.2c0.1,0.3,0.1,0.6,0.2,0.9v0.1c0.1,0.3,0.1,0.7,0.1,1c0,0.1,0,0.2,0,0.2
			c0,0.3,0.1,0.7,0.1,1c0,0,0,0,0,0.1s0,0.3,0,0.4c0,0.1,0,0.2,0,0.4c0,0.1,0,0.3,0,0.4c0,0.1,0,0.2,0,0.3c0,0.2,0,0.3,0,0.5
			c0,0.1,0,0.2,0,0.3c0,0.3,0,0.5,0,0.8l1.6,1.7c0-0.3,0-0.5,0-0.8c0-0.1,0-0.2,0-0.3c0-0.2,0-0.3,0-0.5c0-0.1,0-0.2,0-0.3
			s0-0.3,0-0.4c0-0.1,0-0.2,0-0.4c0-0.1,0-0.3,0-0.4l0,0l0,0c0-0.3-0.1-0.7-0.1-1c0-0.1,0-0.2,0-0.2c0-0.3-0.1-0.7-0.1-1v-0.1
			c-0.1-0.3-0.1-0.6-0.2-0.9c0-0.1,0-0.2,0-0.2c-0.1-0.3-0.1-0.7-0.2-1c0-0.1,0-0.1,0-0.2c-0.1-0.3-0.1-0.6-0.2-0.9
			c0-0.1,0-0.1-0.1-0.2c-0.1-0.3-0.2-0.6-0.3-1c0-0.1,0-0.1-0.1-0.2c-0.1-0.3-0.2-0.5-0.3-0.8c0-0.1,0-0.1-0.1-0.2
			c-0.1-0.3-0.2-0.6-0.4-0.9c0-0.1-0.1-0.1-0.1-0.2c-0.1-0.3-0.2-0.5-0.3-0.8c0-0.1,0-0.1-0.1-0.2c-0.1-0.3-0.3-0.6-0.4-0.9
			c0-0.1-0.1-0.1-0.1-0.2c-0.1-0.3-0.3-0.5-0.4-0.8c0,0,0-0.1-0.1-0.1c-0.2-0.3-0.3-0.6-0.5-0.8c0-0.1-0.1-0.1-0.1-0.2
			c-0.2-0.3-0.3-0.5-0.5-0.8c0,0,0,0,0-0.1c-0.2-0.3-0.4-0.5-0.5-0.8c0-0.1-0.1-0.1-0.1-0.2c-0.2-0.3-0.4-0.5-0.6-0.8l0,0
			c-0.2-0.3-0.4-0.5-0.6-0.7l-0.1-0.1c0,0,0,0-0.1-0.1c-0.2-0.3-0.5-0.5-0.7-0.8l-0.1-0.1C110.1,40.9,109.8,40.6,109.5,40.4
			l-1.6-1.7c0.3,0.3,0.5,0.5,0.8,0.8l0.1,0.1C109,39.9,109.3,40.2,109.5,40.4z"/>
		<polygon points="122.5,61.8 120.9,60.2 113.4,73.1 115.1,74.8 		"/>
		<path d="M87.8,91.9c0.3,0,0.5,0,0.8,0c0.1,0,0.2,0,0.3,0c0.2,0,0.4,0,0.5,0s0.2,0,0.3,0c0.2,0,0.3,0,0.5,0c0.1,0,0.2,0,0.3,0
			c0.2,0,0.3,0,0.5,0c0.1,0,0.2,0,0.3,0c0.2,0,0.3,0,0.5-0.1c0.1,0,0.2,0,0.3,0c0.2,0,0.4-0.1,0.5-0.1s0.2,0,0.3,0
			c0.3,0,0.5-0.1,0.8-0.1l0,0c0.3-0.1,0.5-0.1,0.7-0.2c0.1,0,0.2,0,0.3-0.1c0.2,0,0.3-0.1,0.5-0.1c0.1,0,0.2-0.1,0.3-0.1
			c0.2,0,0.3-0.1,0.5-0.1c0.1,0,0.2-0.1,0.3-0.1c0.2,0,0.3-0.1,0.5-0.1c0.1,0,0.2-0.1,0.3-0.1c0.2-0.1,0.3-0.1,0.5-0.2
			c0.1,0,0.2-0.1,0.3-0.1c0.2-0.1,0.3-0.1,0.5-0.2c0.1,0,0.2-0.1,0.2-0.1c0.2-0.1,0.5-0.2,0.7-0.3c0,0,0,0,0.1,0
			c0.2-0.1,0.4-0.2,0.7-0.3c0.1,0,0.2-0.1,0.2-0.1c0.2-0.1,0.3-0.1,0.5-0.2c0.1,0,0.2-0.1,0.3-0.1c0.1-0.1,0.3-0.1,0.4-0.2
			c0.1,0,0.2-0.1,0.3-0.1c0.1-0.1,0.3-0.1,0.4-0.2c0.1,0,0.2-0.1,0.3-0.2c0.1-0.1,0.3-0.2,0.4-0.2s0.2-0.1,0.3-0.1
			c0.2-0.1,0.3-0.2,0.5-0.3c0.1,0,0.1-0.1,0.2-0.1c0.2-0.1,0.4-0.3,0.7-0.4c0,0,0,0,0.1,0c0.2-0.1,0.4-0.3,0.6-0.4
			c0.1,0,0.1-0.1,0.2-0.2s0.3-0.2,0.4-0.3c0.1-0.1,0.2-0.1,0.2-0.2c0.1-0.1,0.3-0.2,0.4-0.3c0.1-0.1,0.2-0.1,0.2-0.2
			c0.1-0.1,0.2-0.2,0.4-0.3c0.1-0.1,0.2-0.1,0.2-0.2c0.1-0.1,0.2-0.2,0.4-0.3c0.1-0.1,0.1-0.1,0.2-0.2s0.3-0.2,0.4-0.4
			c0.1-0.1,0.1-0.1,0.2-0.2c0.2-0.2,0.4-0.3,0.6-0.5l0,0c0.1-0.1,0.2-0.2,0.3-0.3c0.1-0.1,0.2-0.2,0.3-0.2c0.1-0.1,0.2-0.2,0.3-0.3
			c0.1-0.1,0.2-0.2,0.2-0.2c0.1-0.1,0.2-0.3,0.4-0.4c0.1-0.1,0.1-0.1,0.2-0.2c0.2-0.2,0.4-0.4,0.5-0.6l-3.5-6l-1.6-1.7l3.5,6
			c-0.2,0.2-0.4,0.4-0.5,0.6c-0.1,0.1-0.1,0.1-0.2,0.2s-0.2,0.3-0.4,0.4c-0.1,0.1-0.2,0.2-0.2,0.2c-0.1,0.1-0.2,0.2-0.3,0.3
			c-0.1,0.1-0.2,0.2-0.3,0.3c-0.1,0.1-0.2,0.2-0.3,0.3c-0.2,0.2-0.4,0.4-0.6,0.5c-0.1,0.1-0.1,0.1-0.2,0.2s-0.3,0.2-0.4,0.4
			c-0.1,0.1-0.1,0.1-0.2,0.2s-0.2,0.2-0.4,0.3c-0.1,0.1-0.2,0.1-0.2,0.2c-0.1,0.1-0.2,0.2-0.4,0.3c-0.1,0.1-0.2,0.1-0.2,0.2
			c-0.1,0.1-0.3,0.2-0.4,0.3c-0.1,0.1-0.2,0.1-0.2,0.2c-0.1,0.1-0.3,0.2-0.4,0.3c-0.1,0-0.1,0.1-0.2,0.2c-0.2,0.1-0.4,0.3-0.6,0.4
			c0,0,0,0-0.1,0c-0.2,0.1-0.4,0.3-0.7,0.4c-0.1,0-0.1,0.1-0.2,0.1c-0.2,0.1-0.3,0.2-0.5,0.3c-0.1,0-0.2,0.1-0.3,0.1
			c-0.1,0.1-0.3,0.2-0.4,0.2c-0.1,0.1-0.2,0.1-0.3,0.1c-0.1,0.1-0.3,0.1-0.4,0.2c-0.1,0-0.2,0.1-0.3,0.1c-0.1,0.1-0.3,0.1-0.4,0.2
			c-0.1,0-0.2,0.1-0.3,0.1c-0.2,0.1-0.3,0.1-0.5,0.2c-0.1,0-0.2,0.1-0.2,0.1c-0.2,0.1-0.4,0.2-0.7,0.3c0,0,0,0-0.1,0
			c-0.2,0.1-0.5,0.2-0.7,0.3c-0.1,0-0.2,0.1-0.2,0.1c-0.2,0.1-0.3,0.1-0.5,0.2c-0.1,0-0.2,0.1-0.3,0.1c-0.2,0.1-0.3,0.1-0.5,0.2
			c-0.1,0-0.2,0.1-0.3,0.1c-0.2,0-0.3,0.1-0.5,0.1c-0.1,0-0.2,0.1-0.3,0.1c-0.2,0-0.3,0.1-0.5,0.1c-0.1,0-0.2,0.1-0.3,0.1
			c-0.2,0-0.3,0.1-0.5,0.1c-0.1,0-0.2,0-0.3,0.1c-0.2,0.1-0.5,0.1-0.7,0.2l0,0C91.8,90,91.6,90,91.3,90c-0.1,0-0.2,0-0.3,0
			c-0.2,0-0.4,0.1-0.5,0.1s-0.2,0-0.3,0c-0.2,0-0.3,0-0.5,0.1c-0.1,0-0.2,0-0.3,0c-0.2,0-0.3,0-0.5,0c-0.1,0-0.2,0-0.3,0
			c-0.2,0-0.3,0-0.5,0c-0.1,0-0.2,0-0.3,0c-0.2,0-0.4,0-0.5,0s-0.2,0-0.3,0c-0.3,0-0.5,0-0.8,0c-8.3,0-15.7-3.3-21.1-8.7l1.6,1.7
			C72.1,88.6,79.5,91.9,87.8,91.9z"/>
		<path d="M148.3,65.1c0-0.2,0-0.3,0-0.5c0-0.3,0-0.7,0.1-1c0-0.1,0-0.3,0-0.4c0-0.5,0-0.9,0-1.4s0-1.1,0-1.6c0-0.2,0-0.4,0-0.5
			c0-0.4,0-0.7,0-1.1c0-0.2,0-0.4,0-0.6c0-0.3,0-0.6,0-1c0-0.2,0-0.4,0-0.7s0-0.6-0.1-0.9c0-0.1,0-0.1,0-0.2c0-0.3-0.1-0.6-0.1-1
			c0-0.1,0-0.1,0-0.2c0-0.5-0.1-0.9-0.2-1.4c0-0.1,0-0.3-0.1-0.4c0-0.3-0.1-0.7-0.1-1c0-0.1,0-0.3-0.1-0.4c-0.1-0.4-0.1-0.8-0.2-1.1
			c0-0.1,0-0.1,0-0.2c-0.1-0.4-0.2-0.9-0.3-1.3c0-0.1-0.1-0.2-0.1-0.4c-0.1-0.3-0.1-0.7-0.2-1c0-0.1-0.1-0.3-0.1-0.4
			c-0.1-0.4-0.2-0.7-0.3-1.1c0-0.1,0-0.2-0.1-0.3c-0.1-0.4-0.2-0.9-0.4-1.3c0-0.1-0.1-0.2-0.1-0.3c-0.1-0.3-0.2-0.6-0.3-1
			c0-0.1-0.1-0.3-0.1-0.4c-0.1-0.3-0.2-0.7-0.3-1c0-0.1-0.1-0.2-0.1-0.3c-0.1-0.4-0.3-0.8-0.5-1.2c0-0.1-0.1-0.2-0.1-0.3
			c-0.1-0.3-0.2-0.6-0.4-1c-0.1-0.1-0.1-0.3-0.2-0.4c-0.1-0.3-0.3-0.6-0.4-0.9c0-0.1-0.1-0.2-0.1-0.3c-0.2-0.4-0.4-0.8-0.5-1.2
			c0-0.1-0.1-0.2-0.1-0.3c-0.1-0.3-0.3-0.6-0.5-0.9c-0.1-0.1-0.1-0.2-0.2-0.4c-0.1-0.3-0.3-0.6-0.4-0.9c-0.1-0.1-0.1-0.2-0.2-0.3
			c-0.2-0.4-0.4-0.8-0.6-1.1c0-0.1-0.1-0.1-0.1-0.2c-0.2-0.3-0.4-0.6-0.5-0.9c-0.1-0.1-0.1-0.2-0.2-0.4c-0.2-0.3-0.3-0.6-0.5-0.8
			c-0.1-0.1-0.1-0.2-0.2-0.3c-0.2-0.4-0.5-0.7-0.7-1.1l-0.1-0.1c-0.2-0.3-0.4-0.6-0.6-0.9c-0.1-0.1-0.2-0.2-0.2-0.3
			c-0.2-0.3-0.4-0.5-0.6-0.8c-0.1-0.1-0.1-0.2-0.2-0.3c-0.3-0.3-0.5-0.7-0.8-1c0,0,0-0.1-0.1-0.1c-0.2-0.3-0.5-0.6-0.7-0.9
			c-0.1-0.1-0.2-0.2-0.2-0.3c-0.1-0.1-0.2-0.2-0.3-0.4c-0.1-0.1-0.2-0.2-0.3-0.3c-0.1-0.1-0.2-0.3-0.4-0.4c-0.2-0.2-0.4-0.4-0.6-0.6
			c-0.1-0.1-0.2-0.3-0.3-0.4c-0.2-0.2-0.4-0.5-0.6-0.7c-0.1-0.1-0.2-0.2-0.3-0.3c-0.3-0.3-0.6-0.7-0.9-1l-1.6-1.7
			c0.3,0.3,0.6,0.6,0.9,1c0.1,0.1,0.2,0.2,0.3,0.3c0.2,0.2,0.4,0.4,0.6,0.7c0.1,0.1,0.2,0.3,0.3,0.4c0.2,0.2,0.4,0.4,0.6,0.6
			c0.1,0.1,0.2,0.3,0.4,0.4c0.2,0.2,0.4,0.5,0.6,0.7c0.1,0.1,0.2,0.2,0.2,0.3c0.3,0.3,0.5,0.6,0.7,0.9c0,0,0,0.1,0.1,0.1
			c0.3,0.3,0.5,0.7,0.8,1c0.1,0.1,0.1,0.2,0.2,0.3c0.2,0.3,0.4,0.5,0.6,0.8c0.1,0.1,0.2,0.2,0.2,0.3c0.2,0.3,0.4,0.6,0.6,0.9
			l0.1,0.1c0.2,0.4,0.5,0.7,0.7,1.1c0.1,0.1,0.1,0.2,0.2,0.3c0.2,0.3,0.3,0.5,0.5,0.8c0.1,0.1,0.1,0.2,0.2,0.4
			c0.2,0.3,0.4,0.6,0.5,0.9c0,0.1,0.1,0.1,0.1,0.2c0.2,0.4,0.4,0.8,0.6,1.1c0.1,0.1,0.1,0.2,0.2,0.3c0.2,0.3,0.3,0.6,0.4,0.9
			c0.1,0.1,0.1,0.2,0.2,0.4c0.2,0.3,0.3,0.6,0.5,0.9c0,0.1,0.1,0.2,0.1,0.3c0.2,0.4,0.4,0.8,0.5,1.2c0,0.1,0.1,0.2,0.1,0.3
			c0.1,0.3,0.3,0.6,0.4,0.9c0.1,0.1,0.1,0.3,0.2,0.4c0.1,0.3,0.3,0.6,0.4,1c0,0.1,0.1,0.2,0.1,0.3c0.2,0.4,0.3,0.8,0.5,1.2
			c0,0.1,0.1,0.2,0.1,0.3c0.1,0.3,0.2,0.7,0.3,1c0,0.1,0.1,0.3,0.1,0.4c0.1,0.3,0.2,0.6,0.3,1c0,0.1,0.1,0.2,0.1,0.3
			c0.1,0.4,0.2,0.9,0.4,1.3c0,0.1,0,0.2,0.1,0.3c0.1,0.3,0.2,0.7,0.3,1.1c0,0.1,0.1,0.3,0.1,0.4c0.1,0.3,0.2,0.7,0.2,1
			c0,0.1,0.1,0.2,0.1,0.4c0.1,0.4,0.2,0.9,0.3,1.3c0,0.1,0,0.1,0,0.2c0.1,0.4,0.1,0.8,0.2,1.1c0,0.1,0,0.3,0.1,0.4
			c0.1,0.3,0.1,0.7,0.1,1c0,0.1,0,0.3,0.1,0.4c0.1,0.5,0.1,0.9,0.2,1.4c0,0,0,0.1,0,0.2c0,0.4,0.1,0.8,0.1,1.2c0,0.3,0,0.6,0.1,0.9
			c0,0.2,0,0.4,0,0.7s0,0.6,0,1c0,0.2,0,0.4,0,0.6c0,0.4,0,0.7,0,1.1c0,0.2,0,0.4,0,0.5c0,0.5,0,1.1,0,1.6s0,0.9,0,1.4
			c0,0.1,0,0.3,0,0.4c0,0.3,0,0.7-0.1,1c0,0.2,0,0.3,0,0.5c0,0.4-0.1,0.7-0.1,1.1c0,0.1,0,0.2,0,0.3c0,0.5-0.1,0.9-0.1,1.3
			c0,0.1,0,0.2,0,0.3c0,0.4-0.1,0.7-0.1,1.1c0,0.1,0,0.3-0.1,0.4c-0.1,0.4-0.1,0.9-0.2,1.3l0,0c-0.1,0.4-0.2,0.9-0.2,1.3
			c0,0.1-0.1,0.3-0.1,0.4c-0.1,0.3-0.1,0.7-0.2,1c0,0.1,0,0.2-0.1,0.3c-0.1,0.4-0.2,0.9-0.3,1.3c0,0.1,0,0.1-0.1,0.2
			c-0.1,0.4-0.2,0.7-0.3,1.1c0,0.1-0.1,0.2-0.1,0.3c-0.1,0.4-0.2,0.8-0.4,1.3c0,0.1,0,0.1-0.1,0.2c-0.1,0.4-0.2,0.7-0.3,1.1
			c0,0.1-0.1,0.2-0.1,0.3c-0.1,0.4-0.3,0.8-0.4,1.2c0,0.1,0,0.1-0.1,0.2c-0.1,0.4-0.3,0.7-0.4,1.1c0,0.1-0.1,0.2-0.1,0.3
			c-0.2,0.4-0.3,0.8-0.5,1.2c0,0.1,0,0.1-0.1,0.2c-0.1,0.4-0.3,0.7-0.5,1.1c0,0.1-0.1,0.2-0.1,0.3c-0.2,0.4-0.4,0.8-0.5,1.2
			c0,0,0,0.1-0.1,0.1c-0.2,0.4-0.3,0.7-0.5,1.1c0,0.1-0.1,0.2-0.1,0.3c-0.2,0.4-0.4,0.8-0.6,1.2c0,0,0,0.1-0.1,0.1
			c-0.2,0.3-0.4,0.7-0.6,1c-0.1,0.1-0.1,0.2-0.2,0.3c-0.2,0.3-0.4,0.6-0.5,1c0,0.1-0.1,0.1-0.1,0.2c-0.2,0.4-0.4,0.7-0.7,1.1
			c-0.1,0.1-0.1,0.2-0.2,0.3c-0.2,0.3-0.4,0.6-0.5,0.9c-0.1,0.1-0.1,0.2-0.2,0.3c-0.2,0.4-0.5,0.7-0.7,1.1c0,0,0,0,0,0.1
			c-0.2,0.3-0.5,0.7-0.7,1c-0.1,0.1-0.1,0.2-0.2,0.3c-0.2,0.2-0.4,0.5-0.5,0.7c-0.1,0.1-0.2,0.3-0.3,0.4c-0.2,0.2-0.4,0.5-0.5,0.7
			c-0.1,0.1-0.2,0.3-0.3,0.4c-0.2,0.3-0.4,0.5-0.7,0.8c-0.1,0.1-0.1,0.2-0.2,0.2c-0.3,0.3-0.6,0.7-0.9,1c-0.1,0.1-0.2,0.2-0.2,0.3
			c-0.2,0.3-0.5,0.5-0.7,0.7c-0.1,0.1-0.2,0.2-0.3,0.4c-0.2,0.2-0.4,0.4-0.6,0.6c-0.1,0.1-0.3,0.3-0.4,0.4c-0.2,0.2-0.4,0.4-0.6,0.6
			c-0.1,0.1-0.3,0.3-0.4,0.4c-0.2,0.2-0.4,0.4-0.6,0.5c-0.2,0.2-0.3,0.3-0.5,0.5s-0.4,0.3-0.5,0.5c-0.2,0.2-0.4,0.3-0.5,0.5
			c-0.2,0.2-0.4,0.3-0.6,0.5s-0.4,0.3-0.5,0.5c-0.2,0.2-0.4,0.3-0.6,0.5s-0.4,0.3-0.5,0.4c-0.2,0.2-0.4,0.3-0.6,0.5
			c-0.2,0.1-0.4,0.3-0.6,0.4s-0.4,0.3-0.6,0.4s-0.4,0.3-0.6,0.4s-0.4,0.3-0.6,0.4s-0.4,0.3-0.6,0.4s-0.4,0.3-0.6,0.4
			s-0.4,0.3-0.6,0.4s-0.4,0.3-0.6,0.4s-0.4,0.3-0.6,0.4s-0.4,0.3-0.6,0.4s-0.4,0.2-0.6,0.4c-0.2,0.1-0.4,0.3-0.6,0.4
			s-0.4,0.2-0.6,0.4c-0.2,0.1-0.4,0.2-0.7,0.4c-0.2,0.1-0.4,0.2-0.6,0.3c-0.2,0.1-0.4,0.2-0.7,0.3c-0.2,0.1-0.4,0.2-0.6,0.3
			c-0.2,0.1-0.4,0.2-0.7,0.3c-0.2,0.1-0.4,0.2-0.6,0.3c-0.2,0.1-0.5,0.2-0.7,0.3c-0.2,0.1-0.4,0.2-0.6,0.3c-0.2,0.1-0.5,0.2-0.7,0.3
			c-0.2,0.1-0.4,0.2-0.7,0.3c-0.2,0.1-0.5,0.2-0.7,0.3c-0.2,0.1-0.4,0.2-0.7,0.3c-0.2,0.1-0.5,0.2-0.7,0.3c-0.2,0.1-0.4,0.2-0.7,0.2
			c-0.2,0.1-0.5,0.2-0.7,0.3c-0.2,0.1-0.4,0.2-0.7,0.2c-0.2,0.1-0.5,0.2-0.7,0.2c-0.2,0.1-0.5,0.1-0.7,0.2s-0.5,0.1-0.7,0.2
			s-0.5,0.1-0.7,0.2s-0.5,0.1-0.7,0.2s-0.5,0.1-0.7,0.2c-0.3,0.1-0.5,0.1-0.8,0.2c-0.2,0.1-0.5,0.1-0.7,0.2
			c-0.3,0.1-0.5,0.1-0.8,0.2c-0.2,0-0.5,0.1-0.7,0.1c-0.3,0.1-0.5,0.1-0.8,0.1c-0.2,0-0.5,0.1-0.7,0.1c-0.3,0-0.5,0.1-0.8,0.1
			c-0.2,0-0.5,0.1-0.7,0.1c-0.3,0-0.5,0.1-0.8,0.1c-0.2,0-0.5,0.1-0.7,0.1c-0.3,0-0.6,0.1-0.8,0.1c-0.2,0-0.4,0.1-0.7,0.1
			c-0.3,0-0.6,0.1-0.9,0.1c-0.2,0-0.4,0-0.7,0.1c-0.3,0-0.6,0-0.9,0.1c-0.2,0-0.4,0-0.6,0c-0.3,0-0.7,0-1,0c-0.2,0-0.4,0-0.5,0
			c-0.5,0-1,0-1.5,0c-16.5,0-31.3-6.6-42-17.4l1.6,1.7c10.7,10.8,25.5,17.4,42,17.4c0.5,0,1,0,1.5,0c0.2,0,0.4,0,0.5,0
			c0.3,0,0.7,0,1,0c0.2,0,0.4,0,0.6,0c0.3,0,0.6,0,0.9-0.1c0.2,0,0.4,0,0.7-0.1c0.3,0,0.6,0,0.9-0.1c0.2,0,0.4-0.1,0.7-0.1
			c0.3,0,0.6-0.1,0.8-0.1c0.2,0,0.5-0.1,0.7-0.1c0.3,0,0.5-0.1,0.8-0.1c0.2,0,0.5-0.1,0.7-0.1c0.3,0,0.5-0.1,0.8-0.1
			c0.2,0,0.5-0.1,0.7-0.1c0.3,0,0.5-0.1,0.8-0.1c0.2,0,0.5-0.1,0.7-0.1c0.3-0.1,0.5-0.1,0.8-0.2c0.2-0.1,0.5-0.1,0.7-0.2
			c0.3-0.1,0.5-0.1,0.8-0.2c0.2-0.1,0.5-0.1,0.7-0.2s0.5-0.1,0.7-0.2s0.5-0.1,0.7-0.2s0.5-0.1,0.7-0.2s0.5-0.1,0.7-0.2
			s0.5-0.2,0.7-0.2c0.2-0.1,0.4-0.2,0.7-0.2c0.2-0.1,0.5-0.2,0.7-0.3c0.2-0.1,0.4-0.2,0.7-0.2c0.2-0.1,0.5-0.2,0.7-0.3
			c0.2-0.1,0.4-0.2,0.7-0.3c0.2-0.1,0.5-0.2,0.7-0.3c0.2-0.1,0.4-0.2,0.7-0.3c0.2-0.1,0.5-0.2,0.7-0.3c0.2-0.1,0.4-0.2,0.6-0.3
			c0.2-0.1,0.5-0.2,0.7-0.3c0.2-0.1,0.4-0.2,0.6-0.3c0.2-0.1,0.5-0.2,0.7-0.3c0.2-0.1,0.4-0.2,0.6-0.3c0.2-0.1,0.4-0.2,0.7-0.3
			c0.2-0.1,0.4-0.2,0.6-0.3c0.2-0.1,0.4-0.2,0.7-0.4c0.2-0.1,0.4-0.2,0.6-0.4c0.2-0.1,0.4-0.2,0.6-0.4c0.2-0.1,0.4-0.2,0.6-0.4
			c0.2-0.1,0.4-0.3,0.6-0.4s0.4-0.3,0.6-0.4s0.4-0.3,0.6-0.4s0.4-0.3,0.6-0.4s0.4-0.3,0.6-0.4s0.4-0.3,0.6-0.4s0.4-0.3,0.6-0.4
			s0.4-0.3,0.6-0.4s0.4-0.3,0.6-0.4s0.4-0.3,0.6-0.4c0.2-0.2,0.4-0.3,0.6-0.5c0.2-0.1,0.4-0.3,0.5-0.4c0.2-0.2,0.4-0.3,0.6-0.5
			s0.4-0.3,0.5-0.5c0.2-0.2,0.4-0.3,0.6-0.5s0.4-0.3,0.5-0.5c0.2-0.2,0.4-0.3,0.5-0.5c0.2-0.2,0.3-0.3,0.5-0.5
			c0.1-0.1,0.2-0.2,0.3-0.3c0.1-0.1,0.2-0.2,0.2-0.2c0.1-0.1,0.3-0.3,0.4-0.4c0.2-0.2,0.4-0.4,0.6-0.6c0.1-0.1,0.3-0.3,0.4-0.4
			c0.2-0.2,0.4-0.4,0.6-0.6c0.1-0.1,0.2-0.2,0.3-0.4c0.2-0.2,0.5-0.5,0.7-0.8c0.1-0.1,0.2-0.2,0.2-0.3c0.3-0.3,0.6-0.7,0.9-1
			c0.1-0.1,0.1-0.2,0.2-0.2c0.2-0.3,0.5-0.5,0.7-0.8c0.1-0.1,0.2-0.3,0.3-0.4c0.2-0.2,0.4-0.5,0.5-0.7c0.1-0.1,0.2-0.3,0.3-0.4
			s0.2-0.3,0.3-0.4s0.2-0.2,0.2-0.3c0.1-0.1,0.1-0.2,0.2-0.3c0.2-0.3,0.5-0.7,0.7-1c0,0,0,0,0-0.1c0.2-0.4,0.5-0.7,0.7-1.1
			c0.1-0.1,0.1-0.2,0.2-0.3c0.2-0.3,0.4-0.6,0.5-0.9c0.1-0.1,0.1-0.2,0.2-0.3c0.2-0.4,0.5-0.7,0.7-1.1c0-0.1,0.1-0.1,0.1-0.2
			c0.2-0.3,0.4-0.6,0.6-1c0.1-0.1,0.1-0.2,0.2-0.3c0.1-0.1,0.1-0.2,0.2-0.3c0.1-0.2,0.3-0.5,0.4-0.7c0,0,0-0.1,0.1-0.1
			c0.2-0.4,0.4-0.8,0.6-1.2c0-0.1,0.1-0.2,0.1-0.3c0.2-0.4,0.3-0.7,0.5-1.1c0,0,0-0.1,0.1-0.1c0.2-0.4,0.4-0.8,0.5-1.2
			c0-0.1,0.1-0.2,0.1-0.3c0.2-0.4,0.3-0.7,0.5-1.1c0-0.1,0-0.1,0.1-0.2c0.1-0.3,0.3-0.7,0.4-1c0-0.1,0.1-0.2,0.1-0.2
			c0-0.1,0.1-0.2,0.1-0.3c0.1-0.4,0.3-0.7,0.4-1.1c0-0.1,0-0.1,0.1-0.2c0.1-0.4,0.3-0.8,0.4-1.2c0-0.1,0.1-0.2,0.1-0.3
			c0.1-0.4,0.2-0.7,0.3-1.1c0-0.1,0-0.1,0.1-0.2c0.1-0.4,0.2-0.8,0.4-1.3c0-0.1,0.1-0.2,0.1-0.3c0.1-0.4,0.2-0.7,0.3-1.1
			c0-0.1,0-0.1,0.1-0.2V75c0.1-0.4,0.2-0.8,0.3-1.2c0-0.1,0-0.2,0.1-0.3c0.1-0.3,0.1-0.7,0.2-1c0-0.1,0.1-0.2,0.1-0.4
			c0.2-0.9,0.3-1.8,0.5-2.7c0-0.1,0-0.3,0.1-0.4c0.1-0.4,0.1-0.7,0.1-1.1c0-0.1,0-0.2,0-0.3c0-0.4,0.1-0.8,0.1-1.3v-0.1
			c0-0.1,0-0.2,0-0.3C148.3,65.8,148.3,65.5,148.3,65.1z"/>
	</g>
	
		<linearGradient id="SVGID_1_" gradientUnits="userSpaceOnUse" x1="44.5417" y1="105.9583" x2="128.8398" y2="21.6602" gradientTransform="matrix(1 0 0 -1 0 124)">
		<stop  offset="5.405406e-03" style="stop-color:#69BAE0"/>
		<stop  offset="0.2912" style="stop-color:#339BCC"/>
		<stop  offset="0.4432" style="stop-color:#1C8DC3"/>
	</linearGradient>
	<path class="st1" d="M75.4,58.3l-0.2,11.3c0,1,0.8,1.9,1.8,1.9h18.8c1,0,1.9-0.8,1.9-1.9L98,58.3c0-1-0.8-1.9-1.8-1.9h-2
		c0.1-0.6,0.1-1.2,0.2-1.9c0.1-3.1-3.3-5.6-7.4-5.6s-7.6,2.5-7.6,5.6c0,0.7,0,1.3,0.1,1.9h-2C76.3,56.4,75.5,57.3,75.4,58.3z
		 M86.8,51.9c2.1,0,4.8,2.3,3.7,4.5H83C81.9,54.2,84.8,51.9,86.8,51.9z M116.4,60.2h4.5l-7.5,13l-7.9-13h4.5
		c0.1-12.8-10-23.5-22.9-23.6c-13.1,0-23.8,10.5-24,23.6c-0.2,13,10.1,23.6,23.2,23.6c8.2,0,15.5-4.2,19.8-10.5l3.5,6
		c-5.6,6.7-14,11-23.4,11c-16.7,0-29.9-13.5-29.6-30.1c0.3-16.6,14-30,30.6-30C103.7,30.2,116.5,43.2,116.4,60.2z M87.9,0
		C54.6,0,27.2,26.9,26.5,60.2c-0.7,33.2,25.8,60.2,59,60.2s60.7-26.9,61.4-60.2C147.5,26.9,121.1,0,87.9,0z M85.7,110.9
		c-28,0-50.3-22.7-49.8-50.8c0.5-28,23.7-50.8,51.8-50.8c28,0,50.3,22.7,49.8,50.8C136.9,88.2,113.7,110.9,85.7,110.9z"/>
</g>
</svg>
