<?xml version="1.0" encoding="utf-8"?>
<!-- Generator: Adobe Illustrator 21.0.0, SVG Export Plug-In . SVG Version: 6.00 Build 0)  -->
<svg version="1.1" id="Layer_1" xmlns="http://www.w3.org/2000/svg" xmlns:xlink="http://www.w3.org/1999/xlink" x="0px" y="0px"
	 viewBox="0 0 149 149" style="enable-background:new 0 0 149 149;" xml:space="preserve">
<style type="text/css">
	.st0{fill:#FFFFFF;}
</style>
<g>
	<path class="st0" d="M31.6,75.3l-1.2,3.4h-1.5l3.7-11h1.8l3.8,11h-1.5l-1.2-3.4H31.6z M31,67.8l-0.5,2.4h-0.8l0.1-2.6H31V67.8z
		 M35.2,74.2l-1.1-3.1c-0.3-0.7-0.4-1.4-0.5-2l0,0c-0.1,0.7-0.4,1.2-0.5,1.9l-1.1,3.3H35.2z"/>
	<path class="st0" d="M42.9,74.2c-0.3-0.5-0.4-1.1-0.5-1.6h-0.1c0,0.4-0.3,1.1-0.4,1.6l-1.6,4.5h-1.5l2.9-7.3c0-0.1,0-0.3,0-0.3
		c0-0.1,0-0.3-0.1-0.4c-0.5-1.4-1.1-2.4-2-2.4c-0.1,0-0.1,0-0.3,0l0.1-1.2c0.1,0,0.4,0,0.5,0c1.5,0,2.3,1.5,3.1,3.7l3,8h-1.5
		L42.9,74.2z"/>
	<path class="st0" d="M50.6,74.2c-0.1-0.5-0.4-1.1-0.5-1.8h-0.1c-0.1,0.5-0.3,1.1-0.5,1.6l-1.6,4.6h-1.5l2.9-7.3
		c0.3-0.1,0.3-0.3,0.3-0.3c0-0.1,0-0.3-0.1-0.4c-0.5-1.4-1.1-2.4-2-2.4c-0.1,0-0.1,0-0.3,0L47,67c0.1,0,0.4,0,0.5,0
		c1.5,0,2.3,1.5,3.1,3.7l3,8h-1.5L50.6,74.2z"/>
	<path class="st0" d="M61.8,70.8c-0.1,0.8-0.3,3.5-0.3,5.6c0,1,0.3,1.4,0.8,1.4l-0.1,1.1c-0.1,0-0.3,0-0.5,0c-0.7,0-1.2-0.4-1.4-1.6
		l0,0c-0.5,1-1.5,1.6-2.7,1.6c-1.9,0-3.3-1.6-3.3-3.9c0-2.6,1.6-4.4,3.5-4.4c1.1,0,2,0.5,2.4,1.6l0,0c0-0.7,0.1-1,0.1-1.4
		C60.5,70.8,61.8,70.8,61.8,70.8z M58,77.8c1,0,1.9-1,2-2c0.1-0.3,0.3-0.5,0.3-1.1c0-0.3,0-0.5,0-0.8c-0.1-1.1-1-2-2-2
		c-1.4,0-2.3,1.4-2.3,3.1C56,76.4,56.7,77.8,58,77.8z"/>
	<path class="st0" d="M68.9,72.7h-0.4c-2.3,0-3.3,1.1-3.3,2.4c0,1.4,1,2,2.4,2.4c0.8,0.3,1.5,0.3,2.2,0.4c0.1,0,0.1,0.1,0.1,0.1
		c0,0.8-0.5,2.3-1,2.9l-1-0.3c0.3-0.4,0.5-1.4,0.5-1.8c-2.2-0.3-4.9-1-4.9-3.7c0-1.6,1.1-2.9,2.6-3.1v-0.1c-1.2-0.4-1.8-1.2-1.8-2.3
		c0-1.4,1.1-2.7,3.4-2.7c0.8,0,1.5,0.1,2,0.4l-0.4,1c-0.3-0.1-1-0.4-1.6-0.4c-1.4,0-2,0.8-2,1.8c0,1.1,1,1.8,2.3,1.8
		c0.3,0,0.5,0,0.8,0v1.2H68.9z"/>
	<path class="st0" d="M77.1,78.2c-0.5,0.4-1.8,0.7-2.9,0.7c-1.6,0-3.3-0.7-3.3-2.4c0-1,0.8-1.8,1.9-2v0.1c-1.1-0.3-1.6-0.8-1.6-1.6
		c0-1.1,1.1-2.2,3.1-2.2c1.1,0,1.8,0.3,2.4,0.5l-0.3,1c-0.3-0.3-1.2-0.5-2-0.5c-1.1,0-1.8,0.4-1.8,1.2c0,0.8,1,1.1,2.2,1.1h1V75h-1
		c-1.4,0-2.4,0.4-2.4,1.4s1,1.5,2,1.5c0.8,0,1.9-0.3,2.3-0.5L77.1,78.2z"/>
	<path class="st0" d="M86.1,78.9C85.9,79,85.5,79,85.2,79c-1.2,0-1.8-0.8-1.8-2.4v-4.5h-0.8c-0.8,0-1.2,0-1.6,0.1l-0.1-0.8
		c0.3-0.1,0.8-0.4,2.2-0.4h4.5l-0.1,1.1H85v4.5c0,1.1,0.4,1.4,1,1.4c0.1,0,0.3,0,0.4,0L86.1,78.9z"/>
	<path class="st0" d="M94,76c0,1,0.5,1.8,1.4,1.8s1.6-1,1.6-3.1c0-1.5-0.5-3-1.4-3.7l0,0H97c0.7,0.5,1.4,2,1.4,3.8
		c0,3-1.5,4.4-3,4.4c-1,0-1.8-0.5-2-1.4l0,0c-0.4,0.8-1.1,1.4-2,1.4c-1.4,0-2.9-1.2-2.9-4.2c0-1.8,0.7-3.3,1.4-3.9h1.4l0,0
		c-0.7,0.8-1.4,2.2-1.4,3.8c0,2.2,1,3,1.6,3c0.7,0,1.4-0.8,1.4-1.8v-3h1.4L94,76z M95,67.6l-1.4,2.3h-1l0.8-2.3
		C93.5,67.6,95,67.6,95,67.6z"/>
	<path class="st0" d="M100.2,82c-0.1-0.5-0.1-1.6-0.1-2.9v-3.7c0-2,0.5-3,1.1-3.7c0.5-0.7,1.5-1.2,2.7-1.2c2.2,0,3.7,1.6,3.7,4.1
		c0,2.9-1.8,4.2-3.7,4.2c-1.1,0-1.9-0.4-2.4-1.2l0,0v1.2c0,1,0,2.3,0.1,3h-1.4V82z M101.6,75.7c0,0.1,0,0.4,0,0.5
		c0.3,1,1.1,1.6,2.2,1.6c1.5,0,2.4-1.4,2.4-3.1c0-1.5-0.8-2.9-2.3-2.9c-1.1,0-2.3,1-2.3,3.1C101.6,75,101.6,75.7,101.6,75.7z"/>
	<path class="st0" d="M116.1,70.8c0,0.8-0.1,3.5-0.1,5.7c0,1,0.3,1.4,0.8,1.4l-0.1,1.1c-0.1,0-0.3,0-0.5,0c-0.7,0-1.2-0.4-1.4-1.6
		l0,0c-0.5,1-1.5,1.6-2.7,1.6c-1.9,0-3.3-1.6-3.3-3.9c0-2.6,1.6-4.4,3.5-4.4c1.1,0,2,0.5,2.4,1.6l0,0c0-0.7,0.1-1,0.1-1.4h1.2V70.8z
		 M112.3,77.8c1,0,1.9-1,2-2c0.3-0.3,0.3-0.5,0.3-1.1c0-0.3,0-0.5,0-0.8c-0.1-1.1-1-2-2-2c-1.4,0-2.3,1.4-2.3,3.1
		C110.3,76.4,111,77.8,112.3,77.8z"/>
	<path class="st0" d="M118,77.9c0-0.5,0.4-1,1-1c0.7,0,1.1,0.4,1.1,1s-0.4,1-1,1C118.4,79,118,78.4,118,77.9z M118.4,75.6l-0.3-7.9
		h1.6l-0.3,7.9H118.4z"/>
</g>
</svg>
