<?xml version="1.0" encoding="utf-8"?>
<!-- Generator: Adobe Illustrator 21.0.0, SVG Export Plug-In . SVG Version: 6.00 Build 0)  -->
<svg version="1.1" id="Layer_1" xmlns="http://www.w3.org/2000/svg" xmlns:xlink="http://www.w3.org/1999/xlink" x="0px" y="0px"
	 viewBox="0 0 47 51" style="enable-background:new 0 0 47 51;" xml:space="preserve">
<style type="text/css">
	.st0{fill:#FFFFFF;}
	.st1{fill:none;}
</style>
<g>
	<path class="st0" d="M37.2,44.2c0-0.5-0.4-0.5-0.7-0.7c0,0-0.2,0.3-0.6,0.1c-0.3-0.2-1.1-0.5-0.6-0.1c0.3,0.3,0.7,0.5,0.5,1
		c0.6,0.9,0,1.4,0,1.4c0.1-0.5-0.2-0.7-0.4-0.9c-0.1,0-0.5,0.1-0.5,0c-0.3-0.1-0.3-0.5-0.5-0.8c-0.3-0.5-0.5-0.3-1.1-0.5
		c-0.5-0.3-0.8-0.3-1.5-0.2c-0.5,0.1-0.6,0.2-0.8,0.3c-0.2,0.1-0.7-0.3-0.7-0.3c-0.3,0.2-0.6,0.3-0.7,0.8c0,0-0.6-1.1,0.5-1.5
		c0.1-0.7,0.8-0.5,0.8-0.5s0.7,0.2-1.2-1.7c-1.2-1.2-1.2-1.9-1.5-1.2C28.1,39.5,28,40,28,39.9c-0.1-0.5-0.3-0.9,0-1.9
		c0,0,2.2-1.7-1.7-4.7c0,0,1.5-1.7,3.7-2.7c0,0,1.7,1.2,2.2,2.7c0.5,1.2,0.1,1.5-0.7,4.1c-0.1,0.3-0.3,0.7-0.3,1
		c-0.1,0.5,0.1,0.9,0.3,1.5c0.5,1,0.5,1.2,1.5,1.7c0,0,0.5,0.4,1,0.5c0.8,0.1,1.9-0.5,2.1,0.3c0.3,0.1,0.5,0.5,0.5,0.7
		C37.7,43.3,37.2,44.2,37.2,44.2z"/>
	<path class="st1" d="M36.5,43c-0.1-0.2-0.2-0.6-0.5-0.7c-0.1-0.8-1.3-0.2-2.1-0.3c-0.5-0.1-1-0.5-1-0.5c-1.1-0.5-1.1-0.7-1.5-1.7
		c-0.2-0.5-0.3-1-0.3-1.5c0.1-0.3,0.3-0.7,0.3-1c0.8-2.6,1.2-2.9,0.7-4.1c-0.5-1.5-2.2-2.7-2.2-2.7c-2.1,1-3.7,2.7-3.7,2.7
		C30.2,36.3,28,38,28,38c-0.3,1-0.1,1.4,0,1.9c0,0.1,0.1-0.4,0.2-0.6c0.3-0.7,0.3,0,1.5,1.2c1.9,1.9,1.2,1.7,1.2,1.7
		s-0.7-0.2-0.8,0.5c-1.1,0.4-0.5,1.5-0.5,1.5c0.1-0.5,0.4-0.6,0.7-0.8c0.1,0.1,0.5,0.5,0.7,0.3c0.2-0.1,0.3-0.3,0.8-0.3
		c0.7-0.1,0.9-0.1,1.5,0.2c0.6,0.3,0.8,0.1,1.1,0.5c0.1,0.3,0.2,0.7,0.5,0.8c0.1,0.1,0.4,0,0.5,0c0.2,0.2,0.5,0.5,0.4,0.9
		c0,0,0.6-0.5,0-1.4c0.3-0.5-0.2-0.7-0.5-1c-0.5-0.5,0.3-0.1,0.6,0.1c0.4,0.2,0.6-0.1,0.6-0.1c0.3,0.2,0.7,0.3,0.7,0.7
		C37.2,44.2,37.7,43.3,36.5,43z"/>
	<g>
		<path class="st0" d="M44.3,24.2c0.3,0,0.5,0.1,0.8,0.3c0,0,0-1-1-0.9c-0.1-0.1-0.3-0.2-0.6-0.2c-0.3-0.1-0.6,0.2-1.2,0.3
			c-0.1-0.2,0.1-0.3,0.3-0.5c0.1-0.1,0.1-0.3,0.1-0.5c0.1-0.2,0.3-0.3,0.5-0.3c0,0-0.7-0.5-1.1,0.2c-0.1,0-0.3,0.1-0.4,0.3
			c-0.2,0.2-0.2,0.5-0.5,0.9c-0.3,0-0.5,0-0.5,0c-0.1-0.1-0.3,0-1.1,0.1c-0.5,0.1-1.3,0.3-1.7,0.3c-1.3-0.1-3.8-1.7-4.5-2.9
			c0,0,0.7-5.2-2.9-6.8c0,0,0.9-0.5,1.3-0.5c0,0-0.9-1-3.1-1.9c-1.2-0.5-2.6-1.7-2.6-2.5c0,0,0.5,0,1.1-0.1c0.6-0.1,1.7,0.1,2,0.7
			c0.2,0.4,0.3,0.7,0.8,0.8s0.8,0.1,0.5,0.5c-0.1,0.1-0.3,0.3-0.4,0.3c0.2,0.1,0.9,0,1.3-0.7c0,0,0.3,0,0.6-0.2
			c0.3-0.3,0.3-0.7,0.3-0.7s-0.3,0-0.7-0.1l0.1-0.5l-0.5,0.4c-0.1,0-0.3-0.1-0.4-0.1L31,9.3l-0.5,0.4c-0.1-0.1-0.3-0.1-0.4-0.3
			l0.1-0.6l-0.4,0.3c-0.2-0.1-0.3-0.2-0.5-0.3l0.1-0.5l-0.4,0.3c-0.7-0.5-0.9-0.8-1.5-1.1c-0.4-0.1,0.5-0.2,1.2-0.1v0.4l0.4-0.3
			l0.4,0L29.6,8L30,7.6l0.5,0.2l-0.1,0.6l0.3-0.3l0.5,0.2L31,9l0.5-0.5c0.2,0.1,0.3,0.2,0.5,0.2l-0.1,0.6l0.6-0.5c0.1,0,0.3,0,0.3,0
			c0.6-0.1,0.6-0.7,0.6-0.7l0.3,0.4c0,0,0.5-0.9,0.2-1.3C33.7,7,34,6.8,34,6.8s-0.3,0-0.5-0.5c-0.2-0.4-1.3-0.8-1.2-0.5
			c0.1,0.3-0.6,0.1-0.9,0c-0.5-0.1-1.1-0.3-1.1-0.3s-0.8-0.3-0.7-0.5c0.1-0.2-0.1-0.5-0.1-0.5s0-0.5-0.7-0.7
			c-0.5-0.2-2.1-0.6-2.9-0.7c-0.7-1.1-0.7-2.1-0.7-2.1c-0.4,0.9-0.4,1.7-0.4,2.2C22.7,1.8,22,0.2,22,0.2c-0.1,1.2,0.2,2.2,0.5,2.9
			c-0.9-0.2-1.8,0.1-1.8,0.1c0.4,0.6,0.6,0.7,0.7,1.1c-1.1,0.5-1.3,0.9-1.5,1.2c0,0,0.7,0,1.2,0.1c-0.6,0.5-1.3,1.5-1.9,3
			c0,0,1.7-1.4,1.7-1.3c-0.3,0.3-1.1,1.3-1.3,3.7c0,0,0.7-1.3,1.2-1.6c-0.2,0.6-0.3,1.6,0.1,4c0,0,0.4-1.3,0.8-1.9
			c0.1,1.1,0.4,1.9,0.8,2.8c0.1-0.2,0.2-0.4,0.3-0.7c0.7,1.2,1.4,2.1,1.1,2.7c-0.4,0.9-1.2,1.4-2.9,0.9c-3.4-1-3.5-4.6-3.1-4.8
			c0.7-0.3,0.3-0.6,0.3-0.6s-1.1-0.1-1.9-0.2c-4-2.7-6-5.9-6-5.9c1,2.5,1,3.9,0.8,4.7c-3.2-0.9-6.5-2.2-11-4.6
			c6.5,5.7,4.7,9.8,4.7,9.8c3.5-0.3,5.5,2,6,2.9c1.8,4.7-0.8,6,0.1,5.8c2.9-0.7,4.4,0.6,5.1,2.5c2-1.1,3.2-0.1,3.9,0.1
			c-1.3,0.7-2,1.2-2.8,2.1c-1,1.1-1.7,2.1-2.2,2.9c-0.7,1-2.3,1.7-3.1,1.5l0.5,0.5c0,0-1.4,1-3.6-0.2c-0.7-0.4-1.4-1.3-1.5-2.3
			C6.8,30.7,7,29.7,7,29.7l1,0.6c-0.5-1-0.5-3.1-0.5-3.1C6.3,29,5.6,30,5.6,30l0.9-0.4c0,0-0.1,0.2-0.2,1.2c-0.1,1,0.2,2.4,1.4,3.5
			c2.4,2.3,5.1,1.1,6.1,0.7c0.9-0.5,1.9-1.2,3.9-3.7c0,0-0.8,1.5,0.3,3.6c1.5,3-1.6,4.5-1.8,4.6c0,1,0.1,2.2-0.3,2.6
			c0,0.1,0.7-0.4,0.9-0.6c0.7-0.5,0.5,0.5,1.3,2.3c1.3,2.7,0.3,1.5-0.1,1.5s-0.5-0.1-1,0.5c-1.4-0.4-1.4,1.1-1.4,1.1
			c0.3-0.5,0.7-0.5,1.1-0.5c0,0.1,0,0.5,0.5,0.6c0.3,0.1,0.7-0.2,1.4-0.1c0.2,0,1.3,0.1,1.8,0.5c0.5,0.3,0.7,0.3,0.8,0.9
			c0.2,0.7,0.1,0.9,0.3,1.2c0.3,0.6,0.4,1,0.1,1.3c0,0,0.9-0.2,0.9-1.1c0.1,0,0.7-0.7,0-1.6c-0.5-0.7-0.1-0.3,0.1-0.3
			c0.5,0.3,0.8,0.5,1.3,0.9c0.4,0.3,0.6,0.1,0.9,0c0.3,0.2,0.6,0.5,0.6,1c0,0,0.9-1-0.3-1.7c-0.1-0.2-0.1-0.4-0.5-0.5
			C24,47.2,23.3,47,23.3,47c0-0.3,1.3-0.1,1.1-0.7c0.3,0,0.5-0.1,0.8,0.2c0,0,0-0.7-0.9-0.8c-0.5-0.5-1.3,0.5-1.7,0.2
			c-0.1-0.1-0.5-0.4-0.9-0.6c-0.1-0.1-1.1-0.1-1.4-1.6c-0.1-1-0.7-1.8,0.3-3.1c1-1.1,1.3-1.1,2.5-2.3c1.5-1.3,1.5-2.4,1.5-3.9
			c0,0-0.1-1.3,1.9-2.9c1.7-1.3,2.7-1.5,3.9-2.9c1.9-2.2,0.3-2.8,0.3-2.8l-1-0.5c0,0,1.3-0.1,2.5,0.6C32.8,26,34,27,34.8,27
			c0.1,0-0.4-0.4-0.4-0.6c-0.1-0.9,1.5-0.3,3-0.6c2.2-0.5,1.7,0,1.7,0s-0.4,0.7,0.1,1.1c-0.1,1.1,0.9,1,0.9,1
			c-0.3-0.2-0.3-0.5-0.3-0.8c0.1,0,0.3-0.2,0.3-0.4c0.1-0.3-0.2-0.3,0.1-0.7c0.4-0.5,0.8-0.7,1.3-0.7c0.5,0,0.8,0.2,1.1,0.5
			c0.2,0.1,0.3,0.3,0.6,0.3c0.6,0.2,0.9,0.3,0.9,0.7c0,0,0.5-0.7-0.3-1.2c0-0.1-0.1-0.3-0.3-0.5c-0.3-0.3-0.7-0.4-1.3-0.5
			c0.5,0,1.2,0,1.5,0.1C44,24.6,44.2,24.4,44.3,24.2z M32.6,6.7c0.3,0,0.8,0,0.7,0.3C33.2,7.2,32.7,7,32.6,7l-0.4-0.3L32.6,6.7z
			 M28.4,4.5c1.1,0.3,0.9,0.9,0.9,0.9C27.7,5.9,27.4,4,27.4,4S27.5,4.3,28.4,4.5z M6.3,14.7c1.2-1.5,9.7-2,9.7-2L6.3,14.7z M12.2,23
			c-0.1-2.5,4.9-9.4,4.9-9.4L12.2,23z"/>
		<path class="st0" d="M37.8,17.3c-0.9,1.1-0.9,0.9-1.9,1.2c-0.7,0.1-1.1,0.4-1.9-0.2c0.1,1.2,0.3,2.2,0.1,2.7
			c0.7,0,0.9-0.1,1.2-0.3c-0.6-0.7-0.2-0.5,0.9-1.1c1.7-1,1.4-0.4,1.4-0.4s-0.2,0.5,0.2,0.7c-0.2,0.9,0.7,0.9,0.7,0.9
			c-0.3-0.2-0.3-0.5-0.3-0.7c0.1,0,0.4-0.3,0.4-0.4c0-0.2-0.2-0.3-0.1-0.7c0.2-0.5,0.3-0.7,0.7-1c0.3-0.3,0.6-0.7,1-0.7
			c0.2-0.1,0.5,0,0.7-0.1c0.1-0.1,0.2-0.3,0.2-0.4c0.3-0.1,0.5-0.2,0.7,0.1c0,0-0.1-0.7-0.9-0.5c-0.3-0.4-0.6-0.1-0.8,0
			c-0.5,0.2-0.3,0.1-0.5,0.2c0.2-0.3,0.5-0.4,0.7-0.5c0.2-0.1,0.2-0.4,0.1-0.6c0.2-0.1,0.5-0.2,0.7-0.1c0,0-0.5-0.7-1.1-0.2
			c-0.1,0-0.2-0.1-0.5,0.3c-0.2,0.1-0.1,0.1-0.5,0.5c0-0.3-0.1-0.4-0.2-0.5c0-0.1,0.1-0.3,0.3-0.5c0,0-0.5-0.1-0.6,0.5
			c-0.5,0.3,0.1,0.8-0.1,1.3C38.4,16.8,37.9,17,37.8,17.3z"/>
		<path class="st0" d="M40.7,9.6c-2.9,1.5-5.1,1.5-6.8,0.3c0.5,1.1,1.2,1.7,1.9,2.3c1.8,1.3,4.3,1.3,7.3-0.8
			c1.8-1.3,3.9-0.9,3.9-0.8C45.5,8.9,42.5,8.6,40.7,9.6z"/>
	</g>
</g>
</svg>
