<?xml version="1.0" encoding="utf-8"?>
<!-- Generator: Adobe Illustrator 21.0.0, SVG Export Plug-In . SVG Version: 6.00 Build 0)  -->
<svg version="1.1" id="Layer_1" xmlns="http://www.w3.org/2000/svg" xmlns:xlink="http://www.w3.org/1999/xlink" x="0px" y="0px"
	 viewBox="0 0 315 315" style="enable-background:new 0 0 315 315;" xml:space="preserve">
<style type="text/css">
	.st0{fill:#112243;}
	.st1{fill:#1B386E;}
	.st2{opacity:0.45;}
	.st3{fill:#DADADA;}
</style>
<g>
	<path class="st0" d="M314.2,169.4c0-0.4,0.1-0.8,0.1-1.2c0.1-0.8,0.1-1.7,0.1-2.6c0-0.4,0-0.7,0.1-1.1c0.1-1.2,0.1-2.4,0.1-3.6
		c0-1.4,0-2.8,0-4.1c0-0.5,0-0.9,0-1.4c0-0.9,0-1.8-0.1-2.7c0-0.5,0-1.1-0.1-1.6c0-0.8-0.1-1.6-0.1-2.5c0-0.6-0.1-1.1-0.1-1.7
		c-0.1-0.8-0.1-1.6-0.2-2.3c0-0.2,0-0.3,0-0.5c0-0.2-0.1-0.5-0.1-0.7c-0.1-1.5-0.3-3-0.5-4.4c0-0.3-0.1-0.7-0.1-1
		c-0.2-1.7-0.5-3.4-0.8-5.1c-0.1-0.4-0.1-0.8-0.2-1.1c-0.3-1.5-0.5-2.9-0.8-4.4c-0.1-0.3-0.1-0.6-0.2-0.9c-0.3-1.7-0.7-3.3-1.1-4.9
		c-0.1-0.4-0.2-0.8-0.3-1.1c-0.4-1.4-0.7-2.9-1.1-4.3c-0.1-0.3-0.1-0.5-0.2-0.8c-0.5-1.6-1-3.2-1.5-4.8c-0.1-0.4-0.3-0.8-0.4-1.1
		c-0.5-1.4-1-2.8-1.5-4.2c-0.1-0.2-0.2-0.5-0.3-0.7c-0.6-1.6-1.2-3.1-1.8-4.6c-0.2-0.4-0.3-0.7-0.5-1.1c-0.6-1.4-1.2-2.7-1.8-4.1
		c-0.1-0.2-0.2-0.4-0.3-0.6c-0.7-1.5-1.4-3-2.2-4.4c-0.2-0.4-0.4-0.7-0.6-1.1c-0.7-1.3-1.4-2.7-2.1-4c-0.1-0.1-0.2-0.3-0.2-0.4
		c-0.8-1.4-1.6-2.9-2.5-4.3c-0.2-0.3-0.4-0.7-0.6-1c-0.8-1.3-1.6-2.6-2.5-3.9c-0.1-0.1-0.1-0.2-0.2-0.3c-0.9-1.4-1.8-2.7-2.8-4.1
		c-0.2-0.3-0.5-0.7-0.7-1c-0.9-1.3-1.9-2.6-2.8-3.8c0-0.1-0.1-0.1-0.1-0.2c-1-1.3-2-2.6-3.1-3.8c-0.1-0.2-0.2-0.3-0.4-0.5
		c-0.1-0.1-0.2-0.3-0.3-0.4c-1.2-1.4-2.4-2.9-3.7-4.2c-0.2-0.2-0.4-0.4-0.6-0.6c-1.3-1.5-2.7-2.9-4.1-4.3l-6.9-7
		c1.4,1.4,2.7,2.8,4.1,4.3c0.2,0.2,0.4,0.4,0.6,0.6c1.3,1.4,2.5,2.8,3.7,4.2c0.2,0.3,0.5,0.6,0.7,0.9c1,1.3,2.1,2.5,3.1,3.8
		c0,0,0.1,0.1,0.1,0.1c1,1.3,1.9,2.5,2.9,3.8c0.2,0.3,0.5,0.7,0.7,1c0.9,1.3,1.9,2.7,2.8,4.1c0.1,0.1,0.1,0.2,0.2,0.3
		c0.8,1.3,1.7,2.6,2.5,3.9c0.2,0.3,0.4,0.7,0.6,1c0.8,1.4,1.7,2.8,2.5,4.3c0.1,0.1,0.2,0.3,0.2,0.4c0.7,1.3,1.4,2.7,2.1,4
		c0.2,0.4,0.4,0.7,0.5,1.1c0.7,1.5,1.5,3,2.2,4.4c0.1,0.2,0.2,0.4,0.3,0.6c0.6,1.4,1.2,2.7,1.8,4.1c0.2,0.4,0.3,0.7,0.5,1.1
		c0.6,1.5,1.2,3.1,1.8,4.6c0.1,0.2,0.2,0.5,0.3,0.7c0.5,1.4,1,2.8,1.5,4.2c0.1,0.4,0.3,0.8,0.4,1.1c0.5,1.6,1,3.2,1.5,4.8
		c0.1,0.3,0.1,0.5,0.2,0.8c0.4,1.4,0.8,2.8,1.1,4.3c0.1,0.4,0.2,0.8,0.3,1.1c0.4,1.6,0.8,3.3,1.1,4.9c0.1,0.3,0.1,0.6,0.2,0.9
		c0.3,1.4,0.6,2.9,0.8,4.4c0.1,0.4,0.1,0.8,0.2,1.1c0.3,1.7,0.5,3.4,0.8,5.1c0,0.3,0.1,0.7,0.1,1c0.2,1.5,0.3,3,0.5,4.4
		c0,0.4,0.1,0.8,0.1,1.3c0.1,0.8,0.1,1.6,0.2,2.3c0,0.6,0.1,1.1,0.1,1.7c0,0.8,0.1,1.6,0.1,2.5c0,0.5,0.1,1.1,0.1,1.6
		c0,0.9,0,1.8,0.1,2.7c0,0.5,0,0.9,0,1.4c0,1.4,0,2.8,0,4.1c0,1.2-0.1,2.4-0.1,3.6c0,0.4,0,0.7-0.1,1.1c0,0.9-0.1,1.7-0.1,2.6
		c0,0.4-0.1,0.8-0.1,1.2c-0.1,0.9-0.1,1.8-0.2,2.8c0,0.3,0,0.5-0.1,0.8c0,0.3-0.1,0.5-0.1,0.8c-0.1,1.4-0.3,2.9-0.5,4.3
		c-0.1,0.4-0.1,0.9-0.2,1.3c-0.2,1.6-0.5,3.3-0.8,4.9c0,0,0,0,0,0c-0.3,1.6-0.6,3.3-0.9,4.9c-0.1,0.4-0.2,0.9-0.3,1.3
		c-0.3,1.4-0.6,2.8-1,4.2c-0.1,0.2-0.1,0.5-0.2,0.7c-0.4,1.5-0.8,3-1.2,4.4c-0.1,0.4-0.2,0.8-0.3,1.2c-0.3,1.1-0.7,2.2-1,3.3
		c-0.1,0.4-0.3,0.9-0.4,1.3c-0.4,1.2-0.8,2.5-1.2,3.7c-0.1,0.2-0.2,0.5-0.2,0.7c-0.5,1.4-1,2.9-1.6,4.3c-0.1,0.4-0.3,0.8-0.5,1.1
		c-0.4,1.1-0.9,2.1-1.3,3.2c-0.2,0.4-0.4,0.8-0.5,1.3c-0.5,1.2-1.1,2.5-1.7,3.7c-0.1,0.2-0.1,0.3-0.2,0.5c-0.6,1.4-1.3,2.7-2,4.1
		c-0.2,0.4-0.4,0.8-0.6,1.1c-0.5,1-1.1,2-1.6,3c-0.2,0.4-0.4,0.8-0.6,1.2c-0.8,1.4-1.6,2.8-2.4,4.2c-0.1,0.2-0.2,0.3-0.3,0.5
		c-0.7,1.2-1.5,2.4-2.3,3.6c-0.2,0.4-0.5,0.7-0.7,1.1c-0.8,1.3-1.7,2.6-2.6,3.9c0,0-0.1,0.1-0.1,0.1c-0.9,1.3-1.9,2.6-2.8,3.9
		c-0.2,0.3-0.5,0.6-0.7,0.9c-1.1,1.5-2.3,3-3.5,4.5c-0.2,0.2-0.3,0.4-0.5,0.6c-1.2,1.5-2.4,2.9-3.7,4.4c-0.1,0.1-0.2,0.2-0.2,0.3
		c-1.3,1.5-2.6,2.9-3.9,4.3c-0.2,0.2-0.4,0.5-0.7,0.7c-1.3,1.4-2.6,2.7-4,4c-0.4,0.4-0.8,0.7-1.1,1.1c-0.4,0.4-0.9,0.8-1.3,1.2
		c-0.5,0.4-0.9,0.9-1.4,1.3c-0.4,0.4-0.9,0.8-1.3,1.2c-0.5,0.4-1,0.8-1.4,1.2c-0.5,0.4-0.9,0.8-1.4,1.2c-0.5,0.4-1,0.8-1.5,1.2
		c-0.5,0.4-0.9,0.8-1.4,1.1c-0.5,0.4-1,0.8-1.5,1.2c-0.5,0.4-0.9,0.7-1.4,1.1c-0.5,0.4-1,0.8-1.5,1.1c-0.5,0.4-1,0.7-1.4,1.1
		c-0.5,0.4-1,0.7-1.5,1.1c-0.5,0.3-1,0.7-1.5,1c-0.5,0.4-1,0.7-1.6,1.1c-0.5,0.3-1,0.7-1.5,1c-0.5,0.4-1.1,0.7-1.6,1
		c-0.5,0.3-1,0.7-1.5,1c-0.5,0.3-1.1,0.7-1.6,1c-0.5,0.3-1,0.6-1.5,0.9c-0.5,0.3-1.1,0.6-1.6,1c-0.5,0.3-1,0.6-1.6,0.9
		c-0.6,0.3-1.1,0.6-1.7,0.9c-0.5,0.3-1.1,0.6-1.6,0.9c-0.6,0.3-1.1,0.6-1.7,0.9c-0.5,0.3-1.1,0.6-1.6,0.8c-0.6,0.3-1.1,0.6-1.7,0.8
		c-0.5,0.3-1.1,0.5-1.6,0.8c-0.6,0.3-1.2,0.5-1.8,0.8c-0.5,0.3-1.1,0.5-1.6,0.7c-0.6,0.3-1.2,0.5-1.8,0.8c-0.6,0.2-1.1,0.5-1.7,0.7
		c-0.6,0.2-1.2,0.5-1.8,0.7c-0.6,0.2-1.1,0.5-1.7,0.7c-0.6,0.2-1.2,0.5-1.8,0.7c-0.6,0.2-1.1,0.4-1.7,0.6c-0.6,0.2-1.2,0.4-1.8,0.6
		c-0.6,0.2-1.1,0.4-1.7,0.6c-0.6,0.2-1.2,0.4-1.9,0.6c-0.6,0.2-1.1,0.4-1.7,0.5c-0.6,0.2-1.3,0.4-1.9,0.6c-0.6,0.2-1.2,0.3-1.7,0.5
		c-0.6,0.2-1.3,0.3-1.9,0.5c-0.6,0.2-1.2,0.3-1.7,0.5c-0.6,0.2-1.3,0.3-1.9,0.5c-0.6,0.1-1.2,0.3-1.8,0.4c-0.7,0.1-1.3,0.3-2,0.4
		c-0.6,0.1-1.2,0.3-1.8,0.4c-0.7,0.1-1.3,0.3-2,0.4c-0.6,0.1-1.2,0.2-1.8,0.3c-0.7,0.1-1.4,0.2-2.1,0.3c-0.6,0.1-1.2,0.2-1.7,0.3
		c-0.7,0.1-1.4,0.2-2.1,0.3c-0.6,0.1-1.1,0.2-1.7,0.2c-0.7,0.1-1.4,0.2-2.2,0.2c-0.6,0.1-1.1,0.1-1.7,0.2c-0.7,0.1-1.5,0.1-2.2,0.2
		c-0.6,0-1.1,0.1-1.7,0.1c-0.8,0.1-1.6,0.1-2.3,0.1c-0.5,0-1,0.1-1.6,0.1c-0.8,0-1.7,0.1-2.5,0.1c-0.5,0-0.9,0-1.4,0.1
		c-1.3,0-2.6,0-3.9,0c-42.2,0-80-17-107.2-44.5l6.9,7c27.2,27.5,65.1,44.5,107.2,44.5c1.3,0,2.6,0,3.9,0c0.5,0,0.9,0,1.4-0.1
		c0.8,0,1.7-0.1,2.5-0.1c0.5,0,1-0.1,1.6-0.1c0.8,0,1.6-0.1,2.3-0.1c0.6,0,1.1-0.1,1.7-0.1c0.7-0.1,1.5-0.1,2.2-0.2
		c0.6-0.1,1.1-0.1,1.7-0.2c0.7-0.1,1.4-0.2,2.2-0.2c0.6-0.1,1.1-0.2,1.7-0.2c0.7-0.1,1.4-0.2,2.1-0.3c0.6-0.1,1.2-0.2,1.7-0.3
		c0.7-0.1,1.4-0.2,2.1-0.3c0.6-0.1,1.2-0.2,1.8-0.3c0.7-0.1,1.3-0.2,2-0.4c0.6-0.1,1.2-0.3,1.8-0.4c0.7-0.1,1.3-0.3,2-0.4
		c0.6-0.1,1.2-0.3,1.8-0.4c0.6-0.2,1.3-0.3,1.9-0.5c0.6-0.1,1.2-0.3,1.7-0.5c0.6-0.2,1.3-0.3,1.9-0.5c0.6-0.2,1.2-0.3,1.7-0.5
		c0.6-0.2,1.3-0.4,1.9-0.6c0.6-0.2,1.2-0.4,1.7-0.5c0.6-0.2,1.2-0.4,1.9-0.6c0.6-0.2,1.1-0.4,1.7-0.6c0.6-0.2,1.2-0.4,1.8-0.6
		c0.6-0.2,1.1-0.4,1.7-0.6c0.6-0.2,1.2-0.5,1.8-0.7c0.6-0.2,1.1-0.4,1.7-0.7c0.6-0.2,1.2-0.5,1.8-0.7c0.6-0.2,1.1-0.5,1.7-0.7
		c0.6-0.3,1.2-0.5,1.8-0.8c0.6-0.2,1.1-0.5,1.6-0.7c0.6-0.3,1.2-0.5,1.8-0.8c0.5-0.3,1.1-0.5,1.6-0.8c0.6-0.3,1.1-0.6,1.7-0.8
		c0.5-0.3,1.1-0.6,1.6-0.8c0.6-0.3,1.1-0.6,1.7-0.9c0.5-0.3,1.1-0.6,1.6-0.9c0.6-0.3,1.1-0.6,1.7-0.9c0.5-0.3,1-0.6,1.6-0.9
		c0.6-0.3,1.1-0.6,1.6-1c0.5-0.3,1-0.6,1.5-0.9c0.5-0.3,1.1-0.7,1.6-1c0.5-0.3,1-0.6,1.5-1c0.5-0.3,1.1-0.7,1.6-1
		c0.5-0.3,1-0.7,1.5-1c0.5-0.4,1.1-0.7,1.6-1.1c0.5-0.3,1-0.7,1.5-1c0.5-0.4,1-0.7,1.5-1.1c0.5-0.4,1-0.7,1.4-1.1
		c0.5-0.4,1-0.8,1.5-1.1c0.5-0.4,1-0.7,1.4-1.1c0.5-0.4,1-0.8,1.5-1.2c0.5-0.4,0.9-0.8,1.4-1.1c0.5-0.4,1-0.8,1.5-1.2
		c0.5-0.4,0.9-0.8,1.4-1.2c0.5-0.4,1-0.8,1.4-1.2c0.4-0.4,0.9-0.8,1.3-1.2c0.5-0.4,0.9-0.8,1.4-1.3c0.4-0.4,0.9-0.8,1.3-1.2
		c0.3-0.2,0.5-0.5,0.8-0.7c0.1-0.1,0.2-0.2,0.3-0.3c1.4-1.3,2.7-2.6,4-4c0.2-0.2,0.4-0.5,0.7-0.7c1.3-1.4,2.7-2.8,3.9-4.3
		c0.1-0.1,0.2-0.2,0.2-0.3c1.3-1.4,2.5-2.9,3.7-4.4c0.2-0.2,0.3-0.4,0.5-0.6c1.2-1.5,2.4-3,3.5-4.5c0.1-0.2,0.2-0.3,0.4-0.5
		c0.1-0.2,0.2-0.3,0.3-0.5c1-1.3,1.9-2.6,2.8-3.9c0,0,0.1-0.1,0.1-0.1c0.9-1.3,1.7-2.6,2.6-3.9c0.2-0.4,0.5-0.7,0.7-1.1
		c0.8-1.2,1.5-2.4,2.3-3.6c0.1-0.2,0.2-0.3,0.3-0.5c0.8-1.4,1.6-2.8,2.4-4.2c0.1-0.1,0.2-0.3,0.3-0.4c0.1-0.2,0.2-0.5,0.4-0.7
		c0.5-1,1.1-2,1.6-3c0.2-0.4,0.4-0.8,0.6-1.1c0.7-1.3,1.3-2.7,2-4.1c0.1-0.2,0.1-0.3,0.2-0.5c0.6-1.2,1.1-2.5,1.7-3.7
		c0.2-0.4,0.4-0.8,0.5-1.3c0.4-1.1,0.9-2.1,1.3-3.2c0.1-0.3,0.2-0.5,0.3-0.8c0-0.1,0.1-0.2,0.1-0.4c0.6-1.4,1.1-2.8,1.6-4.3
		c0.1-0.2,0.2-0.5,0.2-0.7c0.4-1.2,0.8-2.4,1.2-3.7c0.1-0.4,0.3-0.9,0.4-1.3c0.3-1.1,0.7-2.2,1-3.3c0.1-0.4,0.2-0.8,0.3-1.2
		c0.4-1.5,0.8-3,1.2-4.4c0-0.1,0-0.1,0-0.2c0-0.2,0.1-0.4,0.1-0.6c0.3-1.4,0.7-2.8,1-4.2c0.1-0.4,0.2-0.9,0.3-1.3
		c0.3-1.6,0.6-3.2,0.9-4.9c0,0,0,0,0,0c0.3-1.6,0.5-3.3,0.8-4.9c0.1-0.4,0.1-0.9,0.2-1.3c0.2-1.4,0.4-2.9,0.5-4.3
		c0-0.2,0-0.4,0.1-0.6c0-0.1,0-0.2,0-0.2c0-0.3,0-0.5,0.1-0.8C314.1,171.3,314.1,170.3,314.2,169.4z"/>
	<path class="st1" d="M157.1,0.4c84.9,0,152.3,68.8,150.7,153.7c-1.7,84.9-71.8,153.7-156.7,153.7C66.2,307.7-1.3,238.9,0.4,154
		S72.2,0.4,157.1,0.4z"/>
	<g class="st2">
		<path d="M233.2,206.8C233.2,206.8,233.2,206.7,233.2,206.8c0-0.4,0-0.6,0-0.9c0,0,0,0,0,0c0,0,0,0,0,0c0-0.3-0.1-0.5-0.2-0.8
			c0-0.1,0-0.1-0.1-0.2c-0.1-0.3-0.2-0.6-0.3-0.8L169.9,87.4c-0.1-0.3-0.3-0.5-0.5-0.7c0,0,0-0.1-0.1-0.1c-0.1-0.1-0.2-0.2-0.3-0.3
			l-6.9-7c0.1,0.1,0.2,0.3,0.3,0.4c0.2,0.2,0.3,0.5,0.5,0.7L225.7,197c0.1,0.3,0.3,0.5,0.3,0.8c0,0.1,0,0.1,0.1,0.2
			c0.1,0.3,0.1,0.5,0.2,0.8c0,0,0,0,0,0.1c0,0.3,0,0.5,0,0.8c0,0.1,0,0.2,0,0.3c0,0.1,0,0.3-0.1,0.4c0,0.1,0,0.2-0.1,0.3
			c0,0.1-0.1,0.2-0.1,0.3c0,0.1-0.1,0.2-0.1,0.3c0,0.1-0.1,0.2-0.2,0.3c0,0.1-0.1,0.2-0.1,0.3c-0.1,0.1-0.1,0.2-0.2,0.4
			c0,0.1-0.1,0.1-0.1,0.2c-0.2,0.2-0.3,0.4-0.5,0.6c0,0-0.1,0.1-0.1,0.1c-0.2,0.2-0.4,0.3-0.5,0.4c-0.1,0-0.1,0.1-0.2,0.1
			c-0.2,0.1-0.5,0.3-0.7,0.4c0,0-0.1,0-0.1,0c-0.2,0.1-0.5,0.2-0.7,0.2c-0.1,0-0.1,0-0.2,0c-0.3,0.1-0.6,0.1-0.9,0.1H86.7
			c-1.4,0-2.6-0.6-3.4-1.4l6.9,7c0.9,0.9,2,1.4,3.4,1.4h134.6c0.3,0,0.6,0,0.9-0.1c0.1,0,0.1,0,0.2,0c0.3-0.1,0.5-0.1,0.7-0.2
			c0,0,0.1,0,0.1,0c0.3-0.1,0.5-0.2,0.7-0.4c0.1,0,0.1-0.1,0.2-0.1c0.2-0.1,0.4-0.3,0.5-0.4c0,0,0.1,0,0.1-0.1c0,0,0,0,0,0
			c0.2-0.2,0.3-0.4,0.5-0.6c0,0,0,0,0,0c0-0.1,0.1-0.1,0.1-0.2c0.1-0.1,0.2-0.2,0.2-0.4c0,0,0-0.1,0.1-0.1c0-0.1,0.1-0.1,0.1-0.2
			c0.1-0.1,0.1-0.2,0.2-0.3c0,0,0-0.1,0.1-0.1c0-0.1,0-0.1,0.1-0.2c0-0.1,0.1-0.2,0.1-0.3c0,0,0-0.1,0-0.1c0,0,0-0.1,0-0.1
			c0-0.1,0.1-0.3,0.1-0.4C233.2,206.9,233.2,206.8,233.2,206.8z"/>
	</g>
	<g>
		<path class="st3" d="M158.7,77.9c1.7,0,3.4,0.8,4.3,2.5L225.7,197c1.8,3.3-0.7,7.4-4.5,7.4H86.7c-3.8,0-6.1-4.2-4.1-7.5
			l71.9-116.6C155.4,78.7,157.1,77.9,158.7,77.9z"/>
	</g>
</g>
</svg>
