<?xml version="1.0" encoding="utf-8"?>
<!-- Generator: Adobe Illustrator 21.0.0, SVG Export Plug-In . SVG Version: 6.00 Build 0)  -->
<svg version="1.1" id="Layer_1" xmlns="http://www.w3.org/2000/svg" xmlns:xlink="http://www.w3.org/1999/xlink" x="0px" y="0px"
	 viewBox="0 0 149 149" style="enable-background:new 0 0 149 149;" xml:space="preserve">
<style type="text/css">
	.st0{fill:url(#SVGID_1_);}
	.st1{fill:url(#SVGID_2_);}
	.st2{fill:url(#SVGID_3_);}
	.st3{opacity:0.38;}
	.st4{fill:url(#SVGID_4_);}
	.st5{fill:url(#SVGID_5_);}
	.st6{fill:url(#SVGID_6_);}
	.st7{fill:url(#SVGID_7_);}
	.st8{fill:url(#SVGID_8_);}
	.st9{fill:url(#SVGID_9_);}
	.st10{fill:url(#SVGID_10_);}
	.st11{fill:url(#SVGID_11_);}
	.st12{fill:url(#SVGID_12_);}
	.st13{fill:url(#SVGID_13_);}
</style>
<g>
	<g>
		
			<radialGradient id="SVGID_1_" cx="74.5" cy="-2774.5" r="74.2" gradientTransform="matrix(1 0 0 -1 0 -2700)" gradientUnits="userSpaceOnUse">
			<stop  offset="0" style="stop-color:#000000"/>
			<stop  offset="1" style="stop-color:#000000;stop-opacity:0"/>
		</radialGradient>
		<circle class="st0" cx="74.5" cy="74.5" r="74.2"/>
	</g>
	<linearGradient id="SVGID_2_" gradientUnits="userSpaceOnUse" x1="9" y1="74.5" x2="140" y2="74.5">
		<stop  offset="0" style="stop-color:#E6E6E6"/>
		<stop  offset="0.4359" style="stop-color:#E9E9E9"/>
		<stop  offset="0.7635" style="stop-color:#F3F3F3"/>
		<stop  offset="1" style="stop-color:#FFFFFF"/>
	</linearGradient>
	<path class="st1" d="M140,74.5c0,36.2-29.3,65.5-65.5,65.5S9,110.7,9,74.5S38.3,9,74.5,9S140,38.3,140,74.5z M74.5,17
		C42.7,17,17,42.7,17,74.5S42.7,132,74.5,132S132,106.3,132,74.5S106.3,17,74.5,17z"/>
	
		<radialGradient id="SVGID_3_" cx="-12.3406" cy="-7.5676" r="17.9761" gradientTransform="matrix(2.5556 0 0 4.8592 106.037 111.2723)" gradientUnits="userSpaceOnUse">
		<stop  offset="0" style="stop-color:#1869DE"/>
		<stop  offset="1" style="stop-color:#0E3E83"/>
	</radialGradient>
	<circle class="st2" cx="74.5" cy="74.5" r="57.5"/>
</g>
<g>
	<g class="st3">
		<path d="M105,54.8l-0.4,51.5H95l0-4.7l-6.1-3.5l-0.1,6.6h-3.2l0-3.1l-4.2-2.4h4.3l0.1-6.6l-6.1-3.5l-0.1,6.6h-3.2l0-3.1l-4.2-2.4
			h4.3l0.1-6.6l-6.1-3.5l-0.1,6.6h-3.2l0-3.1l-6.1-3.5l-0.1,6.6h-5l0.2-18.8H99l-6.1-3.5H50.3l-0.4,41.9h-12l6.1,3.5h12l0-3.6l3.5,2
			h7.6l0-1l1.7,1h7.6l0-1l1.7,1h7.6l0-1l1.7,1H95l0-0.5l3.7,2.1h12l0.4-51.5L105,54.8z M67.3,89.2l1.7,1h1.5l0,5.5h-3.2l0-3.1
			L63,90.2h4.3L67.3,89.2z M59.7,90.2h1.5l0,5.5h-5l0.1-7.5L59.7,90.2z M56,104.7l0.1-7.5l3.5,2h1.5l0,5.5H56z M67.1,104.7l0-3.1
			l-4.2-2.4h4.3l0-1l1.7,1h1.5l0,5.5H67.1z M76.4,104.7l0-3.1l-4.2-2.4h4.3l0-1l1.7,1h1.5l0,5.5H76.4z"/>
	</g>
	<g>
		<g>
			<linearGradient id="SVGID_4_" gradientUnits="userSpaceOnUse" x1="53.6049" y1="83.449" x2="61.227" y2="83.449">
				<stop  offset="0" style="stop-color:#E6E6E6"/>
				<stop  offset="0.4359" style="stop-color:#E9E9E9"/>
				<stop  offset="0.7635" style="stop-color:#F3F3F3"/>
				<stop  offset="1" style="stop-color:#FFFFFF"/>
			</linearGradient>
			<polygon class="st4" points="61.2,80.2 61.2,86.7 53.6,86.7 53.7,80.2 			"/>
		</g>
		<g>
			<linearGradient id="SVGID_5_" gradientUnits="userSpaceOnUse" x1="53.5283" y1="92.445" x2="61.1504" y2="92.445">
				<stop  offset="0" style="stop-color:#E6E6E6"/>
				<stop  offset="0.4359" style="stop-color:#E9E9E9"/>
				<stop  offset="0.7635" style="stop-color:#F3F3F3"/>
				<stop  offset="1" style="stop-color:#FFFFFF"/>
			</linearGradient>
			<polygon class="st5" points="61.2,89.2 61.1,95.7 53.5,95.7 53.6,89.2 			"/>
		</g>
		<g>
			<linearGradient id="SVGID_6_" gradientUnits="userSpaceOnUse" x1="62.8951" y1="83.449" x2="70.5172" y2="83.449">
				<stop  offset="0" style="stop-color:#E6E6E6"/>
				<stop  offset="0.4359" style="stop-color:#E9E9E9"/>
				<stop  offset="0.7635" style="stop-color:#F3F3F3"/>
				<stop  offset="1" style="stop-color:#FFFFFF"/>
			</linearGradient>
			<polygon class="st6" points="70.5,80.2 70.5,86.7 62.9,86.7 63,80.2 			"/>
		</g>
		<g>
			<linearGradient id="SVGID_7_" gradientUnits="userSpaceOnUse" x1="53.4516" y1="101.441" x2="61.0737" y2="101.441">
				<stop  offset="0" style="stop-color:#E6E6E6"/>
				<stop  offset="0.4359" style="stop-color:#E9E9E9"/>
				<stop  offset="0.7635" style="stop-color:#F3F3F3"/>
				<stop  offset="1" style="stop-color:#FFFFFF"/>
			</linearGradient>
			<polygon class="st7" points="61.1,98.2 61,104.7 53.5,104.7 53.5,98.2 			"/>
		</g>
		<g>
			<linearGradient id="SVGID_8_" gradientUnits="userSpaceOnUse" x1="62.8185" y1="92.445" x2="70.4406" y2="92.445">
				<stop  offset="0" style="stop-color:#E6E6E6"/>
				<stop  offset="0.4359" style="stop-color:#E9E9E9"/>
				<stop  offset="0.7635" style="stop-color:#F3F3F3"/>
				<stop  offset="1" style="stop-color:#FFFFFF"/>
			</linearGradient>
			<polygon class="st8" points="70.4,89.2 70.4,95.7 62.8,95.7 62.9,89.2 			"/>
		</g>
		<g>
			<linearGradient id="SVGID_9_" gradientUnits="userSpaceOnUse" x1="62.7418" y1="101.441" x2="70.3639" y2="101.441">
				<stop  offset="0" style="stop-color:#E6E6E6"/>
				<stop  offset="0.4359" style="stop-color:#E9E9E9"/>
				<stop  offset="0.7635" style="stop-color:#F3F3F3"/>
				<stop  offset="1" style="stop-color:#FFFFFF"/>
			</linearGradient>
			<polygon class="st9" points="70.4,98.2 70.3,104.7 62.7,104.7 62.8,98.2 			"/>
		</g>
		<g>
			<linearGradient id="SVGID_10_" gradientUnits="userSpaceOnUse" x1="72.0998" y1="92.445" x2="79.7219" y2="92.445">
				<stop  offset="0" style="stop-color:#E6E6E6"/>
				<stop  offset="0.4359" style="stop-color:#E9E9E9"/>
				<stop  offset="0.7635" style="stop-color:#F3F3F3"/>
				<stop  offset="1" style="stop-color:#FFFFFF"/>
			</linearGradient>
			<polygon class="st10" points="79.7,89.2 79.7,95.7 72.1,95.7 72.2,89.2 			"/>
		</g>
		<g>
			<linearGradient id="SVGID_11_" gradientUnits="userSpaceOnUse" x1="72.0231" y1="101.441" x2="79.6452" y2="101.441">
				<stop  offset="0" style="stop-color:#E6E6E6"/>
				<stop  offset="0.4359" style="stop-color:#E9E9E9"/>
				<stop  offset="0.7635" style="stop-color:#F3F3F3"/>
				<stop  offset="1" style="stop-color:#FFFFFF"/>
			</linearGradient>
			<polygon class="st11" points="79.6,98.2 79.6,104.7 72,104.7 72.1,98.2 			"/>
		</g>
		<g>
			<linearGradient id="SVGID_12_" gradientUnits="userSpaceOnUse" x1="81.3133" y1="101.441" x2="88.9354" y2="101.441">
				<stop  offset="0" style="stop-color:#E6E6E6"/>
				<stop  offset="0.4359" style="stop-color:#E9E9E9"/>
				<stop  offset="0.7635" style="stop-color:#F3F3F3"/>
				<stop  offset="1" style="stop-color:#FFFFFF"/>
			</linearGradient>
			<polygon class="st12" points="88.9,98.2 88.9,104.7 81.3,104.7 81.4,98.2 			"/>
		</g>
		<g>
			<linearGradient id="SVGID_13_" gradientUnits="userSpaceOnUse" x1="37.9303" y1="72.7561" x2="104.991" y2="72.7561">
				<stop  offset="0" style="stop-color:#E6E6E6"/>
				<stop  offset="0.4359" style="stop-color:#E9E9E9"/>
				<stop  offset="0.7635" style="stop-color:#F3F3F3"/>
				<stop  offset="1" style="stop-color:#FFFFFF"/>
			</linearGradient>
			<polygon class="st13" points="70.9,39.2 105,54.8 104.6,106.3 92.6,106.3 92.9,64.5 50.3,64.5 49.9,106.3 37.9,106.3 38.4,54.8 
							"/>
		</g>
	</g>
</g>
</svg>
