<?xml version="1.0" encoding="utf-8"?>
<!-- Generator: Adobe Illustrator 21.0.0, SVG Export Plug-In . SVG Version: 6.00 Build 0)  -->
<svg version="1.1" id="Layer_1" xmlns="http://www.w3.org/2000/svg" xmlns:xlink="http://www.w3.org/1999/xlink" x="0px" y="0px"
	 viewBox="0 0 480 2168.4" style="enable-background:new 0 0 480 2168.4;" xml:space="preserve">
<style type="text/css">
	.st0{fill:#FFFFFF;}
</style>
<g>
	<g>
		<g>
			<path class="st0" d="M362.2,740.4c0,9,0,17.5,0,26.6c-8.4,0-16.8,0-25.2,0c-0.1,0.4-0.3,0.7-0.4,1.1c1.2,0.9,2.4,1.9,3.7,2.7
				c31,19.9,30.5,58.2,18.9,79.7c-6.9,12.7-17.9,20.2-32.1,22c-20.3,2.7-38.6-1.2-51.5-18.9c-8.3-11.4-11.2-24.7-13.1-38.3
				c-2-14.8-4.1-29.6-6.2-44.4c-0.2-1.1-0.6-2.2-1.1-3.6c-10.6,0.2-21,1.2-30,7.5c-11.7,8.2-13.3,20.4-12.4,33.3
				c1.4,18.2,8.1,34.1,20.7,48.9c-9.5,0-18,0-26.5-0.1c-0.7,0-1.7-0.9-2.2-1.7c-14.9-26.5-19.7-54.4-9.9-83.5
				c6-17.8,20.7-26.2,38.5-29.5c6.5-1.2,13.2-1.8,19.8-1.8c35-0.2,70-0.2,104.9-0.2C359.5,740.3,360.6,740.4,362.2,740.4z
				 M277.3,767.5c1.1,8.3,1.8,16.4,3.3,24.4c2.3,12.5,4.1,25.3,8,37.4c3.9,12.2,13.4,17.1,27.6,16.7c11.9-0.3,21.7-7.1,25.3-18.4
				c4.6-14.5,3.1-28.4-6.1-40.8C320.7,767,299.6,766,277.3,767.5z"/>
			<path class="st0" d="M277,1318.3c-18.6-1.2-36.4-4.6-52.2-15.1c-18.9-12.6-29.4-30.5-33.1-52.5c-2.6-15.4-2.4-30.9,2.2-46
				c7.2-23.8,23.2-39.4,46.6-46.9c26.5-8.4,53.3-8.6,79.1,2.6c27.1,11.7,42.1,33.2,45.8,62.5c2.1,16.3,0.9,32.4-5.6,47.6
				c-11.2,26.2-32,40.6-59.5,45.5C292.6,1317.3,284.8,1317.5,277,1318.3z M278.6,1178.3c-0.1,0.3-0.2,0.6-0.3,1
				c-6.1,0.6-12.3,0.8-18.4,1.8c-22.4,3.5-44.1,15.9-47.1,46.3c-2.3,23.3,6.7,44.9,29.9,55.8c15.7,7.4,32.4,8.2,49.3,6.4
				c13.2-1.4,25.2-6.1,35.1-15.2c15-13.8,18.4-31.5,15.7-50.7c-2.7-19.7-14.2-32.9-32.8-38.9C300,1181.4,289.1,1180.4,278.6,1178.3z
				"/>
			<path class="st0" d="M216.9,1342.5c0,14,0,27.9,0,42.5c2.2,0,3.8,0,5.4,0c30,0,60,0,89.9,0c4.1,0,8.3-0.4,12.4-1.1
				c14.2-2.4,21.4-13.8,18.3-29c-0.8-4.1-2.7-8.1-4.2-12.5c6.7,0,13.6-0.1,20.4,0.1c0.9,0,2.2,1.4,2.6,2.5c5.8,16.5,6.7,33-2.4,48.6
				c-6.9,11.8-18.7,16.1-31.6,17.3c-9.6,0.9-19.3,0.8-28.9,0.9c-25.3,0.1-50.6,0.1-75.9,0.1c-1.8,0-3.6,0-5.9,0c0,9.8,0,19,0,28.6
				c-7.7,0-15,0-22.9,0c0-9.2,0-18.6,0-28.5c-14.1,0-27.5,0-41.2,0c-2.9-9-5.8-17.6-8.8-26.9c16.7,0,32.9,0,49.7,0
				c0-14.5,0-28.4,0-42.6C201.8,1342.5,209,1342.5,216.9,1342.5z"/>
			<path class="st0" d="M329.4,902c8.4,0,16.2-0.1,23.9,0.1c1.1,0,2.5,1.9,3.2,3.2c8.2,15.6,10.7,32.4,9.5,49.8
				c-2.6,38.8-29.9,65.8-66.4,71.4c-26.4,4-51.9,0.8-74.6-14.8c-21.8-15-32.5-36.4-34.4-62.4c-1.1-14.9,0.1-29.6,5.8-43.7
				c1.3-3.2,2.8-4.7,6.5-4.5c7.3,0.3,14.6,0.1,22.7,0.1c-0.9,1.6-1.6,2.8-2.3,4c-15,23.9-14.2,53.1,2.2,72.8
				c11,13.2,25.7,19.9,42.5,21.8c16.2,1.8,32.4,1,47.2-6.9c17.9-9.6,27.2-24.8,28.4-45c1-16.1-3.3-30.6-12.8-43.6
				C330.4,903.8,330.1,903.2,329.4,902z"/>
			<path class="st0" d="M362.2,662.9c0,9,0,17.4,0,26.2c-82.9,0-165.6,0-248.7,0c0-8.7,0-17.3,0-26.2
				C196.4,662.9,279.1,662.9,362.2,662.9z"/>
			<path class="st0" d="M362.2,581.4c0,9,0,17.5,0,26.3c-82.8,0-165.5,0-248.7,0c0-8.6,0-17.3,0-26.3
				C196.4,581.4,279.1,581.4,362.2,581.4z"/>
		</g>
		<g>
			<path class="st0" d="M271.1,1654.1c-6.2-5.7-12.4-11.5-18.6-17.2c-18.2-16.7-36.3-33.4-54.6-49.9c-2.6-2.3-3.7-4.7-3.6-8.2
				c0.2-9.8,0.1-19.6,0.1-30.4c27.4,26.3,54.2,52.1,81.2,78.1c28.9-28,57.6-55.7,87.1-84.3c0,12.9,0.1,24.6-0.2,36.3
				c0,1.6-1.9,3.3-3.3,4.6c-24.7,22.8-49.5,45.5-74.3,68.3c-1,0.9-2.1,1.7-2.7,3.6c26.6,0,53.3,0,80.2,0c0,9.2,0,17.8,0,26.8
				c-82.7,0-165.4,0-248.5,0c0-8.6,0-17.3,0-26.4c52.3,0,104.5,0,156.8,0C270.7,1655,270.9,1654.6,271.1,1654.1z"/>
			<path class="st0" d="M329.3,2041.9c8.4,0,15.7-0.2,23,0.2c1.6,0.1,3.7,2,4.5,3.5c8.5,16.3,11.1,33.7,9.1,51.8
				c-3.8,34.8-22.7,58-56.2,66.6c-36.5,9.5-70.9,4.2-98.5-24.6c-13.1-13.6-19-30.7-20.4-49.3c-1.2-15.2,0-30.2,5.8-44.6
				c1.4-3.4,3.1-4.5,6.6-4.3c7.3,0.3,14.6,0.1,22.5,0.1c-1,1.7-1.7,3-2.4,4.2c-14.9,23.8-14.1,52.9,2.5,72.7
				c10.7,12.7,24.8,19.4,41.1,21.4c18.7,2.2,37,1.2,53.4-9.6c14.8-9.7,22.2-23.8,23.5-41.3C345,2071.5,340.2,2056.2,329.3,2041.9z"
				/>
			<path class="st0" d="M226,1722.5c-6.6,10-11.1,19.9-12.4,31c-3.8,32.1,12.3,57,43.4,65.2c21.7,5.7,43.4,5,63.1-7.4
				c15.2-9.6,22.5-24,23.6-41.7c1.1-16.3-3.1-31-12.8-44.1c-0.4-0.5-0.6-1-1.3-2.2c8.3,0,15.9-0.2,23.4,0.2c1.3,0.1,2.9,1.9,3.7,3.3
				c8.4,16,10.7,33,9.4,50.8c-2.9,40.1-33.7,69.6-77.8,71.6c-22.6,1-44.2-2.8-63.2-16c-21.7-15.1-32.5-36.4-34.4-62.5
				c-1.1-14.9,0.1-29.6,5.8-43.7c1.3-3.3,2.9-4.6,6.5-4.5C210.5,1722.7,217.8,1722.5,226,1722.5z"/>
			<path class="st0" d="M113.7,2000.7c0-8.7,0-17.3,0-26.2c82.9,0,165.6,0,248.6,0c0,8.6,0,17.2,0,26.2
				C279.6,2000.7,196.8,2000.7,113.7,2000.7z"/>
			<path class="st0" d="M362.5,1892.6c0,9,0,17.4,0,26.3c-55.8,0-111.5,0-167.7,0c0-8.6,0-17.3,0-26.3
				C250.6,1892.6,306.3,1892.6,362.5,1892.6z"/>
			<path class="st0" d="M116.6,1905.4c0-10.1,7.2-17.4,17.2-17.4c9.7,0,17.3,7.6,17.4,17.4c0.1,9.7-7.6,17.5-17.4,17.5
				C124.1,1922.8,116.6,1915.3,116.6,1905.4z"/>
		</g>
	</g>
	<g>
		<path class="st0" d="M414.2,242.5h-24.5c0-79.9-65-144.9-144.9-144.9V73.2C338.3,73.2,414.2,149.2,414.2,242.5L414.2,242.5z
			 M244.9,115.4v24.5c56.6,0,102.6,46,102.6,102.6H372C372,172.4,315,115.4,244.9,115.4L244.9,115.4z M240,0C107.6,0,0,107.6,0,240
			s107.6,240,240,240c8.2,0,14.8-6.6,14.8-14.8c0-8.2-6.6-14.8-14.8-14.8C124,450.4,29.6,356,29.6,240S124,29.6,240,29.6
			S450.4,124,450.4,240c0,48.5-25.8,96.6-62.7,116.9c-13.4,7.4-28,11-43.5,11.2c9.3-5.5,17.4-13.1,23.4-22.4
			c1.1-1.8,2.7-3.4,3.5-5.3c4.8-11.6,5.2-24.8,8.1-37c3.6-15.6-68.5-46.1-74.7-26.6c-2.2,7.2-5.7,30.1-10.2,36.1
			c-4.1,5.4-14,2.9-20.2-2.4c-16.4-14-34.7-34.6-50.8-50.8c-0.4-0.4-0.9-0.9-1.4-1.4c-0.4-0.4-0.9-0.9-1.4-1.4
			c-16.2-16.1-36.8-34.4-50.8-50.8c-5.3-6.2-7.8-16.2-2.4-20.2c6-4.6,28.9-8,36.1-10.2c19.5-6.2-11-78.3-26.7-74.7
			c-12.2,2.9-25.4,3.3-37,8.1c-2,0.9-3.5,2.4-5.3,3.5c-41.1,26-46.4,89.4-6.2,136.6c15.3,18,31.2,35.5,47.6,52.5l-0.1,0.1
			c0.4,0.4,0.9,0.9,1.4,1.4c0.5,0.4,0.9,0.9,1.3,1.4l0.1-0.1c17,16.4,37.2,40.6,70,62.5c69.2,46.1,122.2,33.3,153.4,16.1
			C455.8,353.4,480,290,480,240.3C480,107.6,372.3,0,240,0L240,0z"/>
	</g>
</g>
</svg>
