<?xml version="1.0" encoding="utf-8"?>
<!-- Generator: Adobe Illustrator 21.0.0, SVG Export Plug-In . SVG Version: 6.00 Build 0)  -->
<svg version="1.1" id="Layer_1" xmlns="http://www.w3.org/2000/svg" xmlns:xlink="http://www.w3.org/1999/xlink" x="0px" y="0px"
	 viewBox="0 0 480 1583" style="enable-background:new 0 0 480 1583;" xml:space="preserve">
<style type="text/css">
	.st0{fill:#FFFFFF;}
</style>
<g>
	<g>
		<g>
			<path class="st0" d="M113.4,877.2c0-8.7,0-17.1,0-26.4c35.9,0,71.8,0,107.6,0c0.1-0.4,0.3-0.8,0.4-1.2c-1.8-1.3-3.6-2.6-5.4-3.9
				c-27.2-19.2-30.6-51.8-21.2-76.3c6.8-17.8,21.8-25.8,39.5-29.2c7.1-1.4,14.5-2.1,21.8-2.1c34-0.2,68-0.2,101.9-0.2
				c1.3,0,2.6,0.1,4.2,0.2c0,8.8,0,17.4,0,26.6c-2,0-3.9,0-5.9,0c-33.3,0.1-66.6,0-99.9,0.3c-6,0.1-12.3,1.4-18.1,3.2
				c-25.6,7.8-29.6,32.1-22.9,50.2c7.2,19.5,22.5,29.6,42.5,31.3c17.4,1.5,34.9,0.8,52.4,0.9c17.1,0.1,34.3,0,51.8,0
				c0,8.9,0,17.4,0,26.4C279.3,877.2,196.5,877.2,113.4,877.2z"/>
			<path class="st0" d="M255.3,592.1c-8,1.6-15.4,2.4-22.4,4.8c-13.5,4.5-20.4,15.3-20.3,31.1c0.2,18.9,5.9,36,17.7,50.9
				c0.9,1.1,1.7,2.3,3.1,4.2c-9,0-17.3,0.1-25.6-0.1c-0.9,0-2.2-0.8-2.7-1.6c-15.1-26.4-19.7-54.4-10-83.5
				c6-17.8,20.6-26.3,38.4-29.6c6.5-1.2,13.2-1.8,19.8-1.9c35.1-0.2,70.3-0.2,105.4-0.2c1,0,2,0.1,3.3,0.2c0,8.8,0,17.5,0,26.6
				c-8.4,0-16.6,0-24.9,0c-0.2,0.4-0.4,0.7-0.5,1.1c1.5,1,3,2.1,4.5,3.1c26.8,18.5,33.9,59.4,14.7,84.5c-8.4,11-19.9,16.6-33.5,17.2
				c-31.9,1.4-51.3-13.8-57.6-45.9c-3.5-17.9-5.5-36.1-8.2-54.2C256.2,597.1,255.9,595.3,255.3,592.1z M277.2,593.4
				c1.1,8.5,1.9,16.4,3.3,24.3c2.2,12.4,4,25,7.7,37c4,12.9,14.3,18.2,28.7,17.3c12.2-0.7,22.1-8.2,25.1-20.1
				c4.5-18,0.7-34-13.6-46.7C313.7,592.2,295.9,592.5,277.2,593.4z"/>
			<path class="st0" d="M194,535.4c0-9.6,0-18.7,0-28.7c-2.8,0-5.2,0-7.7,0c-10,0-20,0.1-30-0.2c-1.5,0-3.8-1.4-4.2-2.7
				c-2.7-7.5-5.1-15.2-7.8-23.6c2.1-0.1,3.9-0.3,5.6-0.3c13,0,26-0.2,39,0.1c4.3,0.1,5.3-1.4,5.2-5.4c-0.2-10.5-0.1-21-0.1-31.5
				c0-1.8,0-3.6,0-5.7c7.8,0,15,0,22.9,0c0,13.9,0,27.8,0,42.5c2.4,0,4.2,0,5.9,0c29.3,0,58.6,0.1,87.9,0c4.3,0,8.7-0.3,12.9-0.9
				c14.9-2.2,22.5-13.6,19.3-29.2c-0.8-4.1-2.7-8.1-4.2-12.6c6.6,0,13.3-0.1,20,0.1c1.1,0,2.6,1.4,3,2.5c5.8,16.3,6.6,32.7-2.1,48.2
				c-7.2,12.7-19.7,17.5-33.3,17.8c-34.1,0.8-68.3,0.7-102.4,0.9c-2.1,0-4.2,0-6.9,0c0,9.8,0,19.1,0,28.6
				C209.2,535.4,202,535.4,194,535.4z"/>
			<path class="st0" d="M225.7,918.1c-6.6,10.1-11,20-12.3,31.2c-3.8,31.8,13.1,57.2,44.2,65.1c19.4,4.9,38.8,4.5,57-4.6
				c18.6-9.2,27.8-24.9,29.1-45.6c1-16.8-4-31.8-14.5-45.8c8.5,0,16.2-0.2,23.9,0.2c1.2,0.1,2.8,2.1,3.5,3.5
				c7.9,14.8,10.6,30.8,9.6,47.3c-2.1,36.2-22.2,62.9-56.9,71.4c-36.2,8.9-70.3,4.1-97.7-24.2c-13.3-13.7-19.4-30.8-20.9-49.6
				c-1.2-15.4-0.1-30.6,5.9-45.1c1.2-2.9,2.6-4.1,5.8-4C209.8,918.3,217.3,918.1,225.7,918.1z"/>
		</g>
		<g>
			<path class="st0" d="M325.5,1135c8.2,0,15.8-0.1,23.4,0.1c1.2,0,2.7,1.7,3.5,3c7.3,11.1,11,23.4,12.8,36.4
				c2.1,15,2.2,29.9-2.2,44.5c-6.5,21.3-20.5,36.1-41.3,43.7c-27.7,10.2-56,11-83.4-0.4c-47.3-19.8-57.2-67.7-40.5-103
				c7.9-16.7,22.4-26,39.5-31.4c15.3-4.8,31.1-4.8,47.7-4.3c0,39.6,0,78.9,0,118.2c29.7,0.8,57.2-15.3,58.8-49.8
				c0.9-20.1-4.4-38.1-16.5-54.2C326.7,1137.1,326.3,1136.3,325.5,1135z M262.5,1241.9c0-2.6,0-4.5,0-6.5c0-24.6,0-49.2,0-73.9
				c0-11,0-11.3-10.7-9.9c-16.9,2.2-30.8,9.3-36.6,26.5c-5,14.9-3.1,29.3,6.6,42C231.9,1233.3,245.7,1239.6,262.5,1241.9z"/>
			<path class="st0" d="M362.6,1381.3c-56,21.2-111.8,42.4-168.3,63.8c0-9.7-0.2-18.6,0.2-27.5c0.1-1.3,2.7-3,4.5-3.6
				c27.1-9.5,54.2-19.1,81.4-28.4c17.4-6,35-11.6,52.5-17.3c1.8-0.6,3.8-0.9,5.8-2.2c-3.5-0.7-7.2-1.1-10.6-2.3
				c-18.4-6.3-36.8-12.6-55.1-19.2c-24.9-8.9-49.6-18.1-74.5-26.9c-3.2-1.1-4.5-2.5-4.3-6c0.3-7.6,0.1-15.3,0.1-23.5
				c1.4,0.4,2.7,0.5,3.8,1c53.6,21.4,107.3,42.8,160.9,64.1c2.7,1.1,3.8,2.3,3.7,5.3C362.5,1366.2,362.6,1373.6,362.6,1381.3z"/>
			<path class="st0" d="M362.5,1556.8c0,8.9,0,17.4,0,26.2c-82.9,0-165.8,0-248.8,0c0-8.8,0-17.4,0-26.2
				C196.6,1556.8,279.3,1556.8,362.5,1556.8z"/>
			<path class="st0" d="M362.5,1474.9c0,9,0,17.4,0,26.3c-55.8,0-111.5,0-167.7,0c0-8.6,0-17.3,0-26.3
				C250.6,1474.9,306.3,1474.9,362.5,1474.9z"/>
			<path class="st0" d="M133.8,1470.4c9.8,0,17.4,7.5,17.5,17.3c0.1,9.7-7.7,17.5-17.3,17.5c-9.8,0-17.3-7.6-17.3-17.4
				C116.7,1477.8,123.9,1470.5,133.8,1470.4z"/>
		</g>
	</g>
	<g>
		<g>
			<path class="st0" d="M283.3,255.9c29-12.2,51.9-28.9,68.7-50c16.8-21.1,25.2-44,25.2-68.8c0-24.8-8.4-47.8-25.2-68.8
				c-16.8-21.1-39.7-37.7-68.7-50C254.2,6.1,222.7,0,188.6,0c-34.1,0-65.7,6.1-94.7,18.4c-29,12.2-51.9,28.9-68.7,50
				C8.4,89.4,0,112.3,0,137.1c0,21.2,6.3,41.3,19,60c12.7,18.7,30.1,34.6,52.2,47.4c-1.8,4.3-3.6,8.2-5.5,11.8
				c-1.9,3.6-4.1,7-6.7,10.3c-2.6,3.3-4.6,5.9-6,7.8c-1.4,1.9-3.7,4.5-7,7.9c-3.2,3.4-5.3,5.6-6.2,6.7c0-0.2-0.4,0.2-1.1,1.2
				c-0.7,1-1.1,1.4-1.2,1.3c-0.1-0.1-0.4,0.3-1.1,1.3c-0.6,1-0.9,1.5-0.9,1.5l-0.7,1.3c-0.3,0.5-0.4,1.1-0.5,1.6
				c-0.1,0.5-0.1,1.1-0.1,1.7s0.1,1.2,0.3,1.7c0.4,2.3,1.4,4.2,3.1,5.6c1.7,1.4,3.5,2.1,5.5,2.1h0.8c8.9-1.2,16.6-2.7,23-4.3
				c27.5-7.1,52.3-18.6,74.5-34.3c16.1,2.9,31.8,4.3,47.1,4.3C222.7,274.3,254.2,268.2,283.3,255.9z M133.4,233.6l-11.8,8.3
				c-5,3.4-10.5,6.9-16.6,10.5l9.4-22.5l-26-15c-17.1-10-30.4-21.8-39.9-35.4c-9.5-13.6-14.2-27.7-14.2-42.3c0-18.2,7-35.3,21-51.2
				c14-15.9,32.9-28.5,56.7-37.8c23.7-9.3,49.3-13.9,76.6-13.9s52.9,4.6,76.6,13.9c23.7,9.3,42.6,21.9,56.7,37.8
				c14,15.9,21,32.9,21,51.2c0,18.2-7,35.3-21,51.2c-14,15.9-32.9,28.5-56.7,37.8c-23.7,9.3-49.3,13.9-76.6,13.9
				c-13.4,0-27.1-1.3-41-3.8L133.4,233.6z"/>
			<path class="st0" d="M461,265.8c12.7-18.7,19-38.7,19-60.1c0-22-6.7-42.5-20.1-61.6c-13.4-19.1-31.6-35-54.6-47.7
				c4.1,13.4,6.2,27,6.2,40.7c0,23.9-6,46.6-17.9,68c-12,21.4-29.1,40.4-51.4,56.8c-20.7,15-44.3,26.5-70.7,34.6
				c-26.4,8-54,12.1-82.8,12.1c-5.4,0-13.2-0.4-23.6-1.1c35.9,23.6,78,35.4,126.4,35.4c15.4,0,31.1-1.4,47.1-4.3
				c22.1,15.7,47,27.1,74.5,34.3c6.4,1.6,14.1,3,23,4.3c2.1,0.2,4.1-0.4,5.9-1.9c1.8-1.4,2.9-3.4,3.5-5.9c-0.1-1.1,0-1.7,0.3-1.7
				c0.3-0.1,0.2-0.7-0.1-1.7c-0.4-1.1-0.5-1.6-0.5-1.6l-0.7-1.3c-0.2-0.4-0.5-0.8-0.9-1.5c-0.4-0.6-0.8-1.1-1.1-1.3
				c-0.3-0.3-0.7-0.7-1.2-1.3c-0.5-0.6-0.9-1-1.1-1.2c-0.9-1.1-2.9-3.3-6.2-6.7c-3.2-3.4-5.5-6-7-7.9c-1.4-1.9-3.4-4.5-6-7.8
				c-2.6-3.3-4.8-6.7-6.7-10.3c-1.9-3.6-3.7-7.5-5.5-11.8C430.9,300.3,448.3,284.5,461,265.8z"/>
		</g>
	</g>
</g>
</svg>
