<?xml version="1.0" encoding="utf-8"?>
<!-- Generator: Adobe Illustrator 21.0.0, SVG Export Plug-In . SVG Version: 6.00 Build 0)  -->
<svg version="1.1" id="Layer_1" xmlns="http://www.w3.org/2000/svg" xmlns:xlink="http://www.w3.org/1999/xlink" x="0px" y="0px"
	 viewBox="0 0 469 469" style="enable-background:new 0 0 469 469;" xml:space="preserve">
<style type="text/css">
	.st0{fill:#FFFFFF;}
</style>
<path class="st0" d="M34.8,227.7c-3.7,0-6.8,3-6.8,6.8c0,3.7,3,6.8,6.8,6.8c3.7,0,6.8-3,6.8-6.8C41.5,230.8,38.5,227.8,34.8,227.7z"
	/>
<path class="st0" d="M194.6,264v-53.4H0V264c0,3.1,1.3,6,3.5,8.2c2.2,2.2,5.2,3.3,8.2,3.3h171.4c3.1,0,6-1.2,8.2-3.3
	C193.4,269.9,194.6,267,194.6,264z M67.4,265.6c-6.4,0-12.4-2.9-16.3-8c-5.4,7-14.7,9.7-23.1,6.8c-8.4-2.9-14-10.8-14-19.6
	s5.6-16.7,14-19.6c8.4-2.9,17.6-0.1,23.1,6.8c6-7.6,16.4-10.1,25.2-5.9c8.8,4.2,13.5,13.8,11.3,23.3
	C85.5,258.9,77.1,265.7,67.4,265.6z"/>
<path class="st0" d="M67.4,238.2c-3.7,0-6.8,3-6.8,6.8c0,3.7,3,6.8,6.8,6.8c3.7,0,6.8-3,6.8-6.8C74.1,241.2,71.1,238.2,67.4,238.2z"
	/>
<path class="st0" d="M0,176.6h194.6v20H0V176.6z"/>
<path class="st0" d="M36.9,346.7c-0.1,5.7,2.2,11.1,6.1,15.2c4,4,9.4,6.3,15.1,6.3h350.7c5.7,0,11.1-2.3,15.1-6.3s6.2-9.5,6.1-15.2
	v-28.4H36.9V346.7z"/>
<path class="st0" d="M452.6,108c-3-0.3-5.5-2.5-6.2-5.5c-2-9.1-5.6-17.7-10.8-25.4c-1.7-2.6-1.5-6,0.4-8.3l10.4-12.6l-12.4-12.5
	l-12.5,10.4c-2.4,1.9-5.7,2.1-8.2,0.5c-7.8-5.1-16.5-8.8-25.6-10.8c-3-0.7-5.2-3.2-5.5-6.2L380.7,21h-17.9l-1.6,16.5
	c-0.3,3.1-2.5,5.6-5.5,6.3c-9.1,1.9-17.7,5.6-25.5,10.7c-2.6,1.7-5.9,1.5-8.3-0.4l-12.6-10.4l-12.6,12.6l10.4,12.6
	c2,2.4,2.1,5.7,0.5,8.3c-5.1,7.8-8.8,16.4-10.8,25.5c-0.6,2.9-3.1,5.1-6.1,5.4l-16.3,1.6v17.9l16.3,1.6c3,0.3,5.5,2.5,6.1,5.5
	c2,9.1,5.6,17.7,10.8,25.4c1.7,2.6,1.5,6-0.4,8.3l-10.4,12.6l12.6,12.6l12.6-10.4c2.3-1.9,5.7-2.2,8.2-0.5
	c7.8,5.1,16.5,8.7,25.6,10.7c3,0.6,5.2,3.1,5.5,6.1l1.6,16.2h17.9l1.6-16.2c0.3-3,2.5-5.4,5.5-6c9.1-1.9,17.7-5.6,25.5-10.7
	c2.6-1.7,5.9-1.5,8.3,0.4l12.6,10.4l12.6-12.6l-10.4-12.6c-1.9-2.4-2.1-5.7-0.5-8.3c5.1-7.8,8.8-16.4,10.8-25.5
	c0.7-3,3.1-5.1,6.2-5.4l16.2-1.6v-17.9L452.6,108z M371.6,180.2c-34,0-61.6-27.7-61.6-61.7c0-34,27.6-61.6,61.7-61.6
	s61.6,27.6,61.6,61.7C433.3,152.6,405.7,180.2,371.6,180.2z"/>
<path class="st0" d="M194.6,155.6c0-6.4-5.1-11.9-11.5-11.9H11.7C5.2,143.8,0,149.1,0,155.6v7h194.6V155.6z"/>
<path class="st0" d="M416.5,197c-6.5,3.8-13.5,6.7-20.8,8.7l-1.7,17.7c-0.4,3.6-3.4,6.2-7,6.2h-30.6c-3.6,0.1-6.6-2.6-7-6.2
	l-1.7-17.6c-7.3-2.1-14.2-5-20.8-8.8l-13.6,11.3c-2.8,2.3-6.8,2.1-9.4-0.4l-21.6-21.6c-2.6-2.6-2.7-6.6-0.4-9.4l11.3-13.6
	c-3.8-6.5-6.7-13.5-8.8-20.8l-17.8-1.7c-3.6-0.4-6.3-3.4-6.3-7v-30.6c0-2.9,1.7-5.5,4.4-6.5H58.2c-5.7,0-11.1,2.3-15.1,6.3
	c-4,4-6.2,9.5-6.1,15.2v11.4h146.2c14.1,0,25.5,11.8,25.5,25.9V264c0,6.8-2.7,13.2-7.4,18c-4.8,4.8-11.3,7.4-18,7.4H36.9v15h393.2
	v-95.8c0-0.1-0.1-0.2-0.1-0.3L416.5,197z"/>
<path class="st0" d="M371.6,70.9c-26.3,0-47.6,21.4-47.6,47.7c0,26.3,21.4,47.6,47.7,47.6c26.3,0,47.7-21.4,47.7-47.7
	C419.4,92.2,398,70.9,371.6,70.9z"/>
<path class="st0" d="M337.7,434.1h-46.3v-51.9H175.6v51.9h-46.2c-3.9,0-7,3.1-7,7c0,3.9,3.1,7,7,7h208.3c3.9,0,7-3.1,7-7
	C344.7,437.2,341.6,434.1,337.7,434.1z"/>
</svg>
