<?xml version="1.0" encoding="utf-8"?>
<!-- Generator: Adobe Illustrator 21.0.0, SVG Export Plug-In . SVG Version: 6.00 Build 0)  -->
<svg version="1.1" id="Capa_1" xmlns="http://www.w3.org/2000/svg" xmlns:xlink="http://www.w3.org/1999/xlink" x="0px" y="0px"
	 viewBox="0 0 532 382" style="enable-background:new 0 0 532 382;" xml:space="preserve">
<style type="text/css">
	.st0{fill:#EE860F;}
	.st1{fill:#FFFFFF;}
</style>
<g>
	<g>
		<g>
			<g>
				<path class="st0" d="M2.9,115.9l3.5-3.5c35-35,75.8-62,121.4-80.4c43.9-17.8,90.4-26.8,138-26.8c21.6,0,43.3,1.9,64.5,5.7
					l6.3,1.1l-31.8,71.6l-3.7-0.4c-11.6-1.4-23.5-2.1-35.2-2.1c-77.9,0-151,30.2-205.8,85l-3.5,3.5L2.9,115.9z"/>
				<path class="st1" d="M265.8,10.1c21.3,0,42.6,1.9,63.6,5.6l-27.7,62.4c-11.9-1.4-23.8-2.1-35.8-2.1
					c-75.8,0-151.6,28.7-209.4,86.5L10,115.9C80.7,45.3,173.3,10.1,265.8,10.1 M265.8,0.1C265.8,0.1,265.8,0.1,265.8,0.1
					c-48.3,0-95.3,9.1-139.9,27.1c-46.1,18.7-87.5,46.1-123,81.5l-7.1,7.1l7.1,7.1l46.5,46.5l7.1,7.1l7.1-7.1
					c53.9-53.9,125.7-83.6,202.3-83.6c11.5,0,23.2,0.7,34.6,2.1l7.3,0.9l3-6.8l27.7-62.4l5.2-11.7l-12.6-2.2
					C309.7,2,287.7,0.1,265.8,0.1L265.8,0.1L265.8,0.1z"/>
			</g>
			<g>
				<path class="st0" d="M96,209l3.5-3.5c44.3-44.2,103.5-68.6,166.6-68.6c2.4,0,4.9,0,7.3,0.1l7.4,0.2l-34.1,76.5l-2.8,0.4
					c-34.7,4.7-66.2,20.3-90.9,45l-3.5,3.5L96,209z"/>
				<path class="st1" d="M266.2,141.8c2.4,0,4.8,0,7.2,0.1l-29.9,67.1c-34.3,4.7-67.4,20-93.8,46.4L103.1,209
					C148.2,164,207.1,141.8,266.2,141.8 M266.2,131.8c-64.4,0-124.9,24.9-170.1,70.1l-7.1,7.1L96,216l46.5,46.5l7.1,7.1l7.1-7.1
					c24-24,54.4-39,88.1-43.6l5.5-0.7l2.3-5.1l29.9-67.1l6.1-13.6l-14.9-0.5C271.2,131.9,268.6,131.8,266.2,131.8L266.2,131.8z"/>
			</g>
			<g>
				<path class="st0" d="M265.8,376.9c-28.5,0-51.7-23.2-51.7-51.7c0-8.7,2.2-17,6.5-24.7l120.6-271l1.7-3.8l0.2-0.3
					c3.2-4.8,8.2-7.6,13.7-7.6c9.2,0,16.6,7.5,16.6,16.6v0.5l-57,300.1l-0.1,0.9l0,0.2C311.2,359.7,289.9,376.9,265.8,376.9z"/>
				<path class="st1" d="M356.8,22.8c6.4,0,11.6,5.2,11.6,11.6l-56.9,299.8l-0.1,0.8c-4.5,21.1-23.2,36.9-45.6,36.9
					c-25.7,0-46.7-20.9-46.7-46.7c0-8.3,2.2-15.8,5.9-22.5L345.7,31.5l1.5-3.4C349.3,25,352.7,22.8,356.8,22.8 M356.8,12.8
					c-7.1,0-13.8,3.7-17.9,9.8l-0.5,0.7l-0.3,0.8l-1.5,3.4L216.1,298.3c-4.6,8.4-7,17.5-7,26.9c0,31.2,25.4,56.7,56.7,56.7
					c13.1,0,25.8-4.6,35.9-12.8c9.9-8.1,16.8-19.5,19.5-32l0.1-0.3l0-0.3l0.1-0.6l56.9-299.5l0.2-0.9v-0.9
					C378.4,22.5,368.7,12.8,356.8,12.8L356.8,12.8z"/>
			</g>
			<g>
				<path class="st0" d="M378.8,259.1c-8.1-8.1-17.3-15.4-27.5-21.9l-2.9-1.8l14.8-77.7l5.9,2.9c23.9,11.7,45.3,26.8,63.4,44.9
					l3.5,3.5l-53.6,53.6L378.8,259.1z"/>
				<path class="st1" d="M366.9,165c22.3,10.9,43.4,25.4,62,44l-46.5,46.5c-8.7-8.7-18.3-16.2-28.4-22.6L366.9,165 M359.5,150.2
					l-2.4,12.9l-12.9,68l-1.3,6.7l5.8,3.6c9.9,6.2,18.8,13.4,26.7,21.2l7.1,7.1l7.1-7.1L436,216l7.1-7.1l-7.1-7.1
					c-18.5-18.5-40.3-33.9-64.7-45.9L359.5,150.2L359.5,150.2z"/>
			</g>
			<g>
				<path class="st0" d="M471.9,166c-27.1-27.1-58.9-48.3-94.3-63l-3.8-1.6l14.3-75.3l5.5,2.1c50.1,18.6,94.5,46.9,131.8,84.2
					l3.5,3.5l-53.6,53.6L471.9,166z"/>
				<path class="st1" d="M392,32.8c47.4,17.6,91.9,45,130,83.1l-46.5,46.5c-28.4-28.4-61.1-49.7-95.9-64.1L392,32.8 M384.4,19.3
					l-2.2,11.6l-12.5,65.5l-1.5,8l7.5,3.1c34.8,14.4,66,35.3,92.6,62l7.1,7.1l7.1-7.1l46.5-46.5l7.1-7.1l-7.1-7.1
					C491.3,71,446.3,42.3,395.5,23.4L384.4,19.3L384.4,19.3z"/>
			</g>
		</g>
	</g>
</g>
</svg>
