<?xml version="1.0" encoding="utf-8"?>
<!-- Generator: Adobe Illustrator 21.0.0, SVG Export Plug-In . SVG Version: 6.00 Build 0)  -->
<svg version="1.1" id="Capa_1" xmlns="http://www.w3.org/2000/svg" xmlns:xlink="http://www.w3.org/1999/xlink" x="0px" y="0px"
	 viewBox="0 0 522 469.8" style="enable-background:new 0 0 522 469.8;" xml:space="preserve">
<style type="text/css">
	.st0{fill:#C9417A;}
	.st1{fill:#FFFFFF;}
</style>
<g>
	<g>
		<path class="st0" d="M457.8,38.4C452,21.6,436.1,9.6,417.4,9.6H104.6C85.9,9.6,70,21.6,64.2,38.4L5,208.8v227.6
			c0,15.6,12.8,28.4,28.4,28.4h28.4c15.8,0,28.4-12.8,28.4-28.4v-28.4h341.3v28.4c0,15.6,12.8,28.4,28.4,28.4h28.4
			c15.8,0,28.4-12.8,28.4-28.4V208.8L457.8,38.4z M104.6,322.5c-23.6,0-42.7-19.1-42.7-42.7s19.1-42.7,42.7-42.7
			s42.7,19.1,42.7,42.7S128.2,322.5,104.6,322.5z M417.4,322.5c-23.6,0-42.7-19.1-42.7-42.7s19.1-42.7,42.7-42.7
			c23.6,0,42.7,19.1,42.7,42.7S441.1,322.5,417.4,322.5z M61.9,180.3l42.7-128h312.9l42.7,128H61.9z"/>
		<path class="st1" d="M61.9,469.8H33.4C15,469.8,0,454.8,0,436.3V207.9l0.3-0.8L59.4,36.7c6.7-19.2,24.8-32.1,45.1-32.1h312.9
			c20.3,0,38.4,12.9,45.1,32.1v0L522,207.9v228.4c0,18.4-15,33.4-33.4,33.4h-28.4c-18.4,0-33.4-15-33.4-33.4v-23.4H95.3v23.4
			C95.3,454.8,80.3,469.8,61.9,469.8z M10,209.6v226.7c0,12.9,10.5,23.4,23.4,23.4h28.4c12.9,0,23.4-10.5,23.4-23.4v-33.4h351.3
			v33.4c0,12.9,10.5,23.4,23.4,23.4h28.4c12.9,0,23.4-10.5,23.4-23.4V209.6L453.1,40c-5.3-15.2-19.6-25.4-35.7-25.4H104.6
			c-16.1,0-30.4,10.2-35.7,25.4L10,209.6z M417.4,327.5c-26.3,0-47.7-21.4-47.7-47.7c0-26.3,21.4-47.7,47.7-47.7
			c26.3,0,47.7,21.4,47.7,47.7C465.1,306.2,443.7,327.5,417.4,327.5z M417.4,242.2c-20.8,0-37.7,16.9-37.7,37.7s16.9,37.7,37.7,37.7
			s37.7-16.9,37.7-37.7S438.2,242.2,417.4,242.2z M104.6,327.5c-26.3,0-47.7-21.4-47.7-47.7c0-26.3,21.4-47.7,47.7-47.7
			c26.3,0,47.7,21.4,47.7,47.7C152.2,306.2,130.8,327.5,104.6,327.5z M104.6,242.2c-20.8,0-37.7,16.9-37.7,37.7s16.9,37.7,37.7,37.7
			s37.7-16.9,37.7-37.7S125.3,242.2,104.6,242.2z M467,185.3H55l46-138H421L467,185.3z M68.8,175.3h384.3l-39.3-118H108.2
			L68.8,175.3z"/>
	</g>
</g>
</svg>
