<?xml version="1.0" encoding="utf-8"?>
<!-- Generator: Adobe Illustrator 21.0.0, SVG Export Plug-In . SVG Version: 6.00 Build 0)  -->
<svg version="1.1" id="Capa_1" xmlns="http://www.w3.org/2000/svg" xmlns:xlink="http://www.w3.org/1999/xlink" x="0px" y="0px"
	 viewBox="0 0 532 532" style="enable-background:new 0 0 532 532;" xml:space="preserve">
<style type="text/css">
	.st0{fill:#1C8FC5;}
	.st1{fill:#FFFFFF;}
</style>
<g>
	<g>
		<g>
			<g>
				<path class="st0" d="M242.7,527c-63.5,0-123.2-24.7-168.1-69.6S5,352.8,5,289.3S29.7,166,74.6,121.2
					c44.9-44.9,104.6-69.6,168.1-69.6c24.5,0,48.5,3.7,71.3,10.9l3.5,1.1v62.8c0,28.4-23.1,51.5-51.5,51.5h-41.5v41.5
					c0,15.6-12.7,28.3-28.3,28.3h-41.5v36.5h134.6c15.6,0,28.3,12.7,28.3,28.3v64.8h18.3c19.6,0,37,11,45.7,28.1
					c27.4-32.7,42.4-73.6,42.4-116.2c0-7.9-0.9-15.8-1.7-22.7l-0.7-5.6h57.3l0.4,4.5c0.8,8.9,1.2,16.4,1.2,23.7
					c0,63.5-24.7,123.2-69.6,168.1S306.3,527,242.7,527z M64.4,257.7c-1.9,10.5-2.9,21.1-2.9,31.6c0,89.3,65.3,165.1,152.9,178.8
					v-34.4c-26.1-2.5-46.5-24.6-46.5-51.3v-21.2L64.4,257.7z"/>
				<path class="st1" d="M242.7,56.5c24.3,0,47.8,3.7,69.8,10.7v59.1c0,25.7-20.8,46.5-46.5,46.5h-46.5v46.5
					c0,12.8-10.5,23.3-23.3,23.3h-46.5v46.5h139.6c12.8,0,23.3,10.5,23.3,23.3v69.8h23.3c20.7,0,38.2,13.6,44.1,32.5
					c30.4-33.2,49-77.1,49-125.6c0-7.9-0.8-15.6-1.7-23.3v0h47.1c0.7,7.7,1.2,15.4,1.2,23.3c0,128.6-104.1,232.7-232.7,232.7
					S10,417.9,10,289.3S114.1,56.5,242.7,56.5 M219.5,473.8v-44.9c-25.7,0-46.5-20.8-46.5-46.5v-23.3L61.4,247.6
					c-3.1,13.4-4.9,27.3-4.9,41.7C56.5,384.2,127.6,462.4,219.5,473.8 M242.7,46.5c-32.8,0-64.6,6.4-94.5,19.1
					c-28.9,12.2-54.9,29.7-77.1,52c-22.3,22.3-39.8,48.2-52,77.1C6.4,224.7,0,256.5,0,289.3s6.4,64.6,19.1,94.5
					c12.2,28.9,29.7,54.9,52,77.1c22.3,22.3,48.2,39.8,77.1,52c29.9,12.7,61.7,19.1,94.5,19.1s64.6-6.4,94.5-19.1
					c28.9-12.2,54.9-29.7,77.2-52c22.3-22.3,39.8-48.2,52-77.1c12.7-29.9,19.1-61.7,19.1-94.5c0-7.5-0.4-15.1-1.2-24.2l-0.8-9.1
					h-9.1h-47.1h-11.3l1.4,11.2c0.8,7,1.7,14.4,1.7,22.1c0,39-13,76.6-36.8,107.4c-10.3-15-27.4-24.3-46.3-24.3h-13.3v-59.8
					c0-18.3-14.9-33.3-33.3-33.3H159.6v-26.5h36.5c18.3,0,33.3-14.9,33.3-33.3v-36.5H266c31.2,0,56.5-25.4,56.5-56.5V67.3v-7.3
					l-7-2.2C292.2,50.3,267.7,46.5,242.7,46.5L242.7,46.5z M209.5,462.1c-82.2-15.6-142.9-88-142.9-172.9c0-7,0.4-14,1.3-21.1l95,95
					v19.1c0,27.8,20.1,50.9,46.5,55.7V462.1L209.5,462.1z"/>
			</g>
			<g>
				<path class="st0" d="M382.4,224.5c-15.6,0-28.3-12.7-28.3-28.3v-93.1c0-13.9,10.1-25.5,23.3-27.8v-7.1
					c0-34.8,28.3-63.2,63.2-63.2s63.2,28.3,63.2,63.2v7.1c13.2,2.4,23.3,13.9,23.3,27.8v93.1c0,15.6-12.7,28.3-28.3,28.3H382.4z
					 M475.1,74.8l0-6.6c0-19.1-15.5-34.6-34.6-34.6S406,49.1,406,68.2v6.6H475.1z"/>
				<path class="st1" d="M440.5,10c32.1,0,58.2,26.1,58.2,58.2v11.6c12.9,0,23.3,10.5,23.3,23.3v93.1c0,12.8-10.4,23.3-23.3,23.3
					H382.4c-12.9,0-23.3-10.5-23.3-23.3v-93.1c0-12.8,10.4-23.3,23.3-23.3V68.2C382.4,36.1,408.4,10,440.5,10 M401,79.8h79.1h0V68.2
					c0-21.9-17.7-39.6-39.6-39.6c-21.9,0-39.6,17.7-39.6,39.6V79.8 M440.5,0c-37.6,0-68.2,30.6-68.2,68.2v3.2
					c-13.5,4.3-23.3,16.9-23.3,31.7v93.1c0,18.3,14.9,33.3,33.3,33.3h116.4c18.3,0,33.3-14.9,33.3-33.3v-93.1
					c0-14.9-9.8-27.5-23.3-31.7v-3.2C508.7,30.6,478.1,0,440.5,0L440.5,0z M411,69.8v-1.6c0-16.3,13.3-29.6,29.6-29.6
					c16.3,0,29.6,13.3,29.6,29.6v1.6H411L411,69.8z"/>
			</g>
		</g>
	</g>
</g>
</svg>
