<?xml version="1.0" encoding="utf-8"?>
<!-- Generator: Adobe Illustrator 21.0.0, SVG Export Plug-In . SVG Version: 6.00 Build 0)  -->
<svg version="1.1" id="Capa_1" xmlns="http://www.w3.org/2000/svg" xmlns:xlink="http://www.w3.org/1999/xlink" x="0px" y="0px"
	 viewBox="0 0 456 532" style="enable-background:new 0 0 456 532;" xml:space="preserve">
<style type="text/css">
	.st0{fill:#249C83;}
	.st1{fill:#FFFFFF;}
</style>
<g>
	<g>
		<g>
			<g>
				<path class="st0" d="M100,117.4c-31,0-56.2-25.2-56.2-56.2S69,5,100,5s56.2,25.2,56.2,56.2S131,117.4,100,117.4z"/>
				<path class="st1" d="M100,10c28.3,0,51.2,22.9,51.2,51.2s-22.9,51.2-51.2,51.2S48.8,89.5,48.8,61.2S71.7,10,100,10 M100,0
					C66.3,0,38.8,27.5,38.8,61.2s27.5,61.2,61.2,61.2s61.2-27.5,61.2-61.2S133.7,0,100,0L100,0z"/>
			</g>
			<g>
				<path class="st0" d="M330.4,117.4c-31,0-56.2-25.2-56.2-56.2S299.4,5,330.4,5s56.2,25.2,56.2,56.2S361.4,117.4,330.4,117.4z"/>
				<path class="st1" d="M330.4,10c28.3,0,51.2,22.9,51.2,51.2s-22.9,51.2-51.2,51.2c-28.3,0-51.2-22.9-51.2-51.2
					C279.2,32.9,302.1,10,330.4,10 M330.4,0c-33.7,0-61.2,27.5-61.2,61.2s27.5,61.2,61.2,61.2s61.2-27.5,61.2-61.2S364.1,0,330.4,0
					L330.4,0z"/>
			</g>
			<g>
				<path class="st0" d="M43.8,527V335H5.4V189.2c0-31,25.2-56.2,56.2-56.2h76.8c31,0,56.2,25.2,56.2,56.2V335h-38.4v192H43.8z"/>
				<path class="st1" d="M138.4,138c28.2,0,51.2,23,51.2,51.2V330h-38.4v192H48.8V330H10.4V189.2c0-28.2,23-51.2,51.2-51.2H138.4
					 M138.4,128H61.6c-33.7,0-61.2,27.5-61.2,61.2V330v10h10h28.4v182v10h10h102.4h10v-10V340h28.4h10v-10V189.2
					C199.6,155.5,172.1,128,138.4,128L138.4,128z"/>
			</g>
			<g>
				<path class="st0" d="M287,527V373.4h-78.7l67.5-201.9c7.6-23,29-38.5,53.3-38.5h2.9c24.3,0,45.7,15.5,53.3,38.5l67.3,201.9
					h-78.7V527H287z"/>
				<path class="st1" d="M331.9,138c22,0,41.6,14.1,48.5,35.1l65.2,195.3h-76.8V522H292V368.4h-76.8l65.3-195.3
					c6.9-21,26.5-35.1,48.5-35.1H331.9 M331.9,128H329c-26.4,0-49.8,16.9-58,41.9l-65.3,195.3l-4.4,13.2h13.9H282V522v10h10h76.8h10
					v-10V378.4h66.8h13.9l-4.4-13.2l-65.2-195.3C381.7,144.9,358.4,128,331.9,128L331.9,128z"/>
			</g>
		</g>
	</g>
</g>
</svg>
