<?xml version="1.0" encoding="utf-8"?>
<!-- Generator: Adobe Illustrator 21.0.0, SVG Export Plug-In . SVG Version: 6.00 Build 0)  -->
<svg version="1.1" id="Layer_1" xmlns="http://www.w3.org/2000/svg" xmlns:xlink="http://www.w3.org/1999/xlink" x="0px" y="0px"
	 viewBox="0 0 80.4 91.9" style="enable-background:new 0 0 80.4 91.9;" xml:space="preserve">
<style type="text/css">
	.st0{fill:#FFFFFF;}
	.st1{fill:#204181;}
</style>
<g>
	<polygon class="st0" points="21.8,8.7 48.6,5.9 76.1,14.4 76.8,30.7 69,57.7 59.5,75.4 42.8,89 38.6,89 24.8,78.5 11.1,57.4 
		1.8,18 3.5,12.2 14.3,6.7 	"/>
	<g>
		<path class="st1" d="M13,29.4l14.5-3C27.5,26.4,14.8,27.1,13,29.4"/>
		<path class="st1" d="M47.4,15.4c0,0,0.3-0.8-1.4-1.3c-1.3-0.3-1.5-0.7-1.5-0.7S45,16.2,47.4,15.4"/>
		<path class="st1" d="M29.1,27.7c0,0-7.4,10.3-7.3,14L29.1,27.7z"/>
		<path class="st1" d="M53.3,17.8c0.1-0.4-0.6-0.4-1.1-0.4l-0.5,0.1l0.6,0.4C52.4,17.9,53.2,18.1,53.3,17.8"/>
		<path class="st1" d="M78.6,0.7C66.2,3.3,53.3,4.6,40.1,4.6c-13.1,0-25.9-1.4-38.2-3.8c-11.9,66.7,38.4,91.8,38.4,91.8
			S90.5,67.5,78.6,0.7 M59.1,73.5c0-0.7-0.6-0.8-1-1.1c0,0-0.3,0.4-0.9,0.1c-0.5-0.3-1.7-0.8-0.9-0.1c0.4,0.4,1.1,0.7,0.7,1.5
			c0.9,1.3,0,2.1,0,2.1c0.1-0.7-0.3-1.1-0.6-1.4c-0.2,0-0.7,0.1-0.8,0c-0.4-0.2-0.5-0.8-0.7-1.2c-0.4-0.7-0.7-0.4-1.6-0.8
			c-0.8-0.4-1.2-0.4-2.2-0.3c-0.8,0.1-0.9,0.3-1.2,0.5c-0.3,0.2-1-0.4-1.1-0.5c-0.4,0.3-0.9,0.5-1,1.2c0,0-0.9-1.6,0.8-2.2
			c0.2-1.1,1.2-0.8,1.2-0.8s1,0.3-1.8-2.5c-1.8-1.8-1.8-2.9-2.3-1.8c-0.1,0.3-0.3,1-0.3,0.9c-0.2-0.8-0.4-1.4,0-2.9
			c0,0,3.3-2.5-2.6-7.1c0,0,2.3-2.5,5.5-4c0,0,2.6,1.8,3.3,4c0.7,1.8,0.1,2.2-1.1,6.1c-0.1,0.4-0.4,1-0.5,1.5
			c-0.1,0.7,0.1,1.4,0.4,2.2c0.7,1.5,0.7,1.8,2.3,2.5c0,0,0.8,0.6,1.5,0.7c1.2,0.2,2.9-0.7,3.1,0.5c0.5,0.1,0.7,0.7,0.8,1
			C59.9,72.1,59.1,73.5,59.1,73.5 M68.6,44.7c0.3,0.3,0.5,0.6,0.5,0.8c1.2,0.7,0.5,1.8,0.5,1.8c-0.1-0.6-0.5-0.7-1.4-1
			c-0.4-0.1-0.6-0.4-0.9-0.5c-0.5-0.4-1-0.7-1.7-0.7c-0.8,0-1.4,0.3-2,1.1c-0.5,0.6-0.1,0.7-0.2,1.1c0,0.3-0.4,0.6-0.5,0.6
			c0,0.4,0,0.9,0.5,1.2c0,0-1.6,0.2-1.4-1.5c-0.7-0.5-0.1-1.6-0.1-1.6s0.8-0.8-2.5,0c-2.2,0.5-4.6-0.4-4.5,0.9
			c0,0.3,0.7,0.9,0.6,0.9c-1.2,0-3-1.5-3.6-1.8c-1.8-1-3.7-0.9-3.7-0.9l1.5,0.8c0,0,2.4,0.9-0.5,4.2c-1.9,2.2-3.4,2.4-5.9,4.4
			c-3.1,2.4-2.9,4.4-2.9,4.4c0.1,2.2,0,3.8-2.2,5.8c-1.8,1.8-2.3,1.9-3.8,3.5c-1.5,1.9-0.7,3.1-0.5,4.6c0.4,2.2,2,2.3,2.1,2.4
			c0.6,0.3,1.2,0.8,1.4,0.9c0.7,0.4,1.8-1.1,2.6-0.3c1.3,0.2,1.3,1.2,1.3,1.2c-0.4-0.4-0.7-0.3-1.2-0.3c0.2,0.8-1.7,0.6-1.7,1
			c0,0,1,0.3,1.8,0.6c0.6,0.2,0.7,0.5,0.8,0.8c1.7,1.1,0.4,2.6,0.4,2.6c0-0.7-0.4-1.2-0.9-1.5c-0.4,0.2-0.7,0.5-1.3,0
			c-0.7-0.6-1.1-1-1.9-1.4c-0.3-0.1-1-0.7-0.2,0.4c1,1.3,0.1,2.4,0,2.4c-0.1,1.4-1.4,1.7-1.4,1.7c0.5-0.5,0.4-1.1-0.1-2
			c-0.3-0.4-0.1-0.8-0.4-1.8c-0.2-0.8-0.5-0.8-1.2-1.3c-0.8-0.6-2.4-0.7-2.7-0.7c-1-0.1-1.7,0.3-2.1,0.2c-0.7-0.2-0.7-0.8-0.7-0.9
			c-0.6,0-1.2,0-1.7,0.7c0,0,0-2.2,2.1-1.6c0.8-0.9,1-0.7,1.5-0.7c0.5,0,2.1,1.8,0.1-2.3c-1.3-2.7-1-4.2-2-3.4
			c-0.3,0.3-1.3,1-1.3,0.9c0.7-0.6,0.5-2.4,0.5-3.9c0.3-0.2,5-2.4,2.7-6.9c-1.6-3.1-0.4-5.4-0.4-5.4c-2.9,3.8-4.4,4.8-5.8,5.6
			c-1.4,0.7-5.5,2.4-9.1-1c-1.8-1.7-2.2-3.8-2.1-5.3c0.1-1.5,0.3-1.8,0.3-1.8l-1.4,0.6c0,0,1.1-1.6,2.9-4.2c0,0,0,3.1,0.7,4.6
			l-1.5-0.9c0,0-0.3,1.5-0.1,2.5c0.2,1.5,1.2,2.8,2.3,3.4c3.3,1.8,5.4,0.3,5.4,0.3l-0.7-0.7c1.2,0.4,3.6-0.7,4.6-2.2
			c0.7-1.2,1.8-2.6,3.3-4.3c1.2-1.3,2.2-2.1,4.2-3.1c-1-0.3-2.8-1.7-5.8-0.1c-1-2.8-3.3-4.8-7.6-3.7c-1.3,0.3,2.6-1.6-0.1-8.7
			c-0.6-1.4-3.6-4.9-8.9-4.4c0,0,2.7-6.1-7-14.6c6.7,3.6,11.6,5.5,16.4,6.9c0.3-1.2,0.3-3.4-1.2-7.1c0,0,3,4.8,9,8.8
			c1.3,0.2,2.9,0.3,2.9,0.3s0.6,0.4-0.5,0.9c-0.5,0.3-0.4,5.7,4.7,7.2c2.6,0.8,3.8,0.1,4.4-1.3c0.4-0.8-0.6-2.2-1.7-4
			c-0.1,0.4-0.3,0.7-0.4,1c-0.6-1.3-1-2.6-1.2-4.2c-0.6,0.9-1.2,2.8-1.2,2.8c-0.5-3.6-0.4-5.1-0.1-6c-0.8,0.5-1.8,2.4-1.8,2.4
			c0.3-3.6,1.5-5.1,2-5.6c0-0.2-2.6,1.9-2.6,1.9c0.8-2.3,1.9-3.7,2.8-4.5c-0.8-0.1-1.8-0.1-1.8-0.1c0.2-0.4,0.5-1,2.2-1.8
			c-0.2-0.6-0.5-0.7-1.1-1.6c0,0,1.3-0.4,2.7-0.1c-0.4-1.1-0.8-2.6-0.7-4.4c0,0,1,2.4,4.1,4.3c0-0.8,0-2,0.6-3.3c0,0,0,1.5,1.1,3.2
			c1.2,0.1,3.5,0.7,4.3,1c1.1,0.4,1.1,1.1,1.1,1.1s0.3,0.4,0.1,0.7c-0.1,0.3,1.1,0.8,1.1,0.8s0.9,0.3,1.7,0.5c0.5,0.1,1.5,0.4,1.4,0
			c-0.1-0.4,1.5,0.2,1.8,0.8c0.3,0.7,0.7,0.7,0.7,0.7s-0.5,0.3-0.2,0.7c0.4,0.5-0.3,1.9-0.3,1.9l-0.4-0.6c0,0,0,1-0.9,1.1
			c-0.1,0-0.3,0-0.5,0l-0.9,0.7l0.2-0.9c-0.2,0-0.4-0.1-0.7-0.3l-0.8,0.7l0.2-0.9l-0.7-0.3L48.9,20l0.1-0.9l-0.7-0.3l-0.6,0.6
			l-0.1-0.9L47,18.5L46.4,19v-0.6c-1.1-0.1-2.4,0-1.8,0.2c0.9,0.4,1.2,0.9,2.2,1.6l0.6-0.4l-0.2,0.7c0.2,0.2,0.4,0.4,0.7,0.5
			l0.6-0.5l-0.1,0.9c0.2,0.2,0.4,0.3,0.6,0.4l0.8-0.6L49.6,22c0.2,0.1,0.4,0.2,0.6,0.2l0.7-0.6l-0.1,0.7c0.6,0.1,1,0.1,1,0.1
			s0,0.6-0.4,1c-0.4,0.3-0.9,0.3-0.9,0.3c-0.6,1-1.7,1.1-2,1c0.1,0,0.4-0.3,0.6-0.5c0.4-0.6-0.1-0.5-0.8-0.7
			c-0.7-0.2-0.9-0.6-1.2-1.2c-0.4-0.8-2.1-1.1-3-1c-1,0.2-1.7,0.2-1.7,0.2c0,1.1,2.1,2.9,3.9,3.7c3.3,1.4,4.6,2.9,4.6,2.9
			C50.3,28,49,28.8,49,28.8c5.4,2.4,4.3,10.2,4.3,10.2c1.1,1.9,4.9,4.3,6.8,4.4c0.6,0,1.7-0.3,2.5-0.4c1.1-0.2,1.4-0.3,1.6-0.2
			c0.1,0,0.3,0,0.8,0c0.4-0.6,0.4-1,0.7-1.3c0.2-0.2,0.4-0.4,0.6-0.4c0.7-1,1.7-0.3,1.7-0.3c-0.4,0-0.6,0.2-0.8,0.5
			c0.1,0.2,0.1,0.5-0.1,0.7c-0.3,0.3-0.6,0.5-0.4,0.8c0.9-0.1,1.4-0.5,1.8-0.4c0.4,0,0.7,0.1,0.9,0.3c1.5-0.1,1.5,1.4,1.5,1.4
			c-0.4-0.4-0.8-0.5-1.2-0.5c-0.1,0.3-0.4,0.5-0.8,0.4c-0.5-0.1-1.6-0.1-2.3-0.1C67.5,44.1,68.1,44.3,68.6,44.7 M61.2,30.5
			c0.2-0.8,0.9-0.7,0.9-0.7c-0.3,0.2-0.4,0.5-0.4,0.7c0.2,0.1,0.3,0.3,0.3,0.7c0.5-0.6,0.4-0.6,0.7-0.8c0.5-0.5,0.6-0.4,0.8-0.4
			c1-0.8,1.7,0.3,1.7,0.3c-0.4-0.1-0.8,0-1.1,0.2c0.1,0.3,0.1,0.8-0.2,0.9c-0.4,0.2-0.8,0.4-1.1,0.8c0.4-0.2,0.1,0,0.8-0.3
			c0.3-0.1,0.8-0.6,1.2,0c1.1-0.3,1.3,0.7,1.3,0.7c-0.4-0.4-0.7-0.2-1.1-0.1c0,0.1-0.2,0.5-0.3,0.6c-0.3,0.1-0.7,0-1,0.1
			c-0.6,0-1,0.7-1.5,1.1c-0.5,0.4-0.7,0.7-1,1.5c-0.2,0.6,0.1,0.8,0.1,1.1c0,0.2-0.5,0.6-0.6,0.6c0,0.4,0,0.8,0.4,1.1
			c0,0-1.4,0.1-1.1-1.3c-0.6-0.4-0.3-1.1-0.3-1.1s0.5-0.9-2.1,0.6c-1.7,0.9-2.3,0.5-1.4,1.6c-0.5,0.2-0.8,0.4-1.8,0.4
			c0.2-0.8,0-2.3-0.2-4.1c1.2,0.9,1.9,0.5,2.9,0.3c1.5-0.4,1.5-0.1,2.9-1.8c0.2-0.4,1-0.7,1-0.8C61.3,31.7,60.5,30.9,61.2,30.5
			 M67.9,24.3c-4.4,3.2-8.2,3.1-10.9,1.2c-1.1-0.8-2.1-1.7-2.9-3.4c2.5,1.8,5.9,1.9,10.2-0.4c2.8-1.5,7.3-1,9.4,1.4
			C73.7,23,70.6,22.3,67.9,24.3"/>
	</g>
</g>
</svg>
