<?xml version="1.0" encoding="utf-8"?>
<!-- Generator: Adobe Illustrator 21.0.0, SVG Export Plug-In . SVG Version: 6.00 Build 0)  -->
<svg version="1.1" id="Layer_1" xmlns="http://www.w3.org/2000/svg" xmlns:xlink="http://www.w3.org/1999/xlink" x="0px" y="0px"
	 viewBox="0 0 149 149" style="enable-background:new 0 0 149 149;" xml:space="preserve">
<style type="text/css">
	.st0{fill:url(#SVGID_1_);}
	.st1{fill:url(#SVGID_2_);}
	.st2{fill:url(#SVGID_3_);}
	.st3{fill:#FFFFFF;}
	.st4{opacity:0.38;}
	.st5{fill:url(#SVGID_4_);}
</style>
<g>
	<g>
		
			<radialGradient id="SVGID_1_" cx="74.5" cy="-2774.5" r="74.2" gradientTransform="matrix(1 0 0 -1 0 -2700)" gradientUnits="userSpaceOnUse">
			<stop  offset="0" style="stop-color:#000000"/>
			<stop  offset="1" style="stop-color:#000000;stop-opacity:0"/>
		</radialGradient>
		<circle class="st0" cx="74.5" cy="74.5" r="74.2"/>
	</g>
	<linearGradient id="SVGID_2_" gradientUnits="userSpaceOnUse" x1="9" y1="74.5" x2="140" y2="74.5">
		<stop  offset="0" style="stop-color:#E6E6E6"/>
		<stop  offset="0.4359" style="stop-color:#E9E9E9"/>
		<stop  offset="0.7635" style="stop-color:#F3F3F3"/>
		<stop  offset="1" style="stop-color:#FFFFFF"/>
	</linearGradient>
	<path class="st1" d="M140,74.5c0,36.2-29.3,65.5-65.5,65.5S9,110.7,9,74.5S38.3,9,74.5,9S140,38.3,140,74.5z M74.5,17
		C42.7,17,17,42.7,17,74.5S42.7,132,74.5,132S132,106.3,132,74.5S106.3,17,74.5,17z"/>
	
		<radialGradient id="SVGID_3_" cx="-12.3406" cy="-7.5676" r="17.9761" gradientTransform="matrix(2.5556 0 0 4.8592 106.037 111.2723)" gradientUnits="userSpaceOnUse">
		<stop  offset="0" style="stop-color:#1869DE"/>
		<stop  offset="1" style="stop-color:#0E3E83"/>
	</radialGradient>
	<circle class="st2" cx="74.5" cy="74.5" r="57.5"/>
</g>
<g>
	<path class="st3" d="M65.5,50c1.3,0,2.3,0.9,2.3,2.1l0,8.8h-5.6l0-8.8c0-1.2,1-2.1,2.3-2.1H65.5z"/>
</g>
<g>
	<path class="st3" d="M80.5,50c1.3,0,2.3,0.9,2.3,2.1l0,8.8h-5.6l0-8.8c0-1.2,1-2.1,2.3-2.1H80.5z"/>
</g>
<g class="st4">
	<path d="M62.1,60.9l4.4,2.6H72l0-8.8c0-0.1,0-0.1,0-0.2c0-0.1,0-0.2-0.1-0.3c0,0,0,0,0,0c0,0,0,0,0,0c0,0,0-0.1,0-0.1
		c0-0.1-0.1-0.3-0.2-0.4c0-0.1-0.1-0.1-0.1-0.2c-0.1-0.1-0.1-0.2-0.2-0.3c0,0,0,0,0,0c-0.1-0.1-0.2-0.2-0.4-0.3c0,0,0,0,0,0
		l-4.4-2.6c0.1,0.1,0.3,0.2,0.4,0.3c0.1,0.1,0.1,0.2,0.2,0.3c0,0.1,0.1,0.1,0.1,0.2c0.1,0.1,0.1,0.3,0.2,0.4c0,0,0,0.1,0,0.1
		c0,0,0,0,0,0c0,0.2,0.1,0.3,0.1,0.5l0,8.8H62.1z"/>
	<path d="M51.4,98.2c0.3,0.3,0.6,0.5,0.9,0.8c0.2,0.1,0.3,0.3,0.5,0.4c0.4,0.3,0.8,0.6,1.2,0.9c0.1,0.1,0.2,0.1,0.3,0.2
		c0.5,0.3,0.9,0.6,1.4,0.9c0.1,0,0.2,0.1,0.2,0.1l4.4,2.6c-0.5-0.3-1.1-0.7-1.6-1c-0.1-0.1-0.2-0.1-0.3-0.2
		c-0.4-0.3-0.8-0.6-1.2-0.9c-0.2-0.1-0.3-0.3-0.5-0.4c-0.3-0.3-0.6-0.5-1-0.8c-0.2-0.1-0.3-0.3-0.5-0.4c-0.4-0.4-0.8-0.8-1.2-1.2
		c-0.4-0.4-0.8-0.9-1.2-1.3c-0.1-0.1-0.2-0.3-0.4-0.4c-0.3-0.3-0.5-0.7-0.8-1c-0.1-0.2-0.3-0.3-0.4-0.5c-0.3-0.3-0.5-0.7-0.8-1.1
		c-0.1-0.1-0.2-0.3-0.3-0.4c-0.3-0.5-0.6-1-1-1.5c0-0.1-0.1-0.2-0.1-0.3c-0.2-0.4-0.5-0.9-0.7-1.3c-0.1-0.2-0.2-0.3-0.3-0.5
		c-0.2-0.4-0.4-0.7-0.5-1.1c-0.1-0.2-0.2-0.4-0.2-0.5c-0.2-0.4-0.3-0.8-0.5-1.3c0-0.1-0.1-0.3-0.1-0.4c-0.2-0.6-0.4-1.1-0.5-1.7
		c-0.1-0.2-0.1-0.5-0.2-0.7c-0.1-0.3-0.1-0.5-0.2-0.8c-0.1-0.2-0.1-0.5-0.2-0.7c-0.1-0.3-0.1-0.5-0.2-0.8c0-0.2-0.1-0.5-0.1-0.7
		c0-0.3-0.1-0.5-0.1-0.8c0-0.2-0.1-0.5-0.1-0.7c0-0.3-0.1-0.5-0.1-0.8c0-0.3,0-0.7-0.1-1c0-0.2,0-0.3,0-0.5c0-0.5,0-1,0-1.5
		c0-0.6,0-1.2,0.1-1.9c0-0.2,0-0.4,0-0.5c0-0.5,0.1-1,0.2-1.5c0-0.2,0-0.4,0.1-0.6c0.1-0.6,0.2-1.1,0.3-1.7c0-0.1,0-0.2,0-0.2
		c0.1-0.6,0.3-1.2,0.4-1.9c0-0.2,0.1-0.3,0.1-0.5c0.1-0.5,0.3-0.9,0.4-1.4c0.1-0.2,0.1-0.3,0.2-0.5c0.2-0.6,0.5-1.2,0.7-1.9
		c0-0.1,0.1-0.1,0.1-0.2c0.2-0.6,0.5-1.1,0.8-1.6c0.1-0.1,0.1-0.3,0.2-0.4c0.4-0.7,0.8-1.4,1.2-2c0.1-0.1,0.1-0.2,0.2-0.3
		c0.4-0.7,0.9-1.4,1.4-2c0,0,0.1-0.1,0.1-0.1c0.3-0.4,0.6-0.8,1-1.2c0.1-0.1,0.2-0.3,0.4-0.4c0.2-0.3,0.5-0.6,0.8-0.9
		c0.1-0.2,0.3-0.3,0.4-0.5c0.3-0.3,0.5-0.5,0.8-0.8c0.2-0.1,0.3-0.3,0.5-0.4c0.3-0.3,0.6-0.5,0.8-0.7c0.1-0.1,0.3-0.3,0.4-0.4
		c0.4-0.3,0.7-0.6,1.1-0.9c0.1-0.1,0.1-0.1,0.2-0.2c0.5-0.3,0.9-0.7,1.4-1c0.1-0.1,0.3-0.2,0.4-0.3c0.3-0.2,0.7-0.4,1-0.6
		c0.2-0.1,0.4-0.2,0.5-0.3c0.3-0.2,0.6-0.4,1-0.5c0.2-0.1,0.4-0.2,0.6-0.3c0.3-0.2,0.7-0.3,1-0.5c0.2-0.1,0.4-0.2,0.6-0.3
		c0.4-0.2,0.8-0.3,1.2-0.5c0.1-0.1,0.3-0.1,0.4-0.2c0.5-0.2,1.1-0.4,1.6-0.6c0.1,0,0.2-0.1,0.3-0.1c0.4-0.1,0.9-0.3,1.3-0.4
		c0.2,0,0.4-0.1,0.6-0.1c0.4-0.1,0.7-0.2,1.1-0.2c0.2,0,0.4-0.1,0.7-0.1c0.4-0.1,0.7-0.1,1.1-0.2c0.2,0,0.4-0.1,0.7-0.1
		c0.4,0,0.8-0.1,1.2-0.1c0.2,0,0.4,0,0.6,0c0.6,0,1.2-0.1,1.8-0.1c5.9,0,11.5,1.6,16.2,4.5l-4.4-2.6c-4.7-2.9-10.3-4.5-16.2-4.5
		c-0.6,0-1.2,0-1.8,0.1c-0.2,0-0.4,0-0.6,0c-0.4,0-0.8,0.1-1.2,0.1c-0.2,0-0.4,0.1-0.7,0.1c-0.4,0-0.7,0.1-1.1,0.2
		c-0.2,0-0.4,0.1-0.7,0.1c-0.4,0.1-0.8,0.2-1.1,0.2c-0.2,0-0.4,0.1-0.6,0.1c-0.4,0.1-0.9,0.2-1.3,0.4c-0.1,0-0.2,0.1-0.3,0.1
		c-0.5,0.2-1.1,0.4-1.6,0.6c-0.1,0.1-0.3,0.1-0.4,0.2c-0.4,0.2-0.8,0.3-1.2,0.5c-0.2,0.1-0.4,0.2-0.6,0.3c-0.3,0.2-0.7,0.3-1,0.5
		c-0.2,0.1-0.4,0.2-0.6,0.3c-0.3,0.2-0.6,0.3-1,0.5c-0.2,0.1-0.4,0.2-0.5,0.3c-0.3,0.2-0.7,0.4-1,0.6c-0.1,0.1-0.3,0.2-0.4,0.3
		c-0.5,0.3-0.9,0.6-1.4,1c-0.1,0.1-0.1,0.1-0.2,0.2c-0.4,0.3-0.7,0.6-1.1,0.9c-0.1,0.1-0.3,0.3-0.4,0.4c-0.3,0.2-0.6,0.5-0.8,0.7
		c-0.2,0.1-0.3,0.3-0.5,0.4c-0.3,0.2-0.5,0.5-0.8,0.8c-0.1,0.2-0.3,0.3-0.4,0.5c-0.3,0.3-0.5,0.6-0.8,0.9c-0.1,0.1-0.2,0.3-0.4,0.4
		c-0.3,0.4-0.7,0.8-1,1.2c0,0-0.1,0.1-0.1,0.1c0,0,0,0,0,0c-0.5,0.7-1,1.3-1.4,2c-0.1,0.1-0.1,0.2-0.2,0.3c-0.4,0.7-0.8,1.3-1.2,2
		c0,0.1-0.1,0.1-0.1,0.2c0,0.1-0.1,0.2-0.1,0.2c-0.3,0.5-0.5,1.1-0.8,1.6c0,0.1-0.1,0.1-0.1,0.2c-0.3,0.6-0.5,1.2-0.7,1.9
		c0,0.1-0.1,0.1-0.1,0.2c0,0.1-0.1,0.2-0.1,0.3c-0.2,0.4-0.3,0.9-0.4,1.4c0,0.2-0.1,0.3-0.1,0.5c-0.2,0.6-0.3,1.2-0.4,1.9
		c0,0,0,0,0,0c0,0.1,0,0.1,0,0.2c-0.1,0.6-0.2,1.1-0.3,1.7c0,0.2-0.1,0.4-0.1,0.6c-0.1,0.5-0.1,1-0.2,1.5c0,0.1,0,0.2,0,0.4
		c0,0.1,0,0.1,0,0.2c0,0.6-0.1,1.2-0.1,1.9c0,0.5,0,1,0,1.5c0,0.2,0,0.3,0,0.5c0,0.3,0,0.6,0.1,0.8c0,0.1,0,0.1,0,0.2
		c0,0.3,0.1,0.5,0.1,0.8c0,0.3,0.1,0.5,0.1,0.7c0,0.3,0.1,0.5,0.1,0.8c0,0.2,0.1,0.5,0.1,0.7c0.1,0.3,0.1,0.5,0.2,0.8
		c0.1,0.2,0.1,0.5,0.2,0.7c0.1,0.3,0.1,0.5,0.2,0.8c0.1,0.2,0.1,0.4,0.2,0.6c0,0,0,0.1,0,0.1c0.2,0.6,0.3,1.1,0.5,1.7
		c0,0.1,0.1,0.3,0.1,0.4c0.2,0.4,0.3,0.9,0.5,1.3c0.1,0.2,0.2,0.4,0.2,0.5c0.2,0.4,0.3,0.8,0.5,1.1c0.1,0.2,0.2,0.3,0.3,0.5
		c0.2,0.4,0.5,0.9,0.7,1.3c0,0.1,0.1,0.2,0.1,0.3c0.3,0.5,0.6,1,1,1.5c0.1,0.1,0.2,0.3,0.3,0.4c0.2,0.4,0.5,0.7,0.8,1.1
		c0.1,0.2,0.2,0.3,0.4,0.5c0.3,0.3,0.5,0.7,0.8,1c0.1,0.1,0.2,0.3,0.4,0.4c0.4,0.5,0.8,0.9,1.2,1.3c0.3,0.3,0.6,0.6,0.9,0.9
		c0.1,0.1,0.2,0.2,0.3,0.3C51.1,97.9,51.2,98,51.4,98.2z"/>
	<path d="M77.1,60.9l4.4,2.6H87l0-8.8c0-0.1,0-0.1,0-0.2c0-0.1,0-0.2-0.1-0.3c0,0,0,0,0,0c0,0,0,0,0,0c0,0,0-0.1-0.1-0.1
		c0-0.1-0.1-0.2-0.2-0.3c0-0.1-0.1-0.1-0.1-0.2c-0.1-0.1-0.1-0.2-0.2-0.3c0,0,0,0,0,0c-0.1-0.1-0.2-0.2-0.4-0.3c0,0,0,0,0,0
		l-4.4-2.6c0.1,0.1,0.3,0.2,0.4,0.3c0.1,0.1,0.1,0.2,0.2,0.3c0,0.1,0.1,0.1,0.1,0.2c0.1,0.1,0.1,0.2,0.2,0.3c0,0.1,0.1,0.1,0.1,0.2
		c0,0,0,0,0,0c0,0.2,0.1,0.3,0.1,0.5l0,8.8H77.1z"/>
	<path d="M62.9,85.9l4.4,2.6c1.6,1,3.4,1.6,5.4,1.7l-4.4-2.6C66.3,87.5,64.5,86.9,62.9,85.9z"/>
	<path d="M69.2,110.4c0,0,0-0.1,0-0.1c0-0.1,0-0.1,0-0.2c0-0.2,0-0.3-0.1-0.5c0,0,0-0.1,0-0.1c0-0.1,0-0.1-0.1-0.2
		c0-0.1,0-0.1-0.1-0.2c-0.1-0.1-0.1-0.2-0.2-0.4c0-0.1,0-0.1-0.1-0.2c-0.1-0.2-0.2-0.3-0.3-0.5c0,0,0,0-0.1-0.1
		c-0.1-0.1-0.2-0.2-0.3-0.3c0,0,0,0-0.1,0c-0.1-0.1-0.3-0.2-0.5-0.3c0,0-0.1,0-0.1-0.1c0,0,0,0,0,0l-4.4-2.6c0,0,0.1,0.1,0.1,0.1
		c0.2,0.1,0.3,0.2,0.5,0.3c0.1,0.1,0.2,0.2,0.3,0.3c0,0,0,0,0.1,0.1c0.1,0.1,0.2,0.3,0.3,0.5c0,0,0.1,0.1,0.1,0.1
		c0.1,0.1,0.1,0.2,0.2,0.4c0,0.1,0,0.1,0.1,0.2c0,0.1,0.1,0.2,0.1,0.3c0,0.1,0.1,0.3,0.1,0.5c0,0.1,0,0.2,0,0.3c0,0.1,0,0.2,0,0.2
		c0,0.1,0,0.3,0,0.4c0,0.1,0,0.1,0,0.2c0,0.2-0.1,0.4-0.1,0.6c-0.1,0.2-0.1,0.4-0.2,0.6c-0.1,0.2-0.2,0.4-0.3,0.5c0,0,0,0,0,0
		c-0.2,0.2-0.3,0.4-0.5,0.5c0,0-0.1,0.1-0.2,0.1c-0.2,0.2-0.4,0.3-0.6,0.4c0,0,0,0,0,0c-0.2,0.1-0.5,0.2-0.7,0.3c-0.1,0-0.1,0-0.2,0
		c-0.3,0.1-0.5,0.1-0.8,0.1c-0.4,0-0.8-0.1-1.2-0.2c-2.1-0.7-4.1-1.5-6-2.6c-0.6-0.3-1.3-0.7-1.9-1.1l0,0c0,0,0,0,0,0l4.4,2.6
		c2.5,1.5,5.2,2.7,7.9,3.6c0.4,0.1,0.8,0.2,1.2,0.2c0.3,0,0.5,0,0.8-0.1c0.1,0,0.1,0,0.2,0c0.2-0.1,0.5-0.1,0.7-0.3c0,0,0,0,0,0
		c0.2-0.1,0.4-0.3,0.6-0.4c0.1,0,0.1-0.1,0.2-0.1c0.2-0.2,0.4-0.3,0.5-0.5c0,0,0,0,0,0c0,0,0,0,0,0c0.1-0.2,0.2-0.3,0.3-0.5
		c0,0,0,0,0,0c0.1-0.2,0.2-0.3,0.2-0.5c0,0,0,0,0-0.1c0-0.1,0.1-0.3,0.1-0.4c0,0,0-0.1,0-0.1c0-0.1,0-0.1,0-0.2c0-0.1,0-0.1,0-0.2
		c0-0.1,0-0.1,0-0.2C69.2,110.6,69.2,110.5,69.2,110.4z"/>
	<path d="M76,91.4c0,0,0,0.1,0,0.1c0,0.1,0,0.1,0,0.2c0,0.3,0.1,0.7,0.1,1c0,0.1,0,0.1,0,0.2c0,0.4,0.1,0.8,0.2,1.2
		c0,0.1,0,0.2,0,0.3c0.1,0.3,0.1,0.6,0.2,0.9c0,0.1,0,0.2,0.1,0.3c0.1,0.4,0.2,0.8,0.3,1.1c0,0,0,0,0,0c0,0,0,0.1,0,0.1
		c0.1,0.3,0.2,0.6,0.3,0.9c0,0.1,0.1,0.2,0.1,0.3c0.1,0.4,0.3,0.7,0.4,1c0,0,0,0.1,0,0.1c0.1,0.3,0.3,0.6,0.5,0.8
		c0,0.1,0.1,0.2,0.1,0.2c0.2,0.3,0.4,0.6,0.6,0.8c0.1,0.1,0.3,0.3,0.4,0.4c0,0,0.1,0,0.1,0.1c0.2,0.2,0.4,0.3,0.6,0.5
		c0,0,0.1,0,0.1,0.1c0,0,0,0,0,0l4.4,2.6c0,0-0.1-0.1-0.1-0.1c-0.2-0.1-0.4-0.3-0.6-0.5c-0.2-0.1-0.3-0.3-0.5-0.5
		c-0.2-0.2-0.4-0.5-0.6-0.8c-0.1-0.1-0.1-0.2-0.1-0.2c-0.2-0.3-0.3-0.5-0.5-0.8c0,0,0-0.1,0-0.1c-0.2-0.3-0.3-0.7-0.4-1
		c0-0.1-0.1-0.2-0.1-0.3c-0.1-0.3-0.2-0.6-0.3-0.9c0-0.1,0-0.1-0.1-0.2C81.1,99,81,98.6,81,98.2c0-0.1,0-0.2-0.1-0.3
		c-0.1-0.3-0.1-0.6-0.2-0.9c0-0.1,0-0.2,0-0.3c-0.1-0.4-0.1-0.8-0.2-1.2c0-0.1,0-0.2,0-0.2c0-0.3-0.1-0.7-0.1-1c0-0.1,0-0.2,0-0.3
		c0-0.6-0.1-1.2-0.1-1.8c0,0,0-0.1,0-0.1c0-0.6,0-1.2,0-1.8c0.4,0,0.9-0.1,1.3-0.1c0.1,0,0.3-0.1,0.4-0.1c0.3-0.1,0.6-0.1,0.9-0.2
		c0.2,0,0.3-0.1,0.5-0.1c0.3-0.1,0.5-0.2,0.8-0.3c0.2-0.1,0.3-0.1,0.5-0.2c0.2-0.1,0.5-0.2,0.7-0.3c0.1-0.1,0.3-0.1,0.4-0.2
		c0.2-0.1,0.5-0.3,0.7-0.4c0.1-0.1,0.2-0.2,0.4-0.2c0.3-0.2,0.6-0.4,0.8-0.6c0.1,0,0.1-0.1,0.2-0.1c0.3-0.3,0.6-0.6,0.9-0.9
		c0.1-0.1,0.2-0.2,0.2-0.3c0.2-0.2,0.4-0.5,0.6-0.7c0,0,0.1-0.1,0.1-0.1c0.1-0.1,0.2-0.3,0.3-0.4c0.1-0.1,0.2-0.2,0.2-0.4
		c0.1-0.2,0.3-0.4,0.4-0.7c0.1-0.1,0.1-0.2,0.2-0.3c0,0,0,0,0,0c0.2-0.3,0.3-0.6,0.4-0.9c0-0.1,0.1-0.2,0.1-0.3
		c0.1-0.2,0.1-0.3,0.2-0.5c0-0.1,0-0.1,0-0.2c0.1-0.4,0.3-0.9,0.4-1.3c0,0,0-0.1,0-0.1c0,0,0,0,0,0c0,0,0-0.1,0-0.1
		c0.1-0.3,0.1-0.7,0.1-1c0-0.1,0-0.2,0-0.3c0-0.1,0-0.2,0-0.3c0-0.3,0-0.5,0-0.8L92.1,66l-4.4-2.6l-0.1,11.8c0,0.4,0,0.7-0.1,1.1
		c0,0.1,0,0.2,0,0.3c0,0.3-0.1,0.7-0.1,1c0,0,0,0.1,0,0.1c0,0,0,0.1,0,0.1c-0.1,0.5-0.2,0.9-0.4,1.3c-0.1,0.2-0.1,0.4-0.2,0.6
		c0,0.1-0.1,0.2-0.1,0.3c-0.1,0.3-0.3,0.6-0.4,0.9c-0.1,0.1-0.1,0.2-0.2,0.3c-0.1,0.2-0.2,0.4-0.4,0.6c-0.1,0.1-0.2,0.2-0.2,0.4
		c-0.1,0.2-0.2,0.4-0.4,0.5c-0.2,0.2-0.4,0.5-0.6,0.7c-0.1,0.1-0.2,0.2-0.2,0.3c-0.3,0.3-0.6,0.6-0.9,0.9c-0.1,0-0.1,0.1-0.2,0.1
		c-0.3,0.2-0.5,0.4-0.8,0.6c-0.1,0.1-0.2,0.2-0.4,0.2c-0.2,0.2-0.5,0.3-0.7,0.4c-0.1,0.1-0.3,0.2-0.4,0.2c-0.2,0.1-0.5,0.2-0.7,0.3
		c-0.2,0.1-0.3,0.1-0.5,0.2c-0.2,0.1-0.5,0.2-0.8,0.3c-0.2,0-0.3,0.1-0.5,0.1c-0.3,0.1-0.6,0.1-0.9,0.2c-0.1,0-0.3,0.1-0.4,0.1
		c-0.4,0.1-0.9,0.1-1.3,0.1c0,0.6,0,1.2,0,1.8c0,0,0,0.1,0,0.1C75.9,90.2,75.9,90.8,76,91.4z"/>
	<path d="M115.7,81.5c0.1-0.6,0.1-1.2,0.2-1.9c0-0.1,0-0.3,0-0.4c0-0.1,0-0.2,0-0.2c0-0.8,0.1-1.5,0.1-2.3c0-0.8,0-1.6-0.1-2.4
		c0-0.2,0-0.4,0-0.6c0-0.2,0-0.4,0-0.5c0-0.5-0.1-1-0.2-1.5c0-0.1,0-0.2,0-0.4c-0.1-0.8-0.2-1.6-0.4-2.3c0-0.2-0.1-0.4-0.1-0.6
		c-0.1-0.6-0.3-1.1-0.4-1.7c-0.1-0.2-0.1-0.5-0.2-0.7c0-0.2-0.1-0.3-0.1-0.5c-0.1-0.3-0.2-0.5-0.3-0.8c-0.1-0.4-0.3-0.9-0.4-1.3
		c-0.1-0.4-0.3-0.8-0.4-1.1c-0.2-0.4-0.3-0.9-0.5-1.3c-0.2-0.4-0.3-0.7-0.5-1.1c-0.2-0.4-0.4-0.8-0.6-1.2c-0.2-0.4-0.4-0.7-0.6-1.1
		c-0.2-0.4-0.4-0.8-0.7-1.2c-0.2-0.3-0.4-0.7-0.6-1c-0.2-0.4-0.5-0.8-0.8-1.1c-0.2-0.3-0.5-0.7-0.7-1c-0.3-0.4-0.5-0.7-0.8-1.1
		c-0.2-0.3-0.5-0.6-0.8-0.9c-0.3-0.3-0.6-0.7-0.9-1c-0.3-0.3-0.5-0.6-0.8-0.9c-0.3-0.3-0.6-0.7-1-1c-0.2-0.2-0.4-0.4-0.6-0.6
		c-0.1-0.1-0.2-0.2-0.3-0.3c-0.2-0.2-0.4-0.3-0.6-0.5c-0.4-0.3-0.8-0.7-1.2-1c-0.2-0.2-0.4-0.3-0.6-0.5c-0.5-0.4-1-0.7-1.5-1.1
		c-0.1-0.1-0.2-0.2-0.4-0.3c-0.6-0.4-1.2-0.8-1.7-1.1c-0.1-0.1-0.2-0.1-0.3-0.2l-4.4-2.6c0.7,0.4,1.4,0.9,2,1.3
		c0.1,0.1,0.2,0.2,0.4,0.3c0.5,0.4,1,0.7,1.5,1.1c0.2,0.2,0.4,0.3,0.6,0.5c0.4,0.3,0.8,0.7,1.2,1c0.2,0.2,0.4,0.3,0.6,0.5
		c0.3,0.3,0.6,0.6,0.9,0.9c0.3,0.3,0.7,0.6,1,1c0.3,0.3,0.5,0.6,0.8,0.9c0.3,0.3,0.6,0.7,0.9,1c0.3,0.3,0.5,0.6,0.7,0.9
		c0.3,0.4,0.6,0.7,0.8,1.1c0.2,0.3,0.5,0.6,0.7,1c0.3,0.4,0.5,0.8,0.8,1.1c0.2,0.3,0.4,0.7,0.6,1c0.2,0.4,0.5,0.8,0.7,1.2
		c0.2,0.4,0.4,0.7,0.6,1.1c0.2,0.4,0.4,0.8,0.6,1.2c0.2,0.4,0.3,0.7,0.5,1.1c0.2,0.4,0.4,0.9,0.5,1.3c0.1,0.4,0.3,0.8,0.4,1.1
		c0.2,0.4,0.3,0.9,0.4,1.3c0.1,0.4,0.3,0.8,0.4,1.3c0.1,0.2,0.1,0.5,0.2,0.7c0.1,0.6,0.3,1.1,0.4,1.7c0,0.2,0.1,0.4,0.1,0.6
		c0.1,0.8,0.3,1.5,0.4,2.3c0,0.1,0,0.2,0,0.4c0.1,0.7,0.1,1.4,0.2,2.1c0,0.2,0,0.4,0,0.6c0,0.8,0.1,1.6,0.1,2.4c0,0.8,0,1.5-0.1,2.3
		c0,0.2,0,0.4-0.1,0.7c0,0.6-0.1,1.2-0.2,1.9c0,0.2-0.1,0.4-0.1,0.7c-0.1,0.8-0.2,1.6-0.4,2.4c0,0.1,0,0.2-0.1,0.3
		c-0.1,0.7-0.3,1.3-0.5,2c-0.1,0.2-0.1,0.5-0.2,0.7c-0.2,0.6-0.3,1.1-0.5,1.7c-0.1,0.2-0.1,0.4-0.2,0.6c-0.3,0.8-0.6,1.5-0.9,2.3
		c-0.1,0.2-0.1,0.3-0.2,0.5c-0.3,0.6-0.6,1.2-0.9,1.8c-0.1,0.2-0.2,0.5-0.4,0.7c-0.1,0.2-0.2,0.4-0.3,0.6c-0.2,0.3-0.4,0.7-0.6,1
		c-0.1,0.2-0.2,0.4-0.4,0.6c-0.2,0.3-0.4,0.7-0.6,1c-0.1,0.2-0.2,0.3-0.3,0.5c-0.3,0.4-0.6,0.8-0.9,1.2c-0.1,0.1-0.1,0.2-0.2,0.3
		c0,0-0.1,0.1-0.1,0.1c-0.5,0.6-1,1.3-1.5,1.9c-0.1,0.2-0.3,0.3-0.4,0.5c-0.6,0.6-1.2,1.3-1.8,1.9c-1.1,1-9.4,8.4-16.8,8.4
		c-2.5,0-4.8-0.6-6.8-1.8l4.4,2.6c2,1.2,4.3,1.8,6.8,1.8c7.3,0,15.7-7.4,16.8-8.4c0.6-0.6,1.2-1.3,1.8-1.9c0.1-0.2,0.3-0.3,0.4-0.5
		c0.5-0.6,1-1.2,1.5-1.9c0,0,0.1-0.1,0.1-0.1c0,0,0,0,0,0c0.1-0.1,0.1-0.2,0.2-0.3c0.3-0.4,0.6-0.8,0.9-1.2c0.1-0.2,0.2-0.3,0.3-0.5
		c0.2-0.3,0.4-0.7,0.6-1c0.1-0.2,0.2-0.4,0.4-0.6c0.2-0.3,0.4-0.7,0.6-1c0.1-0.2,0.2-0.4,0.3-0.6c0.1-0.1,0.1-0.2,0.2-0.4
		c0.1-0.1,0.1-0.2,0.2-0.3c0.3-0.6,0.6-1.2,0.9-1.8c0.1-0.2,0.1-0.3,0.2-0.5c0.3-0.7,0.6-1.5,0.9-2.3c0-0.1,0-0.1,0.1-0.2
		c0-0.1,0.1-0.3,0.1-0.4c0.2-0.6,0.4-1.1,0.5-1.7c0.1-0.2,0.1-0.5,0.2-0.7c0.2-0.7,0.3-1.3,0.5-2c0-0.1,0-0.2,0.1-0.2c0,0,0,0,0,0
		c0.2-0.8,0.3-1.6,0.4-2.4C115.7,82,115.7,81.8,115.7,81.5z"/>
</g>
<linearGradient id="SVGID_4_" gradientUnits="userSpaceOnUse" x1="32.9461" y1="73.1916" x2="111.7022" y2="73.1916">
	<stop  offset="0" style="stop-color:#E6E6E6"/>
	<stop  offset="0.4359" style="stop-color:#E9E9E9"/>
	<stop  offset="0.7635" style="stop-color:#F3F3F3"/>
	<stop  offset="1" style="stop-color:#FFFFFF"/>
</linearGradient>
<path class="st5" d="M72.5,34.6c21.7,0,39.3,17.7,39.2,39.5c0,10.6-4.2,20.5-11.7,28c-1.1,1-9.4,8.4-16.8,8.4
	c-3.9,0-7.3-1.5-9.8-4.3c-4.5-5.1-5.2-13.4-5.1-18.5c-6.4-0.5-11.4-5.9-11.4-12.4l0.1-11.8h30.9l-0.1,11.8c0,6.7-5.3,12.1-11.9,12.5
	c0,4.3,0.5,10.4,3.2,13.4c1.1,1.2,2.4,1.8,4.1,1.8c3.4,0,9.2-4.2,11.5-6.2c6-6,9.4-14,9.4-22.5c0.1-17.6-14.1-31.9-31.6-31.9
	S40.6,56.5,40.5,74.1c0,8.5,3.2,16.5,9.1,22.5c3.5,3.6,7.9,6.3,12.6,7.8c2,0.6,3.1,2.8,2.4,4.8c-0.5,1.6-2,2.6-3.6,2.6
	c-0.4,0-0.8-0.1-1.2-0.2c-5.9-1.9-11.3-5.3-15.6-9.7c-7.4-7.5-11.4-17.3-11.3-27.8C33,52.3,50.8,34.6,72.5,34.6z"/>
</svg>
