<?xml version="1.0" encoding="utf-8"?>
<!-- Generator: Adobe Illustrator 21.0.0, SVG Export Plug-In . SVG Version: 6.00 Build 0)  -->
<svg version="1.1" id="Layer_1" xmlns="http://www.w3.org/2000/svg" xmlns:xlink="http://www.w3.org/1999/xlink" x="0px" y="0px"
	 viewBox="0 0 149 149" style="enable-background:new 0 0 149 149;" xml:space="preserve">
<style type="text/css">
	.st0{fill:url(#SVGID_1_);}
	.st1{fill:url(#SVGID_2_);}
	.st2{fill:url(#SVGID_3_);}
	.st3{opacity:0.38;}
	.st4{fill:url(#SVGID_4_);}
</style>
<g>
	<g>
		
			<radialGradient id="SVGID_1_" cx="74.5" cy="-2774.5" r="74.2" gradientTransform="matrix(1 0 0 -1 0 -2700)" gradientUnits="userSpaceOnUse">
			<stop  offset="0" style="stop-color:#000000"/>
			<stop  offset="1" style="stop-color:#000000;stop-opacity:0"/>
		</radialGradient>
		<circle class="st0" cx="74.5" cy="74.5" r="74.2"/>
	</g>
	<linearGradient id="SVGID_2_" gradientUnits="userSpaceOnUse" x1="9" y1="74.5" x2="140" y2="74.5">
		<stop  offset="0" style="stop-color:#E6E6E6"/>
		<stop  offset="0.4359" style="stop-color:#E9E9E9"/>
		<stop  offset="0.7635" style="stop-color:#F3F3F3"/>
		<stop  offset="1" style="stop-color:#FFFFFF"/>
	</linearGradient>
	<path class="st1" d="M140,74.5c0,36.2-29.3,65.5-65.5,65.5S9,110.7,9,74.5S38.3,9,74.5,9S140,38.3,140,74.5z M74.5,17
		C42.7,17,17,42.7,17,74.5S42.7,132,74.5,132S132,106.3,132,74.5S106.3,17,74.5,17z"/>
	
		<radialGradient id="SVGID_3_" cx="-12.3406" cy="-7.5676" r="17.9761" gradientTransform="matrix(2.5556 0 0 4.8592 106.037 111.2723)" gradientUnits="userSpaceOnUse">
		<stop  offset="0" style="stop-color:#1869DE"/>
		<stop  offset="1" style="stop-color:#0E3E83"/>
	</radialGradient>
	<circle class="st2" cx="74.5" cy="74.5" r="57.5"/>
</g>
<g class="st3">
	<path d="M64.7,104.4c-0.1-0.4-0.2-0.8-0.3-1.2c0-0.2-0.1-0.4-0.1-0.6c-0.1-0.6-0.2-1.3-0.3-1.9c0,0,0,0,0-0.1
		c-0.1-0.6-0.1-1.2-0.2-1.7c0-0.2,0-0.4,0-0.6c0-0.4,0-0.7-0.1-1c0-0.6,0-1.1,0-1.7c0-0.1,0-0.3,0-0.4c0-0.7,0-1.3,0.1-2
		c0-0.2,0-0.4,0.1-0.6c0-0.4,0.1-0.8,0.1-1.2c0-0.2,0.1-0.4,0.1-0.6c0.1-0.3,0.1-0.7,0.2-1c0-0.2,0.1-0.4,0.1-0.6
		c0.1-0.3,0.1-0.6,0.2-1c0-0.2,0.1-0.4,0.1-0.6c0.1-0.3,0.2-0.7,0.3-1c0-0.1,0.1-0.3,0.1-0.4c0.2-0.5,0.3-1,0.5-1.4
		c0-0.1,0.1-0.2,0.1-0.3c0.1-0.4,0.3-0.7,0.5-1c0.1-0.2,0.2-0.4,0.3-0.5c0.1-0.1,0.1-0.2,0.2-0.4c0.1-0.2,0.2-0.4,0.3-0.6
		c0.1-0.1,0.1-0.2,0.2-0.3c0.2-0.3,0.3-0.5,0.5-0.8c0,0,0-0.1,0.1-0.1c0.2-0.3,0.4-0.5,0.5-0.8c0.1-0.1,0.1-0.1,0.2-0.2
		c0.1-0.2,0.3-0.4,0.4-0.5c0.1-0.1,0.1-0.2,0.2-0.2c0.1-0.1,0.2-0.3,0.4-0.4c0.1-0.1,0.1-0.2,0.2-0.2c0.1-0.1,0.2-0.3,0.4-0.4
		c0.1-0.1,0.1-0.1,0.2-0.2c0.2-0.2,0.3-0.4,0.5-0.5c0,0,0,0,0.1-0.1c0.2-0.2,0.3-0.3,0.4-0.4c0.1-0.1,0.1-0.1,0.2-0.1
		c0.1-0.1,0.2-0.2,0.3-0.3c0.1,0,0.1-0.1,0.2-0.1c0.1-0.1,0.2-0.2,0.3-0.2c0,0,0.1-0.1,0.1-0.1c0.1-0.1,0.2-0.2,0.3-0.3
		c0,0,0.1,0,0.1-0.1c0.1-0.1,0.2-0.2,0.4-0.3c0,0,0.1,0,0.1-0.1c0.1-0.1,0.2-0.1,0.2-0.2c0,0,0.1,0,0.1-0.1c0.1,0,0.1-0.1,0.2-0.1
		c0,0,0.1,0,0.1,0c0,0,0.1-0.1,0.1-0.1c0,0,0,0,0,0c0,0,0.1,0,0.1-0.1L69.7,74c0,0-0.1,0-0.1,0.1c0,0,0,0,0,0c0,0-0.1,0.1-0.1,0.1
		c0,0,0,0-0.1,0c0,0-0.1,0.1-0.2,0.1c0,0-0.1,0-0.1,0.1c-0.1,0-0.1,0.1-0.2,0.2c0,0-0.1,0-0.1,0.1c-0.1,0.1-0.2,0.2-0.4,0.3
		c0,0-0.1,0-0.1,0.1c-0.1,0.1-0.2,0.2-0.3,0.2c0,0-0.1,0.1-0.1,0.1c-0.1,0.1-0.2,0.2-0.3,0.2c-0.1,0-0.1,0.1-0.2,0.1
		c-0.1,0.1-0.2,0.2-0.3,0.3c-0.1,0-0.1,0.1-0.2,0.1c-0.1,0.1-0.3,0.3-0.4,0.4c0,0,0,0-0.1,0.1c-0.2,0.2-0.3,0.3-0.5,0.5
		c-0.1,0.1-0.1,0.1-0.2,0.2c-0.1,0.1-0.2,0.3-0.4,0.4c-0.1,0.1-0.1,0.2-0.2,0.2c-0.1,0.1-0.2,0.3-0.4,0.4c-0.1,0.1-0.1,0.2-0.2,0.2
		c-0.1,0.2-0.3,0.3-0.4,0.5c-0.1,0.1-0.1,0.1-0.2,0.2c0,0,0,0,0,0.1c-0.2,0.2-0.3,0.5-0.5,0.7c0,0,0,0.1-0.1,0.1
		c-0.2,0.2-0.3,0.5-0.5,0.7c-0.1,0.1-0.1,0.2-0.2,0.3c-0.1,0.2-0.2,0.4-0.3,0.6c-0.1,0.1-0.1,0.2-0.2,0.4c-0.1,0.1-0.1,0.2-0.2,0.3
		c0,0.1-0.1,0.1-0.1,0.2c-0.2,0.3-0.3,0.7-0.5,1c0,0.1-0.1,0.2-0.1,0.3c-0.2,0.5-0.4,0.9-0.5,1.4c0,0,0,0.1,0,0.1
		c0,0.1-0.1,0.2-0.1,0.3c-0.1,0.3-0.2,0.6-0.3,1c-0.1,0.2-0.1,0.4-0.1,0.6c-0.1,0.3-0.2,0.6-0.2,1c0,0.1-0.1,0.2-0.1,0.3
		c0,0.1,0,0.2-0.1,0.3c-0.1,0.3-0.1,0.7-0.2,1c0,0.2-0.1,0.4-0.1,0.6c0,0.4-0.1,0.8-0.1,1.2c0,0.2,0,0.3,0,0.5c0,0,0,0.1,0,0.1
		c0,0.6-0.1,1.3-0.1,2c0,0.1,0,0.3,0,0.4c0,0.5,0,1.1,0,1.7c0,0.1,0,0.2,0,0.3c0,0.2,0,0.5,0.1,0.7c0,0.2,0,0.4,0,0.6
		c0.1,0.6,0.1,1.1,0.2,1.7c0,0,0,0.1,0,0.1c0.1,0.6,0.2,1.2,0.3,1.9c0,0.2,0.1,0.4,0.1,0.6c0.1,0.3,0.1,0.6,0.2,0.9
		c0,0.1,0.1,0.2,0.1,0.3c0.1,0.5,0.3,1.1,0.4,1.6c0.1,0.3,0.1,0.5,0.2,0.8c0.2,0.8,0.5,1.7,0.8,2.5l4.1,0.6
		c-0.3-0.9-0.5-1.7-0.8-2.5c-0.1-0.3-0.1-0.5-0.2-0.8C65,105.4,64.8,104.9,64.7,104.4z"/>
	<path d="M64.4,39.7c0,0,0.1,0,0.1,0.1c0,0,0.1,0,0.1,0.1c0,0,0.1,0,0.1,0.1c0,0,0.1,0.1,0.2,0.1c0.1,0,0.1,0.1,0.2,0.1
		c0.1,0,0.1,0.1,0.2,0.1c0.1,0,0.2,0.1,0.2,0.1c0.1,0,0.1,0.1,0.2,0.1c0.1,0,0.2,0.1,0.3,0.1c0.1,0,0.2,0.1,0.2,0.1
		c0.1,0.1,0.2,0.1,0.3,0.2c0.1,0.1,0.2,0.1,0.3,0.2c0.1,0.1,0.2,0.1,0.3,0.2c0.1,0.1,0.2,0.1,0.3,0.2c0.1,0.1,0.2,0.1,0.3,0.2
		c0.1,0.1,0.2,0.1,0.3,0.2c0.1,0.1,0.2,0.1,0.3,0.2c0.2,0.1,0.3,0.2,0.5,0.3c0.1,0.1,0.2,0.1,0.2,0.2c0.2,0.2,0.5,0.3,0.7,0.5
		c0,0,0,0,0,0c0.3,0.2,0.5,0.4,0.8,0.6c0.1,0.1,0.2,0.1,0.3,0.2c0.2,0.1,0.4,0.3,0.5,0.4c0.1,0.1,0.2,0.2,0.3,0.3
		c0.2,0.1,0.3,0.3,0.5,0.4c0.1,0.1,0.2,0.2,0.3,0.3c0.2,0.1,0.3,0.3,0.5,0.4c0.1,0.1,0.2,0.2,0.4,0.3c0.2,0.2,0.3,0.3,0.5,0.5
		c0.1,0.1,0.2,0.3,0.4,0.4c0.2,0.2,0.3,0.3,0.5,0.5c0.1,0.1,0.2,0.2,0.2,0.3c0.4,0.4,0.7,0.8,1,1.2c0,0,0.1,0.1,0.1,0.1
		c0.4,0.5,0.7,0.9,1.1,1.4c0.1,0.1,0.2,0.2,0.2,0.3c0.3,0.5,0.7,1,1,1.6c0,0.1,0.1,0.1,0.1,0.2c0.3,0.5,0.6,1,0.9,1.6
		c0.1,0.1,0.1,0.2,0.2,0.3c0.2,0.5,0.5,1,0.7,1.5c0,0,0,0.1,0,0.1c0.2,0.5,0.4,1,0.6,1.5c0.1,0.2,0.1,0.3,0.2,0.5
		c0.1,0.4,0.3,0.8,0.4,1.2c0.1,0.2,0.1,0.4,0.2,0.6c0.1,0.4,0.2,0.8,0.3,1.3c0,0.2,0.1,0.3,0.1,0.5c0.1,0.4,0.1,0.7,0.2,1.1
		c0,0.2,0.1,0.4,0.1,0.6c0.1,0.6,0.2,1.2,0.2,1.8c0.1,0.8,0.1,1.5,0.2,2.3c0,0.3,0,0.5,0,0.7c0,0.5,0.1,1,0.1,1.4c0,0.1,0,0.2,0,0.3
		c0,0.6,0.1,1.1,0.1,1.6c0,0.1,0,0.2,0,0.3c0,0.6,0,1.1,0,1.6c0,0.1,0,0.2,0,0.3c0,0.5,0,1,0,1.5c0,0,0,0,0,0.1c0,0.5,0,0.9,0,1.3
		c0,0.1,0,0.2,0,0.3c0,0.4,0,0.8-0.1,1.2c0,0.2,0,0.3,0,0.5c0,0.3,0,0.5-0.1,0.8c0,0.2,0,0.3-0.1,0.5c0,0.2-0.1,0.4-0.1,0.7
		c0,0.2,0,0.3-0.1,0.4c0,0.2-0.1,0.4-0.1,0.6c0,0.1,0,0.3-0.1,0.4c0,0.2-0.1,0.4-0.1,0.6c0,0.1,0,0.2-0.1,0.2
		C82.1,83,82,83.2,82,83.4c0,0,0,0,0,0.1c-0.1,0.2-0.1,0.4-0.2,0.6c0,0.1,0,0.1-0.1,0.2c0,0.1-0.1,0.2-0.1,0.3
		c-0.1,0.2-0.1,0.3-0.2,0.5c0,0.1,0,0.1-0.1,0.2c-0.1,0.2-0.2,0.4-0.2,0.5c-0.1,0.1-0.1,0.3-0.2,0.4c-0.1,0.1-0.1,0.2-0.2,0.3
		c-0.1,0.2-0.2,0.3-0.3,0.4l4.1,0.6c0.1-0.1,0.2-0.2,0.3-0.3c0,0,0-0.1,0.1-0.1c0.1-0.1,0.1-0.2,0.2-0.3c0-0.1,0.1-0.1,0.1-0.2
		c0-0.1,0.1-0.1,0.1-0.2c0.1-0.2,0.1-0.3,0.2-0.5c0-0.1,0-0.1,0.1-0.2c0.1-0.1,0.1-0.3,0.2-0.5c0,0,0-0.1,0-0.1c0-0.1,0-0.1,0.1-0.2
		c0-0.1,0-0.1,0.1-0.2c0.1-0.2,0.1-0.4,0.2-0.6c0,0,0,0,0-0.1c0.1-0.2,0.1-0.5,0.2-0.7c0-0.1,0-0.2,0-0.2c0-0.1,0.1-0.2,0.1-0.3
		c0-0.1,0-0.2,0-0.2c0-0.1,0.1-0.3,0.1-0.4c0-0.2,0.1-0.4,0.1-0.6c0-0.1,0-0.3,0.1-0.5c0-0.2,0.1-0.4,0.1-0.7c0-0.2,0-0.3,0.1-0.5
		c0-0.2,0-0.5,0.1-0.8c0-0.2,0-0.3,0-0.5c0,0,0-0.1,0-0.1c0-0.3,0-0.7,0.1-1.1c0-0.1,0-0.2,0-0.3c0-0.4,0-0.9,0-1.4c0,0,0,0,0-0.1
		c0-0.5,0-1,0-1.5c0-0.1,0-0.2,0-0.3c0-0.5,0-1.1,0-1.6c0-0.1,0-0.2,0-0.3c0-0.5,0-1.1-0.1-1.6c0-0.1,0-0.2,0-0.3c0,0,0-0.1,0-0.1
		c0-0.4-0.1-0.9-0.1-1.3c0-0.2,0-0.5,0-0.7c-0.1-0.7-0.1-1.5-0.2-2.3c-0.1-0.6-0.1-1.2-0.2-1.8c0-0.2-0.1-0.4-0.1-0.6
		c-0.1-0.4-0.1-0.8-0.2-1.1c0,0,0-0.1,0-0.1c0-0.1-0.1-0.2-0.1-0.4c-0.1-0.4-0.2-0.8-0.3-1.3c-0.1-0.2-0.1-0.4-0.2-0.6
		c-0.1-0.4-0.2-0.8-0.4-1.2c-0.1-0.2-0.1-0.3-0.2-0.5c-0.2-0.5-0.4-1-0.6-1.5c0,0,0-0.1,0-0.1c-0.2-0.5-0.4-1-0.7-1.5
		c0,0,0-0.1-0.1-0.1c0-0.1-0.1-0.1-0.1-0.2c-0.3-0.5-0.6-1.1-0.9-1.6c0-0.1-0.1-0.1-0.1-0.2c-0.3-0.5-0.7-1.1-1-1.6
		c-0.1-0.1-0.2-0.2-0.2-0.3c-0.3-0.5-0.7-1-1.1-1.4c0,0-0.1-0.1-0.1-0.1c-0.3-0.4-0.7-0.8-1-1.2c0,0-0.1-0.1-0.1-0.2
		c0,0-0.1-0.1-0.1-0.1c-0.1-0.2-0.3-0.3-0.4-0.5c-0.1-0.1-0.2-0.3-0.4-0.4c-0.2-0.2-0.3-0.3-0.5-0.5c-0.1-0.1-0.2-0.2-0.4-0.4
		c-0.2-0.2-0.3-0.3-0.5-0.4c-0.1-0.1-0.2-0.2-0.3-0.3c-0.2-0.1-0.3-0.3-0.5-0.4c-0.1-0.1-0.2-0.2-0.3-0.3c-0.2-0.2-0.4-0.3-0.5-0.4
		c-0.1-0.1-0.2-0.1-0.3-0.2c-0.3-0.2-0.5-0.4-0.8-0.6c0,0,0,0,0,0c-0.2-0.2-0.5-0.4-0.7-0.5C73.2,43.1,73.1,43,73,43
		c-0.2-0.1-0.3-0.2-0.5-0.3c0,0,0,0,0,0c-0.1-0.1-0.2-0.1-0.3-0.2c-0.1-0.1-0.2-0.1-0.3-0.2c-0.1-0.1-0.2-0.1-0.3-0.2
		c-0.1-0.1-0.2-0.1-0.3-0.2c-0.1-0.1-0.2-0.1-0.3-0.2c-0.1-0.1-0.2-0.1-0.3-0.2c-0.1-0.1-0.2-0.1-0.3-0.2c-0.1,0-0.2-0.1-0.2-0.1
		c-0.1-0.1-0.2-0.1-0.3-0.2c-0.1,0-0.1-0.1-0.2-0.1c-0.1,0-0.2-0.1-0.2-0.1c-0.1,0-0.1-0.1-0.2-0.1c-0.1,0-0.1-0.1-0.2-0.1
		c-0.1,0-0.1-0.1-0.2-0.1c0,0-0.1,0-0.1-0.1c-0.1,0-0.1-0.1-0.2-0.1c0,0,0,0,0,0c0,0,0,0-0.1,0c-0.1-0.1-0.2-0.1-0.3-0.1l-4.1-0.6
		C64.3,39.7,64.3,39.7,64.4,39.7C64.4,39.7,64.4,39.7,64.4,39.7z"/>
	<path d="M84.8,92.8c-0.3,0.2-5.3,4.1-8,5l4.1,0.6c2.8-0.9,7.8-4.8,8-5L84.8,92.8z"/>
	<path d="M99.5,83.2c0-0.1,0-0.2,0-0.4c0-0.4,0-0.8,0-1.2c0-0.1,0-0.1,0-0.2c0,0,0-0.1,0-0.1c0-0.7-0.1-1.4-0.2-2.1
		c0-0.1,0-0.1,0-0.2c-0.1-0.7-0.2-1.3-0.3-2c0,0,0-0.1,0-0.1c0,0,0-0.1,0-0.1c-0.1-0.3-0.1-0.6-0.2-0.9c0-0.1,0-0.1,0-0.2
		c-0.1-0.4-0.2-0.7-0.3-1.1c0-0.1-0.1-0.2-0.1-0.3c-0.1-0.3-0.2-0.5-0.2-0.8c0-0.1-0.1-0.3-0.1-0.4c-0.1-0.2-0.2-0.4-0.2-0.7
		c0-0.1-0.1-0.3-0.1-0.4c-0.1-0.2-0.2-0.4-0.2-0.6c0-0.1-0.1-0.2-0.1-0.4c-0.1-0.2-0.2-0.4-0.3-0.6c0-0.1-0.1-0.2-0.1-0.3
		c-0.1-0.3-0.2-0.6-0.4-0.8c0,0,0,0,0-0.1c-0.1-0.3-0.3-0.6-0.4-0.9c0,0,0,0,0-0.1c0,0,0-0.1-0.1-0.1c-0.2-0.3-0.3-0.6-0.5-0.9
		c0-0.1-0.1-0.1-0.1-0.2c-0.2-0.3-0.3-0.6-0.5-0.9c0-0.1-0.1-0.1-0.1-0.2c-0.2-0.3-0.3-0.5-0.5-0.8c0,0,0,0,0,0
		c-0.2-0.3-0.3-0.5-0.4-0.7c0,0-0.1-0.1-0.1-0.1c-0.1-0.2-0.3-0.4-0.4-0.6c0,0,0-0.1-0.1-0.1c-0.1-0.2-0.2-0.3-0.3-0.4
		c0,0,0,0,0-0.1c-0.1-0.1-0.2-0.2-0.2-0.3c0,0,0,0,0-0.1c0-0.1-0.1-0.1-0.1-0.1l-4.1-0.6c0,0,0.1,0.1,0.1,0.1c0,0,0,0,0,0.1
		c0.1,0.1,0.1,0.2,0.2,0.3c0,0,0,0,0,0.1c0.1,0.1,0.2,0.2,0.3,0.4c0,0,0,0.1,0.1,0.1c0.1,0.2,0.2,0.4,0.4,0.6c0,0,0.1,0.1,0.1,0.1
		c0.1,0.2,0.3,0.5,0.4,0.7c0,0,0,0,0,0c0.1,0.2,0.3,0.5,0.5,0.8c0,0.1,0.1,0.1,0.1,0.2c0.2,0.3,0.3,0.6,0.5,0.9
		c0,0.1,0.1,0.1,0.1,0.2c0.2,0.3,0.3,0.6,0.5,0.9c0,0.1,0.1,0.1,0.1,0.2c0.1,0.3,0.3,0.6,0.4,0.9c0,0,0,0,0,0.1
		c0.1,0.3,0.3,0.6,0.4,0.8c0,0.1,0.1,0.2,0.1,0.3c0.1,0.2,0.2,0.4,0.3,0.6c0,0.1,0.1,0.2,0.1,0.4c0.1,0.2,0.2,0.4,0.2,0.6
		c0,0.1,0.1,0.3,0.1,0.4c0.1,0.2,0.2,0.4,0.2,0.7c0,0.1,0.1,0.3,0.1,0.4c0.1,0.3,0.2,0.5,0.2,0.8c0,0.1,0.1,0.2,0.1,0.3
		c0.1,0.4,0.2,0.7,0.3,1.1c0,0.1,0,0.1,0,0.2c0.1,0.3,0.2,0.6,0.2,1c0,0.1,0,0.2,0,0.2c0.1,0.6,0.3,1.3,0.3,2c0,0.1,0,0.1,0,0.2
		c0.1,0.7,0.2,1.4,0.2,2.1c0,0.1,0,0.2,0,0.3c0,0.4,0,0.8,0,1.2c0,0.1,0,0.2,0,0.4c0,0.5,0,1-0.1,1.5c0,0.1,0,0.2,0,0.4
		c0,0.3-0.1,0.6-0.1,1c0,0.2,0,0.3-0.1,0.5c0,0.3-0.1,0.6-0.1,0.9c0,0.3-0.1,0.5-0.1,0.8c-0.1,0.5-0.3,1.1-0.4,1.6
		c0,0.1-0.1,0.2-0.1,0.4c-0.1,0.5-0.3,1-0.5,1.5c0,0,0,0.1,0,0.1c-0.3,0.8-0.5,1.5-0.8,2.2c0,0.1-0.1,0.1-0.1,0.2
		c-0.3,0.7-0.6,1.3-0.9,2c0,0.1-0.1,0.2-0.1,0.3c-0.2,0.5-0.5,0.9-0.7,1.3c0,0.1-0.1,0.1-0.1,0.2c-0.2,0.4-0.4,0.8-0.7,1.2
		c0,0.1-0.1,0.1-0.1,0.2c-0.2,0.4-0.5,0.8-0.7,1.2c-0.1,0.1-0.1,0.2-0.2,0.2c-0.2,0.4-0.5,0.7-0.7,1.1c0,0,0,0,0,0
		c-0.2,0.3-0.4,0.5-0.6,0.8c-0.1,0.1-0.1,0.1-0.2,0.2c-0.1,0.2-0.3,0.3-0.4,0.5c-0.1,0.1-0.1,0.2-0.2,0.3c-0.1,0.1-0.2,0.3-0.3,0.4
		c-0.1,0.1-0.1,0.2-0.2,0.3c-0.1,0.1-0.2,0.3-0.3,0.4c-0.1,0.1-0.1,0.2-0.2,0.2c-0.1,0.1-0.2,0.2-0.3,0.4c-0.1,0.1-0.1,0.2-0.2,0.2
		c-0.1,0.1-0.2,0.2-0.3,0.3c-0.1,0.1-0.1,0.1-0.2,0.2c-0.1,0.1-0.2,0.2-0.3,0.3c0,0-0.1,0.1-0.1,0.1c-0.1,0.2-0.3,0.3-0.4,0.4
		c0,0,0,0,0,0c-0.1,0.1-0.3,0.3-0.4,0.4c0,0-0.1,0.1-0.1,0.1c-0.1,0.1-0.2,0.2-0.2,0.2c0,0-0.1,0.1-0.1,0.1
		c-0.1,0.1-0.1,0.1-0.2,0.2c0,0-0.1,0.1-0.1,0.1c-0.1,0.1-0.1,0.1-0.2,0.2c0,0-0.1,0.1-0.1,0.1c-0.1,0-0.1,0.1-0.2,0.1
		c0,0-0.1,0-0.1,0.1c0,0-0.1,0.1-0.1,0.1c0,0,0,0-0.1,0.1c0,0-0.1,0.1-0.1,0.1c0,0,0,0,0,0c0,0-0.1,0-0.1,0.1l4.1,0.6
		c0,0,0,0,0.1-0.1c0,0,0,0,0.1,0c0,0,0.1,0,0.1-0.1c0,0,0,0,0.1-0.1c0,0,0.1-0.1,0.1-0.1c0,0,0.1,0,0.1-0.1c0,0,0.1-0.1,0.1-0.1
		c0,0,0.1-0.1,0.1-0.1c0.1,0,0.1-0.1,0.2-0.2c0,0,0.1-0.1,0.1-0.1c0.1-0.1,0.1-0.1,0.2-0.2c0,0,0.1-0.1,0.1-0.1
		c0.1-0.1,0.2-0.2,0.2-0.2c0,0,0.1-0.1,0.1-0.1c0.1-0.1,0.3-0.3,0.4-0.4c0,0,0,0,0,0c0.1-0.1,0.3-0.3,0.4-0.4c0,0,0.1-0.1,0.1-0.2
		c0.1-0.1,0.2-0.2,0.3-0.3c0.1-0.1,0.1-0.1,0.2-0.2c0.1-0.1,0.2-0.2,0.3-0.3c0.1-0.1,0.1-0.2,0.2-0.2c0.1-0.1,0.2-0.2,0.3-0.4
		c0.1-0.1,0.1-0.2,0.2-0.3c0.1-0.1,0.2-0.2,0.3-0.4c0.1-0.1,0.1-0.2,0.2-0.3c0.1-0.1,0.2-0.3,0.3-0.4c0.1-0.1,0.1-0.2,0.2-0.3
		c0.1-0.2,0.3-0.3,0.4-0.5c0.1-0.1,0.1-0.1,0.2-0.2c0.2-0.2,0.4-0.5,0.6-0.8c0,0,0,0,0,0c0,0,0,0,0,0c0.2-0.3,0.5-0.7,0.7-1.1
		c0.1-0.1,0.1-0.2,0.2-0.2c0.2-0.4,0.5-0.8,0.7-1.2c0-0.1,0.1-0.1,0.1-0.2c0.2-0.4,0.4-0.8,0.7-1.2c0-0.1,0.1-0.1,0.1-0.2
		c0.2-0.4,0.5-0.9,0.7-1.3c0,0,0.1-0.1,0.1-0.1c0,0,0-0.1,0-0.1c0.3-0.6,0.6-1.3,0.9-2c0-0.1,0.1-0.1,0.1-0.2
		c0.3-0.7,0.6-1.5,0.8-2.2c0,0,0,0,0-0.1c0,0,0,0,0,0c0.2-0.5,0.3-1,0.5-1.5c0-0.1,0.1-0.3,0.1-0.4c0.1-0.5,0.3-1.1,0.4-1.6
		c0-0.2,0.1-0.3,0.1-0.5c0-0.1,0-0.2,0-0.3c0.1-0.3,0.1-0.6,0.1-0.9c0-0.2,0-0.3,0.1-0.5c0-0.3,0.1-0.6,0.1-1c0-0.1,0-0.2,0-0.3
		c0,0,0-0.1,0-0.1C99.5,84.2,99.5,83.6,99.5,83.2z"/>
</g>
<g>
	<linearGradient id="SVGID_4_" gradientUnits="userSpaceOnUse" x1="49.4969" y1="74.1924" x2="95.3795" y2="74.1924">
		<stop  offset="0" style="stop-color:#E6E6E6"/>
		<stop  offset="0.4359" style="stop-color:#E9E9E9"/>
		<stop  offset="0.7635" style="stop-color:#F3F3F3"/>
		<stop  offset="1" style="stop-color:#FFFFFF"/>
	</linearGradient>
	<path class="st4" d="M64.2,39.7c0.8,0.4,16.5,7.3,18.3,25.4c1.3,12.9-0.3,18.5-1.4,20.7c-0.2,0.4-0.4,0.8-0.7,1.2
		c5.8-6.9,8.7-15.9,7.9-24.9c0.5,0.6,9.3,12.6,6.4,25.4c-2.9,12.8-12.1,20.3-12.6,20.7c0.1-0.5,2.6-10.6,2.5-15.4
		c-0.3,0.2-5.3,4.1-8,5c-0.4-0.5-7.8-10.3-7-23.8c-0.8,0.5-15.9,9.6-7.8,34.7c-1-0.7-19.2-12.9-9.7-34.1
		C61.7,53.3,65.9,50.7,64.2,39.7z"/>
</g>
</svg>
