<?xml version="1.0" encoding="utf-8"?>
<!-- Generator: Adobe Illustrator 21.0.0, SVG Export Plug-In . SVG Version: 6.00 Build 0)  -->
<svg version="1.1" id="Layer_1" xmlns="http://www.w3.org/2000/svg" xmlns:xlink="http://www.w3.org/1999/xlink" x="0px" y="0px"
	 viewBox="0 0 149 149" style="enable-background:new 0 0 149 149;" xml:space="preserve">
<style type="text/css">
	.st0{fill:url(#SVGID_1_);}
	.st1{fill:url(#SVGID_2_);}
	.st2{fill:url(#SVGID_3_);}
	.st3{opacity:0.38;}
	.st4{fill:url(#SVGID_4_);}
	.st5{fill:url(#SVGID_5_);}
</style>
<g>
	<g>
		
			<radialGradient id="SVGID_1_" cx="74.5" cy="-2774.5" r="74.2" gradientTransform="matrix(1 0 0 -1 0 -2700)" gradientUnits="userSpaceOnUse">
			<stop  offset="0" style="stop-color:#000000"/>
			<stop  offset="1" style="stop-color:#000000;stop-opacity:0"/>
		</radialGradient>
		<circle class="st0" cx="74.5" cy="74.5" r="74.2"/>
	</g>
	<linearGradient id="SVGID_2_" gradientUnits="userSpaceOnUse" x1="9" y1="74.5" x2="140" y2="74.5">
		<stop  offset="0" style="stop-color:#E6E6E6"/>
		<stop  offset="0.4359" style="stop-color:#E9E9E9"/>
		<stop  offset="0.7635" style="stop-color:#F3F3F3"/>
		<stop  offset="1" style="stop-color:#FFFFFF"/>
	</linearGradient>
	<path class="st1" d="M140,74.5c0,36.2-29.3,65.5-65.5,65.5S9,110.7,9,74.5S38.3,9,74.5,9S140,38.3,140,74.5z M74.5,17
		C42.7,17,17,42.7,17,74.5S42.7,132,74.5,132S132,106.3,132,74.5S106.3,17,74.5,17z"/>
	
		<radialGradient id="SVGID_3_" cx="-12.3406" cy="-7.5676" r="17.9761" gradientTransform="matrix(2.5556 0 0 4.8592 106.037 111.2723)" gradientUnits="userSpaceOnUse">
		<stop  offset="0" style="stop-color:#1869DE"/>
		<stop  offset="1" style="stop-color:#0E3E83"/>
	</radialGradient>
	<circle class="st2" cx="74.5" cy="74.5" r="57.5"/>
</g>
<g>
	<g class="st3">
		<path d="M88.5,51l6.1,3.5L81.8,43.6c-0.2-0.2-0.5-0.4-0.7-0.5c0,0-0.1,0-0.1-0.1l-6.1-3.5c0.3,0.2,0.6,0.4,0.8,0.6L88.5,51z"/>
		<path d="M78.1,86.4H64.6l-0.2,20.3H44.2c-0.6,0-1.1-0.1-1.6-0.4l6.1,3.5c0.5,0.3,1,0.4,1.6,0.4h20.2l0.2-20.3h13.5L78.1,86.4z"/>
		<path d="M107.8,81.1L77.7,56l-3.3-1.9l3.3-2.8l-6.1-3.5L34.9,78.4c-0.4,0.2-0.7,0.4-1.1,0.4c-0.2,0-0.3-0.1-0.5-0.1
			s-0.3-0.1-0.4-0.2l0,0l0,0l6.1,3.5c0.2,0.1,0.5,0.2,0.8,0.3c0.4,0,0.7-0.1,1.1-0.4l33-27.4l27.7,23.1c0,0.1,0.1,0.2,0.1,0.3
			l-0.2,25.4c0,0.2,0,0.4-0.1,0.6c0,0,0,0.1,0,0.1c0,0.2-0.1,0.4-0.2,0.5c0,0,0,0,0,0c-0.1,0.2-0.2,0.3-0.3,0.5
			c0,0.1-0.1,0.1-0.1,0.2c-0.1,0.1-0.2,0.3-0.4,0.4c-0.7,0.7-1.5,1-2.4,1H77.9l6.1,3.5h20.2c0.9,0,1.7-0.3,2.4-1
			c0.1-0.1,0.2-0.2,0.2-0.3c0-0.1,0.1-0.1,0.1-0.2c0-0.1,0.1-0.1,0.1-0.2c0,0,0.1-0.1,0.1-0.1c0.1-0.1,0.1-0.3,0.2-0.4l0,0
			c0,0,0,0,0,0c0.1-0.1,0.1-0.2,0.1-0.4c0-0.1,0-0.1,0-0.2c0,0,0-0.1,0-0.1c0,0,0-0.1,0-0.1c0-0.2,0-0.3,0-0.5c0,0,0,0,0-0.1
			l0.2-25.4c0-0.1,0-0.1,0-0.2C107.8,81.2,107.8,81.1,107.8,81.1z"/>
		<path d="M120,76.8C120,76.8,120,76.7,120,76.8c0-0.2,0-0.2,0-0.3c0,0,0-0.1,0-0.1c0,0,0,0,0-0.1c0-0.1-0.1-0.3-0.1-0.4
			c0,0,0,0,0,0c0,0,0,0,0,0c0,0,0,0,0,0c0,0,0-0.1-0.1-0.1c0,0,0,0,0,0c-0.1-0.1-0.1-0.2-0.2-0.3c0,0,0,0,0,0c0,0,0,0,0,0L108,65.7
			l0.2-21.6c0-0.1,0-0.2,0-0.3c0,0,0,0,0,0c0-0.2-0.1-0.3-0.1-0.4c0,0,0,0,0,0c0,0,0-0.1-0.1-0.1c0,0,0,0,0,0
			c-0.1-0.1-0.1-0.2-0.2-0.3c0,0-0.1-0.1-0.1-0.1c-0.1-0.1-0.1-0.1-0.2-0.1c0,0,0,0,0,0l-6.1-3.5c0.1,0.1,0.2,0.2,0.3,0.3
			c0.1,0.1,0.2,0.2,0.2,0.3c0,0.1,0.1,0.1,0.1,0.2c0.1,0.1,0.1,0.3,0.1,0.4c0,0.1,0,0.2,0,0.3l-0.2,21.6l11.5,9.6c0,0,0,0,0.1,0.1
			c0.1,0.1,0.2,0.2,0.2,0.3c0,0,0.1,0.1,0.1,0.1c0,0,0,0,0,0c0,0,0,0,0,0c0.1,0.1,0.1,0.3,0.1,0.4c0,0.1,0,0.1,0,0.2
			c0,0.1,0,0.2,0,0.3c0,0,0,0.1,0,0.1c0,0.1,0,0.2-0.1,0.3c0,0,0,0,0,0c0,0.1-0.1,0.2-0.1,0.3c0,0,0,0,0,0.1c0,0.1-0.1,0.2-0.2,0.3
			l-3.3,3.9c-0.3,0.3-0.6,0.5-1.1,0.6c-0.5,0-0.8-0.1-1-0.2l6.1,3.5c0.3,0.1,0.6,0.2,1,0.2c0.5-0.1,0.8-0.3,1.1-0.6l3.3-3.9
			c0.1-0.1,0.1-0.1,0.1-0.2c0,0,0,0,0-0.1c0,0,0,0,0-0.1c0,0,0-0.1,0-0.1c0-0.1,0-0.1,0.1-0.2c0,0,0,0,0,0c0,0,0,0,0,0
			c0-0.1,0-0.1,0-0.2C120,76.9,120,76.9,120,76.8C120,76.9,120,76.8,120,76.8z"/>
	</g>
	<linearGradient id="SVGID_4_" gradientUnits="userSpaceOnUse" x1="28.9783" y1="58.7757" x2="113.943" y2="58.7757">
		<stop  offset="0" style="stop-color:#E6E6E6"/>
		<stop  offset="0.4359" style="stop-color:#E9E9E9"/>
		<stop  offset="0.7635" style="stop-color:#F3F3F3"/>
		<stop  offset="1" style="stop-color:#FFFFFF"/>
	</linearGradient>
	<path class="st4" d="M71.8,38.8c1.5,0,2.9,0.5,4,1.4L88.5,51l0.1-10.3c0-0.5,0.2-0.9,0.5-1.2c0.3-0.3,0.7-0.5,1.2-0.5h10.1
		c0.5,0,0.9,0.2,1.2,0.5c0.3,0.3,0.5,0.7,0.5,1.2l-0.2,21.6l11.5,9.6c0.4,0.3,0.5,0.7,0.6,1.1c0,0.5-0.1,0.9-0.4,1.2l-3.3,3.9
		c-0.3,0.3-0.6,0.5-1.1,0.6c-0.6,0-1-0.1-1.3-0.4L71.7,47.8L34.9,78.4c-0.4,0.2-0.7,0.4-1.1,0.4c-0.6-0.1-1-0.3-1.2-0.6l-3.2-3.9
		c-0.3-0.4-0.4-0.8-0.4-1.2c0-0.5,0.2-0.9,0.6-1.1l38.2-31.7C68.9,39.2,70.2,38.8,71.8,38.8z"/>
	<linearGradient id="SVGID_5_" gradientUnits="userSpaceOnUse" x1="40.8494" y1="79.6153" x2="101.7833" y2="79.6153">
		<stop  offset="0" style="stop-color:#E6E6E6"/>
		<stop  offset="0.4359" style="stop-color:#E9E9E9"/>
		<stop  offset="0.7635" style="stop-color:#F3F3F3"/>
		<stop  offset="1" style="stop-color:#FFFFFF"/>
	</linearGradient>
	<path class="st5" d="M71.6,52.5l30.1,25.1c0,0.1,0.1,0.2,0.1,0.3l-0.2,25.4c0,0.9-0.4,1.7-1,2.4c-0.7,0.7-1.5,1-2.4,1H77.9
		l0.2-20.3H64.6l-0.2,20.3H44.2c-0.9,0-1.7-0.3-2.4-1c-0.7-0.7-1-1.5-1-2.4l0.2-25.4L71.6,52.5z"/>
</g>
</svg>
