<?xml version="1.0" encoding="utf-8"?>
<!-- Generator: Adobe Illustrator 21.0.0, SVG Export Plug-In . SVG Version: 6.00 Build 0)  -->
<svg version="1.1" id="Layer_1" xmlns="http://www.w3.org/2000/svg" xmlns:xlink="http://www.w3.org/1999/xlink" x="0px" y="0px"
	 viewBox="0 0 2500 1310" style="enable-background:new 0 0 2500 1310;" xml:space="preserve">
<style type="text/css">
	.st0{fill:#FFFFFF;}
</style>
<g>
	<g>
		<rect y="540.2" class="st0" width="96.3" height="96.3"/>
		<path class="st0" d="M481.2,1117.5h96.2v-96.3V828.9v-96.3h-96.2H288.7V540.2h-96.3v192.4v96.3v192.4v96.3h96.3h192.4v-0.1H481.2z
			 M288.7,828.9h192.4v192.4H288.7V828.9z"/>
		<polygon class="st0" points="385,540.2 385,636.5 673.6,636.5 673.6,1213.8 192.4,1213.8 96.3,1213.8 96.3,732.6 0,732.6 
			0,1213.8 0,1310 96.3,1310 192.4,1310 673.6,1310 769.9,1310 769.9,1213.8 769.9,636.5 769.9,540.2 		"/>
		<g>
			<path class="st0" d="M2103.8,1131.2h-0.3c-1.3,5.4-2.9,11-4.6,16.6l-8.9,26.4h27.4l-8.9-26.3
				C2106.5,1142,2105.2,1136.6,2103.8,1131.2z"/>
			<path class="st0" d="M1252.4,945.2c-7.9-5.6-19.3-8.4-34.1-8.4h-57.1v69.6h57.1v-0.1c6.1,0,12.1-0.5,17.6-1.5s10.4-3,14.6-5.7
				c4.2-2.8,7.6-6.5,10-11.1c2.5-4.6,3.7-10.4,3.7-17.5C1264.2,959.2,1260.2,950.8,1252.4,945.2z"/>
			<path class="st0" d="M1798.8,713.8c4.4-3.9,6.6-10.2,6.6-19c0-8.5-2.2-14.6-6.6-18.4s-11-5.7-19.8-5.7h-42v49.1h42
				C1787.9,719.6,1794.4,717.7,1798.8,713.8z"/>
			<path class="st0" d="M1218.3,922.5c6.7,0,12.5-0.8,17.3-2.4c4.9-1.5,8.9-3.7,12.2-6.3c3.3-2.7,5.7-5.8,7.3-9.4
				c1.6-3.6,2.5-7.4,2.5-11.5c0-21.8-13.1-32.8-39.3-32.8H1161v62.3L1218.3,922.5L1218.3,922.5z"/>
			<path class="st0" d="M962.3,540.2V1310H2500V540.2H962.3z M2056,640.8h130.5V673h-92.2v37.4h84.6v29.8h-84.6v42.7h94.1v32.3H2056
				V640.8z M1875,640.8h38.1l72.8,117h0.4v-117h35.9v174.3H1984l-72.6-116.8h-0.4v116.8h-36V640.8z M2005.2,923.2v14.2H1908v68.8
				h105v14.2h-121.6V846.1h120.3v14.1H1908v63H2005.2z M1210.3,640.8h38.1l72.7,117h0.5v-117h35.9v174.3h-38.4l-72.5-116.8h-0.5
				v116.8h-35.8L1210.3,640.8L1210.3,640.8z M1138.2,640.8h38.3v174.4h-38.3V640.8z M1280,980.4c-0.5,3.5-1.4,7.1-3,10.8
				c-1.4,3.7-3.6,7.3-6.4,10.9c-2.8,3.6-6.5,6.8-11.1,9.4s-10.3,4.9-17.1,6.6c-6.8,1.7-14.9,2.6-24.3,2.6h-73.7V846.1h73.7
				c7.4,0,14.3,0.7,21.1,2c6.8,1.4,12.7,3.8,17.8,7.1c5.1,3.4,9.2,7.8,12.3,13.2c3.1,5.4,4.6,12.3,4.6,20.4c0,4.6-0.7,9-2.2,13.3
				c-1.4,4.3-3.6,8.2-6.2,11.8c-2.7,3.5-5.8,6.5-9.5,8.9c-3.7,2.5-7.8,4.2-12.3,5.1v0.5c11.3,1.4,20.2,6,26.8,13.8
				c6.7,7.7,10,17.3,10,28.7C1280.7,973.7,1280.5,976.9,1280,980.4z M1448.5,957.8c0,8.9-1.2,17.5-3.8,25.5
				c-2.6,8.1-6.5,15.2-12,21.1c-5.4,6-12.5,10.8-21,14.2c-8.5,3.5-18.9,5.2-31.1,5.2c-12.1,0-22.3-1.7-30.9-5.2
				c-8.5-3.5-15.6-8.3-21-14.2c-5.4-6-9.4-13.1-12-21.1c-2.6-8.1-3.8-16.6-3.8-25.5V846.1h16.8V954c0,10.1,1.1,18.6,3.4,25.8
				c2.3,7.2,5.6,12.9,10,17.3c4.4,4.5,9.7,7.7,16.1,9.7c6.3,2,13.5,3.1,21.5,3.1c8.1,0,15.4-1,21.7-3.1s11.7-5.3,16.1-9.7
				c4.4-4.5,7.7-10.2,10-17.3s3.4-15.7,3.4-25.8V846.1h16.6L1448.5,957.8L1448.5,957.8z M1468.1,815.1h-38.4V672.9h-52.2v-32.2
				h142.9v32.2h-52.2v142.2H1468.1z M1616.1,982.2c-0.4,3.3-1.3,6.8-3,10.3c-1.5,3.7-3.8,7.4-6.6,11.1c-2.9,3.8-6.8,7.2-11.8,10.1
				c-5,3-11.2,5.4-18.4,7.3s-16.1,2.8-26.4,2.8c-10.2,0-19.8-1.2-28.6-3.6c-8.8-2.4-16.3-5.9-22.4-10.9s-11-11.2-14.3-18.7
				c-3.4-7.7-4.7-16.9-4.3-27.7h16.6c0.1,9.1,1.5,16.6,4.4,22.6c3,6,7,10.9,12.1,14.4s11.2,6.1,18.2,7.7c7,1.5,14.5,2.4,22.4,2.4
				c4.6,0,9.5-0.6,15-1.9c5.4-1.3,10.3-3.4,15.1-6.2c4.6-2.9,8.5-6.6,11.7-11c3.1-4.5,4.6-9.9,4.6-16.3c0-4.9-1.1-9.1-3.3-12.7
				c-2.2-3.6-5-6.6-8.6-9c-3.5-2.5-7.4-4.4-11.6-5.9s-8.4-2.8-12.5-3.8l-38.8-9.5c-5-1.3-9.9-3-14.7-4.9c-4.8-1.9-9-4.5-12.6-7.8
				s-6.5-7.3-8.7-12s-3.3-10.5-3.3-17.3c0-4.2,0.8-9.2,2.5-15c1.6-5.7,4.7-11.1,9.1-16.1c4.5-5,10.7-9.3,18.4-12.8
				c7.8-3.5,17.8-5.2,30-5.2c8.6,0,16.9,1.1,24.7,3.4c7.8,2.3,14.6,5.7,20.5,10.2c5.8,4.6,10.5,10.2,14,17s5.2,14.6,5.2,23.6h-16.6
				c-0.3-6.7-1.8-12.5-4.5-17.5s-6.1-9.1-10.5-12.5c-4.3-3.4-9.3-5.8-15-7.6c-5.6-1.7-11.5-2.6-17.7-2.6c-5.7,0-11.2,0.6-16.5,1.8
				c-5.3,1.2-9.9,3.2-13.9,5.8s-7.2,6.2-9.6,10.7c-2.5,4.4-3.7,9.8-3.7,16.4c0,4.1,0.7,7.6,2,10.7c1.3,3,3.3,5.6,5.7,7.7
				c2.5,2.2,5.2,3.8,8.4,5.1c3.2,1.3,6.6,2.4,10.1,3.2l42.5,10.5c6.1,1.6,12,3.6,17.5,5.9c5.4,2.4,10.2,5.3,14.4,8.8
				s7.4,7.8,9.7,12.8c2.4,5,3.6,11.2,3.6,18.3C1616.8,976.4,1616.5,979.1,1616.1,982.2z M1668.4,1020.5h-16.6V846.1h16.6V1020.5z
				 M1672.9,815.1h-132.4V640.8h130.4V673h-92.1v37.4h84.5v29.8h-84.5v42.7h94.1V815.1z M1698.8,640.8h93.9c7.8,0,14.9,1.2,21.1,3.8
				c6.2,2.6,11.6,5.9,16.1,10.3c4.5,4.4,7.9,9.5,10.2,15.3c2.4,5.7,3.6,12,3.6,18.6c0,10.2-2.2,19.2-6.5,26.6
				c-4.3,7.5-11.4,13.2-21.1,17.1v0.5c4.7,1.3,8.6,3.3,11.7,5.9c3.1,2.7,5.6,5.8,7.6,9.5s3.4,7.7,4.3,12.1c0.9,4.4,1.5,8.8,1.8,13.2
				c0.2,2.8,0.3,6,0.5,9.7c0.2,3.8,0.4,7.6,0.8,11.5s1,7.6,1.9,11.2c0.9,3.5,2.3,6.5,4,8.9h-38.3c-2.2-5.5-3.4-12.1-3.9-19.8
				c-0.5-7.7-1.2-15-2.2-22c-1.3-9.1-4.1-15.8-8.3-20.1c-4.2-4.2-11.2-6.3-20.8-6.3h-38.3v68.1h-38.3V640.8H1698.8z M1841.1,1212.3
				h-12v-42.9h-44.2v42.9h-11.8v-91.5h11.8v38.3h44.2v-38.3h12V1212.3z M1849.1,1020.5h-18.5L1729,873h-0.5v147.6h-16.6V846.1h18.5
				L1832,993.6h0.5V846.1h16.6V1020.5z M1917.2,1212.4h-51.4v-91.5h49.5v9.9h-37.7v28.9h35.5v9.7h-35.5v33h39.6V1212.4z
				 M1987.5,1212.4h-50.9v-91.6h11.8v81.6h39.1V1212.4z M2055.6,1212.4h-50.9v-91.6h11.8v81.6h39.1V1212.4z M2129.8,1212.4
				l-9.7-28.8h-32.6l-9.5,28.8h-12.2l31.1-91.5h14.2l31.2,91.5H2129.8z M2130.3,1021c-7.3,1.8-16.1,2.8-26.4,2.8
				c-10.2,0-19.8-1.2-28.6-3.6c-8.8-2.4-16.3-5.9-22.4-10.9c-6.1-4.9-11-11.2-14.3-18.7c-3.4-7.7-4.7-16.9-4.3-27.7h16.6
				c0.4,9.1,1.8,16.6,4.7,22.6c3,6,7,10.9,12.1,14.4c5.1,3.6,11.2,6.1,18.2,7.7c7,1.5,14.5,2.4,22.4,2.4c4.5,0,9.5-0.6,14.9-1.9
				s10.3-3.4,15.1-6.2c4.6-2.9,8.5-6.6,11.6-11c3.1-4.5,4.6-9.9,4.6-16.3c0-4.9-1.1-9.1-3.3-12.7s-5-6.6-8.6-9
				c-3.5-2.5-7.4-4.4-11.6-5.9c-4.2-1.5-8.4-2.8-12.5-3.8l-38.8-9.5c-5-1.3-9.9-3-14.7-4.9s-9-4.5-12.6-7.8s-6.5-7.3-8.7-12
				s-3.3-10.5-3.3-17.3c0-4.2,0.8-9.2,2.5-15c1.6-5.7,4.7-11.1,9.1-16.1c4.5-5,10.7-9.3,18.4-12.8c7.8-3.5,17.8-5.2,30-5.2
				c8.6,0,16.9,1.1,24.7,3.4s14.6,5.7,20.5,10.2c5.8,4.6,10.5,10.2,14,17s5.2,14.6,5.2,23.6h-16.6c-0.3-6.7-1.8-12.5-4.5-17.5
				s-6.2-9.1-10.5-12.5c-4.3-3.4-9.3-5.8-15-7.6c-5.6-1.7-11.5-2.6-17.7-2.6c-5.7,0-11.2,0.6-16.5,1.8c-5.3,1.2-9.9,3.2-13.9,5.8
				c-4,2.7-7.2,6.2-9.6,10.7c-2.5,4.4-3.7,9.8-3.7,16.4c0,4.1,0.7,7.6,2,10.7c1.3,3,3.3,5.6,5.7,7.7c2.5,2.2,5.2,3.8,8.4,5.1
				c3.2,1.3,6.6,2.4,10.1,3.2l42.5,10.5c6.1,1.6,12,3.6,17.5,5.9c5.4,2.4,10.2,5.3,14.4,8.8s7.4,7.8,9.7,12.8
				c2.4,5,3.5,11.2,3.5,18.3c0,1.9-0.2,4.6-0.6,7.8c-0.4,3.3-1.4,6.8-3,10.3c-1.5,3.7-3.8,7.4-6.7,11.1c-2.9,3.8-6.8,7.2-11.7,10.1
				C2143.7,1016.7,2137.6,1019.2,2130.3,1021z M2178.6,1213.6c-8.8,0-18.4-2.6-23.4-5.8l2.9-9.8c5.3,3.3,13,5.9,21.2,5.9
				c12.1,0,19.2-6.3,19.2-15.6c0-8.6-4.9-13.4-17.2-18.2c-15-5.3-24.2-13-24.2-25.9c0-14.2,11.8-24.9,29.6-24.9
				c9.3,0,16.2,2.2,20.3,4.5l-3.3,9.6c-3-1.6-9.1-4.3-17.4-4.3c-12.5,0-17.2,7.5-17.2,13.7c0,8.5,5.5,12.8,18.2,17.6
				c15.5,5.9,23.4,13.4,23.4,26.8C2210.7,1201.4,2200.2,1213.6,2178.6,1213.6z M2331.5,982.2c-0.4,3.3-1.4,6.8-3,10.3
				c-1.5,3.7-3.8,7.4-6.7,11.1c-2.9,3.8-6.8,7.2-11.7,10.1c-4.9,3-11.1,5.4-18.4,7.3c-7.3,1.8-16.1,2.8-26.4,2.8
				c-10.2,0-19.8-1.2-28.6-3.6c-8.8-2.4-16.3-5.9-22.4-10.9c-6.1-4.9-11-11.2-14.3-18.7c-3.4-7.7-4.7-16.9-4.3-27.7h16.6
				c0.1,9.1,1.5,16.6,4.4,22.6c3,6,7,10.9,12.1,14.4c5.1,3.6,11.2,6.1,18.2,7.7c7,1.5,14.5,2.4,22.4,2.4c4.5,0,9.5-0.6,15-1.9
				c5.3-1.3,10.3-3.4,15.1-6.2c4.6-2.9,8.5-6.6,11.6-11c3.1-4.5,4.6-9.9,4.6-16.3c0-4.9-1.1-9.1-3.3-12.7s-5-6.6-8.5-9
				c-3.5-2.5-7.4-4.4-11.6-5.9c-4.2-1.5-8.4-2.8-12.5-3.8l-38.8-9.5c-5-1.3-9.9-3-14.7-4.9s-9-4.5-12.6-7.8s-6.5-7.3-8.7-12
				s-3.3-10.5-3.3-17.3c0-4.2,0.8-9.2,2.5-15c1.6-5.7,4.7-11.1,9.1-16.1c4.5-5,10.7-9.3,18.4-12.8c7.8-3.5,17.8-5.2,30-5.2
				c8.6,0,16.9,1.1,24.7,3.4s14.6,5.7,20.5,10.2c5.8,4.6,10.5,10.2,14,17s5.2,14.6,5.2,23.6h-16.6c-0.3-6.7-1.8-12.5-4.5-17.5
				s-6.1-9.1-10.4-12.5c-4.3-3.4-9.3-5.8-15-7.6c-5.6-1.7-11.5-2.6-17.7-2.6c-5.7,0-11.2,0.6-16.5,1.8c-5.3,1.2-9.9,3.2-13.9,5.8
				s-7.2,6.2-9.6,10.7c-2.5,4.4-3.7,9.8-3.7,16.4c0,4.1,0.7,7.6,2,10.7c1.3,3,3.3,5.6,5.7,7.7c2.5,2.2,5.2,3.8,8.4,5.1
				c3.2,1.3,6.6,2.4,10.1,3.2l42.5,10.5c6.1,1.6,12,3.6,17.5,5.9c5.4,2.4,10.2,5.3,14.4,8.8s7.4,7.8,9.7,12.8
				c2.4,5,3.5,11.2,3.5,18.3C2332.1,976.4,2331.9,979.1,2331.5,982.2z M2343.5,672.9h-52.2v142.2h-38.4V672.9h-52.2v-32.2h142.9
				v32.2H2343.5z"/>
		</g>
	</g>
	<g>
		<path class="st0" d="M189,19.4c18.5-3.1,42.7-5.7,73.5-5.7c37.9,0,65.6,8.8,83.2,24.7c16.3,14.1,26,35.7,26,62.1
			c0,26.9-7.9,48-22.9,63.4c-20.3,21.6-53.3,32.6-90.7,32.6c-11.4,0-22-0.4-30.8-2.6v118.9H189V19.4z M227.3,162.5
			c8.4,2.2,18.9,3.1,31.7,3.1c46.2,0,74.4-22.5,74.4-63.4c0-39.2-27.7-58.1-70-58.1c-16.7,0-29.5,1.3-36.1,3.1V162.5z"/>
		<path class="st0" d="M603.7,204.3c0,78.8-54.6,113.1-106.1,113.1c-57.7,0-102.1-42.3-102.1-109.6c0-71.3,46.7-113.1,105.7-113.1
			C562.4,94.7,603.7,139.1,603.7,204.3z M434.7,206.5c0,46.7,26.9,81.9,64.7,81.9c37,0,64.7-34.8,64.7-82.8
			c0-36.1-18-81.9-63.8-81.9S434.7,166,434.7,206.5z"/>
		<path class="st0" d="M664.9,99.5l28.2,108.3c6.2,23.8,11.9,45.8,15.8,67.8h1.3c4.8-21.6,11.9-44.5,18.9-67.4L764,99.5h32.6
			l33,106.5c7.9,25.5,14.1,48,18.9,69.6h1.3c3.5-21.6,9.2-44,16.3-69.1l30.4-107h38.3l-68.7,213.1h-35.2l-32.6-101.7
			c-7.5-23.8-13.6-44.9-18.9-70h-0.9c-5.3,25.5-11.9,47.5-19.4,70.4l-34.3,101.3h-35.2L625.3,99.5H664.9z"/>
		<path class="st0" d="M990.7,213.1c0.9,52.4,34.3,74,73.1,74c27.7,0,44.5-4.8,59-11l6.6,27.7c-13.6,6.2-37,13.2-70.9,13.2
			c-65.6,0-104.8-43.1-104.8-107.4s37.9-114.9,99.9-114.9c69.6,0,88,61.2,88,100.4c0,7.9-0.9,14.1-1.3,18H990.7z M1104.3,185.4
			c0.4-24.7-10.1-63-53.7-63c-39.2,0-56.3,36.1-59.4,63H1104.3z"/>
		<path class="st0" d="M1189.7,166c0-25.1-0.4-46.7-1.8-66.5h33.9l1.3,41.8h1.8c9.7-28.6,33-46.7,59-46.7c4.4,0,7.5,0.4,11,1.3v36.5
			c-4-0.9-7.9-1.3-13.2-1.3c-27.3,0-46.7,20.7-51.9,49.7c-0.9,5.3-1.8,11.4-1.8,18v113.6h-38.3V166z"/>
		<path class="st0" d="M1350.8,213.1c0.9,52.4,34.3,74,73.1,74c27.7,0,44.5-4.8,59-11l6.6,27.7c-13.6,6.2-37,13.2-70.9,13.2
			c-65.6,0-104.8-43.1-104.8-107.4s37.9-114.9,99.9-114.9c69.6,0,88,61.2,88,100.4c0,7.9-0.9,14.1-1.3,18H1350.8z M1464.4,185.4
			c0.4-24.7-10.1-63-53.7-63c-39.2,0-56.3,36.1-59.4,63H1464.4z"/>
		<path class="st0" d="M1733.8,0v257.5c0,18.9,0.4,40.5,1.8,55h-34.8l-1.8-37h-0.9c-11.9,23.8-37.9,41.8-72.6,41.8
			c-51.5,0-91.1-43.6-91.1-108.3c-0.4-70.9,43.6-114.5,95.5-114.5c32.6,0,54.6,15.4,64.3,32.6h0.9V0H1733.8z M1695.1,186.2
			c0-4.8-0.4-11.4-1.8-16.3c-5.7-24.7-26.9-44.9-55.9-44.9c-40.1,0-63.8,35.2-63.8,82.3c0,43.1,21.1,78.8,63,78.8
			c26,0,49.7-17.2,56.8-46.2c1.3-5.3,1.8-10.6,1.8-16.7V186.2z"/>
		<path class="st0" d="M1889.7,312.6c0.9-14.5,1.8-36.1,1.8-55V0h38.3v133.8h0.9c13.6-23.8,38.3-39.2,72.6-39.2
			c52.8,0,90.2,44,89.8,108.7c0,76.2-48,114-95.5,114c-30.8,0-55.5-11.9-71.3-40.1h-1.3l-1.8,35.2H1889.7z M1929.7,227.2
			c0,4.8,0.9,9.7,1.8,14.1c7.5,26.9,29.9,45.3,58.1,45.3c40.5,0,64.7-33,64.7-81.9c0-42.7-22-79.2-63.4-79.2
			c-26.4,0-51.1,18-59,47.5c-0.9,4.4-2.2,9.7-2.2,15.8V227.2z"/>
		<path class="st0" d="M2152.9,99.5l46.7,125.9c4.8,14.1,10.1,30.8,13.6,43.6h0.9c4-12.8,8.4-29.1,13.6-44.5l42.3-125h40.9
			l-58.1,151.9c-27.7,73.1-46.7,110.5-73.1,133.4c-18.9,16.7-37.9,23.3-47.5,25.1l-9.7-32.6c9.7-3.1,22.5-9.2,33.9-18.9
			c10.6-8.4,23.8-23.3,32.6-43.1c1.8-4,3.1-7,3.1-9.2s-0.9-5.3-2.6-10.1l-78.8-196.3H2152.9z"/>
	</g>
</g>
</svg>
