<?xml version="1.0" encoding="utf-8"?>
<!-- Generator: Adobe Illustrator 21.0.0, SVG Export Plug-In . SVG Version: 6.00 Build 0)  -->
<svg version="1.1" id="Capa_1" xmlns="http://www.w3.org/2000/svg" xmlns:xlink="http://www.w3.org/1999/xlink" x="0px" y="0px"
	 viewBox="0 0 512 512" style="enable-background:new 0 0 512 512;" xml:space="preserve">
<style type="text/css">
	.st0{fill:url(#SVGID_1_);}
	.st1{opacity:0.39;fill:#0E3E83;}
	.st2{opacity:0.34;fill:#0E3E83;}
	.st3{fill:#FFFFFF;}
	.st4{fill:url(#SVGID_2_);}
</style>
<linearGradient id="SVGID_1_" gradientUnits="userSpaceOnUse" x1="169.3439" y1="2868.1924" x2="474.189" y2="2563.3472" gradientTransform="matrix(6.147115e-17 1.0039 -1.0039 6.147115e-17 3002.2915 5.039)">
	<stop  offset="0" style="stop-color:#3D8CFF"/>
	<stop  offset="1" style="stop-color:#0E3E83"/>
</linearGradient>
<path class="st0" d="M512,252c2.2,141.6-109.3,257.2-250.9,259.9c-20.8,0.4-41-1.7-60.4-6c-32.9-7.2-66.3-11.6-100-11.6H35.6
	c-10,0-18-8.1-18-18v-65.1c0-33.7-4.3-67.1-11.6-100c-4.3-19.4-6.4-39.6-6-60.4C2.8,109.3,118.4-2.1,260,0
	C398.2,2.1,509.9,113.8,512,252z"/>
<g>
	<path class="st1" d="M504.9,316.6c0.4-1.8,0.7-3.5,1.1-5.3c0.2-0.8,0.3-1.5,0.5-2.3L313.8,116.3c-15.6-13.9-37.1-20.9-64.2-20.9
		c-21.7,0-39.6,4.8-53.7,14.4c-14.1,9.6-21.1,19.4-21.1,29.4c0,5.6,1.9,10,5.6,13.2c0.9,0.8,79.9,80.1,81.4,81.4
		c-5.1,3.9-8.5,6.7-10.2,8.2c-16.8,14.4-25.2,38.1-25.2,71c0,7.5,1.4,12.7,4.3,15.6l150.9,151C442.7,445.2,488.1,386.6,504.9,316.6z
		"/>
</g>
<g>
	<path class="st2" d="M245.3,369.1c-7.2,0-13.2,2.3-18.1,6.9c-4.9,4.6-7.3,10.2-7.3,16.8c0,6.3,2.5,11.9,7.3,16.6l94.2,94.2
		c17.9-4.7,34.9-11.2,51-19.3L264.4,376C259,371.4,252.7,369.1,245.3,369.1z"/>
</g>
<path class="st3" d="M174.7,139.2c0-10,7-19.8,21.2-29.4c14.1-9.6,32-14.4,53.7-14.4c27.2,0,48.6,7,64.2,20.9
	c15.6,14,23.5,31.7,23.5,53.3c0,8.9-1.3,17.5-3.9,25.7c-2.6,8.2-6.4,15.7-11.3,22.4c-4.9,6.8-9.3,12.4-13.2,16.8
	c-3.9,4.5-8.8,9.4-14.7,14.7c-5.9,5.3-9.5,8.6-10.6,9.7c-8.6,7.8-13.8,15.7-15.8,23.7c-2,8.1-3,20.3-3,36.7
	c0,8.9-6.6,13.4-19.9,13.4c-6.6,0-11.4-1.4-14.2-4.3c-2.8-2.9-4.3-8.1-4.3-15.6c0-32.9,8.4-56.5,25.2-70.9c1.9-1.7,5.8-4.9,11.9-9.5
	c6.1-4.6,10.6-8.4,13.6-11.5c3-3,6.4-7.1,10.4-12.1c4-5,6.9-10.5,8.7-16.4c1.8-5.9,2.8-12.2,2.8-18.8c0-13.8-4.5-24.6-13.5-32.2
	c-9-7.6-21.4-11.5-37.3-11.5c-9.2,0-17.1,1.4-23.5,4.2c-6.5,2.8-11,5.9-13.6,9.5c-2.6,3.5-5.5,6.7-8.6,9.5c-3.2,2.8-6.5,4.2-9.9,4.2
	c-4.3,0-8.4-1.6-12.1-4.8C176.6,149.2,174.7,144.8,174.7,139.2z M219.8,392.8c0-6.6,2.4-12.2,7.3-16.8c4.9-4.6,10.9-6.9,18.1-6.9
	c7.4,0,13.8,2.3,19.1,6.9c5.4,4.6,8.1,10.2,8.1,16.8c0,6.3-2.7,11.9-8.1,16.6c-5.4,4.8-11.8,7.1-19.1,7.1c-7.2,0-13.2-2.4-18.1-7.1
	C222.3,404.7,219.8,399.2,219.8,392.8z"/>
<linearGradient id="SVGID_2_" gradientUnits="userSpaceOnUse" x1="-1135" y1="418" x2="-617" y2="418">
	<stop  offset="0" style="stop-color:#3D8CFF"/>
	<stop  offset="1" style="stop-color:#0E3E83"/>
</linearGradient>
<rect x="-1135" y="169" class="st4" width="518" height="498"/>
</svg>
