<?xml version="1.0" encoding="utf-8"?>
<!-- Generator: Adobe Illustrator 21.0.0, SVG Export Plug-In . SVG Version: 6.00 Build 0)  -->
<svg version="1.1" id="Layer_1" xmlns="http://www.w3.org/2000/svg" xmlns:xlink="http://www.w3.org/1999/xlink" x="0px" y="0px"
	 viewBox="0 0 394.7 91.9" style="enable-background:new 0 0 394.7 91.9;" xml:space="preserve">
<style type="text/css">
	.st0{fill:#FFFFFF;}
	.st1{fill:#FFDD2E;}
	.st2{fill:#E21E36;}
	.st3{fill:#005EA4;}
</style>
<polygon class="st0" points="21.8,8 48.6,5.1 76.1,13.7 76.8,30 69,57 59.5,74.6 42.8,88.3 38.6,88.3 24.8,77.8 11.1,56.6 1.8,17.2 
	3.5,11.5 14.3,6 "/>
<rect x="89.7" y="86.2" class="st1" width="142.7" height="5.7"/>
<rect x="89.7" y="80.5" class="st2" width="142.7" height="5.7"/>
<g>
	<path class="st3" d="M13,28.6l14.5-3C27.5,25.6,14.8,26.3,13,28.6"/>
	<path class="st3" d="M47.4,14.6c0,0,0.3-0.8-1.4-1.3c-1.3-0.3-1.5-0.7-1.5-0.7S45,15.4,47.4,14.6"/>
	<path class="st3" d="M29.1,27c0,0-7.4,10.3-7.3,14L29.1,27z"/>
	<path class="st3" d="M53.3,17c0.1-0.4-0.6-0.4-1.1-0.4l-0.5,0.1l0.6,0.4C52.4,17.2,53.2,17.4,53.3,17"/>
	<path class="st3" d="M78.6,0C66.2,2.5,53.3,3.9,40.1,3.9C26.9,3.9,14.1,2.5,1.8,0c-11.9,66.7,38.4,91.8,38.4,91.8S90.5,66.8,78.6,0
		 M59.1,72.8c0-0.7-0.6-0.8-1-1.1c0,0-0.3,0.4-0.9,0.1c-0.5-0.3-1.7-0.8-0.9-0.1c0.4,0.4,1.1,0.7,0.7,1.5c0.9,1.3,0,2.1,0,2.1
		c0.1-0.7-0.3-1.1-0.6-1.4c-0.2,0-0.7,0.1-0.8,0c-0.4-0.2-0.5-0.8-0.7-1.2c-0.4-0.7-0.7-0.4-1.6-0.8c-0.8-0.4-1.2-0.4-2.2-0.3
		c-0.8,0.1-0.9,0.3-1.2,0.5c-0.3,0.2-1-0.4-1.1-0.5c-0.4,0.3-0.9,0.5-1,1.2c0,0-0.9-1.6,0.8-2.2c0.2-1.1,1.2-0.8,1.2-0.8
		s1,0.3-1.8-2.5c-1.8-1.8-1.8-2.9-2.3-1.8c-0.1,0.3-0.3,1-0.3,0.9c-0.2-0.8-0.4-1.4,0-2.9c0,0,3.3-2.5-2.6-7.1c0,0,2.3-2.5,5.5-4
		c0,0,2.6,1.8,3.3,4c0.7,1.8,0.1,2.2-1.1,6.1c-0.1,0.4-0.4,1-0.5,1.5c-0.1,0.7,0.1,1.4,0.4,2.2c0.7,1.5,0.7,1.8,2.3,2.5
		c0,0,0.8,0.6,1.5,0.7c1.2,0.2,2.9-0.7,3.1,0.5c0.5,0.1,0.7,0.7,0.8,1C59.9,71.4,59.1,72.8,59.1,72.8 M68.6,44
		c0.3,0.3,0.5,0.6,0.5,0.8c1.2,0.7,0.5,1.8,0.5,1.8c-0.1-0.6-0.5-0.7-1.4-1c-0.4-0.1-0.6-0.4-0.9-0.5c-0.5-0.4-1-0.7-1.7-0.7
		c-0.8,0-1.4,0.3-2,1.1c-0.5,0.6-0.1,0.7-0.2,1.1c0,0.3-0.4,0.6-0.5,0.6c0,0.4,0,0.9,0.5,1.2c0,0-1.6,0.2-1.4-1.5
		c-0.7-0.5-0.1-1.6-0.1-1.6s0.8-0.8-2.5,0c-2.2,0.5-4.6-0.4-4.5,0.9c0,0.3,0.7,0.9,0.6,0.9c-1.2,0-3-1.5-3.6-1.8
		c-1.8-1-3.7-0.9-3.7-0.9l1.5,0.8c0,0,2.4,0.9-0.5,4.2c-1.9,2.2-3.4,2.4-5.9,4.4c-3.1,2.4-2.9,4.4-2.9,4.4c0.1,2.2,0,3.8-2.2,5.8
		c-1.8,1.8-2.3,1.9-3.8,3.5c-1.5,1.9-0.7,3.1-0.5,4.6c0.4,2.2,2,2.3,2.1,2.4c0.6,0.3,1.2,0.8,1.4,0.9c0.7,0.4,1.8-1.1,2.6-0.3
		c1.3,0.2,1.3,1.2,1.3,1.2c-0.4-0.4-0.7-0.3-1.2-0.3c0.2,0.8-1.7,0.6-1.7,1c0,0,1,0.3,1.8,0.6c0.6,0.2,0.7,0.5,0.8,0.8
		c1.7,1.1,0.4,2.6,0.4,2.6c0-0.7-0.4-1.2-0.9-1.5c-0.4,0.2-0.7,0.5-1.3,0c-0.7-0.6-1.1-1-1.9-1.4c-0.3-0.1-1-0.7-0.2,0.4
		c1,1.3,0.1,2.4,0,2.4c-0.1,1.4-1.4,1.7-1.4,1.7c0.5-0.5,0.4-1.1-0.1-2c-0.3-0.4-0.1-0.8-0.4-1.8c-0.2-0.8-0.5-0.8-1.2-1.3
		c-0.8-0.6-2.4-0.7-2.7-0.7c-1-0.1-1.7,0.3-2.1,0.2c-0.7-0.2-0.7-0.8-0.7-0.9c-0.6,0-1.2,0-1.7,0.7c0,0,0-2.2,2.1-1.6
		c0.8-0.9,1-0.7,1.5-0.7c0.5,0,2.1,1.8,0.1-2.3c-1.3-2.7-1-4.2-2-3.4c-0.3,0.3-1.3,1-1.3,0.9c0.7-0.6,0.5-2.4,0.5-3.9
		c0.3-0.2,5-2.4,2.7-6.9c-1.6-3.1-0.4-5.4-0.4-5.4c-2.9,3.8-4.4,4.8-5.8,5.6c-1.4,0.7-5.5,2.4-9.1-1c-1.8-1.7-2.2-3.8-2.1-5.3
		c0.1-1.5,0.3-1.8,0.3-1.8l-1.4,0.6c0,0,1.1-1.6,2.9-4.2c0,0,0,3.1,0.7,4.6l-1.5-0.9c0,0-0.3,1.5-0.1,2.5c0.2,1.5,1.2,2.8,2.3,3.4
		c3.3,1.8,5.4,0.3,5.4,0.3l-0.7-0.7c1.2,0.4,3.6-0.7,4.6-2.2c0.7-1.2,1.8-2.6,3.3-4.3c1.2-1.3,2.2-2.1,4.2-3.1
		c-1-0.3-2.8-1.7-5.8-0.1c-1-2.8-3.3-4.8-7.6-3.7c-1.3,0.3,2.6-1.6-0.1-8.7C19.3,33,16.2,29.4,11,30c0,0,2.7-6.1-7-14.6
		c6.7,3.6,11.6,5.5,16.4,6.9c0.3-1.2,0.3-3.4-1.2-7.1c0,0,3,4.8,9,8.8c1.3,0.2,2.9,0.3,2.9,0.3s0.6,0.4-0.5,0.9
		c-0.5,0.3-0.4,5.7,4.7,7.2c2.6,0.8,3.8,0.1,4.4-1.3c0.4-0.8-0.6-2.2-1.7-4c-0.1,0.4-0.3,0.7-0.4,1c-0.6-1.3-1-2.6-1.2-4.2
		c-0.6,0.9-1.2,2.8-1.2,2.8c-0.5-3.6-0.4-5.1-0.1-6c-0.8,0.5-1.8,2.4-1.8,2.4c0.3-3.6,1.5-5.1,2-5.6c0-0.2-2.6,1.9-2.6,1.9
		c0.8-2.3,1.9-3.7,2.8-4.5c-0.8-0.1-1.8-0.1-1.8-0.1c0.2-0.4,0.5-1,2.2-1.8c-0.2-0.6-0.5-0.7-1.1-1.6c0,0,1.3-0.4,2.7-0.1
		c-0.4-1.1-0.8-2.6-0.7-4.4c0,0,1,2.4,4.1,4.3c0-0.8,0-2,0.6-3.3c0,0,0,1.5,1.1,3.2c1.2,0.1,3.5,0.7,4.3,1c1.1,0.4,1.1,1.1,1.1,1.1
		s0.3,0.4,0.1,0.7c-0.1,0.3,1.1,0.8,1.1,0.8s0.9,0.3,1.7,0.5c0.5,0.1,1.5,0.4,1.4,0c-0.1-0.4,1.5,0.2,1.8,0.8
		c0.3,0.7,0.7,0.7,0.7,0.7s-0.5,0.3-0.2,0.7c0.4,0.5-0.3,1.9-0.3,1.9l-0.4-0.6c0,0,0,1-0.9,1.1c-0.1,0-0.3,0-0.5,0l-0.9,0.7l0.2-0.9
		c-0.2,0-0.4-0.1-0.7-0.3l-0.8,0.7l0.2-0.9l-0.7-0.3l-0.7,0.6l0.1-0.9l-0.7-0.3l-0.6,0.6l-0.1-0.9L47,17.7l-0.6,0.5v-0.6
		c-1.1-0.1-2.4,0-1.8,0.2c0.9,0.4,1.2,0.9,2.2,1.6l0.6-0.4l-0.2,0.7c0.2,0.2,0.4,0.4,0.7,0.5l0.6-0.5l-0.1,0.9
		c0.2,0.2,0.4,0.3,0.6,0.4l0.8-0.6l-0.2,0.9c0.2,0.1,0.4,0.2,0.6,0.2l0.7-0.6l-0.1,0.7c0.6,0.1,1,0.1,1,0.1s0,0.6-0.4,1
		C51,23,50.5,23,50.5,23c-0.6,1-1.7,1.1-2,1c0.1,0,0.4-0.3,0.6-0.5c0.4-0.6-0.1-0.5-0.8-0.7c-0.7-0.2-0.9-0.6-1.2-1.2
		c-0.4-0.8-2.1-1.1-3-1c-1,0.2-1.7,0.2-1.7,0.2c0,1.1,2.1,2.9,3.9,3.7c3.3,1.4,4.6,2.9,4.6,2.9C50.3,27.3,49,28,49,28
		c5.4,2.4,4.3,10.2,4.3,10.2c1.1,1.9,4.9,4.3,6.8,4.4c0.6,0,1.7-0.3,2.5-0.4c1.1-0.2,1.4-0.3,1.6-0.2c0.1,0,0.3,0,0.8,0
		c0.4-0.6,0.4-1,0.7-1.3c0.2-0.2,0.4-0.4,0.6-0.4c0.7-1,1.7-0.3,1.7-0.3c-0.4,0-0.6,0.2-0.8,0.5c0.1,0.2,0.1,0.5-0.1,0.7
		c-0.3,0.3-0.6,0.5-0.4,0.8c0.9-0.1,1.4-0.5,1.8-0.4c0.4,0,0.7,0.1,0.9,0.3c1.5-0.1,1.5,1.4,1.5,1.4c-0.4-0.4-0.8-0.5-1.2-0.5
		c-0.1,0.3-0.4,0.5-0.8,0.4c-0.5-0.1-1.6-0.1-2.3-0.1C67.5,43.3,68.1,43.5,68.6,44 M61.2,29.8c0.2-0.8,0.9-0.7,0.9-0.7
		c-0.3,0.2-0.4,0.5-0.4,0.7c0.2,0.1,0.3,0.3,0.3,0.7c0.5-0.6,0.4-0.6,0.7-0.8c0.5-0.5,0.6-0.4,0.8-0.4c1-0.8,1.7,0.3,1.7,0.3
		c-0.4-0.1-0.8,0-1.1,0.2c0.1,0.3,0.1,0.8-0.2,0.9c-0.4,0.2-0.8,0.4-1.1,0.8c0.4-0.2,0.1,0,0.8-0.3c0.3-0.1,0.8-0.6,1.2,0
		c1.1-0.3,1.3,0.7,1.3,0.7c-0.4-0.4-0.7-0.2-1.1-0.1c0,0.1-0.2,0.5-0.3,0.6c-0.3,0.1-0.7,0-1,0.1c-0.6,0-1,0.7-1.5,1.1
		c-0.5,0.4-0.7,0.7-1,1.5c-0.2,0.6,0.1,0.8,0.1,1.1c0,0.2-0.5,0.6-0.6,0.6c0,0.4,0,0.8,0.4,1.1c0,0-1.4,0.1-1.1-1.3
		c-0.6-0.4-0.3-1.1-0.3-1.1s0.5-0.9-2.1,0.6c-1.7,0.9-2.3,0.5-1.4,1.6c-0.5,0.2-0.8,0.4-1.8,0.4c0.2-0.8,0-2.3-0.2-4.1
		c1.2,0.9,1.9,0.5,2.9,0.3c1.5-0.4,1.5-0.1,2.9-1.8c0.2-0.4,1-0.7,1-0.8C61.3,31,60.5,30.2,61.2,29.8 M67.9,23.6
		c-4.4,3.2-8.2,3.1-10.9,1.2c-1.1-0.8-2.1-1.7-2.9-3.4c2.5,1.8,5.9,1.9,10.2-0.4c2.8-1.5,7.3-1,9.4,1.4
		C73.7,22.3,70.6,21.5,67.9,23.6"/>
</g>
<g>
	<path class="st0" d="M127.2,66.3h-17.7v-2.1h1.5c1.3,0,2.2-0.3,2.4-0.9c0.3-0.7,0.5-2.2,0.5-4.3V29.5h-10.3V59
		c0,3.2,0.4,4.1,0.6,4.4c0.4,0.5,1.2,0.8,2.4,0.8h1.5v2.1H90.5v-2.1h1.5c1.2,0,2-0.3,2.4-0.8C94.7,63.1,95,62,95,59V33.2
		c0-2.8-0.3-3.9-0.6-4.3c-0.3-0.5-1.1-0.8-2.4-0.8h-1.5v-2.1h36.7V28h-1.3c-1.3,0-2.2,0.3-2.6,0.9c-0.3,0.4-0.6,1.6-0.6,4.3V59
		c0,3.1,0.4,4.1,0.7,4.4c0.4,0.5,1.3,0.8,2.6,0.8h1.3V66.3z"/>
	<path class="st0" d="M156.7,66.3h-28.6v-2.1h1.6c0.8,0,1.5-0.2,1.9-0.5c0.3-0.2,0.6-0.6,0.8-1.1c0.1-0.2,0.2-1,0.2-3.5V33.2
		c0-2.2-0.1-2.9-0.1-3.2c-0.1-0.6-0.4-1-0.7-1.3c-0.5-0.5-1.2-0.7-2.1-0.7h-1.6v-2.1h27.8v12.6h-1.8l-0.1-0.4
		c-0.4-2.8-1.1-4.8-1.8-5.9c-0.8-1.1-1.9-2-3.3-2.5c-0.8-0.3-2.4-0.5-4.8-0.5h-2.8v15h0.1c1.9,0,3.2-0.7,4-2.1
		c0.9-1.5,1.4-3.8,1.7-6.7l0-0.5h1.9v21.6h-1.9l0-0.5c-0.2-2.2-0.6-4-1.2-5.4c-0.6-1.3-1.2-2.2-1.9-2.7c-0.6-0.4-1.5-0.6-2.7-0.7V58
		c0,2.6,0.1,3.5,0.2,3.8c0.1,0.4,0.3,0.7,0.7,0.9c0.2,0.2,0.7,0.4,1.7,0.4h1.9c2.8,0,5.1-0.8,6.8-2.4l0,0c1.7-1.6,3-4.2,3.7-7.5
		l0.1-0.4h1.8L156.7,66.3z"/>
	<path class="st0" d="M184.9,66.3h-17.8v-2.1h1.6c0.8,0,1.5-0.2,1.9-0.5c0.3-0.2,0.6-0.6,0.8-1.2c0.1-0.2,0.2-1,0.2-3.5V29.2h-1.8
		c-2,0-3.4,0.5-4.3,1.5c-1.3,1.5-2.1,3.6-2.5,6.4l-0.1,0.4h-1.8V25.9h29.7v11.6h-1.8l-0.1-0.4c-0.5-2.4-1-4.1-1.6-5.1
		c-0.6-1-1.4-1.8-2.3-2.4c-0.4-0.2-1.1-0.5-2.9-0.5h-1.9v29.9c0,2.5,0.2,3.4,0.2,3.6c0.1,0.4,0.4,0.8,0.9,1.1
		c0.4,0.3,1.1,0.5,1.9,0.5h1.6V66.3z"/>
	<path class="st0" d="M217.5,29.1c-2.1-2.1-5.5-3.2-10.2-3.2h-14.4V28h0.5c1.7,0,2.4,0.2,2.7,0.4c0.4,0.3,0.7,0.6,0.9,1.1
		c0.1,0.3,0.3,1.3,0.3,3.8v25.5c0,2.6-0.2,3.5-0.3,3.8c-0.2,0.4-0.5,0.8-0.9,1.1c-0.3,0.2-1,0.4-2.7,0.4h-0.5v2.1h17.3v-2.1h-0.5
		c-1.7,0-2.4-0.2-2.7-0.4c-0.4-0.3-0.8-0.6-0.9-1.1c-0.1-0.3-0.3-1.3-0.3-3.8V48.5c3.5,0,5.9-0.3,7.4-0.7c2.4-0.7,4.2-2,5.6-3.9
		c1.3-1.9,2-4.2,2-6.8C220.7,33.9,219.6,31.2,217.5,29.1z M210.4,43.4c-0.9,1.3-2.3,1.9-4,1.9c-0.2,0-0.4,0-0.7,0v-16h0.5
		c1.9,0,3.3,0.6,4.3,1.8c1,1.3,1.5,3.3,1.5,6.1C211.8,40,211.4,42.1,210.4,43.4z"/>
	<path class="st0" d="M240.6,67.2c-5.9,0-10.5-2.5-13.8-7.4c-2.5-3.9-3.8-8.5-3.8-13.8c0-5.9,1.7-11,5-14.9c3.3-4,7.5-5.9,12.3-5.7
		c5.2-0.2,9.5,1.7,12.8,5.7c3.2,4,4.9,9,4.9,14.9c0,5.1-1.2,9.6-3.6,13.4C251.1,64.6,246.5,67.2,240.6,67.2z M240.6,28.3
		c-2.7,0-4.8,1.7-6.2,5.2c-1.2,2.9-1.8,7.2-1.8,12.8c0,6.6,0.9,11.5,2.8,14.6c1.3,2.1,2.9,3.1,5.2,3.1c1.5,0,2.7-0.4,3.7-1.3
		c1.3-1.2,2.3-3.1,3.1-5.7v0c0.8-2.7,1.1-6.2,1.1-10.5c0-5.1-0.4-9-1.2-11.5c-0.8-2.5-1.7-4.2-2.9-5.2
		C243.3,28.7,242.1,28.3,240.6,28.3z"/>
	<path class="st0" d="M277.4,66.3h-17.7v-2.1h1.4c1.2,0,2-0.3,2.4-0.8c0.3-0.4,0.6-1.4,0.6-3.9V32.4c0-1.7-0.2-2.9-0.6-3.5
		c-0.3-0.6-1.1-0.9-2.4-0.9h-1.5v-2.1h29.2v11.7h-1.8l-0.1-0.4c-0.4-2.6-0.8-4.4-1.4-5.4c-0.5-1-1.2-1.6-1.9-1.9
		c-0.8-0.3-2.4-0.4-4.9-0.4h-6v30.1c0,2.6,0.4,3.5,0.7,3.9c0.4,0.5,1.3,0.7,2.5,0.7h1.3V66.3z"/>
	<path class="st0" d="M362,64.2c-0.9-0.1-1.5-0.4-1.9-0.9c-0.7-0.7-1.5-2.6-2.6-5.6l-11.7-32.6h-1.1L333,56.9
		c-1.1,2.9-2,4.9-2.7,5.8c-0.6,0.8-1.4,1.3-2.4,1.5c-0.8,0-1.5-0.3-2.2-0.8c-1.1-0.8-2.4-2.5-4-4.8l-11-17l9.1-8.9
		c2.8-2.8,3.9-3.7,4.3-3.9c0.6-0.4,1.4-0.6,2.4-0.7l0.5,0v-2h-13.5V28l0.5,0c1.7,0.1,2.2,0.3,2.3,0.3c0.5,0.3,0.8,0.8,0.8,1.3
		c0,0.6-0.4,1.7-2.3,3.6l-11,11v-11c0-2.5,0.2-3.3,0.3-3.5c0.2-0.5,0.5-0.9,0.8-1.1c0.5-0.3,1.2-0.5,2.2-0.5h0.5v-2.1h-16.9V28h1.6
		c0.8,0,1.4,0.2,1.8,0.5c0.4,0.3,0.7,0.7,0.9,1.1c0.1,0.3,0.2,1.1,0.2,3.6v25.9c0,2.5-0.1,3.3-0.2,3.5c-0.2,0.5-0.4,0.9-0.8,1.1
		c-0.5,0.3-1.1,0.5-2,0.5h-1.6v2.1h17.1v-2.1h-0.5c-1.1,0-1.8-0.2-2.3-0.5c-0.4-0.3-0.7-0.6-0.9-1c-0.1-0.3-0.3-1.1-0.3-3.7V48.5
		l0.6-0.6l7,10.8c1.7,2.7,2.1,3.8,2.1,4.3c0,0.3-0.1,0.5-0.3,0.7c-0.1,0.1-0.5,0.3-1.8,0.5l-0.4,0v2h28.1v-2l-0.5,0
		c-2.1-0.2-2.7-0.5-2.9-0.6c-0.6-0.4-0.9-1.1-0.9-2c0-0.8,0.2-1.8,0.6-3l1.2-3.5h10.6l1.6,4.6c0.6,1.6,0.7,2,0.7,2.1
		c0.1,0.3,0.1,0.6,0.1,0.9c0,0.4-0.1,0.8-0.3,1c-0.3,0.2-0.9,0.5-2.3,0.5h-1.1v2.1h16.5v-2L362,64.2z M337.2,52.4l4.9-13.5l4.8,13.5
		H337.2z"/>
	<path class="st0" d="M393,66.3h-30.6l18.8-37.2h-3.9c-1.8,0-3,0.1-3.5,0.2c-1,0.2-2,0.7-2.9,1.4c-0.9,0.7-1.7,1.6-2.3,2.8
		c-0.6,1.2-1.1,2.7-1.5,4.6l-0.1,0.4h-1.8l0.9-12.5h26.5L374,63.1h5.3c2.8,0,4.8-0.2,5.9-0.6c1.8-0.7,3.3-1.9,4.6-3.7
		c1.3-1.8,2.2-4.2,2.7-7.3l0.1-0.4h1.9L393,66.3z"/>
</g>
<g>
	<path class="st0" d="M238.5,82.4l-1.5,1.6h-0.4l0.5-1.6H238.5z M240.7,82.5c0.6,0,1.2,0.1,1.6,0.4c0.5,0.3,0.8,0.7,1.1,1.1
		c0.3,0.5,0.4,1,0.4,1.6c0,0.6-0.1,1.1-0.4,1.6c-0.3,0.5-0.6,0.9-1.1,1.2c-0.5,0.3-1,0.4-1.7,0.4c-1,0-1.7-0.3-2.3-0.9
		c-0.6-0.6-0.9-1.4-0.9-2.3c0-0.6,0.1-1.2,0.4-1.7c0.3-0.5,0.7-0.9,1.2-1.1C239.6,82.6,240.1,82.5,240.7,82.5z M240.7,82.8
		c-0.5,0-0.9,0.2-1.2,0.7c-0.3,0.5-0.4,1.2-0.4,2.2c0,0.9,0.1,1.6,0.4,2.1s0.7,0.7,1.2,0.7c0.5,0,0.9-0.2,1.2-0.7s0.4-1.2,0.4-2.1
		C242.3,83.8,241.8,82.8,240.7,82.8z"/>
	<path class="st0" d="M249,87.6h0.2c0,0.5-0.1,0.8-0.3,1s-0.4,0.3-0.7,0.3c-0.5,0-0.8-0.2-0.9-0.7c-0.4,0.5-0.8,0.7-1.2,0.7
		c-0.2,0-0.3-0.1-0.5-0.2c0,0.2,0.1,0.5,0.2,0.8c0.1,0.3,0.1,0.4,0.1,0.5c0,0.2,0,0.3-0.1,0.5c-0.1,0.1-0.2,0.2-0.4,0.2
		c-0.4,0-0.6-0.2-0.6-0.6c0-0.1,0-0.3,0.1-0.6c0.1-0.4,0.1-0.9,0.1-1.4v-3.6h1.2v2.9c0,0.3,0,0.6,0.1,0.7c0.1,0.1,0.2,0.2,0.3,0.2
		c0.2,0,0.5-0.2,0.7-0.6v-3.2h1.2v3.2c0,0.3,0.1,0.5,0.3,0.5C248.9,88.2,249,88,249,87.6z"/>
	<path class="st0" d="M249.5,84.5h1.8v2.8c0,0.3,0,0.6,0.1,0.7c0,0.1,0.1,0.2,0.2,0.2c0.2,0,0.3-0.2,0.4-0.7h0.2
		c0,0.4-0.1,0.7-0.3,1c-0.2,0.3-0.5,0.4-0.8,0.4c-0.2,0-0.4,0-0.6-0.1s-0.3-0.2-0.3-0.4s-0.1-0.4-0.1-0.8v-2.1c0-0.3,0-0.5-0.1-0.6
		s-0.2-0.1-0.4-0.2V84.5z"/>
	<path class="st0" d="M253.5,88.8h-1.3l1.9-4.3l-0.1-0.2c-0.1-0.2-0.1-0.5-0.2-0.6c-0.1-0.2-0.3-0.3-0.5-0.3c-0.4,0-0.6,0.2-0.7,0.7
		h-0.2c0.1-1,0.3-1.5,0.9-1.5c0.4,0,0.7,0.3,0.9,1l0.9,3.6c0.1,0.4,0.2,0.6,0.3,0.7c0.1,0.1,0.3,0.2,0.4,0.2c0.2,0,0.3-0.1,0.5-0.2
		c0.1-0.1,0.2-0.3,0.2-0.5h0.2c0,0.1,0,0.2,0,0.2c0,0.4-0.1,0.7-0.2,0.9c-0.1,0.2-0.3,0.4-0.6,0.4c-0.2,0-0.4-0.1-0.5-0.2
		c-0.1-0.2-0.2-0.4-0.3-0.9l-0.4-1.5L253.5,88.8z"/>
	<path class="st0" d="M258.8,84.4c0.4,0,0.7,0.1,1,0.3c0.3,0.2,0.5,0.5,0.7,0.8c0.2,0.3,0.2,0.7,0.2,1.1c0,0.6-0.1,1.1-0.4,1.5
		c-0.4,0.5-0.9,0.7-1.5,0.7c-0.6,0-1.1-0.2-1.4-0.7c-0.3-0.4-0.5-1-0.5-1.6c0-0.6,0.2-1.1,0.5-1.6C257.7,84.6,258.2,84.4,258.8,84.4
		z M258.8,84.7c-0.1,0-0.3,0.1-0.4,0.2c-0.1,0.1-0.2,0.3-0.2,0.7c0,0.3-0.1,0.8-0.1,1.4c0,0.3,0,0.6,0.1,0.9c0,0.2,0.1,0.4,0.2,0.5
		s0.2,0.2,0.4,0.2c0.1,0,0.2,0,0.3-0.1c0.1-0.1,0.2-0.2,0.2-0.4c0.1-0.3,0.1-0.9,0.1-1.7c0-0.5,0-0.9-0.1-1.1s-0.1-0.3-0.2-0.4
		C259,84.8,258.9,84.7,258.8,84.7z"/>
	<path class="st0" d="M263.5,87.6c0.5,0,0.8,0.1,1,0.4s0.3,0.7,0.3,1.2c0,0.5-0.1,0.9-0.4,1.2c-0.3,0.3-0.6,0.4-1,0.4
		c-0.2,0-0.3-0.1-0.4-0.2s-0.2-0.2-0.2-0.4c0-0.3,0.1-0.4,0.4-0.4c0.1,0,0.2,0,0.3,0.1c0.1,0,0.2,0.1,0.3,0.1c0.2,0,0.4-0.1,0.5-0.2
		c0.1-0.1,0.2-0.3,0.2-0.4c0-0.3-0.2-0.5-0.6-0.5c-0.1,0-0.3,0-0.5,0c-0.1,0-0.2,0-0.3,0c-0.5,0-0.9-0.1-1.2-0.4
		c-0.3-0.3-0.5-0.7-0.5-1.3c0-0.7,0.2-1.4,0.7-1.9c0.5-0.6,1-0.8,1.8-0.8c0.4,0,0.6,0.1,0.7,0.2c0.1,0.1,0.2,0.3,0.2,0.4
		c0,0.1,0,0.2-0.1,0.3s-0.2,0.2-0.3,0.2c-0.1,0-0.3-0.1-0.6-0.2c-0.2-0.1-0.4-0.2-0.5-0.2c-0.3,0-0.7,0.1-1,0.4
		c-0.3,0.3-0.5,0.6-0.5,1.1c0,0.6,0.3,0.9,1,0.9c0,0,0.1,0,0.2,0C263.1,87.6,263.3,87.6,263.5,87.6z"/>
	<path class="st0" d="M269,86.6c-0.9-0.2-1.3-0.5-1.3-1.1c0-0.3,0.1-0.6,0.4-0.8s0.7-0.3,1.4-0.3c0.5,0,0.8,0.1,1.1,0.2
		s0.3,0.3,0.3,0.5c0,0.1,0,0.2-0.1,0.3c-0.1,0.1-0.2,0.1-0.4,0.1c-0.2,0-0.3,0-0.3-0.1c-0.1-0.1-0.1-0.2-0.1-0.2c0,0,0-0.1,0-0.2
		c0-0.1,0-0.1,0-0.2c0-0.1-0.1-0.2-0.4-0.2c-0.4,0-0.6,0.3-0.6,0.9c0,0.3,0,0.5,0.1,0.6c0.1,0.1,0.2,0.2,0.4,0.2c0.1,0,0.2,0,0.4,0
		c0.1,0,0.1,0,0.1,0c0.2,0,0.2,0.1,0.2,0.2c0,0.1-0.1,0.2-0.2,0.2c0,0-0.2,0-0.3,0c-0.1,0-0.1,0-0.2,0c-0.4,0-0.6,0.3-0.6,1
		c0,0.6,0.2,0.9,0.6,0.9c0.1,0,0.2,0,0.3-0.1c0.1-0.1,0.2-0.1,0.2-0.2c0,0,0-0.1,0-0.1c0-0.1,0-0.2,0-0.2c0-0.1,0-0.2,0.1-0.3
		c0.1-0.1,0.2-0.1,0.3-0.1c0.2,0,0.3,0,0.4,0.1c0.1,0.1,0.1,0.2,0.1,0.3c0,0.2-0.1,0.4-0.4,0.6c-0.3,0.2-0.6,0.3-1.1,0.3
		c-0.6,0-1.1-0.1-1.4-0.3s-0.5-0.5-0.5-0.9c0-0.3,0.1-0.5,0.3-0.7C268,86.8,268.4,86.6,269,86.6z"/>
	<path class="st0" d="M273.5,85.6l-0.1,1.2c0,0.2,0,0.4,0,0.5c0,0.6,0.1,0.9,0.3,0.9c0.2,0,0.3-0.2,0.4-0.7h0.2c0,0.4-0.1,0.7-0.3,1
		c-0.2,0.3-0.5,0.4-0.8,0.4c-0.5,0-0.8-0.4-0.8-1.1c0-0.3,0-0.6,0.1-1.1l0.2-1.1h-0.6c-0.3,0-0.5,0-0.6,0.1s-0.3,0.2-0.4,0.4L271,86
		c0.1-0.4,0.3-0.7,0.4-1s0.3-0.4,0.5-0.4s0.5-0.1,0.9-0.1h2.1v1.1H273.5z"/>
	<path class="st0" d="M278.5,84.5h1.2l-0.4,2c-0.1,0.5-0.2,0.9-0.3,1.1c0,0.2,0.1,0.3,0.2,0.4c0.1,0.1,0.2,0.2,0.3,0.2
		c0.2,0,0.4-0.2,0.4-0.7h0.2c0,0.5-0.1,0.9-0.2,1.1c-0.1,0.2-0.2,0.3-0.4,0.3c-0.3,0-0.5-0.3-0.6-0.9c-0.3,0.6-0.8,0.9-1.5,0.9
		c-0.5,0-1-0.2-1.3-0.6c-0.3-0.4-0.5-0.9-0.5-1.5c0-0.6,0.2-1.2,0.5-1.7c0.3-0.5,0.7-0.7,1.2-0.7c0.2,0,0.4,0.1,0.6,0.2
		c0.2,0.2,0.3,0.4,0.5,0.8L278.5,84.5z M278.2,86c-0.2-0.5-0.3-0.8-0.4-1c-0.1-0.2-0.3-0.2-0.4-0.2c-0.2,0-0.3,0.1-0.4,0.3
		c-0.1,0.2-0.1,0.8-0.1,1.8c0,0.6,0,1,0.1,1.3c0.1,0.3,0.2,0.4,0.3,0.4c0.1,0,0.2-0.1,0.3-0.2c0.1-0.1,0.2-0.5,0.4-1.2L278.2,86z"/>
	<path class="st0" d="M280.4,84.5h1.8v2.8c0,0.3,0,0.6,0.1,0.7c0,0.1,0.1,0.2,0.2,0.2c0.2,0,0.3-0.2,0.4-0.7h0.2
		c0,0.4-0.1,0.7-0.3,1c-0.2,0.3-0.5,0.4-0.8,0.4c-0.2,0-0.4,0-0.6-0.1s-0.3-0.2-0.3-0.4s-0.1-0.4-0.1-0.8v-2.1c0-0.3,0-0.5-0.1-0.6
		s-0.2-0.1-0.4-0.2V84.5z"/>
	<path class="st0" d="M284.6,90.7h-1.2c0.1-0.5,0.2-1.1,0.2-1.7v-1.8c0-0.6,0-1.1,0.1-1.4s0.1-0.5,0.3-0.7c0.2-0.2,0.4-0.4,0.6-0.5
		c0.3-0.1,0.6-0.2,1-0.2c0.4,0,0.8,0.1,1,0.3c0.3,0.2,0.5,0.4,0.6,0.8s0.2,0.7,0.2,1.2c0,0.7-0.2,1.3-0.5,1.7
		c-0.3,0.4-0.7,0.6-1.2,0.6c-0.4,0-0.7-0.1-0.9-0.4C284.8,89.4,284.7,90.2,284.6,90.7z M284.8,88c0.2,0.3,0.4,0.5,0.7,0.5
		c0.2,0,0.4-0.1,0.5-0.4c0.1-0.3,0.2-0.8,0.2-1.4c0-1.3-0.3-1.9-0.8-1.9c-0.2,0-0.4,0.1-0.4,0.2s-0.1,0.4-0.1,0.8V88z"/>
	<path class="st0" d="M288,84.5h1.8v2.8c0,0.3,0,0.6,0.1,0.7c0,0.1,0.1,0.2,0.2,0.2c0.2,0,0.3-0.2,0.4-0.7h0.2c0,0.4-0.1,0.7-0.3,1
		c-0.2,0.3-0.5,0.4-0.8,0.4c-0.2,0-0.4,0-0.6-0.1s-0.3-0.2-0.3-0.4s-0.1-0.4-0.1-0.8v-2.1c0-0.3,0-0.5-0.1-0.6s-0.2-0.1-0.4-0.2
		V84.5z"/>
	<path class="st0" d="M293.4,84.4v0.2c-0.8,0-1.2,0.7-1.2,2c0,0.5,0.1,0.9,0.2,1.3c0.1,0.3,0.3,0.5,0.5,0.5c0.1,0,0.3-0.1,0.4-0.2
		s0.3-0.3,0.4-0.6c-0.3-0.7-0.4-1.3-0.4-1.7c0-0.2,0-0.4,0.1-0.6c0.1-0.2,0.2-0.2,0.4-0.2c0.2,0,0.3,0.1,0.4,0.2
		c0.1,0.2,0.2,0.4,0.2,0.6c0,0.3-0.1,0.8-0.3,1.2c-0.1,0.2-0.1,0.3-0.2,0.4c0.3,0.5,0.6,0.7,0.8,0.7c0.5,0,0.7-0.6,0.7-1.8
		c0-0.7-0.1-1.2-0.3-1.5s-0.5-0.5-0.9-0.5v-0.2c0.1,0,0.2,0,0.2,0c0.7,0,1.3,0.2,1.7,0.7c0.4,0.5,0.6,1,0.6,1.6
		c0,0.6-0.2,1.1-0.5,1.5c-0.3,0.4-0.7,0.6-1.1,0.6c-0.5,0-0.9-0.3-1.3-0.9c-0.3,0.4-0.5,0.6-0.7,0.7c-0.2,0.1-0.4,0.2-0.6,0.2
		c-0.5,0-0.9-0.2-1.2-0.7c-0.3-0.4-0.5-0.9-0.5-1.5c0-0.7,0.2-1.2,0.6-1.7c0.4-0.4,1-0.7,1.7-0.7C293.2,84.4,293.3,84.4,293.4,84.4z
		 M295.2,82.4l-1.5,1.6h-0.4l0.5-1.6H295.2z"/>
	<path class="st0" d="M298.6,84.4c0.2,0.6,0.4,1,0.4,1.2l0.7,1.7l0.3-0.7c0.1-0.2,0.1-0.4,0.1-0.5c0-0.2-0.1-0.4-0.2-0.6
		c-0.1-0.2-0.1-0.3-0.1-0.5c0-0.4,0.2-0.6,0.6-0.6c0.2,0,0.3,0.1,0.4,0.2c0.1,0.1,0.1,0.3,0.1,0.4c0,0.3-0.1,0.7-0.4,1.2
		c-0.1,0.1-0.1,0.2-0.1,0.3l-1.1,2.4h-0.2l-1.4-3.4c-0.1-0.3-0.2-0.5-0.3-0.5c-0.1-0.1-0.1-0.1-0.2-0.1c0,0-0.1,0-0.1,0v-0.2
		L298.6,84.4z"/>
	<path class="st0" d="M307.5,85.5c0.6,0.1,1,0.3,1.2,0.5c0.3,0.3,0.5,0.6,0.5,1.1c0,0.5-0.2,0.8-0.5,1.1c-0.4,0.4-1.1,0.5-1.9,0.5
		h-3v-0.2c0.3,0,0.5,0,0.6-0.1s0.2-0.1,0.2-0.2c0-0.1,0.1-0.3,0.1-0.6v-4c0-0.3,0-0.5-0.1-0.6c0-0.1-0.1-0.2-0.2-0.2
		c-0.1-0.1-0.3-0.1-0.6-0.1v-0.2h2.9c0.7,0,1.2,0.1,1.5,0.2s0.5,0.3,0.7,0.6c0.2,0.2,0.2,0.5,0.2,0.8c0,0.3-0.1,0.6-0.3,0.8
		C308.4,85.2,308,85.4,307.5,85.5z M305.9,85.7v2l0,0.2c0,0.2,0,0.3,0.1,0.4s0.2,0.1,0.4,0.1c0.2,0,0.5-0.1,0.6-0.2
		c0.2-0.1,0.3-0.3,0.5-0.5c0.1-0.2,0.2-0.4,0.2-0.7c0-0.3-0.1-0.5-0.2-0.8c-0.1-0.2-0.3-0.4-0.5-0.5
		C306.7,85.8,306.3,85.7,305.9,85.7z M305.9,85.4c0.4,0,0.7,0,0.9-0.1s0.4-0.2,0.5-0.4s0.2-0.4,0.2-0.7c0-0.3-0.1-0.5-0.2-0.7
		c-0.1-0.2-0.3-0.3-0.4-0.4c-0.2-0.1-0.5-0.1-0.9-0.1V85.4z"/>
	<path class="st0" d="M313.8,84.5v3.3c0,0.3,0,0.5,0.1,0.6c0.1,0.1,0.2,0.1,0.4,0.2v0.2h-1.7v-0.6c-0.2,0.2-0.4,0.4-0.6,0.5
		c-0.2,0.1-0.4,0.2-0.7,0.2c-0.2,0-0.4-0.1-0.6-0.2s-0.3-0.3-0.4-0.5c-0.1-0.2-0.1-0.5-0.1-1v-1.7c0-0.3,0-0.5-0.1-0.6
		c-0.1-0.1-0.2-0.1-0.4-0.2v-0.2h1.7v2.9c0,0.3,0,0.5,0,0.6c0,0.1,0.1,0.2,0.1,0.2c0.1,0,0.1,0.1,0.2,0.1c0.1,0,0.2,0,0.3-0.1
		c0.1-0.1,0.3-0.2,0.4-0.5v-2.3c0-0.3,0-0.5-0.1-0.6c-0.1-0.1-0.2-0.1-0.4-0.2v-0.2H313.8z"/>
	<path class="st0" d="M316.4,83v1.5h1V85h-1v2.6c0,0.2,0,0.4,0,0.5c0,0.1,0.1,0.1,0.1,0.2c0.1,0,0.1,0.1,0.2,0.1
		c0.2,0,0.4-0.1,0.5-0.4l0.1,0.1c-0.2,0.6-0.6,0.9-1.2,0.9c-0.3,0-0.5-0.1-0.7-0.2c-0.2-0.1-0.3-0.3-0.3-0.5c0-0.1,0-0.4,0-0.8V85
		h-0.5v-0.2c0.4-0.3,0.7-0.5,0.9-0.8c0.3-0.3,0.5-0.6,0.7-1H316.4z"/>
	<path class="st0" d="M320.1,88.1c-0.5,0.5-1,0.7-1.4,0.7c-0.2,0-0.4-0.1-0.6-0.2c-0.2-0.2-0.2-0.4-0.2-0.6c0-0.3,0.1-0.6,0.4-0.9
		c0.3-0.3,0.9-0.6,1.8-1v-0.4c0-0.3,0-0.5-0.1-0.6c0-0.1-0.1-0.2-0.2-0.2c-0.1-0.1-0.2-0.1-0.3-0.1c-0.2,0-0.3,0-0.5,0.1
		c-0.1,0.1-0.1,0.1-0.1,0.2c0,0.1,0,0.1,0.1,0.2c0.1,0.1,0.2,0.3,0.2,0.4c0,0.1-0.1,0.3-0.2,0.4c-0.1,0.1-0.2,0.2-0.4,0.2
		c-0.2,0-0.3-0.1-0.5-0.2s-0.2-0.2-0.2-0.4c0-0.2,0.1-0.4,0.3-0.6c0.2-0.2,0.4-0.3,0.7-0.5c0.3-0.1,0.6-0.2,0.9-0.2
		c0.4,0,0.7,0.1,0.9,0.3s0.4,0.4,0.4,0.6c0,0.1,0.1,0.4,0.1,0.9v1.6c0,0.2,0,0.3,0,0.4s0,0.1,0.1,0.1c0,0,0.1,0,0.1,0
		c0.1,0,0.2-0.1,0.2-0.2l0.1,0.1c-0.1,0.2-0.3,0.4-0.5,0.5c-0.2,0.1-0.3,0.2-0.5,0.2c-0.2,0-0.4-0.1-0.6-0.2
		C320.2,88.5,320.1,88.4,320.1,88.1z M320.1,87.8v-1.4c-0.4,0.2-0.6,0.4-0.8,0.7c-0.1,0.2-0.2,0.3-0.2,0.5c0,0.1,0,0.3,0.1,0.4
		c0.1,0.1,0.2,0.1,0.3,0.1C319.7,88.1,319.9,88,320.1,87.8z"/>
	<path class="st0" d="M324,84.5v0.5c0.2-0.2,0.4-0.4,0.6-0.5c0.2-0.1,0.4-0.2,0.6-0.2c0.3,0,0.5,0.1,0.7,0.2
		c0.2,0.2,0.3,0.3,0.4,0.6c0,0.2,0.1,0.5,0.1,1v1.6c0,0.3,0,0.5,0.1,0.6c0.1,0.1,0.2,0.1,0.4,0.2v0.2h-2.1v-0.2
		c0.2,0,0.3-0.1,0.3-0.2c0-0.1,0.1-0.3,0.1-0.6V86c0-0.3,0-0.6,0-0.7s-0.1-0.2-0.1-0.2c-0.1,0-0.1-0.1-0.2-0.1
		c-0.3,0-0.5,0.2-0.7,0.6v2.3c0,0.3,0,0.5,0.1,0.6c0.1,0.1,0.2,0.1,0.3,0.2v0.2h-2.1v-0.2c0.2,0,0.3-0.1,0.4-0.2
		c0.1-0.1,0.1-0.3,0.1-0.6v-2.4c0-0.3,0-0.5-0.1-0.6c-0.1-0.1-0.2-0.1-0.4-0.2v-0.2H324z"/>
	<path class="st0" d="M333.2,82.5v2.2h-0.2c-0.2-0.6-0.5-1-0.9-1.3c-0.4-0.3-0.8-0.5-1.3-0.5c-0.4,0-0.8,0.1-1.1,0.4
		c-0.3,0.3-0.5,0.6-0.6,1.1c-0.1,0.5-0.2,0.9-0.2,1.4c0,0.6,0.1,1.1,0.2,1.5c0.1,0.4,0.4,0.8,0.7,1s0.7,0.3,1.1,0.3
		c0.1,0,0.3,0,0.4,0c0.2,0,0.3-0.1,0.5-0.1v-1.3c0-0.2,0-0.4,0-0.5c0-0.1-0.1-0.1-0.2-0.2c-0.1-0.1-0.2-0.1-0.4-0.1H331v-0.2h2.9
		v0.2c-0.2,0-0.4,0-0.5,0.1c-0.1,0-0.2,0.1-0.2,0.2c0,0.1,0,0.2,0,0.4v1.3c-0.4,0.2-0.8,0.3-1.2,0.4s-0.8,0.1-1.3,0.1
		c-0.6,0-1-0.1-1.4-0.2c-0.4-0.2-0.7-0.4-1-0.6c-0.3-0.3-0.5-0.5-0.7-0.9c-0.2-0.4-0.3-0.9-0.3-1.4c0-0.9,0.3-1.7,0.9-2.3
		c0.6-0.6,1.4-1,2.4-1c0.3,0,0.6,0,0.8,0.1c0.1,0,0.3,0.1,0.6,0.2s0.5,0.2,0.5,0.2c0.1,0,0.2,0,0.2-0.1c0.1-0.1,0.1-0.2,0.2-0.4
		H333.2z"/>
	<path class="st0" d="M336.6,88.1c-0.5,0.5-1,0.7-1.4,0.7c-0.2,0-0.4-0.1-0.6-0.2c-0.2-0.2-0.2-0.4-0.2-0.6c0-0.3,0.1-0.6,0.4-0.9
		c0.3-0.3,0.9-0.6,1.8-1v-0.4c0-0.3,0-0.5-0.1-0.6c0-0.1-0.1-0.2-0.2-0.2c-0.1-0.1-0.2-0.1-0.3-0.1c-0.2,0-0.3,0-0.5,0.1
		c-0.1,0.1-0.1,0.1-0.1,0.2c0,0.1,0,0.1,0.1,0.2c0.1,0.1,0.2,0.3,0.2,0.4c0,0.1-0.1,0.3-0.2,0.4c-0.1,0.1-0.2,0.2-0.4,0.2
		c-0.2,0-0.3-0.1-0.5-0.2s-0.2-0.2-0.2-0.4c0-0.2,0.1-0.4,0.3-0.6c0.2-0.2,0.4-0.3,0.7-0.5c0.3-0.1,0.6-0.2,0.9-0.2
		c0.4,0,0.7,0.1,0.9,0.3s0.4,0.4,0.4,0.6c0,0.1,0.1,0.4,0.1,0.9v1.6c0,0.2,0,0.3,0,0.4s0,0.1,0.1,0.1c0,0,0.1,0,0.1,0
		c0.1,0,0.2-0.1,0.2-0.2l0.1,0.1c-0.1,0.2-0.3,0.4-0.5,0.5c-0.2,0.1-0.3,0.2-0.5,0.2c-0.2,0-0.4-0.1-0.6-0.2
		C336.7,88.5,336.6,88.4,336.6,88.1z M336.6,87.8v-1.4c-0.4,0.2-0.6,0.4-0.8,0.7c-0.1,0.2-0.2,0.3-0.2,0.5c0,0.1,0,0.3,0.1,0.4
		c0.1,0.1,0.2,0.1,0.3,0.1C336.3,88.1,336.4,88,336.6,87.8z"/>
	<path class="st0" d="M341.5,84.4l0.1,1.4h-0.1c-0.2-0.4-0.4-0.7-0.6-0.9c-0.2-0.2-0.4-0.2-0.6-0.2c-0.1,0-0.2,0-0.3,0.1
		s-0.1,0.2-0.1,0.3c0,0.1,0,0.2,0.1,0.2c0.1,0.1,0.4,0.3,0.8,0.6c0.4,0.3,0.7,0.6,0.9,0.8c0.1,0.2,0.2,0.4,0.2,0.7
		c0,0.2-0.1,0.5-0.2,0.7c-0.1,0.2-0.3,0.4-0.5,0.5c-0.2,0.1-0.4,0.2-0.7,0.2c-0.2,0-0.5-0.1-0.8-0.2c-0.1,0-0.1,0-0.2,0
		c-0.1,0-0.2,0.1-0.2,0.2H339l-0.1-1.5h0.1c0.1,0.4,0.3,0.7,0.5,0.9s0.4,0.3,0.7,0.3c0.1,0,0.3,0,0.3-0.1c0.1-0.1,0.1-0.2,0.1-0.3
		c0-0.1,0-0.3-0.1-0.4s-0.3-0.3-0.6-0.5c-0.4-0.3-0.7-0.6-0.9-0.7c-0.2-0.2-0.3-0.5-0.3-0.8c0-0.3,0.1-0.6,0.3-0.9s0.5-0.4,0.9-0.4
		c0.2,0,0.4,0.1,0.6,0.2c0.1,0,0.1,0.1,0.2,0.1c0.1,0,0.1,0,0.1,0c0,0,0.1-0.1,0.2-0.2H341.5z"/>
	<path class="st0" d="M347.7,84.5h1.2l-0.4,2c-0.1,0.5-0.2,0.9-0.3,1.1c0,0.2,0.1,0.3,0.2,0.4c0.1,0.1,0.2,0.2,0.3,0.2
		c0.2,0,0.4-0.2,0.4-0.7h0.2c0,0.5-0.1,0.9-0.2,1.1c-0.1,0.2-0.2,0.3-0.4,0.3c-0.3,0-0.5-0.3-0.6-0.9c-0.3,0.6-0.8,0.9-1.5,0.9
		c-0.5,0-1-0.2-1.3-0.6c-0.3-0.4-0.5-0.9-0.5-1.5c0-0.6,0.2-1.2,0.5-1.7c0.3-0.5,0.7-0.7,1.2-0.7c0.2,0,0.4,0.1,0.6,0.2
		c0.2,0.2,0.3,0.4,0.5,0.8L347.7,84.5z M347.4,86c-0.2-0.5-0.3-0.8-0.4-1c-0.1-0.2-0.3-0.2-0.4-0.2c-0.2,0-0.3,0.1-0.4,0.3
		c-0.1,0.2-0.1,0.8-0.1,1.8c0,0.6,0,1,0.1,1.3c0.1,0.3,0.2,0.4,0.3,0.4c0.1,0,0.2-0.1,0.3-0.2c0.1-0.1,0.2-0.5,0.4-1.2L347.4,86z"/>
	<path class="st0" d="M351.4,85.6c-0.1,1.4-0.3,2.3-0.4,2.7c-0.1,0.4-0.3,0.6-0.7,0.6c-0.2,0-0.3,0-0.4-0.1
		c-0.1-0.1-0.2-0.2-0.2-0.4c0-0.1,0.1-0.3,0.2-0.4c0.2-0.2,0.3-0.4,0.4-0.6c0.1-0.1,0.2-0.4,0.3-0.7c0.1-0.3,0.2-0.7,0.3-1h-0.4
		c-0.3,0-0.5,0-0.6,0.1c-0.1,0.1-0.3,0.2-0.3,0.4l-0.1-0.1c0.1-0.4,0.3-0.7,0.4-1s0.3-0.4,0.5-0.4c0.1-0.1,0.4-0.1,0.8-0.1h2.9v1.1
		h-1l-0.1,1.3c0,0.1,0,0.1,0,0.2c0,0.4,0,0.7,0.1,0.8c0.1,0.2,0.1,0.2,0.3,0.2c0.2,0,0.3-0.2,0.4-0.7h0.2c0,0.4-0.1,0.7-0.3,1
		s-0.4,0.4-0.8,0.4c-0.3,0-0.5-0.1-0.6-0.3c-0.1-0.2-0.2-0.4-0.2-0.8c0-0.3,0-0.6,0.1-1l0.2-1.2H351.4z"/>
	<path class="st0" d="M356.5,84.4c0.4,0,0.7,0.1,1,0.3c0.3,0.2,0.5,0.5,0.7,0.8c0.2,0.3,0.2,0.7,0.2,1.1c0,0.6-0.1,1.1-0.4,1.5
		c-0.4,0.5-0.9,0.7-1.5,0.7c-0.6,0-1.1-0.2-1.4-0.7c-0.3-0.4-0.5-1-0.5-1.6c0-0.6,0.2-1.1,0.5-1.6C355.5,84.6,355.9,84.4,356.5,84.4
		z M356.6,84.7c-0.1,0-0.3,0.1-0.4,0.2c-0.1,0.1-0.2,0.3-0.2,0.7c0,0.3-0.1,0.8-0.1,1.4c0,0.3,0,0.6,0.1,0.9c0,0.2,0.1,0.4,0.2,0.5
		s0.2,0.2,0.4,0.2c0.1,0,0.2,0,0.3-0.1c0.1-0.1,0.2-0.2,0.2-0.4c0.1-0.3,0.1-0.9,0.1-1.7c0-0.5,0-0.9-0.1-1.1s-0.1-0.3-0.2-0.4
		C356.8,84.8,356.7,84.7,356.6,84.7z M357.9,82.4l-1.5,1.6H356l0.5-1.6H357.9z"/>
	<path class="st0" d="M363.6,85.6l-0.1,1.2c0,0.2,0,0.4,0,0.5c0,0.6,0.1,0.9,0.3,0.9c0.2,0,0.3-0.2,0.4-0.7h0.2c0,0.4-0.1,0.7-0.3,1
		c-0.2,0.3-0.5,0.4-0.8,0.4c-0.5,0-0.8-0.4-0.8-1.1c0-0.3,0-0.6,0.1-1.1l0.2-1.1h-0.6c-0.3,0-0.5,0-0.6,0.1s-0.3,0.2-0.4,0.4
		l-0.1-0.1c0.1-0.4,0.3-0.7,0.4-1s0.3-0.4,0.5-0.4s0.5-0.1,0.9-0.1h2.1v1.1H363.6z"/>
	<path class="st0" d="M367.5,84.4c0.4,0,0.7,0.1,1,0.3c0.3,0.2,0.5,0.5,0.7,0.8c0.2,0.3,0.2,0.7,0.2,1.1c0,0.6-0.1,1.1-0.4,1.5
		c-0.4,0.5-0.9,0.7-1.5,0.7c-0.6,0-1.1-0.2-1.4-0.7c-0.3-0.4-0.5-1-0.5-1.6c0-0.6,0.2-1.1,0.5-1.6C366.4,84.6,366.9,84.4,367.5,84.4
		z M367.5,84.7c-0.1,0-0.3,0.1-0.4,0.2c-0.1,0.1-0.2,0.3-0.2,0.7c0,0.3-0.1,0.8-0.1,1.4c0,0.3,0,0.6,0.1,0.9c0,0.2,0.1,0.4,0.2,0.5
		s0.2,0.2,0.4,0.2c0.1,0,0.2,0,0.3-0.1c0.1-0.1,0.2-0.2,0.2-0.4c0.1-0.3,0.1-0.9,0.1-1.7c0-0.5,0-0.9-0.1-1.1s-0.1-0.3-0.2-0.4
		C367.7,84.8,367.6,84.7,367.5,84.7z"/>
	<path class="st0" d="M374.9,82.5v5c0,0.4,0,0.6,0,0.7c0,0.1,0.1,0.2,0.2,0.3s0.3,0.1,0.5,0.1h0.1v0.2h-3.1v-0.2h0.2
		c0.3,0,0.4,0,0.5-0.1c0.1-0.1,0.2-0.1,0.2-0.2s0.1-0.4,0.1-0.7v-3.2c0-0.3,0-0.5,0-0.5c0-0.1-0.1-0.1-0.1-0.2s-0.2-0.1-0.2-0.1
		c-0.1,0-0.3,0-0.5,0.1l-0.1-0.2l2.2-1H374.9z"/>
	<path class="st0" d="M376.8,88.9v-0.1c0.5-0.1,0.9-0.3,1.2-0.5c0.3-0.2,0.6-0.5,0.8-0.8c0.2-0.3,0.3-0.7,0.4-1.1
		c-0.2,0.1-0.3,0.2-0.5,0.2c-0.1,0-0.3,0.1-0.4,0.1c-0.5,0-0.8-0.2-1.1-0.5c-0.3-0.3-0.5-0.8-0.5-1.4c0-0.4,0.1-0.8,0.2-1.1
		s0.4-0.6,0.7-0.8c0.3-0.2,0.6-0.3,0.9-0.3c0.3,0,0.7,0.1,1,0.3c0.3,0.2,0.6,0.5,0.7,0.9c0.2,0.4,0.3,0.8,0.3,1.3
		c0,0.6-0.2,1.3-0.5,1.9s-0.7,1.1-1.3,1.4C378.3,88.7,377.6,88.9,376.8,88.9z M379.3,85.9c0-0.3,0-0.6,0-0.9c0-0.5-0.1-1.1-0.2-1.5
		c-0.1-0.3-0.2-0.5-0.3-0.6c-0.1-0.1-0.2-0.1-0.3-0.1c-0.1,0-0.3,0.1-0.3,0.2c-0.1,0.2-0.2,0.5-0.2,1c0,0.8,0.1,1.4,0.3,1.7
		c0.1,0.2,0.3,0.3,0.5,0.3C379,86.1,379.1,86,379.3,85.9z"/>
	<path class="st0" d="M381.2,86.4l2.8-3.9h0.5v3.9h0.5v0.9h-0.5v1.4h-1.2v-1.4h-2.2V86.4z M381.6,86.4h1.7V84L381.6,86.4z"/>
	<path class="st0" d="M388.6,85.3c0.4,0.3,0.7,0.6,0.9,0.9c0.2,0.3,0.2,0.6,0.2,0.9c0,0.5-0.2,0.9-0.5,1.3c-0.4,0.3-0.9,0.5-1.5,0.5
		c-0.6,0-1-0.1-1.4-0.4c-0.3-0.3-0.5-0.7-0.5-1.1c0-0.3,0.1-0.6,0.3-0.9s0.5-0.5,0.9-0.7c-0.5-0.4-0.8-0.7-0.9-0.9
		c-0.1-0.2-0.2-0.5-0.2-0.8c0-0.4,0.2-0.8,0.5-1.1s0.8-0.5,1.4-0.5c0.6,0,1,0.1,1.3,0.4c0.3,0.3,0.5,0.6,0.5,1
		c0,0.3-0.1,0.5-0.2,0.8S388.9,85.1,388.6,85.3z M387.4,86c-0.1,0.1-0.2,0.2-0.2,0.2c-0.1,0.1-0.1,0.3-0.2,0.5s-0.1,0.4-0.1,0.6
		c0,0.3,0,0.5,0.1,0.7s0.2,0.3,0.3,0.4c0.1,0.1,0.3,0.1,0.4,0.1c0.2,0,0.4-0.1,0.5-0.2c0.1-0.2,0.2-0.4,0.2-0.7
		C388.5,87.1,388.1,86.6,387.4,86z M388.2,85.1c0.1-0.2,0.2-0.3,0.2-0.5s0.1-0.4,0.1-0.6c0-0.4-0.1-0.7-0.2-0.9
		c-0.1-0.2-0.3-0.2-0.5-0.2c-0.2,0-0.4,0.1-0.5,0.2c-0.1,0.1-0.2,0.3-0.2,0.5c0,0.2,0.1,0.4,0.2,0.7
		C387.5,84.5,387.8,84.8,388.2,85.1z"/>
</g>
</svg>
