<?xml version="1.0" encoding="utf-8"?>
<!-- Generator: Adobe Illustrator 21.0.0, SVG Export Plug-In . SVG Version: 6.00 Build 0)  -->
<svg version="1.1" id="Layer_1" xmlns="http://www.w3.org/2000/svg" xmlns:xlink="http://www.w3.org/1999/xlink" x="0px" y="0px"
	 viewBox="0 0 149 149" style="enable-background:new 0 0 149 149;" xml:space="preserve">
<style type="text/css">
	.st0{fill:url(#SVGID_1_);}
	.st1{fill:url(#SVGID_2_);}
	.st2{fill:url(#SVGID_3_);}
</style>
<radialGradient id="SVGID_1_" cx="74.5" cy="2924.5" r="74.2" gradientTransform="matrix(1 0 0 1 0 -2850)" gradientUnits="userSpaceOnUse">
	<stop  offset="0" style="stop-color:#000000"/>
	<stop  offset="1" style="stop-color:#000000;stop-opacity:0"/>
</radialGradient>
<circle class="st0" cx="74.5" cy="74.5" r="74.2"/>
<g>
	
		<radialGradient id="SVGID_2_" cx="74.5" cy="1657.5487" r="57.5196" gradientTransform="matrix(1 0 0 1.8 0 -2909.0876)" gradientUnits="userSpaceOnUse">
		<stop  offset="0" style="stop-color:#EE9A3B"/>
		<stop  offset="1" style="stop-color:#CF740D"/>
	</radialGradient>
	<path class="st1" d="M132,74.5C132,42.7,106.3,17,74.5,17S17,42.7,17,74.5S42.7,132,74.5,132c0.3,0,0.3,0,0,0H132V74.5L132,74.5z"
		/>
	<g>
		
			<linearGradient id="SVGID_3_" gradientUnits="userSpaceOnUse" x1="37.8187" y1="2980.3938" x2="130.4125" y2="2887.8" gradientTransform="matrix(1 0 0 1 0 -2850)">
			<stop  offset="0" style="stop-color:#E6E6E6"/>
			<stop  offset="0.4359" style="stop-color:#E9E9E9"/>
			<stop  offset="0.7635" style="stop-color:#F3F3F3"/>
			<stop  offset="1" style="stop-color:#FFFFFF"/>
		</linearGradient>
		<path class="st2" d="M74.5,17c31.8,0,57.5,25.7,57.5,57.5l0,0V132H74.5c0.2,0,0.2,0,0.2,0s-0.1,0-0.2,0C42.7,132,17,106.3,17,74.5
			C17,42.7,42.8,17,74.5,17 M74.5,9C38.4,9,9,38.4,9,74.5S38.4,140,74.5,140h0.2H132h8v-8V74.8l0,0v-0.3C140,38.3,110.6,9,74.5,9
			L74.5,9z"/>
	</g>
</g>
</svg>
