<?xml version="1.0" encoding="utf-8"?>
<!-- Generator: Adobe Illustrator 21.0.0, SVG Export Plug-In . SVG Version: 6.00 Build 0)  -->
<svg version="1.1" xmlns="http://www.w3.org/2000/svg" xmlns:xlink="http://www.w3.org/1999/xlink" x="0px" y="0px"
	 viewBox="0 0 332 110" style="enable-background:new 0 0 332 110;" xml:space="preserve">
<style type="text/css">
	.st0{opacity:0.58;}
	.st1{fill:#204180;}
	.st2{opacity:0.5;}
	.st3{fill:#FFFFFF;}
</style>
<g id="Layer_1">
</g>
<g id="Layer_4">
</g>
<g id="Layer_5" class="st0">
</g>
<g id="Layer_3">
	<g>
		<path class="st1" d="M53.4,104.6c-28.2,0-51.1-22.9-51.1-51.1S25.3,2.4,53.4,2.4h223.1c28.2,0,51.1,22.9,51.1,51.1
			s-22.9,51.1-51.1,51.1H53.4z"/>
		<path class="st2" d="M55.4,33.5v4.3c9.9,0,18,8.1,18,18h4.3C77.7,43.5,67.7,33.5,55.4,33.5L55.4,33.5z M85.1,55.9h-4.3
			c0-14-11.4-25.5-25.5-25.5v-4.3C71.8,26.1,85.1,39.5,85.1,55.9L85.1,55.9z M54.5,13.3c-23.3,0-42.2,18.9-42.2,42.2
			s18.9,42.2,42.2,42.2c1.4,0,2.6-1.2,2.6-2.6c0-1.4-1.2-2.6-2.6-2.6c-20.4,0-37-16.6-37-37s16.6-37,37-37s37,16.6,37,37
			c0,8.5-4.5,17-11,20.5c-2.4,1.3-4.9,1.9-7.6,2c1.6-1,3.1-2.3,4.1-3.9c0.2-0.3,0.5-0.6,0.6-0.9c0.8-2,0.9-4.4,1.4-6.5
			c0.6-2.7-12-8.1-13.1-4.7c-0.4,1.3-1,5.3-1.8,6.3c-0.7,0.9-2.5,0.5-3.5-0.4c-2.9-2.5-6.1-6.1-8.9-8.9c-0.1-0.1-0.2-0.2-0.2-0.2
			c-0.1-0.1-0.2-0.2-0.2-0.2c-2.8-2.8-6.5-6-8.9-8.9c-0.9-1.1-1.4-2.8-0.4-3.5c1.1-0.8,5.1-1.4,6.3-1.8c3.4-1.1-1.9-13.8-4.7-13.1
			c-2.1,0.5-4.5,0.6-6.5,1.4c-0.4,0.2-0.6,0.4-0.9,0.6c-7.2,4.6-8.2,15.7-1.1,24c2.7,3.2,5.5,6.2,8.4,9.2l0,0
			c0.1,0.1,0.2,0.2,0.2,0.2c0.1,0.1,0.2,0.2,0.2,0.2l0,0c3,2.9,6.5,7.1,12.3,11c12.2,8.1,21.5,5.8,26.9,2.8
			c9.5-5.2,13.7-16.4,13.7-25.1C96.7,32.2,77.8,13.3,54.5,13.3L54.5,13.3z"/>
		<path class="st2" d="M128.7,78.6c0,0.9,0.2,1.6,0.6,2.3c0.4,0.6,1.4,1.1,2.8,1.3c1.5,0.3,2.4,0.6,2.7,0.9c0.3,0.4,0.5,0.8,0.5,1.3
			c0,0.5-0.2,0.9-0.7,1.2c-0.5,0.4-1.1,0.5-1.9,0.5c-0.5,0-1.5-0.1-3.1-0.3c-1.6-0.2-3.2-0.3-4.7-0.3c-2.4,0-4.2,0.1-5.4,0.3
			c-1.2,0.2-2,0.3-2.2,0.3c-1.8,0-2.7-0.8-2.7-2.4c0-0.4,0.1-0.8,0.4-1c0.3-0.3,1.1-0.5,2.6-0.7c1.4-0.2,2.4-0.6,2.9-1.3
			c0.5-0.7,0.7-1.6,0.7-2.6l0.1-39c0-0.9-0.2-1.7-0.7-2.2c-0.5-0.5-0.9-0.7-1.3-0.7c-0.6,0-1.4,0.4-2.5,1.2
			c-1.1,0.8-1.9,1.2-2.4,1.2c-1.3,0-1.9-0.7-1.9-2c0-0.5,0.4-1.1,1.3-1.8c0.9-0.7,2.5-1.9,4.8-3.4l4.9-3.4c2.2-1.5,3.7-2.5,4.4-2.9
			c0.7-0.4,1.3-0.6,1.9-0.6c0.9,0,1.4,0.5,1.4,1.4c0,0.7-0.3,1.4-0.9,2.3c-1,1.6-1.6,3.4-1.6,5.4l0.2,33.4L128.7,78.6z"/>
		<path class="st2" d="M159.4,45.4c4.9-2,7.4-5,7.4-8.9c0-2.2-0.8-4.2-2.4-5.8c-1.6-1.6-3.5-2.4-5.7-2.4c-2.4,0-4.3,0.8-5.9,2.3
			c-1.5,1.5-2.3,3.4-2.3,5.6C150.5,40.4,153.5,43.5,159.4,45.4z M166.2,48.2l0.4,0.4c4.3,2.9,7.4,5.8,9.2,8.6
			c1.8,2.9,2.7,6.4,2.7,10.5c0,5.7-1.9,10.2-5.7,13.6c-3.8,3.4-8.6,5.1-14.3,5.1c-5.3,0-9.9-1.7-14-5.2c-4-3.5-6-8-6-13.4
			c0-2.8,0.8-5.6,2.5-8.3c1.7-2.7,4.4-5.5,8.1-8.5c0.3-0.3,0.5-0.5,0.5-0.6c0-0.2-0.2-0.4-0.5-0.7c-2.4-2.1-4.1-4.1-5-5.9
			c-0.9-1.8-1.4-3.9-1.4-6.1c0-4.1,1.5-7.4,4.6-9.9c3-2.5,6.7-3.8,10.9-3.8c4.4,0,7.9,1.2,10.5,3.6c2.6,2.4,3.9,5.7,3.9,10.1
			c0,1.7-0.4,3.3-1.1,4.8c-0.7,1.4-2.4,3.2-4.9,5.3L166.2,48.2z M155.1,53.6c-4.4,2.6-7.4,5.1-9.1,7.4c-1.7,2.3-2.6,4.8-2.6,7.4
			c0,4,1.4,7.3,4.1,9.8c2.7,2.5,6,3.8,9.7,3.8c2.8,0,5.6-1.2,8.5-3.7c2.8-2.4,4.2-5.5,4.2-9.2c0-4-1.6-7.4-4.7-10.1
			c-1.8-1.5-3.9-2.8-6.2-3.8C156.6,54.3,155.3,53.7,155.1,53.6z"/>
		<path class="st2" d="M201.9,82.8c3.8,0,6.8-2.5,8.9-7.4c2.1-4.9,3.2-12,3.2-21.1c0-8-1.1-14.3-3.2-18.9c-2.1-4.7-4.9-7-8.4-7
			c-3.6,0-6.6,2.8-8.8,8.5c-2.2,5.7-3.4,12.5-3.4,20.4c0,7.1,1,13.1,3.1,18.1C195.4,80.3,198.3,82.8,201.9,82.8z M202.7,24.1
			c3.1,0,6.2,1.2,9.5,3.7c3.2,2.5,5.8,6.1,7.8,11c1.9,4.9,2.9,10.8,2.9,17.7c0,9.2-2,16.5-6.1,22c-4,5.5-9,8.3-14.8,8.3
			c-3.3,0-6.7-1.1-10-3.4c-3.3-2.2-6-5.7-7.9-10.4c-2-4.7-3-10.7-3-18c0-8.5,2-15.8,5.9-21.9C191,27.2,196.2,24.1,202.7,24.1z"/>
		<path class="st2" d="M246.2,82.8c3.8,0,6.8-2.5,8.9-7.4c2.1-4.9,3.2-12,3.2-21.1c0-8-1.1-14.3-3.2-18.9c-2.1-4.7-4.9-7-8.4-7
			c-3.6,0-6.6,2.8-8.8,8.5c-2.2,5.7-3.4,12.5-3.4,20.4c0,7.1,1,13.1,3.1,18.1C239.7,80.3,242.6,82.8,246.2,82.8z M247,24.1
			c3.1,0,6.2,1.2,9.5,3.7c3.2,2.5,5.8,6.1,7.8,11c1.9,4.9,2.9,10.8,2.9,17.7c0,9.2-2,16.5-6.1,22c-4,5.5-9,8.3-14.8,8.3
			c-3.3,0-6.7-1.1-10-3.4c-3.3-2.2-6-5.7-7.9-10.4c-2-4.7-3-10.7-3-18c0-8.5,2-15.8,5.9-21.9C235.2,27.2,240.5,24.1,247,24.1z"/>
		<path class="st2" d="M290.5,82.8c3.8,0,6.8-2.5,8.9-7.4c2.1-4.9,3.2-12,3.2-21.1c0-8-1.1-14.3-3.2-18.9c-2.1-4.7-4.9-7-8.4-7
			c-3.6,0-6.6,2.8-8.8,8.5c-2.2,5.7-3.4,12.5-3.4,20.4c0,7.1,1,13.1,3.1,18.1C284,80.3,286.8,82.8,290.5,82.8z M291.3,24.1
			c3.1,0,6.2,1.2,9.5,3.7c3.2,2.5,5.8,6.1,7.8,11c1.9,4.9,2.9,10.8,2.9,17.7c0,9.2-2,16.5-6.1,22c-4,5.5-9,8.3-14.8,8.3
			c-3.3,0-6.7-1.1-10-3.4c-3.3-2.2-6-5.7-7.9-10.4c-2-4.7-3-10.7-3-18c0-8.5,2-15.8,5.9-21.9C279.5,27.2,284.7,24.1,291.3,24.1z"/>
		<path class="st2" d="M278.6,7.4c27.1,0,49.1,22,49.1,49.1s-22,49.1-49.1,49.1H55.4c-27.1,0-49.1-22-49.1-49.1s22-49.1,49.1-49.1
			H278.6 M278.6,3.4H55.4C26.2,3.4,2.4,27.2,2.4,56.5s23.8,53.1,53.1,53.1h223.1c29.3,0,53.1-23.8,53.1-53.1S307.8,3.4,278.6,3.4
			L278.6,3.4z"/>
		<path class="st3" d="M53.4,30.5v4.3c9.9,0,18,8.1,18,18h4.3C75.7,40.5,65.7,30.5,53.4,30.5L53.4,30.5z M83.1,52.9h-4.3
			c0-14-11.4-25.5-25.5-25.5v-4.3C69.8,23.1,83.1,36.5,83.1,52.9L83.1,52.9z M52.5,10.3c-23.3,0-42.2,18.9-42.2,42.2
			s18.9,42.2,42.2,42.2c1.4,0,2.6-1.2,2.6-2.6c0-1.4-1.2-2.6-2.6-2.6c-20.4,0-37-16.6-37-37s16.6-37,37-37s37,16.6,37,37
			c0,8.5-4.5,17-11,20.5c-2.4,1.3-4.9,1.9-7.6,2c1.6-1,3.1-2.3,4.1-3.9c0.2-0.3,0.5-0.6,0.6-0.9c0.8-2,0.9-4.4,1.4-6.5
			c0.6-2.7-12-8.1-13.1-4.7c-0.4,1.3-1,5.3-1.8,6.3c-0.7,0.9-2.5,0.5-3.5-0.4c-2.9-2.5-6.1-6.1-8.9-8.9c-0.1-0.1-0.2-0.2-0.2-0.2
			c-0.1-0.1-0.2-0.2-0.2-0.2c-2.8-2.8-6.5-6-8.9-8.9c-0.9-1.1-1.4-2.8-0.4-3.5c1.1-0.8,5.1-1.4,6.3-1.8c3.4-1.1-1.9-13.8-4.7-13.1
			c-2.1,0.5-4.5,0.6-6.5,1.4c-0.4,0.2-0.6,0.4-0.9,0.6c-7.2,4.6-8.2,15.7-1.1,24c2.7,3.2,5.5,6.2,8.4,9.2l0,0
			c0.1,0.1,0.2,0.2,0.2,0.2c0.1,0.1,0.2,0.2,0.2,0.2l0,0c3,2.9,6.5,7.1,12.3,11c12.2,8.1,21.5,5.8,26.9,2.8
			c9.5-5.2,13.7-16.4,13.7-25.1C94.7,29.2,75.8,10.3,52.5,10.3L52.5,10.3z"/>
		<path class="st3" d="M126.7,75.6c0,0.9,0.2,1.6,0.6,2.3c0.4,0.6,1.4,1.1,2.8,1.3c1.5,0.3,2.4,0.6,2.7,0.9c0.3,0.4,0.5,0.8,0.5,1.3
			c0,0.5-0.2,0.9-0.7,1.2c-0.5,0.4-1.1,0.5-1.9,0.5c-0.5,0-1.5-0.1-3.1-0.3c-1.6-0.2-3.2-0.3-4.7-0.3c-2.4,0-4.2,0.1-5.4,0.3
			c-1.2,0.2-2,0.3-2.2,0.3c-1.8,0-2.7-0.8-2.7-2.4c0-0.4,0.1-0.8,0.4-1c0.3-0.3,1.1-0.5,2.6-0.7c1.4-0.2,2.4-0.6,2.9-1.3
			c0.5-0.7,0.7-1.6,0.7-2.6l0.1-39c0-0.9-0.2-1.7-0.7-2.2c-0.5-0.5-0.9-0.7-1.3-0.7c-0.6,0-1.4,0.4-2.5,1.2
			c-1.1,0.8-1.9,1.2-2.4,1.2c-1.3,0-1.9-0.7-1.9-2c0-0.5,0.4-1.1,1.3-1.8c0.9-0.7,2.5-1.9,4.8-3.4l4.9-3.4c2.2-1.5,3.7-2.5,4.4-2.9
			c0.7-0.4,1.3-0.6,1.9-0.6c0.9,0,1.4,0.5,1.4,1.4c0,0.7-0.3,1.4-0.9,2.3c-1,1.6-1.6,3.4-1.6,5.4l0.2,33.4L126.7,75.6z"/>
		<path class="st3" d="M157.4,42.4c4.9-2,7.4-5,7.4-8.9c0-2.2-0.8-4.2-2.4-5.8c-1.6-1.6-3.5-2.4-5.7-2.4c-2.4,0-4.3,0.8-5.9,2.3
			c-1.5,1.5-2.3,3.4-2.3,5.6C148.5,37.4,151.5,40.5,157.4,42.4z M164.2,45.2l0.4,0.4c4.3,2.9,7.4,5.8,9.2,8.6
			c1.8,2.9,2.7,6.4,2.7,10.5c0,5.7-1.9,10.2-5.7,13.6c-3.8,3.4-8.6,5.1-14.3,5.1c-5.3,0-9.9-1.7-14-5.2c-4-3.5-6-8-6-13.4
			c0-2.8,0.8-5.6,2.5-8.3c1.7-2.7,4.4-5.5,8.1-8.5c0.3-0.3,0.5-0.5,0.5-0.6c0-0.2-0.2-0.4-0.5-0.7c-2.4-2.1-4.1-4.1-5-5.9
			c-0.9-1.8-1.4-3.9-1.4-6.1c0-4.1,1.5-7.4,4.6-9.9c3-2.5,6.7-3.8,10.9-3.8c4.4,0,7.9,1.2,10.5,3.6c2.6,2.4,3.9,5.7,3.9,10.1
			c0,1.7-0.4,3.3-1.1,4.8c-0.7,1.4-2.4,3.2-4.9,5.3L164.2,45.2z M153.1,50.6c-4.4,2.6-7.4,5.1-9.1,7.4c-1.7,2.3-2.6,4.8-2.6,7.4
			c0,4,1.4,7.3,4.1,9.8c2.7,2.5,6,3.8,9.7,3.8c2.8,0,5.6-1.2,8.5-3.7c2.8-2.4,4.2-5.5,4.2-9.2c0-4-1.6-7.4-4.7-10.1
			c-1.8-1.5-3.9-2.8-6.2-3.8C154.6,51.3,153.3,50.7,153.1,50.6z"/>
		<path class="st3" d="M199.9,79.8c3.8,0,6.8-2.5,8.9-7.4c2.1-4.9,3.2-12,3.2-21.1c0-8-1.1-14.3-3.2-18.9c-2.1-4.7-4.9-7-8.4-7
			c-3.6,0-6.6,2.8-8.8,8.5c-2.2,5.7-3.4,12.5-3.4,20.4c0,7.1,1,13.1,3.1,18.1C193.4,77.3,196.3,79.8,199.9,79.8z M200.7,21.1
			c3.1,0,6.2,1.2,9.5,3.7c3.2,2.5,5.8,6.1,7.8,11c1.9,4.9,2.9,10.8,2.9,17.7c0,9.2-2,16.5-6.1,22c-4,5.5-9,8.3-14.8,8.3
			c-3.3,0-6.7-1.1-10-3.4c-3.3-2.2-6-5.7-7.9-10.4c-2-4.7-3-10.7-3-18c0-8.5,2-15.8,5.9-21.9C189,24.2,194.2,21.1,200.7,21.1z"/>
		<path class="st3" d="M244.2,79.8c3.8,0,6.8-2.5,8.9-7.4c2.1-4.9,3.2-12,3.2-21.1c0-8-1.1-14.3-3.2-18.9c-2.1-4.7-4.9-7-8.4-7
			c-3.6,0-6.6,2.8-8.8,8.5c-2.2,5.7-3.4,12.5-3.4,20.4c0,7.1,1,13.1,3.1,18.1C237.7,77.3,240.6,79.8,244.2,79.8z M245,21.1
			c3.1,0,6.2,1.2,9.5,3.7c3.2,2.5,5.8,6.1,7.8,11c1.9,4.9,2.9,10.8,2.9,17.7c0,9.2-2,16.5-6.1,22c-4,5.5-9,8.3-14.8,8.3
			c-3.3,0-6.7-1.1-10-3.4c-3.3-2.2-6-5.7-7.9-10.4c-2-4.7-3-10.7-3-18c0-8.5,2-15.8,5.9-21.9C233.2,24.2,238.5,21.1,245,21.1z"/>
		<path class="st3" d="M288.5,79.8c3.8,0,6.8-2.5,8.9-7.4c2.1-4.9,3.2-12,3.2-21.1c0-8-1.1-14.3-3.2-18.9c-2.1-4.7-4.9-7-8.4-7
			c-3.6,0-6.6,2.8-8.8,8.5c-2.2,5.7-3.4,12.5-3.4,20.4c0,7.1,1,13.1,3.1,18.1C282,77.3,284.8,79.8,288.5,79.8z M289.3,21.1
			c3.1,0,6.2,1.2,9.5,3.7c3.2,2.5,5.8,6.1,7.8,11c1.9,4.9,2.9,10.8,2.9,17.7c0,9.2-2,16.5-6.1,22c-4,5.5-9,8.3-14.8,8.3
			c-3.3,0-6.7-1.1-10-3.4c-3.3-2.2-6-5.7-7.9-10.4c-2-4.7-3-10.7-3-18c0-8.5,2-15.8,5.9-21.9C277.5,24.2,282.7,21.1,289.3,21.1z"/>
		<path class="st3" d="M276.6,4.4c27.1,0,49.1,22,49.1,49.1s-22,49.1-49.1,49.1H53.4c-27.1,0-49.1-22-49.1-49.1s22-49.1,49.1-49.1
			H276.6 M276.6,0.4H53.4C24.2,0.4,0.4,24.2,0.4,53.5s23.8,53.1,53.1,53.1h223.1c29.3,0,53.1-23.8,53.1-53.1S305.8,0.4,276.6,0.4
			L276.6,0.4z"/>
	</g>
</g>
</svg>
