<svg id="Layer_1" data-name="Layer 1" xmlns="http://www.w3.org/2000/svg" viewBox="0 0 379.04 379.64"><defs><style>.cls-1{fill:#f5f5f5;}.cls-2{fill:none;}</style></defs><title>logo-skirou-SVG</title><path class="cls-1" d="M435.71,250.65c3.86,101.77-86.65,190.91-190.24,189.75C148,439.31,56.58,361.73,56.79,251,57,143.69,139.36,60.91,247.11,60.77,359.3,60.63,438.81,153.84,435.71,250.65Zm-373.9.51c.09,101.32,83.11,184.4,184.37,184.52,103.11.12,186.06-82.81,185.37-186.69-.67-101.6-83-183.2-185.57-183.12C144.47,66,61.72,149.33,61.81,251.16Z" transform="translate(-56.79 -60.77)"/><path class="cls-2" d="M61.81,251.16C61.72,149.33,144.47,66,246,65.88,348.53,65.79,430.88,147.39,431.56,249c.69,103.87-82.26,186.81-185.37,186.69C144.92,435.56,61.9,352.48,61.81,251.16ZM376,251.7c.56-70.76-57-129.46-127.52-130.11-71.75-.66-128.72,56.16-130.75,125.12C115.56,319.88,174,379.08,244.86,379.87,316.91,380.67,375.41,323.27,376,251.7Zm12.93-13.63c4.92,1.38,9.55,3.42,14.33,3.83,5.53.48,10.05-2.56,13.28-7.14,4.68-6.64,4.2-17.56-1.82-23.46-11.23-11-21-6.21-29.69,4.48a10.32,10.32,0,0,0-.91-2.28c-1-1.2-2.18-2.32-3.27-3.48-.49,1.45-1.36,2.91-1.36,4.36a19,19,0,0,0,1.1,6.06c.53,1.55,1.88,4.18,2.52,4.08a9.43,9.43,0,0,0,5-2.78c1.51-1.59,2.2-3.92,3.57-5.68,4.5-5.79,12.16-7.06,17.42-3.05s7,13.53,3.13,18.75-11.82,6.5-17.69,2.55c-2-1.35-3.58-3.38-5.64-4.61a6.9,6.9,0,0,0-4.63-.61c-.82.18-1.93,2-1.83,2.92a66.33,66.33,0,0,0,1.82,9.94c.19.74,1.76,1.8,2.35,1.61a4.28,4.28,0,0,0,2.47-2.36C389.43,240.15,389,238.79,388.9,238.07ZM80.46,208.41l-.17,1.6c9.41,4,18.78,8.07,28.28,11.86,1.28.51,3.16-.5,4.77-.8-1.06-1.23-1.87-3-3.21-3.61-5.13-2.49-10.44-4.63-17.34-7.62l23.38-8.07-11.72-19,.95-1.06c5.2,2.32,10.34,4.81,15.65,6.85,1.47.57,3.46-.21,5.2-.36-1-1.33-1.79-3.23-3.14-3.88-9-4.3-18.06-8.34-27.13-12.42-1.22-.55-2.56-.84-5.39-1.75l18.09,29Zm343,47.48-.82-1.56h-8.29c-7.68,0-15.37-.14-23.05.12-1.36,0-2.66,1.71-4,2.63,1.24.8,2.4,2,3.76,2.31,1.58.4,3.35.1,5,.1H410.3l.44,1.52-28.65,26.81.66,1.57c9.47,0,18.94.15,28.4-.09,2.77-.07,6.54,1.9,8.08-2.53-2.62-.77-5.21-2-7.87-2.21-5.41-.35-10.87-.1-16.3-.1l-.33-1.64ZM129.07,170.35c10.92,0,19.29-7,19.21-16.22s-9.42-17.22-20.08-17.17-19.33,7.42-19.22,16.39C109.09,162.8,118,170.32,129.07,170.35ZM107.49,278.64l-33,27.25.55,1.5H119.4ZM389.73,158.23c-.67-7.68-6-14.23-11.87-20.31-.67-.69-3.56-.21-4.69.67-7.08,5.53-14,11.26-20.84,17.1-1,.86-1.22,2.66-1.79,4,1.45.07,3.41.78,4.26.1,2.7-2.16,4.18-1.05,6.05,1.08,4.48,5.1,10,8.45,16.95,8.94C384.93,170.36,389.69,166.12,389.73,158.23ZM91.3,267.39v0c3.56,0,7.14.24,10.67-.08,2.78-.25,6.69,2,7.62-2.68.05-.27-4.84-1.47-7.42-2.31-1.93-.63-5.4-1.24-5.47-2.09-.48-5.74-.82-11.66.21-17.25.22-1.21,6.2-1.36,9.53-2,.18,0,.44,0,.55-.07,1-.89,1.95-1.81,2.92-2.73-1.1-.75-2.19-2.13-3.31-2.16q-11.79-.3-23.59,0c-1.08,0-2.12,1.48-3.18,2.27,1,.89,1.87,2.34,3,2.58,8.24,1.74,8.25,1.66,8.43,10,0,2.06,0,4.13.23,6.17.35,3.75-.92,5.71-5,5.32a27.85,27.85,0,0,0-7.28.07c-2.09.36-4,1.52-6.06,2.32,2.12.89,4.19,2.32,6.38,2.56A110.08,110.08,0,0,0,91.3,267.39Zm78.81-138.24L169,128l9.74-14.51L178,112.4l-18.42,5.14c2.75-4.76,4.76-7.86,6.31-11.18.47-1-.35-2.61-.58-3.93-1,.18-2.6,0-2.94.59-4.18,7-8.18,14.09-12.22,21.16l1,1.19,16.28-4.49-10.65,15.86a163.93,163.93,0,0,0,26-6.13c1-.31,1.54-2.07,2.3-3.15-1.24-.52-2.61-1.68-3.7-1.45C177.55,126.79,173.85,128.06,170.11,129.15Zm58.08-25.59-.09,1.61c7.64,2.89,15.24,5.9,23,8.57,1.38.48,3.23-.43,4.86-.69-1.16-1.33-2.07-3.12-3.52-3.89-3.11-1.65-6.51-2.77-11.2-4.68L261,97.1,241.65,90c4.57-2.23,7.64-3.49,10.42-5.2,1.28-.79,2-2.47,3-3.75-1.77-.14-3.69-.78-5.29-.32a60.18,60.18,0,0,0-8.26,3.53c-3.94,1.81-7.86,3.69-11.78,5.54l.33,1.53,13.85,5,.09,1.4Zm58.79-3c1-4.33,1.89-7.2,2.16-10.12.14-1.49-.9-3.08-1.41-4.62-1.14,1.17-3,2.18-3.31,3.55q-2.57,10.37-4.4,20.91c-.32,1.87.59,4,.94,5.94,1.32-1.5,2.63-3,4-4.48a8.74,8.74,0,0,1,1.62-.91c3.19,3.57,6.36,7.42,9.89,10.93,1.2,1.2,3.27,1.53,4.95,2.25-.47-1.85-.55-3.93-1.49-5.5-1.23-2.06-3.14-3.71-4.73-5.55-2-2.27-3.88-4.55-6.36-7.48,2.37-.61,3.42-.93,4.48-1.15,6.25-1.27,12.54-2.38,18.73-3.87,1.17-.28,2-2,3-3.11-1.23-.58-2.43-1.56-3.69-1.64a19.75,19.75,0,0,0-5,.83C300.34,97.82,294.34,99.07,287,100.6Zm50.81,30a31.55,31.55,0,0,1-.65-3.87c0-7.13.12-14.27-.15-21.39-.06-1.68-1.49-3.32-2.29-5-.88,1.72-2.45,3.42-2.52,5.18-.27,7.5-.26,15,0,22.52.12,3.71-1,6-4.61,7.27-1.36.5-2.2,2.45-3.27,3.73,1.77.23,3.83,1.17,5.25.58,9-3.74,17.91-7.73,26.73-11.87,1.38-.65,2.22-2.46,3.31-3.73-1.76-.24-3.77-1.16-5.23-.61C349,125.44,343.77,127.95,337.79,130.59ZM404.58,182l-.26-2.06c-1.65,0-3.57-.55-4.91.09q-11.62,5.56-23,11.7c-1.23.67-1.74,2.65-2.58,4,1.63.1,3.56.81,4.85.2,7.59-3.6,15-7.48,22.5-11.35A23.05,23.05,0,0,0,404.58,182Z" transform="translate(-56.79 -60.77)"/><path class="cls-1" d="M376,251.7c-.56,71.57-59.07,129-131.11,128.17-70.91-.79-129.3-60-127.15-133.15,2-69,59-125.78,130.75-125.12C319,122.24,376.53,180.94,376,251.7ZM203.3,244.91c6.08-10.38,9.75-21.35,7.75-33.57-.16-1-1.51-2.47-2.27-2.45-3.17.08-6.32.66-11.15,1.26L210,223.51c-2.15-.54-3.41-.52-4.2-1.12-3.6-2.76-6.9-6-10.68-8.43-1.23-.81-4.61-.55-5.27.41-1.8,2.64-3.52,5.84-3.77,8.94-.88,11.05,7.15,18,12.57,27.2a18.79,18.79,0,0,0,1.4-3.06c.3-1.63.45-3.29.64-4.77l2.78,2.12c-.78,1.85-1.66,3.67-2.3,5.57-.43,1.28-1.21,3.12-.67,3.95,5.14,7.8,9.93,16,16,23s20,6.05,21.67-5a18.2,18.2,0,0,1,1.56-4.21c1.53-3.56.52-5.63-2.93-7.74-5.62-3.44-10.72-7.71-17.06-12.39,6.52-1.46,10.71-.64,14.37,3.48,1.83,2.06,4.53,3.34,6.84,5a54,54,0,0,1-.1-7.8c.34-2.78.48-6.54,2.24-7.94s6.16-1.7,8.18-.48,2.6,4.85,3.32,7.57c.89,3.31,1.22,6.76,1.87,10.14.24,1.27.9,2.49,1,3.76.83,8.63,3.86,11.39,12.56,9.4a78,78,0,0,0,20-7.18c11-6,20.58-13.94,26.3-25.45,1.2-2.42,1.91-6.43.69-8.3-1.11-1.7-5.12-1.79-7.91-2-2.63-.23-5.33.25-8,.42L300,226.66c2.69-2.8,5-6.2,8.14-8.29,10.39-6.85,22-8.37,34-5.91,2.31.47,5.85,3.5,5.8,5.25-.12,3.9-4,4.53-7.33,3.92-5.08-.91-7.23,1.41-9.09,6-4.89,12-9.74,24-15.86,35.39-11.79,21.85-29,37.8-53.78,43.73-8,1.91-16.32,2.25-24.47,3.48-3,.45-5.91,1.43-8.85,2.17l.28,2.09c1.91.39,3.83,1.14,5.73,1.1,9.75-.21,19.59.08,29.23-1.15,10.14-1.3,20-5.19,30.12-6,14.91-1.26,30-1,44.94-.92,2.48,0,4.94,2.65,7.41,4.07-1.42,2.3-2.38,5.14-4.34,6.8-7.89,6.65-17.35,9.56-27.51,10.19q-74.5,4.62-149,9.14c-2.3.14-4.59.52-6.86.78.14,1.14.06,1.61.26,1.84a29.27,29.27,0,0,0,2.34,2.41,123.35,123.35,0,0,0,59.16,30.8c63.05,13.31,125.54-22.13,145.76-82.82,25.11-75.4-24.7-154.39-103.76-164.53-59.89-7.68-117.55,29.24-135.38,86.81-6.34,20.46-7.72,41.26-3.24,62.28.34,1.59,2.17,3.84,3.51,4,1.85.2,5-.74,5.69-2.14,8.73-17.22,17.31-34.52,25.49-52,2.85-6.09,1.44-7.75-5.38-8.75-3.32-.49-6.66-.87-10.64-1.39,1.07-1.45,1.31-2.06,1.74-2.3a27.35,27.35,0,0,1,3.57-1.66c16.3-6.27,33.32-9,50.66-9.61,10.68-.38,21.39-.12,32.09.15,1.73,0,3.43,1.64,5.14,2.52-1.68,1.2-3.22,3.05-5.08,3.47-3.82.86-7.85.74-11.71,1.45-1.53.28-3.75,1.43-4.09,2.62-.89,3.14-1,6.53-1.29,9.83C212.51,230.3,210.27,238.62,203.3,244.91Zm-35.62-8.25c-13.45,11.68-21.15,27.75-32.45,41.68C153.05,280.43,168.08,251.49,167.68,236.66Zm22.18,13.65c-4.46,5.8-5.36,19.21-1.92,24.49a5.5,5.5,0,0,0,3,2.29c6.48,1.48,13,2.73,19.52,4.06l.85-1.15ZM144,260.17l1.32.86q4.39-6.23,8.79-12.46c3.89-5.49,7.94-10.88,11.57-16.54.76-1.18,0-3.35-.07-5.06-1.27.39-3.23.39-3.71,1.24C155.84,238.79,150,249.49,144,260.17Zm31.69-50.79c-2.39,3.19-4.69,5.22-5.37,7.7-.26.93,3.24,2.89,5,4.38,1.45-2.37,3.25-4.62,4.16-7.18C179.82,213.48,177.71,211.83,175.72,209.38Z" transform="translate(-56.79 -60.77)"/><path class="cls-1" d="M388.9,238.07c.06.72.53,2.08.16,3.15a4.28,4.28,0,0,1-2.47,2.36c-.59.18-2.16-.87-2.35-1.61a66.33,66.33,0,0,1-1.82-9.94c-.09-1,1-2.73,1.83-2.92a6.9,6.9,0,0,1,4.63.61c2.07,1.22,3.64,3.26,5.64,4.61,5.87,3.94,13.81,2.72,17.69-2.55s2.26-14.64-3.13-18.75-12.92-2.73-17.42,3.05c-1.37,1.76-2.07,4.09-3.57,5.68a9.43,9.43,0,0,1-5,2.78c-.63.1-2-2.53-2.52-4.08a19,19,0,0,1-1.1-6.06c0-1.45.88-2.91,1.36-4.36,1.1,1.15,2.23,2.27,3.27,3.48a10.32,10.32,0,0,1,.91,2.28c8.71-10.69,18.46-15.48,29.69-4.48,6,5.9,6.49,16.82,1.82,23.46-3.23,4.58-7.75,7.62-13.28,7.14C398.45,241.49,393.82,239.45,388.9,238.07Z" transform="translate(-56.79 -60.77)"/><path class="cls-1" d="M80.46,208.41l28.19-9.3-18.09-29c2.83.91,4.17,1.2,5.39,1.75,9.07,4.08,18.16,8.12,27.13,12.42,1.36.65,2.11,2.56,3.14,3.88-1.75.16-3.73.93-5.2.36-5.31-2-10.44-4.53-15.65-6.85l-.95,1.06,11.72,19-23.38,8.07c6.9,3,12.2,5.13,17.34,7.62,1.34.65,2.15,2.38,3.21,3.61-1.6.31-3.49,1.31-4.77.8C99.07,218.09,89.7,214,80.29,210Z" transform="translate(-56.79 -60.77)"/><path class="cls-1" d="M423.5,255.89,394.73,282.8l.33,1.64c5.44,0,10.89-.24,16.3.1,2.66.17,5.25,1.44,7.87,2.21-1.54,4.42-5.31,2.46-8.08,2.53-9.46.25-18.93.09-28.4.09l-.66-1.57L410.73,261l-.44-1.52H396.14c-1.69,0-3.45.31-5-.1-1.36-.35-2.51-1.51-3.76-2.31,1.33-.92,2.63-2.58,4-2.63,7.68-.26,15.37-.12,23.05-.12h8.29Z" transform="translate(-56.79 -60.77)"/><path class="cls-1" d="M129.07,170.35c-11.09,0-20-7.55-20.09-17-.11-9,8.52-16.34,19.22-16.39s20,7.94,20.08,17.17S140,170.38,129.07,170.35ZM128.15,142c-7.76-.09-14.31,5.08-14.27,11.26,0,6.6,7.24,12.29,15.52,12.3,7.74,0,14-5.21,14-11.62S136.29,142.1,128.15,142Z" transform="translate(-56.79 -60.77)"/><path class="cls-1" d="M107.49,278.64,119.4,307.4H75l-.55-1.5Zm4.5,24-6.57-15.87L87.89,301.19l.63,1.43Z" transform="translate(-56.79 -60.77)"/><path class="cls-1" d="M389.73,158.23c0,7.89-4.79,12.12-11.92,11.61-6.9-.49-12.47-3.84-16.95-8.94-1.87-2.13-3.35-3.23-6.05-1.08-.85.68-2.81,0-4.26-.1.58-1.37.78-3.17,1.79-4,6.83-5.84,13.75-11.57,20.84-17.1,1.13-.88,4-1.37,4.69-.67C383.77,144,389.06,150.56,389.73,158.23Zm-12.79,7.92c5.72-.87,8.52-3.66,7.55-8.43a27.37,27.37,0,0,0-3.1-7.78c-4.11-7.3-5.35-7.46-11.64-2.23-1.88,1.56-4,2.85-5.59,4.69-.78.93-1.13,3.62-.54,4.09C367.89,159.92,372.46,163,376.93,166.15Z" transform="translate(-56.79 -60.77)"/><path class="cls-1" d="M91.3,267.39a110.08,110.08,0,0,1-11.78-.12c-2.19-.24-4.26-1.66-6.38-2.56,2-.81,4-2,6.06-2.32a27.85,27.85,0,0,1,7.28-.07c4.11.39,5.38-1.57,5-5.32-.19-2-.18-4.11-.23-6.17-.18-8.38-.2-8.3-8.43-10-1.13-.24-2-1.69-3-2.58,1.06-.79,2.1-2.25,3.18-2.27q11.79-.28,23.59,0c1.12,0,2.2,1.4,3.31,2.16-1,.91-1.93,1.83-2.92,2.73-.11.1-.36,0-.55.07-3.33.63-9.3.78-9.53,2-1,5.6-.7,11.51-.21,17.25.07.85,3.54,1.46,5.47,2.09,2.57.84,7.47,2,7.42,2.31-.93,4.69-4.84,2.43-7.62,2.68-3.53.32-7.11.08-10.67.08Z" transform="translate(-56.79 -60.77)"/><path class="cls-1" d="M170.11,129.15c3.74-1.09,7.43-2.35,11.23-3.14,1.08-.23,2.46.93,3.7,1.45-.76,1.09-1.3,2.85-2.3,3.15a163.93,163.93,0,0,1-26,6.13l10.65-15.86-16.28,4.49-1-1.19c4-7.07,8-14.17,12.22-21.16.34-.58,1.93-.41,2.94-.59.23,1.33,1,2.93.58,3.93-1.55,3.32-3.57,6.42-6.31,11.18L178,112.4l.73,1.06L169,128Z" transform="translate(-56.79 -60.77)"/><path class="cls-1" d="M228.19,103.55,244,97.71l-.09-1.4-13.85-5-.33-1.53c3.93-1.85,7.84-3.72,11.78-5.54a60.18,60.18,0,0,1,8.26-3.53c1.6-.46,3.52.17,5.29.32-1,1.28-1.7,3-3,3.75-2.78,1.71-5.85,3-10.42,5.2L261,97.1l-19.82,7.36c4.69,1.91,8.08,3,11.2,4.68,1.45.77,2.36,2.56,3.52,3.89-1.63.27-3.49,1.17-4.86.69-7.72-2.67-15.32-5.68-23-8.57Z" transform="translate(-56.79 -60.77)"/><path class="cls-1" d="M287,100.6c7.37-1.53,13.36-2.78,19.36-4a19.75,19.75,0,0,1,5-.83c1.26.08,2.46,1.06,3.69,1.64-1,1.07-1.8,2.83-3,3.11-6.2,1.49-12.48,2.6-18.73,3.87-1.06.22-2.11.53-4.48,1.15,2.48,2.92,4.41,5.21,6.36,7.48,1.59,1.85,3.51,3.49,4.73,5.55.94,1.57,1,3.65,1.49,5.5-1.67-.73-3.74-1.06-4.95-2.25-3.52-3.5-6.7-7.35-9.89-10.93a8.74,8.74,0,0,0-1.62.91c-1.35,1.47-2.66,3-4,4.48-.35-2-1.26-4.07-.94-5.94q1.81-10.53,4.4-20.91c.34-1.37,2.17-2.38,3.31-3.55.51,1.54,1.54,3.14,1.41,4.62C288.87,93.4,288,96.26,287,100.6Z" transform="translate(-56.79 -60.77)"/><path class="cls-1" d="M337.79,130.59c6-2.64,11.19-5.15,16.57-7.17,1.46-.55,3.47.37,5.23.61-1.09,1.27-1.93,3.09-3.31,3.73-8.83,4.14-17.73,8.13-26.73,11.87-1.43.59-3.49-.35-5.25-.58,1.07-1.29,1.91-3.24,3.27-3.73,3.63-1.32,4.73-3.57,4.61-7.27-.24-7.5-.25-15,0-22.52.06-1.75,1.64-3.45,2.52-5.18.8,1.66,2.23,3.29,2.29,5,.26,7.12.11,14.26.15,21.39A31.55,31.55,0,0,0,337.79,130.59Z" transform="translate(-56.79 -60.77)"/><path class="cls-1" d="M404.58,182a23.05,23.05,0,0,1-3.36,2.6c-7.46,3.87-14.92,7.75-22.5,11.35-1.3.61-3.22-.1-4.85-.2.84-1.38,1.35-3.36,2.58-4q11.32-6.14,23-11.7c1.34-.64,3.26-.09,4.91-.09Z" transform="translate(-56.79 -60.77)"/><path class="cls-2" d="M203.29,244.92c7-6.3,9.22-14.62,10.07-23.54.31-3.3.4-6.68,1.29-9.83.34-1.2,2.57-2.34,4.09-2.62,3.86-.71,7.89-.59,11.71-1.45,1.86-.42,3.4-2.27,5.08-3.47-1.71-.88-3.41-2.48-5.14-2.52-10.69-.27-21.4-.52-32.09-.15C181,202,164,204.68,147.65,211a27.35,27.35,0,0,0-3.57,1.66c-.43.24-.67.85-1.74,2.3,4,.52,7.32.9,10.64,1.39,6.82,1,8.23,2.66,5.38,8.75-8.18,17.49-16.76,34.78-25.49,52-.71,1.4-3.84,2.35-5.69,2.14-1.34-.15-3.17-2.4-3.51-4-4.48-21-3.1-41.82,3.24-62.28,17.83-57.57,75.49-94.5,135.38-86.81,79.06,10.14,128.87,89.13,103.76,164.53-20.21,60.69-82.7,96.14-145.76,82.82a123.35,123.35,0,0,1-59.16-30.8,29.27,29.27,0,0,1-2.34-2.41c-.2-.23-.11-.7-.26-1.84,2.27-.26,4.56-.64,6.86-.78q74.5-4.58,149-9.14c10.16-.63,19.62-3.54,27.51-10.19,2-1.65,2.92-4.5,4.34-6.8-2.47-1.42-4.93-4.05-7.41-4.07-15-.11-30-.34-44.94.92-10.14.86-20,4.74-30.12,6-9.64,1.24-19.48.95-29.23,1.15-1.9,0-3.82-.71-5.73-1.1l-.28-2.09c2.95-.74,5.86-1.72,8.85-2.17,8.15-1.24,16.5-1.58,24.47-3.48,24.81-5.93,42-21.88,53.78-43.73,6.12-11.35,11-23.43,15.86-35.39,1.86-4.55,4-6.87,9.09-6,3.37.6,7.21,0,7.33-3.92.05-1.76-3.48-4.78-5.8-5.25-12-2.46-23.64-.94-34,5.91-3.16,2.09-5.45,5.49-8.14,8.29l1.12,1.83c2.67-.17,5.36-.65,8-.42,2.78.25,6.8.34,7.91,2,1.22,1.87.51,5.88-.69,8.3-5.72,11.51-15.35,19.44-26.3,25.45A78,78,0,0,1,270,271c-8.7,2-11.73-.77-12.56-9.4-.12-1.27-.78-2.49-1-3.76-.65-3.38-1-6.83-1.87-10.14-.73-2.71-1.38-6.38-3.32-7.57s-6.34-1-8.18.48-1.89,5.16-2.24,7.94a54,54,0,0,0,.1,7.8c-2.31-1.63-5-2.92-6.84-5-3.66-4.13-7.84-4.95-14.37-3.48,6.34,4.67,11.44,9,17.06,12.39,3.45,2.11,4.46,4.18,2.93,7.74a18.2,18.2,0,0,0-1.56,4.21c-1.71,11.08-15.63,12-21.67,5s-10.87-15.17-16-23c-.54-.82.24-2.67.67-3.95.64-1.9,1.52-3.72,2.3-5.57Z" transform="translate(-56.79 -60.77)"/><path class="cls-2" d="M203.44,244.8l-2.78-2.12c-.19,1.48-.34,3.14-.64,4.77a18.79,18.79,0,0,1-1.4,3.06c-5.42-9.19-13.45-16.15-12.57-27.2.25-3.1,2-6.3,3.77-8.94.65-1,4-1.21,5.27-.41,3.78,2.47,7.08,5.67,10.68,8.43.78.6,2.05.58,4.2,1.12l-12.33-13.36c4.84-.6,8-1.18,11.15-1.26.76,0,2.12,1.49,2.27,2.45,2,12.22-1.67,23.18-7.76,33.57Z" transform="translate(-56.79 -60.77)"/><path class="cls-2" d="M167.68,236.66c.4,14.83-14.62,43.77-32.45,41.68C146.52,264.4,154.23,248.33,167.68,236.66Z" transform="translate(-56.79 -60.77)"/><path class="cls-2" d="M189.85,250.31,211.27,280l-.85,1.15c-6.51-1.33-13-2.58-19.52-4.06a5.5,5.5,0,0,1-3-2.29C184.5,269.52,185.4,256.1,189.85,250.31Z" transform="translate(-56.79 -60.77)"/><path class="cls-2" d="M144,260.17c5.93-10.68,11.81-21.39,17.9-32,.49-.84,2.44-.84,3.71-1.24.06,1.71.83,3.87.07,5.06-3.63,5.66-7.68,11-11.57,16.54q-4.41,6.22-8.79,12.46Z" transform="translate(-56.79 -60.77)"/><path class="cls-2" d="M175.72,209.38c2,2.45,4.1,4.1,3.82,4.9-.91,2.56-2.7,4.81-4.16,7.18-1.79-1.49-5.28-3.45-5-4.38C171,214.6,173.33,212.57,175.72,209.38Z" transform="translate(-56.79 -60.77)"/><path class="cls-2" d="M128.15,142c8.14.09,15.16,5.61,15.2,11.94s-6.21,11.62-14,11.62c-8.28,0-15.47-5.7-15.52-12.3C113.83,147.09,120.38,141.92,128.15,142Z" transform="translate(-56.79 -60.77)"/><path class="cls-2" d="M112,302.62H88.53l-.63-1.43,17.52-14.44Z" transform="translate(-56.79 -60.77)"/><path class="cls-2" d="M376.93,166.15c-4.47-3.17-9-6.23-13.32-9.65-.59-.47-.24-3.16.54-4.09,1.54-1.83,3.71-3.13,5.59-4.69,6.29-5.23,7.52-5.07,11.64,2.23a27.37,27.37,0,0,1,3.1,7.78C385.46,162.5,382.66,165.29,376.93,166.15Z" transform="translate(-56.79 -60.77)"/></svg>